<?xml version="1.0" encoding="utf-8" standalone="no"?>
<!DOCTYPE svg PUBLIC "-//W3C//DTD SVG 1.1//EN"
  "http://www.w3.org/Graphics/SVG/1.1/DTD/svg11.dtd">
<!-- Created with matplotlib (https://matplotlib.org/) -->
<svg height="420.710625pt" version="1.1" viewBox="0 0 567.828125 420.710625" width="567.828125pt" xmlns="http://www.w3.org/2000/svg" xmlns:xlink="http://www.w3.org/1999/xlink">
 <metadata>
  <rdf:RDF xmlns:cc="http://creativecommons.org/ns#" xmlns:dc="http://purl.org/dc/elements/1.1/" xmlns:rdf="http://www.w3.org/1999/02/22-rdf-syntax-ns#">
   <cc:Work>
    <dc:type rdf:resource="http://purl.org/dc/dcmitype/StillImage"/>
    <dc:date>2021-03-17T19:54:23.349809</dc:date>
    <dc:format>image/svg+xml</dc:format>
    <dc:creator>
     <cc:Agent>
      <dc:title>Matplotlib v3.3.4, https://matplotlib.org/</dc:title>
     </cc:Agent>
    </dc:creator>
   </cc:Work>
  </rdf:RDF>
 </metadata>
 <defs>
  <style type="text/css">*{stroke-linecap:butt;stroke-linejoin:round;}</style>
 </defs>
 <g id="figure_1">
  <g id="patch_1">
   <path d="M 0 420.710625 
L 567.828125 420.710625 
L 567.828125 0 
L 0 0 
z
" style="fill:#ffffff;"/>
  </g>
  <g id="axes_1">
   <g id="patch_2">
    <path d="M 47.30625 387.72 
L 549.50625 387.72 
L 549.50625 7.2 
L 47.30625 7.2 
z
" style="fill:#ffffff;"/>
   </g>
   <g id="matplotlib.axis_1">
    <g id="xtick_1">
     <g id="line2d_1">
      <path clip-path="url(#pb7333fe83d)" d="M 47.30625 387.72 
L 47.30625 7.2 
" style="fill:none;stroke:#cccccc;stroke-linecap:round;stroke-width:0.8;"/>
     </g>
     <g id="line2d_2"/>
     <g id="text_1">
      <!-- 2020 -->
      <g style="fill:#262626;" transform="translate(36.184375 398.377812)scale(0.1 -0.1)">
       <defs>
        <path d="M 50.34375 8.453125 
L 50.34375 0 
L 3.03125 0 
Q 2.9375 3.171875 4.046875 6.109375 
Q 5.859375 10.9375 9.828125 15.625 
Q 13.8125 20.3125 21.34375 26.46875 
Q 33.015625 36.03125 37.109375 41.625 
Q 41.21875 47.21875 41.21875 52.203125 
Q 41.21875 57.421875 37.46875 61 
Q 33.734375 64.59375 27.734375 64.59375 
Q 21.390625 64.59375 17.578125 60.78125 
Q 13.765625 56.984375 13.71875 50.25 
L 4.6875 51.171875 
Q 5.609375 61.28125 11.65625 66.578125 
Q 17.71875 71.875 27.9375 71.875 
Q 38.234375 71.875 44.234375 66.15625 
Q 50.25 60.453125 50.25 52 
Q 50.25 47.703125 48.484375 43.546875 
Q 46.734375 39.40625 42.65625 34.8125 
Q 38.578125 30.21875 29.109375 22.21875 
Q 21.1875 15.578125 18.9375 13.203125 
Q 16.703125 10.84375 15.234375 8.453125 
z
" id="ArialMT-50"/>
        <path d="M 4.15625 35.296875 
Q 4.15625 48 6.765625 55.734375 
Q 9.375 63.484375 14.515625 67.671875 
Q 19.671875 71.875 27.484375 71.875 
Q 33.25 71.875 37.59375 69.546875 
Q 41.9375 67.234375 44.765625 62.859375 
Q 47.609375 58.5 49.21875 52.21875 
Q 50.828125 45.953125 50.828125 35.296875 
Q 50.828125 22.703125 48.234375 14.96875 
Q 45.65625 7.234375 40.5 3 
Q 35.359375 -1.21875 27.484375 -1.21875 
Q 17.140625 -1.21875 11.234375 6.203125 
Q 4.15625 15.140625 4.15625 35.296875 
z
M 13.1875 35.296875 
Q 13.1875 17.671875 17.3125 11.828125 
Q 21.4375 6 27.484375 6 
Q 33.546875 6 37.671875 11.859375 
Q 41.796875 17.71875 41.796875 35.296875 
Q 41.796875 52.984375 37.671875 58.78125 
Q 33.546875 64.59375 27.390625 64.59375 
Q 21.34375 64.59375 17.71875 59.46875 
Q 13.1875 52.9375 13.1875 35.296875 
z
" id="ArialMT-48"/>
       </defs>
       <use xlink:href="#ArialMT-50"/>
       <use x="55.615234" xlink:href="#ArialMT-48"/>
       <use x="111.230469" xlink:href="#ArialMT-50"/>
       <use x="166.845703" xlink:href="#ArialMT-48"/>
      </g>
     </g>
    </g>
    <g id="xtick_2">
     <g id="line2d_3">
      <path clip-path="url(#pb7333fe83d)" d="M 110.08125 387.72 
L 110.08125 7.2 
" style="fill:none;stroke:#cccccc;stroke-linecap:round;stroke-width:0.8;"/>
     </g>
     <g id="line2d_4"/>
     <g id="text_2">
      <!-- 2030 -->
      <g style="fill:#262626;" transform="translate(98.959375 398.377812)scale(0.1 -0.1)">
       <defs>
        <path d="M 4.203125 18.890625 
L 12.984375 20.0625 
Q 14.5 12.59375 18.140625 9.296875 
Q 21.78125 6 27 6 
Q 33.203125 6 37.46875 10.296875 
Q 41.75 14.59375 41.75 20.953125 
Q 41.75 27 37.796875 30.921875 
Q 33.84375 34.859375 27.734375 34.859375 
Q 25.25 34.859375 21.53125 33.890625 
L 22.515625 41.609375 
Q 23.390625 41.5 23.921875 41.5 
Q 29.546875 41.5 34.03125 44.421875 
Q 38.53125 47.359375 38.53125 53.46875 
Q 38.53125 58.296875 35.25 61.46875 
Q 31.984375 64.65625 26.8125 64.65625 
Q 21.6875 64.65625 18.265625 61.421875 
Q 14.84375 58.203125 13.875 51.765625 
L 5.078125 53.328125 
Q 6.6875 62.15625 12.390625 67.015625 
Q 18.109375 71.875 26.609375 71.875 
Q 32.46875 71.875 37.390625 69.359375 
Q 42.328125 66.84375 44.9375 62.5 
Q 47.5625 58.15625 47.5625 53.265625 
Q 47.5625 48.640625 45.0625 44.828125 
Q 42.578125 41.015625 37.703125 38.765625 
Q 44.046875 37.3125 47.5625 32.6875 
Q 51.078125 28.078125 51.078125 21.140625 
Q 51.078125 11.765625 44.234375 5.25 
Q 37.40625 -1.265625 26.953125 -1.265625 
Q 17.53125 -1.265625 11.296875 4.34375 
Q 5.078125 9.96875 4.203125 18.890625 
z
" id="ArialMT-51"/>
       </defs>
       <use xlink:href="#ArialMT-50"/>
       <use x="55.615234" xlink:href="#ArialMT-48"/>
       <use x="111.230469" xlink:href="#ArialMT-51"/>
       <use x="166.845703" xlink:href="#ArialMT-48"/>
      </g>
     </g>
    </g>
    <g id="xtick_3">
     <g id="line2d_5">
      <path clip-path="url(#pb7333fe83d)" d="M 172.85625 387.72 
L 172.85625 7.2 
" style="fill:none;stroke:#cccccc;stroke-linecap:round;stroke-width:0.8;"/>
     </g>
     <g id="line2d_6"/>
     <g id="text_3">
      <!-- 2040 -->
      <g style="fill:#262626;" transform="translate(161.734375 398.377812)scale(0.1 -0.1)">
       <defs>
        <path d="M 32.328125 0 
L 32.328125 17.140625 
L 1.265625 17.140625 
L 1.265625 25.203125 
L 33.9375 71.578125 
L 41.109375 71.578125 
L 41.109375 25.203125 
L 50.78125 25.203125 
L 50.78125 17.140625 
L 41.109375 17.140625 
L 41.109375 0 
z
M 32.328125 25.203125 
L 32.328125 57.46875 
L 9.90625 25.203125 
z
" id="ArialMT-52"/>
       </defs>
       <use xlink:href="#ArialMT-50"/>
       <use x="55.615234" xlink:href="#ArialMT-48"/>
       <use x="111.230469" xlink:href="#ArialMT-52"/>
       <use x="166.845703" xlink:href="#ArialMT-48"/>
      </g>
     </g>
    </g>
    <g id="xtick_4">
     <g id="line2d_7">
      <path clip-path="url(#pb7333fe83d)" d="M 235.63125 387.72 
L 235.63125 7.2 
" style="fill:none;stroke:#cccccc;stroke-linecap:round;stroke-width:0.8;"/>
     </g>
     <g id="line2d_8"/>
     <g id="text_4">
      <!-- 2050 -->
      <g style="fill:#262626;" transform="translate(224.509375 398.377812)scale(0.1 -0.1)">
       <defs>
        <path d="M 4.15625 18.75 
L 13.375 19.53125 
Q 14.40625 12.796875 18.140625 9.390625 
Q 21.875 6 27.15625 6 
Q 33.5 6 37.890625 10.78125 
Q 42.28125 15.578125 42.28125 23.484375 
Q 42.28125 31 38.0625 35.34375 
Q 33.84375 39.703125 27 39.703125 
Q 22.75 39.703125 19.328125 37.765625 
Q 15.921875 35.84375 13.96875 32.765625 
L 5.71875 33.84375 
L 12.640625 70.609375 
L 48.25 70.609375 
L 48.25 62.203125 
L 19.671875 62.203125 
L 15.828125 42.96875 
Q 22.265625 47.46875 29.34375 47.46875 
Q 38.71875 47.46875 45.15625 40.96875 
Q 51.609375 34.46875 51.609375 24.265625 
Q 51.609375 14.546875 45.953125 7.46875 
Q 39.0625 -1.21875 27.15625 -1.21875 
Q 17.390625 -1.21875 11.203125 4.25 
Q 5.03125 9.71875 4.15625 18.75 
z
" id="ArialMT-53"/>
       </defs>
       <use xlink:href="#ArialMT-50"/>
       <use x="55.615234" xlink:href="#ArialMT-48"/>
       <use x="111.230469" xlink:href="#ArialMT-53"/>
       <use x="166.845703" xlink:href="#ArialMT-48"/>
      </g>
     </g>
    </g>
    <g id="xtick_5">
     <g id="line2d_9">
      <path clip-path="url(#pb7333fe83d)" d="M 298.40625 387.72 
L 298.40625 7.2 
" style="fill:none;stroke:#cccccc;stroke-linecap:round;stroke-width:0.8;"/>
     </g>
     <g id="line2d_10"/>
     <g id="text_5">
      <!-- 2060 -->
      <g style="fill:#262626;" transform="translate(287.284375 398.377812)scale(0.1 -0.1)">
       <defs>
        <path d="M 49.75 54.046875 
L 41.015625 53.375 
Q 39.84375 58.546875 37.703125 60.890625 
Q 34.125 64.65625 28.90625 64.65625 
Q 24.703125 64.65625 21.53125 62.3125 
Q 17.390625 59.28125 14.984375 53.46875 
Q 12.59375 47.65625 12.5 36.921875 
Q 15.671875 41.75 20.265625 44.09375 
Q 24.859375 46.4375 29.890625 46.4375 
Q 38.671875 46.4375 44.84375 39.96875 
Q 51.03125 33.5 51.03125 23.25 
Q 51.03125 16.5 48.125 10.71875 
Q 45.21875 4.9375 40.140625 1.859375 
Q 35.0625 -1.21875 28.609375 -1.21875 
Q 17.625 -1.21875 10.6875 6.859375 
Q 3.765625 14.9375 3.765625 33.5 
Q 3.765625 54.25 11.421875 63.671875 
Q 18.109375 71.875 29.4375 71.875 
Q 37.890625 71.875 43.28125 67.140625 
Q 48.6875 62.40625 49.75 54.046875 
z
M 13.875 23.1875 
Q 13.875 18.65625 15.796875 14.5 
Q 17.71875 10.359375 21.1875 8.171875 
Q 24.65625 6 28.46875 6 
Q 34.03125 6 38.03125 10.484375 
Q 42.046875 14.984375 42.046875 22.703125 
Q 42.046875 30.125 38.078125 34.390625 
Q 34.125 38.671875 28.125 38.671875 
Q 22.171875 38.671875 18.015625 34.390625 
Q 13.875 30.125 13.875 23.1875 
z
" id="ArialMT-54"/>
       </defs>
       <use xlink:href="#ArialMT-50"/>
       <use x="55.615234" xlink:href="#ArialMT-48"/>
       <use x="111.230469" xlink:href="#ArialMT-54"/>
       <use x="166.845703" xlink:href="#ArialMT-48"/>
      </g>
     </g>
    </g>
    <g id="xtick_6">
     <g id="line2d_11">
      <path clip-path="url(#pb7333fe83d)" d="M 361.18125 387.72 
L 361.18125 7.2 
" style="fill:none;stroke:#cccccc;stroke-linecap:round;stroke-width:0.8;"/>
     </g>
     <g id="line2d_12"/>
     <g id="text_6">
      <!-- 2070 -->
      <g style="fill:#262626;" transform="translate(350.059375 398.377812)scale(0.1 -0.1)">
       <defs>
        <path d="M 4.734375 62.203125 
L 4.734375 70.65625 
L 51.078125 70.65625 
L 51.078125 63.8125 
Q 44.234375 56.546875 37.515625 44.484375 
Q 30.8125 32.421875 27.15625 19.671875 
Q 24.515625 10.6875 23.78125 0 
L 14.75 0 
Q 14.890625 8.453125 18.0625 20.40625 
Q 21.234375 32.375 27.171875 43.484375 
Q 33.109375 54.59375 39.796875 62.203125 
z
" id="ArialMT-55"/>
       </defs>
       <use xlink:href="#ArialMT-50"/>
       <use x="55.615234" xlink:href="#ArialMT-48"/>
       <use x="111.230469" xlink:href="#ArialMT-55"/>
       <use x="166.845703" xlink:href="#ArialMT-48"/>
      </g>
     </g>
    </g>
    <g id="xtick_7">
     <g id="line2d_13">
      <path clip-path="url(#pb7333fe83d)" d="M 423.95625 387.72 
L 423.95625 7.2 
" style="fill:none;stroke:#cccccc;stroke-linecap:round;stroke-width:0.8;"/>
     </g>
     <g id="line2d_14"/>
     <g id="text_7">
      <!-- 2080 -->
      <g style="fill:#262626;" transform="translate(412.834375 398.377812)scale(0.1 -0.1)">
       <defs>
        <path d="M 17.671875 38.8125 
Q 12.203125 40.828125 9.5625 44.53125 
Q 6.9375 48.25 6.9375 53.421875 
Q 6.9375 61.234375 12.546875 66.546875 
Q 18.171875 71.875 27.484375 71.875 
Q 36.859375 71.875 42.578125 66.421875 
Q 48.296875 60.984375 48.296875 53.171875 
Q 48.296875 48.1875 45.671875 44.5 
Q 43.0625 40.828125 37.75 38.8125 
Q 44.34375 36.671875 47.78125 31.875 
Q 51.21875 27.09375 51.21875 20.453125 
Q 51.21875 11.28125 44.71875 5.03125 
Q 38.234375 -1.21875 27.640625 -1.21875 
Q 17.046875 -1.21875 10.546875 5.046875 
Q 4.046875 11.328125 4.046875 20.703125 
Q 4.046875 27.6875 7.59375 32.390625 
Q 11.140625 37.109375 17.671875 38.8125 
z
M 15.921875 53.71875 
Q 15.921875 48.640625 19.1875 45.40625 
Q 22.46875 42.1875 27.6875 42.1875 
Q 32.765625 42.1875 36.015625 45.375 
Q 39.265625 48.578125 39.265625 53.21875 
Q 39.265625 58.0625 35.90625 61.359375 
Q 32.5625 64.65625 27.59375 64.65625 
Q 22.5625 64.65625 19.234375 61.421875 
Q 15.921875 58.203125 15.921875 53.71875 
z
M 13.09375 20.65625 
Q 13.09375 16.890625 14.875 13.375 
Q 16.65625 9.859375 20.171875 7.921875 
Q 23.6875 6 27.734375 6 
Q 34.03125 6 38.125 10.046875 
Q 42.234375 14.109375 42.234375 20.359375 
Q 42.234375 26.703125 38.015625 30.859375 
Q 33.796875 35.015625 27.4375 35.015625 
Q 21.234375 35.015625 17.15625 30.90625 
Q 13.09375 26.8125 13.09375 20.65625 
z
" id="ArialMT-56"/>
       </defs>
       <use xlink:href="#ArialMT-50"/>
       <use x="55.615234" xlink:href="#ArialMT-48"/>
       <use x="111.230469" xlink:href="#ArialMT-56"/>
       <use x="166.845703" xlink:href="#ArialMT-48"/>
      </g>
     </g>
    </g>
    <g id="xtick_8">
     <g id="line2d_15">
      <path clip-path="url(#pb7333fe83d)" d="M 486.73125 387.72 
L 486.73125 7.2 
" style="fill:none;stroke:#cccccc;stroke-linecap:round;stroke-width:0.8;"/>
     </g>
     <g id="line2d_16"/>
     <g id="text_8">
      <!-- 2090 -->
      <g style="fill:#262626;" transform="translate(475.609375 398.377812)scale(0.1 -0.1)">
       <defs>
        <path d="M 5.46875 16.546875 
L 13.921875 17.328125 
Q 14.984375 11.375 18.015625 8.6875 
Q 21.046875 6 25.78125 6 
Q 29.828125 6 32.875 7.859375 
Q 35.9375 9.71875 37.890625 12.8125 
Q 39.84375 15.921875 41.15625 21.1875 
Q 42.484375 26.46875 42.484375 31.9375 
Q 42.484375 32.515625 42.4375 33.6875 
Q 39.796875 29.5 35.234375 26.875 
Q 30.671875 24.265625 25.34375 24.265625 
Q 16.453125 24.265625 10.296875 30.703125 
Q 4.15625 37.15625 4.15625 47.703125 
Q 4.15625 58.59375 10.578125 65.234375 
Q 17 71.875 26.65625 71.875 
Q 33.640625 71.875 39.421875 68.109375 
Q 45.21875 64.359375 48.21875 57.390625 
Q 51.21875 50.4375 51.21875 37.25 
Q 51.21875 23.53125 48.234375 15.40625 
Q 45.265625 7.28125 39.375 3.03125 
Q 33.5 -1.21875 25.59375 -1.21875 
Q 17.1875 -1.21875 11.859375 3.4375 
Q 6.546875 8.109375 5.46875 16.546875 
z
M 41.453125 48.140625 
Q 41.453125 55.71875 37.421875 60.15625 
Q 33.40625 64.59375 27.734375 64.59375 
Q 21.875 64.59375 17.53125 59.8125 
Q 13.1875 55.03125 13.1875 47.40625 
Q 13.1875 40.578125 17.3125 36.296875 
Q 21.4375 32.03125 27.484375 32.03125 
Q 33.59375 32.03125 37.515625 36.296875 
Q 41.453125 40.578125 41.453125 48.140625 
z
" id="ArialMT-57"/>
       </defs>
       <use xlink:href="#ArialMT-50"/>
       <use x="55.615234" xlink:href="#ArialMT-48"/>
       <use x="111.230469" xlink:href="#ArialMT-57"/>
       <use x="166.845703" xlink:href="#ArialMT-48"/>
      </g>
     </g>
    </g>
    <g id="xtick_9">
     <g id="line2d_17">
      <path clip-path="url(#pb7333fe83d)" d="M 549.50625 387.72 
L 549.50625 7.2 
" style="fill:none;stroke:#cccccc;stroke-linecap:round;stroke-width:0.8;"/>
     </g>
     <g id="line2d_18"/>
     <g id="text_9">
      <!-- 2100 -->
      <g style="fill:#262626;" transform="translate(538.384375 398.377812)scale(0.1 -0.1)">
       <defs>
        <path d="M 37.25 0 
L 28.46875 0 
L 28.46875 56 
Q 25.296875 52.984375 20.140625 49.953125 
Q 14.984375 46.921875 10.890625 45.40625 
L 10.890625 53.90625 
Q 18.265625 57.375 23.78125 62.296875 
Q 29.296875 67.234375 31.59375 71.875 
L 37.25 71.875 
z
" id="ArialMT-49"/>
       </defs>
       <use xlink:href="#ArialMT-50"/>
       <use x="55.615234" xlink:href="#ArialMT-49"/>
       <use x="111.230469" xlink:href="#ArialMT-48"/>
       <use x="166.845703" xlink:href="#ArialMT-48"/>
      </g>
     </g>
    </g>
    <g id="text_10">
     <!-- Year -->
     <g style="fill:#262626;" transform="translate(288.301562 411.523125)scale(0.1 -0.1)">
      <defs>
       <path d="M 27.875 0 
L 27.875 30.328125 
L 0.296875 71.578125 
L 11.8125 71.578125 
L 25.921875 50 
Q 29.828125 43.953125 33.203125 37.890625 
Q 36.421875 43.5 41.015625 50.53125 
L 54.890625 71.578125 
L 65.921875 71.578125 
L 37.359375 30.328125 
L 37.359375 0 
z
" id="ArialMT-89"/>
       <path d="M 42.09375 16.703125 
L 51.171875 15.578125 
Q 49.03125 7.625 43.21875 3.21875 
Q 37.40625 -1.171875 28.375 -1.171875 
Q 17 -1.171875 10.328125 5.828125 
Q 3.65625 12.84375 3.65625 25.484375 
Q 3.65625 38.578125 10.390625 45.796875 
Q 17.140625 53.03125 27.875 53.03125 
Q 38.28125 53.03125 44.875 45.953125 
Q 51.46875 38.875 51.46875 26.03125 
Q 51.46875 25.25 51.421875 23.6875 
L 12.75 23.6875 
Q 13.234375 15.140625 17.578125 10.59375 
Q 21.921875 6.0625 28.421875 6.0625 
Q 33.25 6.0625 36.671875 8.59375 
Q 40.09375 11.140625 42.09375 16.703125 
z
M 13.234375 30.90625 
L 42.1875 30.90625 
Q 41.609375 37.453125 38.875 40.71875 
Q 34.671875 45.796875 27.984375 45.796875 
Q 21.921875 45.796875 17.796875 41.75 
Q 13.671875 37.703125 13.234375 30.90625 
z
" id="ArialMT-101"/>
       <path d="M 40.4375 6.390625 
Q 35.546875 2.25 31.03125 0.53125 
Q 26.515625 -1.171875 21.34375 -1.171875 
Q 12.796875 -1.171875 8.203125 3 
Q 3.609375 7.171875 3.609375 13.671875 
Q 3.609375 17.484375 5.34375 20.625 
Q 7.078125 23.78125 9.890625 25.6875 
Q 12.703125 27.59375 16.21875 28.5625 
Q 18.796875 29.25 24.03125 29.890625 
Q 34.671875 31.15625 39.703125 32.90625 
Q 39.75 34.71875 39.75 35.203125 
Q 39.75 40.578125 37.25 42.78125 
Q 33.890625 45.75 27.25 45.75 
Q 21.046875 45.75 18.09375 43.578125 
Q 15.140625 41.40625 13.71875 35.890625 
L 5.125 37.0625 
Q 6.296875 42.578125 8.984375 45.96875 
Q 11.671875 49.359375 16.75 51.1875 
Q 21.828125 53.03125 28.515625 53.03125 
Q 35.15625 53.03125 39.296875 51.46875 
Q 43.453125 49.90625 45.40625 47.53125 
Q 47.359375 45.171875 48.140625 41.546875 
Q 48.578125 39.3125 48.578125 33.453125 
L 48.578125 21.734375 
Q 48.578125 9.46875 49.140625 6.21875 
Q 49.703125 2.984375 51.375 0 
L 42.1875 0 
Q 40.828125 2.734375 40.4375 6.390625 
z
M 39.703125 26.03125 
Q 34.90625 24.078125 25.34375 22.703125 
Q 19.921875 21.921875 17.671875 20.9375 
Q 15.4375 19.96875 14.203125 18.09375 
Q 12.984375 16.21875 12.984375 13.921875 
Q 12.984375 10.40625 15.640625 8.0625 
Q 18.3125 5.71875 23.4375 5.71875 
Q 28.515625 5.71875 32.46875 7.9375 
Q 36.421875 10.15625 38.28125 14.015625 
Q 39.703125 17 39.703125 22.796875 
z
" id="ArialMT-97"/>
       <path d="M 6.5 0 
L 6.5 51.859375 
L 14.40625 51.859375 
L 14.40625 44 
Q 17.4375 49.515625 20 51.265625 
Q 22.5625 53.03125 25.640625 53.03125 
Q 30.078125 53.03125 34.671875 50.203125 
L 31.640625 42.046875 
Q 28.421875 43.953125 25.203125 43.953125 
Q 22.3125 43.953125 20.015625 42.21875 
Q 17.71875 40.484375 16.75 37.40625 
Q 15.28125 32.71875 15.28125 27.15625 
L 15.28125 0 
z
" id="ArialMT-114"/>
      </defs>
      <use xlink:href="#ArialMT-89"/>
      <use x="57.574219" xlink:href="#ArialMT-101"/>
      <use x="113.189453" xlink:href="#ArialMT-97"/>
      <use x="168.804688" xlink:href="#ArialMT-114"/>
     </g>
    </g>
   </g>
   <g id="matplotlib.axis_2">
    <g id="ytick_1">
     <g id="line2d_19">
      <path clip-path="url(#pb7333fe83d)" d="M 47.30625 356.01 
L 549.50625 356.01 
" style="fill:none;stroke:#cccccc;stroke-linecap:round;stroke-width:0.8;"/>
     </g>
     <g id="line2d_20"/>
     <g id="text_11">
      <!-- -10% -->
      <g style="fill:#262626;" transform="translate(20.4625 359.588906)scale(0.1 -0.1)">
       <defs>
        <path d="M 3.171875 21.484375 
L 3.171875 30.328125 
L 30.171875 30.328125 
L 30.171875 21.484375 
z
" id="ArialMT-45"/>
        <path d="M 5.8125 54.390625 
Q 5.8125 62.0625 9.671875 67.421875 
Q 13.53125 72.796875 20.84375 72.796875 
Q 27.59375 72.796875 32 67.984375 
Q 36.421875 63.1875 36.421875 53.859375 
Q 36.421875 44.78125 31.953125 39.875 
Q 27.484375 34.96875 20.953125 34.96875 
Q 14.453125 34.96875 10.125 39.796875 
Q 5.8125 44.625 5.8125 54.390625 
z
M 21.09375 66.75 
Q 17.828125 66.75 15.65625 63.90625 
Q 13.484375 61.078125 13.484375 53.515625 
Q 13.484375 46.625 15.671875 43.8125 
Q 17.875 41.015625 21.09375 41.015625 
Q 24.421875 41.015625 26.59375 43.84375 
Q 28.765625 46.6875 28.765625 54.203125 
Q 28.765625 61.140625 26.5625 63.9375 
Q 24.359375 66.75 21.09375 66.75 
z
M 21.140625 -2.640625 
L 60.296875 72.796875 
L 67.4375 72.796875 
L 28.421875 -2.640625 
z
M 52.09375 16.796875 
Q 52.09375 24.515625 55.953125 29.859375 
Q 59.8125 35.203125 67.1875 35.203125 
Q 73.921875 35.203125 78.34375 30.390625 
Q 82.765625 25.59375 82.765625 16.265625 
Q 82.765625 7.171875 78.296875 2.265625 
Q 73.828125 -2.640625 67.234375 -2.640625 
Q 60.75 -2.640625 56.421875 2.21875 
Q 52.09375 7.078125 52.09375 16.796875 
z
M 67.4375 29.15625 
Q 64.109375 29.15625 61.9375 26.3125 
Q 59.765625 23.484375 59.765625 15.921875 
Q 59.765625 9.078125 61.953125 6.25 
Q 64.15625 3.421875 67.390625 3.421875 
Q 70.75 3.421875 72.921875 6.25 
Q 75.09375 9.078125 75.09375 16.609375 
Q 75.09375 23.53125 72.890625 26.34375 
Q 70.703125 29.15625 67.4375 29.15625 
z
" id="ArialMT-37"/>
       </defs>
       <use xlink:href="#ArialMT-45"/>
       <use x="33.300781" xlink:href="#ArialMT-49"/>
       <use x="88.916016" xlink:href="#ArialMT-48"/>
       <use x="144.53125" xlink:href="#ArialMT-37"/>
      </g>
     </g>
    </g>
    <g id="ytick_2">
     <g id="line2d_21">
      <path clip-path="url(#pb7333fe83d)" d="M 47.30625 324.3 
L 549.50625 324.3 
" style="fill:none;stroke:#cccccc;stroke-linecap:round;stroke-width:0.8;"/>
     </g>
     <g id="line2d_22"/>
     <g id="text_12">
      <!-- -8% -->
      <g style="fill:#262626;" transform="translate(26.023438 327.878906)scale(0.1 -0.1)">
       <use xlink:href="#ArialMT-45"/>
       <use x="33.300781" xlink:href="#ArialMT-56"/>
       <use x="88.916016" xlink:href="#ArialMT-37"/>
      </g>
     </g>
    </g>
    <g id="ytick_3">
     <g id="line2d_23">
      <path clip-path="url(#pb7333fe83d)" d="M 47.30625 292.59 
L 549.50625 292.59 
" style="fill:none;stroke:#cccccc;stroke-linecap:round;stroke-width:0.8;"/>
     </g>
     <g id="line2d_24"/>
     <g id="text_13">
      <!-- -6% -->
      <g style="fill:#262626;" transform="translate(26.023438 296.168906)scale(0.1 -0.1)">
       <use xlink:href="#ArialMT-45"/>
       <use x="33.300781" xlink:href="#ArialMT-54"/>
       <use x="88.916016" xlink:href="#ArialMT-37"/>
      </g>
     </g>
    </g>
    <g id="ytick_4">
     <g id="line2d_25">
      <path clip-path="url(#pb7333fe83d)" d="M 47.30625 260.88 
L 549.50625 260.88 
" style="fill:none;stroke:#cccccc;stroke-linecap:round;stroke-width:0.8;"/>
     </g>
     <g id="line2d_26"/>
     <g id="text_14">
      <!-- -4% -->
      <g style="fill:#262626;" transform="translate(26.023438 264.458906)scale(0.1 -0.1)">
       <use xlink:href="#ArialMT-45"/>
       <use x="33.300781" xlink:href="#ArialMT-52"/>
       <use x="88.916016" xlink:href="#ArialMT-37"/>
      </g>
     </g>
    </g>
    <g id="ytick_5">
     <g id="line2d_27">
      <path clip-path="url(#pb7333fe83d)" d="M 47.30625 229.17 
L 549.50625 229.17 
" style="fill:none;stroke:#cccccc;stroke-linecap:round;stroke-width:0.8;"/>
     </g>
     <g id="line2d_28"/>
     <g id="text_15">
      <!-- -2% -->
      <g style="fill:#262626;" transform="translate(26.023438 232.748906)scale(0.1 -0.1)">
       <use xlink:href="#ArialMT-45"/>
       <use x="33.300781" xlink:href="#ArialMT-50"/>
       <use x="88.916016" xlink:href="#ArialMT-37"/>
      </g>
     </g>
    </g>
    <g id="ytick_6">
     <g id="line2d_29">
      <path clip-path="url(#pb7333fe83d)" d="M 47.30625 197.46 
L 549.50625 197.46 
" style="fill:none;stroke:#cccccc;stroke-linecap:round;stroke-width:0.8;"/>
     </g>
     <g id="line2d_30"/>
     <g id="text_16">
      <!-- 0% -->
      <g style="fill:#262626;" transform="translate(29.353125 201.038906)scale(0.1 -0.1)">
       <use xlink:href="#ArialMT-48"/>
       <use x="55.615234" xlink:href="#ArialMT-37"/>
      </g>
     </g>
    </g>
    <g id="ytick_7">
     <g id="line2d_31">
      <path clip-path="url(#pb7333fe83d)" d="M 47.30625 165.75 
L 549.50625 165.75 
" style="fill:none;stroke:#cccccc;stroke-linecap:round;stroke-width:0.8;"/>
     </g>
     <g id="line2d_32"/>
     <g id="text_17">
      <!-- 2% -->
      <g style="fill:#262626;" transform="translate(29.353125 169.328906)scale(0.1 -0.1)">
       <use xlink:href="#ArialMT-50"/>
       <use x="55.615234" xlink:href="#ArialMT-37"/>
      </g>
     </g>
    </g>
    <g id="ytick_8">
     <g id="line2d_33">
      <path clip-path="url(#pb7333fe83d)" d="M 47.30625 134.04 
L 549.50625 134.04 
" style="fill:none;stroke:#cccccc;stroke-linecap:round;stroke-width:0.8;"/>
     </g>
     <g id="line2d_34"/>
     <g id="text_18">
      <!-- 4% -->
      <g style="fill:#262626;" transform="translate(29.353125 137.618906)scale(0.1 -0.1)">
       <use xlink:href="#ArialMT-52"/>
       <use x="55.615234" xlink:href="#ArialMT-37"/>
      </g>
     </g>
    </g>
    <g id="ytick_9">
     <g id="line2d_35">
      <path clip-path="url(#pb7333fe83d)" d="M 47.30625 102.33 
L 549.50625 102.33 
" style="fill:none;stroke:#cccccc;stroke-linecap:round;stroke-width:0.8;"/>
     </g>
     <g id="line2d_36"/>
     <g id="text_19">
      <!-- 6% -->
      <g style="fill:#262626;" transform="translate(29.353125 105.908906)scale(0.1 -0.1)">
       <use xlink:href="#ArialMT-54"/>
       <use x="55.615234" xlink:href="#ArialMT-37"/>
      </g>
     </g>
    </g>
    <g id="ytick_10">
     <g id="line2d_37">
      <path clip-path="url(#pb7333fe83d)" d="M 47.30625 70.62 
L 549.50625 70.62 
" style="fill:none;stroke:#cccccc;stroke-linecap:round;stroke-width:0.8;"/>
     </g>
     <g id="line2d_38"/>
     <g id="text_20">
      <!-- 8% -->
      <g style="fill:#262626;" transform="translate(29.353125 74.198906)scale(0.1 -0.1)">
       <use xlink:href="#ArialMT-56"/>
       <use x="55.615234" xlink:href="#ArialMT-37"/>
      </g>
     </g>
    </g>
    <g id="ytick_11">
     <g id="line2d_39">
      <path clip-path="url(#pb7333fe83d)" d="M 47.30625 38.91 
L 549.50625 38.91 
" style="fill:none;stroke:#cccccc;stroke-linecap:round;stroke-width:0.8;"/>
     </g>
     <g id="line2d_40"/>
     <g id="text_21">
      <!-- 10% -->
      <g style="fill:#262626;" transform="translate(23.792188 42.488906)scale(0.1 -0.1)">
       <use xlink:href="#ArialMT-49"/>
       <use x="55.615234" xlink:href="#ArialMT-48"/>
       <use x="111.230469" xlink:href="#ArialMT-37"/>
      </g>
     </g>
    </g>
    <g id="text_22">
     <!-- Annual growth -->
     <g style="fill:#262626;" transform="translate(14.357813 229.423281)rotate(-90)scale(0.1 -0.1)">
      <defs>
       <path d="M -0.140625 0 
L 27.34375 71.578125 
L 37.546875 71.578125 
L 66.84375 0 
L 56.0625 0 
L 47.703125 21.6875 
L 17.78125 21.6875 
L 9.90625 0 
z
M 20.515625 29.390625 
L 44.78125 29.390625 
L 37.3125 49.21875 
Q 33.890625 58.25 32.234375 64.0625 
Q 30.859375 57.171875 28.375 50.390625 
z
" id="ArialMT-65"/>
       <path d="M 6.59375 0 
L 6.59375 51.859375 
L 14.5 51.859375 
L 14.5 44.484375 
Q 20.21875 53.03125 31 53.03125 
Q 35.6875 53.03125 39.625 51.34375 
Q 43.5625 49.65625 45.515625 46.921875 
Q 47.46875 44.1875 48.25 40.4375 
Q 48.734375 37.984375 48.734375 31.890625 
L 48.734375 0 
L 39.9375 0 
L 39.9375 31.546875 
Q 39.9375 36.921875 38.90625 39.578125 
Q 37.890625 42.234375 35.28125 43.8125 
Q 32.671875 45.40625 29.15625 45.40625 
Q 23.53125 45.40625 19.453125 41.84375 
Q 15.375 38.28125 15.375 28.328125 
L 15.375 0 
z
" id="ArialMT-110"/>
       <path d="M 40.578125 0 
L 40.578125 7.625 
Q 34.515625 -1.171875 24.125 -1.171875 
Q 19.53125 -1.171875 15.546875 0.578125 
Q 11.578125 2.34375 9.640625 5 
Q 7.71875 7.671875 6.9375 11.53125 
Q 6.390625 14.109375 6.390625 19.734375 
L 6.390625 51.859375 
L 15.1875 51.859375 
L 15.1875 23.09375 
Q 15.1875 16.21875 15.71875 13.8125 
Q 16.546875 10.359375 19.234375 8.375 
Q 21.921875 6.390625 25.875 6.390625 
Q 29.828125 6.390625 33.296875 8.421875 
Q 36.765625 10.453125 38.203125 13.9375 
Q 39.65625 17.4375 39.65625 24.078125 
L 39.65625 51.859375 
L 48.4375 51.859375 
L 48.4375 0 
z
" id="ArialMT-117"/>
       <path d="M 6.390625 0 
L 6.390625 71.578125 
L 15.1875 71.578125 
L 15.1875 0 
z
" id="ArialMT-108"/>
       <path id="ArialMT-32"/>
       <path d="M 4.984375 -4.296875 
L 13.53125 -5.5625 
Q 14.0625 -9.515625 16.5 -11.328125 
Q 19.78125 -13.765625 25.4375 -13.765625 
Q 31.546875 -13.765625 34.859375 -11.328125 
Q 38.1875 -8.890625 39.359375 -4.5 
Q 40.046875 -1.8125 39.984375 6.78125 
Q 34.234375 0 25.640625 0 
Q 14.9375 0 9.078125 7.71875 
Q 3.21875 15.4375 3.21875 26.21875 
Q 3.21875 33.640625 5.90625 39.90625 
Q 8.59375 46.1875 13.6875 49.609375 
Q 18.796875 53.03125 25.6875 53.03125 
Q 34.859375 53.03125 40.828125 45.609375 
L 40.828125 51.859375 
L 48.921875 51.859375 
L 48.921875 7.03125 
Q 48.921875 -5.078125 46.453125 -10.125 
Q 44 -15.1875 38.640625 -18.109375 
Q 33.296875 -21.046875 25.484375 -21.046875 
Q 16.21875 -21.046875 10.5 -16.875 
Q 4.78125 -12.703125 4.984375 -4.296875 
z
M 12.25 26.859375 
Q 12.25 16.65625 16.296875 11.96875 
Q 20.359375 7.28125 26.46875 7.28125 
Q 32.515625 7.28125 36.609375 11.9375 
Q 40.71875 16.609375 40.71875 26.5625 
Q 40.71875 36.078125 36.5 40.90625 
Q 32.28125 45.75 26.3125 45.75 
Q 20.453125 45.75 16.34375 40.984375 
Q 12.25 36.234375 12.25 26.859375 
z
" id="ArialMT-103"/>
       <path d="M 3.328125 25.921875 
Q 3.328125 40.328125 11.328125 47.265625 
Q 18.015625 53.03125 27.640625 53.03125 
Q 38.328125 53.03125 45.109375 46.015625 
Q 51.90625 39.015625 51.90625 26.65625 
Q 51.90625 16.65625 48.90625 10.90625 
Q 45.90625 5.171875 40.15625 2 
Q 34.421875 -1.171875 27.640625 -1.171875 
Q 16.75 -1.171875 10.03125 5.8125 
Q 3.328125 12.796875 3.328125 25.921875 
z
M 12.359375 25.921875 
Q 12.359375 15.96875 16.703125 11.015625 
Q 21.046875 6.0625 27.640625 6.0625 
Q 34.1875 6.0625 38.53125 11.03125 
Q 42.875 16.015625 42.875 26.21875 
Q 42.875 35.84375 38.5 40.796875 
Q 34.125 45.75 27.640625 45.75 
Q 21.046875 45.75 16.703125 40.8125 
Q 12.359375 35.890625 12.359375 25.921875 
z
" id="ArialMT-111"/>
       <path d="M 16.15625 0 
L 0.296875 51.859375 
L 9.375 51.859375 
L 17.625 21.921875 
L 20.703125 10.796875 
Q 20.90625 11.625 23.390625 21.484375 
L 31.640625 51.859375 
L 40.671875 51.859375 
L 48.4375 21.78125 
L 51.03125 11.859375 
L 54 21.875 
L 62.890625 51.859375 
L 71.4375 51.859375 
L 55.21875 0 
L 46.09375 0 
L 37.84375 31.0625 
L 35.84375 39.890625 
L 25.34375 0 
z
" id="ArialMT-119"/>
       <path d="M 25.78125 7.859375 
L 27.046875 0.09375 
Q 23.34375 -0.6875 20.40625 -0.6875 
Q 15.625 -0.6875 12.984375 0.828125 
Q 10.359375 2.34375 9.28125 4.8125 
Q 8.203125 7.28125 8.203125 15.1875 
L 8.203125 45.015625 
L 1.765625 45.015625 
L 1.765625 51.859375 
L 8.203125 51.859375 
L 8.203125 64.703125 
L 16.9375 69.96875 
L 16.9375 51.859375 
L 25.78125 51.859375 
L 25.78125 45.015625 
L 16.9375 45.015625 
L 16.9375 14.703125 
Q 16.9375 10.9375 17.40625 9.859375 
Q 17.875 8.796875 18.921875 8.15625 
Q 19.96875 7.515625 21.921875 7.515625 
Q 23.390625 7.515625 25.78125 7.859375 
z
" id="ArialMT-116"/>
       <path d="M 6.59375 0 
L 6.59375 71.578125 
L 15.375 71.578125 
L 15.375 45.90625 
Q 21.53125 53.03125 30.90625 53.03125 
Q 36.671875 53.03125 40.921875 50.75 
Q 45.171875 48.484375 47 44.484375 
Q 48.828125 40.484375 48.828125 32.859375 
L 48.828125 0 
L 40.046875 0 
L 40.046875 32.859375 
Q 40.046875 39.453125 37.1875 42.453125 
Q 34.328125 45.453125 29.109375 45.453125 
Q 25.203125 45.453125 21.75 43.421875 
Q 18.3125 41.40625 16.84375 37.9375 
Q 15.375 34.46875 15.375 28.375 
L 15.375 0 
z
" id="ArialMT-104"/>
      </defs>
      <use xlink:href="#ArialMT-65"/>
      <use x="66.699219" xlink:href="#ArialMT-110"/>
      <use x="122.314453" xlink:href="#ArialMT-110"/>
      <use x="177.929688" xlink:href="#ArialMT-117"/>
      <use x="233.544922" xlink:href="#ArialMT-97"/>
      <use x="289.160156" xlink:href="#ArialMT-108"/>
      <use x="311.376953" xlink:href="#ArialMT-32"/>
      <use x="339.160156" xlink:href="#ArialMT-103"/>
      <use x="394.775391" xlink:href="#ArialMT-114"/>
      <use x="428.076172" xlink:href="#ArialMT-111"/>
      <use x="483.691406" xlink:href="#ArialMT-119"/>
      <use x="555.908203" xlink:href="#ArialMT-116"/>
      <use x="583.691406" xlink:href="#ArialMT-104"/>
     </g>
    </g>
   </g>
   <g id="line2d_41">
    <path clip-path="url(#pb7333fe83d)" d="M 152.454375 421.710625 
L 152.454375 403.575 
L 151.93125 401.9895 
L 151.93125 384.549 
L 151.408125 382.9635 
L 151.408125 367.1085 
L 150.885 365.523 
L 150.885 352.839 
L 150.361875 351.2535 
L 150.361875 336.984 
L 149.83875 335.3985 
L 149.83875 324.3 
L 149.315625 322.7145 
L 149.315625 311.616 
L 148.7925 310.0305 
L 148.7925 298.932 
L 148.269375 297.3465 
L 148.269375 287.8335 
L 147.74625 286.248 
L 147.74625 276.735 
L 147.223125 275.1495 
L 147.223125 265.6365 
L 146.7 264.051 
L 146.7 256.1235 
L 146.176875 254.538 
L 146.176875 246.6105 
L 145.65375 245.025 
L 145.65375 237.0975 
L 145.130625 235.512 
L 145.130625 227.5845 
L 144.6075 225.999 
L 144.6075 218.0715 
L 144.084375 216.486 
L 144.084375 210.144 
L 143.56125 208.5585 
L 143.56125 202.2165 
L 143.038125 200.631 
L 143.038125 194.289 
L 142.515 192.7035 
L 142.515 184.776 
L 141.991875 183.1905 
L 141.991875 178.434 
L 141.46875 176.8485 
L 141.46875 170.5065 
L 140.945625 168.921 
L 140.945625 162.579 
L 140.4225 160.9935 
L 140.4225 154.6515 
L 139.899375 153.066 
L 139.899375 146.724 
L 139.37625 145.1385 
L 139.37625 140.382 
L 138.853125 138.7965 
L 138.853125 132.4545 
L 138.33 130.869 
L 138.33 126.1125 
L 137.806875 124.527 
L 137.806875 118.185 
L 137.28375 116.5995 
L 137.28375 111.843 
L 136.760625 110.2575 
L 136.760625 103.9155 
L 136.2375 102.33 
L 136.2375 97.5735 
L 135.714375 95.988 
L 135.714375 91.2315 
L 135.19125 89.646 
L 135.19125 83.304 
L 134.668125 81.7185 
L 134.668125 76.962 
L 134.145 75.3765 
L 134.145 70.62 
L 133.621875 69.0345 
L 133.621875 62.6925 
L 133.09875 61.107 
L 133.09875 56.3505 
L 132.575625 54.765 
L 132.575625 50.0085 
L 132.0525 48.423 
L 132.0525 42.081 
L 131.529375 40.4955 
L 131.529375 35.739 
L 131.00625 34.1535 
L 131.00625 29.397 
L 130.483125 27.8115 
L 130.483125 21.4695 
L 129.96 19.884 
L 129.96 15.1275 
L 129.436875 13.542 
L 129.436875 8.7855 
L 128.91375 7.2 
L 128.91375 0.858 
L 128.390625 -1 
L 128.390625 -1 
" style="fill:none;stroke:#cd5c5c;stroke-dasharray:3,6;stroke-dashoffset:0;stroke-opacity:0.25;stroke-width:3;"/>
   </g>
   <g id="line2d_42">
    <path clip-path="url(#pb7333fe83d)" d="M 250.27875 421.710625 
L 250.27875 411.5025 
L 249.755625 409.917 
L 249.755625 394.062 
L 249.2325 392.4765 
L 249.2325 379.7925 
L 248.709375 378.207 
L 248.709375 365.523 
L 248.18625 363.9375 
L 248.18625 354.4245 
L 247.663125 352.839 
L 247.663125 343.326 
L 247.14 341.7405 
L 247.14 332.2275 
L 246.616875 330.642 
L 246.616875 324.3 
L 246.09375 322.7145 
L 246.09375 316.3725 
L 245.570625 314.787 
L 245.570625 308.445 
L 245.0475 306.8595 
L 245.0475 300.5175 
L 244.524375 298.932 
L 244.524375 294.1755 
L 244.00125 292.59 
L 244.00125 287.8335 
L 243.478125 286.248 
L 243.478125 283.077 
L 242.955 281.4915 
L 242.955 276.735 
L 242.431875 275.1495 
L 242.431875 271.9785 
L 241.90875 270.393 
L 241.90875 267.222 
L 241.385625 265.6365 
L 241.385625 262.4655 
L 240.8625 260.88 
L 240.8625 257.709 
L 240.339375 256.1235 
L 240.339375 252.9525 
L 239.81625 251.367 
L 239.81625 248.196 
L 239.293125 246.6105 
L 239.293125 245.025 
L 238.77 243.4395 
L 238.77 240.2685 
L 238.246875 238.683 
L 238.246875 237.0975 
L 237.72375 235.512 
L 237.72375 233.9265 
L 237.200625 232.341 
L 237.200625 230.7555 
L 236.6775 229.17 
L 236.6775 225.999 
L 236.154375 224.4135 
L 236.154375 222.828 
L 235.63125 221.2425 
L 235.63125 219.657 
L 235.108125 218.0715 
L 235.108125 216.486 
L 234.061875 213.315 
L 234.061875 211.7295 
L 233.53875 210.144 
L 233.53875 208.5585 
L 233.015625 206.973 
L 233.015625 205.3875 
L 232.4925 203.802 
L 232.4925 202.2165 
L 231.44625 199.0455 
L 231.44625 197.46 
L 230.923125 195.8745 
L 230.923125 194.289 
L 229.876875 191.118 
L 229.876875 189.5325 
L 228.830625 186.3615 
L 228.830625 184.776 
L 227.784375 181.605 
L 227.784375 180.0195 
L 226.738125 176.8485 
L 226.738125 175.263 
L 225.691875 172.092 
L 225.691875 170.5065 
L 224.1225 165.75 
L 224.1225 164.1645 
L 223.07625 160.9935 
L 223.07625 159.408 
L 220.98375 153.066 
L 220.98375 151.4805 
L 219.414375 146.724 
L 219.414375 145.1385 
L 216.79875 137.211 
L 216.79875 135.6255 
L 214.183125 127.698 
L 214.183125 126.1125 
L 211.5675 118.185 
L 211.5675 116.5995 
L 207.905625 105.501 
L 207.905625 103.9155 
L 204.766875 94.4025 
L 204.766875 92.817 
L 201.105 81.7185 
L 201.105 80.133 
L 197.96625 70.62 
L 197.96625 69.0345 
L 194.8275 59.5215 
L 194.8275 57.936 
L 192.211875 50.0085 
L 192.211875 48.423 
L 190.119375 42.081 
L 190.119375 40.4955 
L 188.026875 34.1535 
L 188.026875 32.568 
L 185.934375 26.226 
L 185.934375 24.6405 
L 184.365 19.884 
L 184.365 18.2985 
L 182.795625 13.542 
L 182.795625 11.9565 
L 181.22625 7.2 
L 181.22625 5.6145 
L 179.656875 0.858 
L 179.566965 -1 
L 179.566965 -1 
" style="fill:none;stroke:#cd5c5c;stroke-dasharray:6;stroke-dashoffset:0;stroke-opacity:0.6;stroke-width:3;"/>
   </g>
   <g id="line2d_43">
    <path clip-path="url(#pb7333fe83d)" d="M 548.983125 279.906 
L 548.983125 275.1495 
L 548.46 273.564 
L 548.46 268.8075 
L 547.936875 267.222 
L 547.936875 264.051 
L 547.41375 262.4655 
L 547.41375 259.2945 
L 546.890625 257.709 
L 546.890625 254.538 
L 546.3675 252.9525 
L 546.3675 251.367 
L 545.844375 249.7815 
L 545.844375 246.6105 
L 545.32125 245.025 
L 545.32125 243.4395 
L 544.798125 241.854 
L 544.798125 240.2685 
L 543.751875 237.0975 
L 543.751875 235.512 
L 543.22875 233.9265 
L 543.22875 232.341 
L 541.659375 227.5845 
L 541.659375 225.999 
L 536.95125 211.7295 
L 535.905 210.144 
L 534.85875 206.973 
L 533.8125 205.3875 
L 533.289375 203.802 
L 532.243125 202.2165 
L 531.72 200.631 
L 523.35 187.947 
L 521.780625 186.3615 
L 520.734375 184.776 
L 517.595625 181.605 
L 516.549375 180.0195 
L 513.410625 176.8485 
L 511.318125 175.263 
L 508.179375 172.092 
L 506.086875 170.5065 
L 504.5175 168.921 
L 494.055 160.9935 
L 491.439375 159.408 
L 489.346875 157.8225 
L 486.73125 156.237 
L 484.63875 154.6515 
L 479.4075 151.4805 
L 477.315 149.895 
L 469.468125 145.1385 
L 466.329375 143.553 
L 458.4825 138.7965 
L 455.34375 137.211 
L 450.1125 134.04 
L 446.97375 132.4545 
L 444.358125 130.869 
L 441.219375 129.2835 
L 435.988125 126.1125 
L 432.849375 124.527 
L 430.23375 122.9415 
L 427.095 121.356 
L 421.86375 118.185 
L 418.725 116.5995 
L 408.2625 110.2575 
L 405.12375 108.672 
L 392.045625 100.7445 
L 389.953125 99.159 
L 382.10625 94.4025 
L 380.01375 92.817 
L 377.398125 91.2315 
L 375.305625 89.646 
L 372.69 88.0605 
L 370.5975 86.475 
L 367.981875 84.8895 
L 363.796875 81.7185 
L 361.18125 80.133 
L 344.44125 67.449 
L 342.871875 65.8635 
L 336.594375 61.107 
L 335.025 59.5215 
L 332.9325 57.936 
L 331.363125 56.3505 
L 329.270625 54.765 
L 326.131875 51.594 
L 324.039375 50.0085 
L 319.33125 45.252 
L 317.23875 43.6665 
L 306.253125 32.568 
L 305.206875 30.9825 
L 300.49875 26.226 
L 299.4525 24.6405 
L 296.31375 21.4695 
L 295.2675 19.884 
L 292.12875 16.713 
L 291.0825 15.1275 
L 289.513125 13.542 
L 287.420625 10.371 
L 285.85125 8.7855 
L 284.805 7.2 
L 283.235625 5.6145 
L 280.096875 0.858 
L 278.347681 -1 
L 278.347681 -1 
" style="fill:none;stroke:#cd5c5c;stroke-dasharray:6,0;stroke-dashoffset:0;stroke-width:3;"/>
   </g>
   <g id="line2d_44">
    <path clip-path="url(#pb7333fe83d)" d="M 60.9075 421.710625 
L 60.9075 417.8445 
L 61.430625 416.259 
L 61.430625 411.5025 
L 61.95375 409.917 
L 61.95375 405.1605 
L 62.476875 403.575 
L 62.476875 398.8185 
L 63 397.233 
L 63 394.062 
L 63.523125 392.4765 
L 63.523125 387.72 
L 64.04625 386.1345 
L 64.04625 382.9635 
L 64.569375 381.378 
L 64.569375 378.207 
L 65.0925 376.6215 
L 65.0925 375.036 
L 65.615625 373.4505 
L 65.615625 370.2795 
L 66.13875 368.694 
L 66.13875 367.1085 
L 66.661875 365.523 
L 66.661875 362.352 
L 67.185 360.7665 
L 67.185 359.181 
L 67.708125 357.5955 
L 67.708125 356.01 
L 68.23125 354.4245 
L 68.23125 352.839 
L 68.754375 351.2535 
L 68.754375 349.668 
L 69.2775 348.0825 
L 69.2775 346.497 
L 70.32375 343.326 
L 70.32375 341.7405 
L 70.846875 340.155 
L 70.846875 338.5695 
L 72.41625 333.813 
L 72.41625 332.2275 
L 73.985625 327.471 
L 73.985625 325.8855 
L 80.263125 306.8595 
L 81.309375 305.274 
L 82.355625 302.103 
L 83.401875 300.5175 
L 83.925 298.932 
L 84.97125 297.3465 
L 85.494375 295.761 
L 88.633125 291.0045 
L 89.15625 289.419 
L 90.2025 287.8335 
L 91.771875 286.248 
L 93.864375 283.077 
L 95.43375 281.4915 
L 96.48 279.906 
L 102.7575 273.564 
L 111.1275 267.222 
L 118.974375 259.2945 
L 121.066875 257.709 
L 122.63625 256.1235 
L 128.91375 251.367 
L 139.37625 245.025 
L 148.7925 240.2685 
L 152.454375 238.683 
L 165.009375 233.9265 
L 175.471875 230.7555 
L 181.22625 229.17 
L 187.50375 227.5845 
L 202.674375 224.4135 
L 211.044375 222.828 
L 220.460625 221.2425 
L 231.44625 219.657 
L 245.0475 218.0715 
L 261.264375 216.486 
L 280.62 214.9005 
L 303.6375 213.315 
L 331.363125 211.7295 
L 366.4125 210.144 
L 410.878125 208.5585 
L 469.99125 206.973 
L 469.99125 206.973 
" style="fill:none;stroke:#4682b4;stroke-dasharray:3,6;stroke-dashoffset:0;stroke-opacity:0.25;stroke-width:3;"/>
   </g>
   <g id="line2d_45">
    <path clip-path="url(#pb7333fe83d)" d="M 79.510648 421.710625 
L 79.74 421.0155 
L 79.74 419.43 
L 80.78625 416.259 
L 80.78625 414.6735 
L 81.309375 413.088 
L 81.309375 411.5025 
L 81.8325 409.917 
L 81.8325 408.3315 
L 82.87875 405.1605 
L 82.87875 403.575 
L 83.925 400.404 
L 83.925 398.8185 
L 84.97125 395.6475 
L 84.97125 394.062 
L 86.540625 389.3055 
L 86.540625 387.72 
L 88.11 382.9635 
L 88.11 381.378 
L 97.003125 354.4245 
L 98.049375 352.839 
L 99.61875 348.0825 
L 100.665 346.497 
L 101.188125 344.9115 
L 102.234375 343.326 
L 102.7575 341.7405 
L 103.80375 340.155 
L 104.326875 338.5695 
L 105.373125 336.984 
L 105.89625 335.3985 
L 107.98875 332.2275 
L 108.511875 330.642 
L 111.650625 325.8855 
L 112.17375 324.3 
L 114.26625 321.129 
L 114.789375 319.5435 
L 117.928125 314.787 
L 118.45125 313.2015 
L 123.6825 305.274 
L 125.251875 303.6885 
L 127.344375 300.5175 
L 128.91375 298.932 
L 129.96 297.3465 
L 131.529375 295.761 
L 132.575625 294.1755 
L 143.56125 283.077 
L 145.65375 281.4915 
L 147.223125 279.906 
L 159.778125 270.393 
L 170.240625 264.051 
L 182.795625 257.709 
L 190.119375 254.538 
L 194.304375 252.9525 
L 197.96625 251.367 
L 212.090625 246.6105 
L 222.553125 243.4395 
L 235.108125 240.2685 
L 250.27875 237.0975 
L 267.541875 233.9265 
L 288.99 230.7555 
L 301.021875 229.17 
L 314.1 227.5845 
L 328.7475 225.999 
L 345.4875 224.4135 
L 364.32 222.828 
L 385.245 221.2425 
L 409.30875 219.657 
L 436.51125 218.0715 
L 468.945 216.486 
L 506.61 214.9005 
L 506.61 214.9005 
" style="fill:none;stroke:#4682b4;stroke-dasharray:6;stroke-dashoffset:0;stroke-opacity:0.6;stroke-width:3;"/>
   </g>
   <g id="line2d_46">
    <path clip-path="url(#pb7333fe83d)" d="M 111.421273 421.710625 
L 118.45125 400.404 
L 119.4975 398.8185 
L 122.113125 390.891 
L 123.159375 389.3055 
L 124.205625 386.1345 
L 125.251875 384.549 
L 126.298125 381.378 
L 127.344375 379.7925 
L 128.390625 376.6215 
L 129.436875 375.036 
L 129.96 373.4505 
L 131.00625 371.865 
L 131.529375 370.2795 
L 132.575625 368.694 
L 133.09875 367.1085 
L 135.19125 363.9375 
L 135.714375 362.352 
L 138.853125 357.5955 
L 139.37625 356.01 
L 149.83875 340.155 
L 151.408125 338.5695 
L 153.500625 335.3985 
L 155.07 333.813 
L 156.11625 332.2275 
L 157.685625 330.642 
L 158.731875 329.0565 
L 163.44 324.3 
L 164.48625 322.7145 
L 170.76375 316.3725 
L 172.85625 314.787 
L 175.995 311.616 
L 178.0875 310.0305 
L 179.656875 308.445 
L 192.211875 298.932 
L 194.8275 297.3465 
L 196.92 295.761 
L 209.998125 287.8335 
L 213.136875 286.248 
L 215.7525 284.6625 
L 222.03 281.4915 
L 225.691875 279.906 
L 228.830625 278.3205 
L 236.154375 275.1495 
L 248.709375 270.393 
L 258.125625 267.222 
L 273.819375 262.4655 
L 279.57375 260.88 
L 292.12875 257.709 
L 305.73 254.538 
L 313.05375 252.9525 
L 338.686875 248.196 
L 358.0425 245.025 
L 380.536875 241.854 
L 406.17 238.683 
L 420.8175 237.0975 
L 453.25125 233.9265 
L 471.560625 232.341 
L 491.9625 230.7555 
L 514.456875 229.17 
L 539.04375 227.5845 
L 539.04375 227.5845 
" style="fill:none;stroke:#4682b4;stroke-dasharray:6,0;stroke-dashoffset:0;stroke-width:3;"/>
   </g>
   <g id="line2d_47">
    <path clip-path="url(#pb7333fe83d)" d="M 168.148125 421.710625 
L 168.148125 419.43 
L 167.625 417.8445 
L 167.625 400.404 
L 167.101875 398.8185 
L 167.101875 384.549 
L 166.57875 382.9635 
L 166.57875 368.694 
L 166.055625 367.1085 
L 166.055625 356.01 
L 165.5325 354.4245 
L 165.5325 343.326 
L 165.009375 341.7405 
L 165.009375 330.642 
L 164.48625 329.0565 
L 164.48625 319.5435 
L 163.963125 317.958 
L 163.963125 310.0305 
L 163.44 308.445 
L 163.44 300.5175 
L 162.916875 298.932 
L 162.916875 291.0045 
L 162.39375 289.419 
L 162.39375 281.4915 
L 161.870625 279.906 
L 161.870625 273.564 
L 161.3475 271.9785 
L 161.3475 265.6365 
L 160.824375 264.051 
L 160.824375 257.709 
L 160.30125 256.1235 
L 160.30125 249.7815 
L 159.778125 248.196 
L 159.778125 243.4395 
L 159.255 241.854 
L 159.255 235.512 
L 158.731875 233.9265 
L 158.731875 229.17 
L 158.20875 227.5845 
L 158.20875 222.828 
L 157.685625 221.2425 
L 157.685625 216.486 
L 157.1625 214.9005 
L 157.1625 210.144 
L 156.639375 208.5585 
L 156.639375 203.802 
L 156.11625 202.2165 
L 156.11625 197.46 
L 155.593125 195.8745 
L 155.593125 192.7035 
L 155.07 191.118 
L 155.07 186.3615 
L 154.546875 184.776 
L 154.546875 181.605 
L 154.02375 180.0195 
L 154.02375 175.263 
L 153.500625 173.6775 
L 153.500625 170.5065 
L 152.9775 168.921 
L 152.9775 164.1645 
L 152.454375 162.579 
L 152.454375 159.408 
L 151.93125 157.8225 
L 151.93125 154.6515 
L 151.408125 153.066 
L 151.408125 149.895 
L 150.885 148.3095 
L 150.885 143.553 
L 150.361875 141.9675 
L 150.361875 138.7965 
L 149.83875 137.211 
L 149.83875 134.04 
L 149.315625 132.4545 
L 149.315625 129.2835 
L 148.7925 127.698 
L 148.7925 124.527 
L 148.269375 122.9415 
L 148.269375 119.7705 
L 147.74625 118.185 
L 147.74625 115.014 
L 147.223125 113.4285 
L 147.223125 110.2575 
L 146.7 108.672 
L 146.7 105.501 
L 146.176875 103.9155 
L 146.176875 100.7445 
L 145.65375 99.159 
L 145.65375 95.988 
L 145.130625 94.4025 
L 145.130625 91.2315 
L 144.6075 89.646 
L 144.6075 86.475 
L 144.084375 84.8895 
L 144.084375 81.7185 
L 143.56125 80.133 
L 143.56125 76.962 
L 143.038125 75.3765 
L 143.038125 72.2055 
L 142.515 70.62 
L 142.515 67.449 
L 141.991875 65.8635 
L 141.991875 62.6925 
L 141.46875 61.107 
L 141.46875 57.936 
L 140.945625 56.3505 
L 140.945625 53.1795 
L 140.4225 51.594 
L 140.4225 48.423 
L 139.899375 46.8375 
L 139.899375 43.6665 
L 139.37625 42.081 
L 139.37625 38.91 
L 138.853125 37.3245 
L 138.853125 34.1535 
L 138.33 32.568 
L 138.33 29.397 
L 137.806875 27.8115 
L 137.806875 24.6405 
L 137.28375 23.055 
L 137.28375 19.884 
L 136.760625 18.2985 
L 136.760625 15.1275 
L 136.2375 13.542 
L 136.2375 10.371 
L 135.714375 8.7855 
L 135.714375 5.6145 
L 135.19125 4.029 
L 135.10134 -1 
L 135.10134 -1 
" style="fill:none;stroke:#b8860b;stroke-dasharray:3,6;stroke-dashoffset:0;stroke-opacity:0.25;stroke-width:3;"/>
   </g>
   <g id="line2d_48">
    <path clip-path="url(#pb7333fe83d)" d="M 297.883125 421.710625 
L 297.883125 411.5025 
L 297.36 409.917 
L 297.36 392.4765 
L 296.836875 390.891 
L 296.836875 375.036 
L 296.31375 373.4505 
L 296.31375 362.352 
L 295.790625 360.7665 
L 295.790625 349.668 
L 295.2675 348.0825 
L 295.2675 338.5695 
L 294.744375 336.984 
L 294.744375 329.0565 
L 294.22125 327.471 
L 294.22125 319.5435 
L 293.698125 317.958 
L 293.698125 311.616 
L 293.175 310.0305 
L 293.175 305.274 
L 292.651875 303.6885 
L 292.651875 297.3465 
L 292.12875 295.761 
L 292.12875 292.59 
L 291.605625 291.0045 
L 291.605625 286.248 
L 291.0825 284.6625 
L 291.0825 281.4915 
L 290.559375 279.906 
L 290.559375 276.735 
L 290.03625 275.1495 
L 290.03625 271.9785 
L 289.513125 270.393 
L 289.513125 267.222 
L 288.99 265.6365 
L 288.99 262.4655 
L 288.466875 260.88 
L 288.466875 259.2945 
L 287.94375 257.709 
L 287.94375 254.538 
L 287.420625 252.9525 
L 287.420625 251.367 
L 286.8975 249.7815 
L 286.8975 248.196 
L 286.374375 246.6105 
L 286.374375 245.025 
L 285.85125 243.4395 
L 285.85125 241.854 
L 285.328125 240.2685 
L 285.328125 238.683 
L 284.805 237.0975 
L 284.805 235.512 
L 284.281875 233.9265 
L 284.281875 232.341 
L 283.235625 229.17 
L 283.235625 227.5845 
L 282.7125 225.999 
L 282.7125 224.4135 
L 281.66625 221.2425 
L 281.66625 219.657 
L 280.62 216.486 
L 280.62 214.9005 
L 279.050625 210.144 
L 279.050625 208.5585 
L 276.958125 202.2165 
L 276.958125 200.631 
L 272.25 186.3615 
L 272.25 184.776 
L 270.1575 178.434 
L 269.11125 176.8485 
L 264.92625 164.1645 
L 263.88 162.579 
L 261.7875 156.237 
L 260.74125 154.6515 
L 259.171875 149.895 
L 258.125625 148.3095 
L 256.55625 143.553 
L 255.51 141.9675 
L 254.46375 138.7965 
L 253.4175 137.211 
L 252.37125 134.04 
L 251.325 132.4545 
L 250.27875 129.2835 
L 249.2325 127.698 
L 248.18625 124.527 
L 247.14 122.9415 
L 246.616875 121.356 
L 245.570625 119.7705 
L 244.524375 116.5995 
L 243.478125 115.014 
L 242.955 113.4285 
L 241.90875 111.843 
L 240.8625 108.672 
L 239.81625 107.0865 
L 238.77 103.9155 
L 237.72375 102.33 
L 237.200625 100.7445 
L 236.154375 99.159 
L 235.108125 95.988 
L 234.061875 94.4025 
L 233.53875 92.817 
L 232.4925 91.2315 
L 231.44625 88.0605 
L 230.4 86.475 
L 229.35375 83.304 
L 228.3075 81.7185 
L 227.784375 80.133 
L 226.738125 78.5475 
L 225.691875 75.3765 
L 224.645625 73.791 
L 223.599375 70.62 
L 222.553125 69.0345 
L 220.98375 64.278 
L 219.9375 62.6925 
L 218.89125 59.5215 
L 217.845 57.936 
L 216.275625 53.1795 
L 215.229375 51.594 
L 213.66 46.8375 
L 212.61375 45.252 
L 211.044375 40.4955 
L 209.998125 38.91 
L 207.3825 30.9825 
L 206.33625 29.397 
L 202.674375 18.2985 
L 201.628125 16.713 
L 195.78384 -1 
L 195.78384 -1 
" style="fill:none;stroke:#b8860b;stroke-dasharray:6;stroke-dashoffset:0;stroke-opacity:0.6;stroke-width:3;"/>
   </g>
   <g id="line2d_49">
    <path clip-path="url(#pb7333fe83d)" d="M 439.126875 421.710625 
L 439.126875 405.1605 
L 438.60375 403.575 
L 438.60375 378.207 
L 438.080625 376.6215 
L 438.080625 357.5955 
L 437.5575 356.01 
L 437.5575 341.7405 
L 437.034375 340.155 
L 437.034375 327.471 
L 436.51125 325.8855 
L 436.51125 316.3725 
L 435.988125 314.787 
L 435.988125 306.8595 
L 435.465 305.274 
L 435.465 297.3465 
L 434.941875 295.761 
L 434.941875 291.0045 
L 434.41875 289.419 
L 434.41875 284.6625 
L 433.895625 283.077 
L 433.895625 278.3205 
L 433.3725 276.735 
L 433.3725 273.564 
L 432.849375 271.9785 
L 432.849375 268.8075 
L 432.32625 267.222 
L 432.32625 264.051 
L 431.803125 262.4655 
L 431.803125 259.2945 
L 431.28 257.709 
L 431.28 256.1235 
L 430.756875 254.538 
L 430.756875 252.9525 
L 430.23375 251.367 
L 430.23375 249.7815 
L 429.710625 248.196 
L 429.710625 246.6105 
L 429.1875 245.025 
L 429.1875 243.4395 
L 428.664375 241.854 
L 428.664375 240.2685 
L 427.618125 237.0975 
L 427.618125 235.512 
L 426.571875 232.341 
L 426.571875 230.7555 
L 424.479375 224.4135 
L 424.479375 222.828 
L 420.8175 211.7295 
L 419.77125 210.144 
L 417.67875 203.802 
L 416.6325 202.2165 
L 416.109375 200.631 
L 415.063125 199.0455 
L 414.54 197.46 
L 413.49375 195.8745 
L 412.970625 194.289 
L 411.924375 192.7035 
L 411.40125 191.118 
L 399.8925 173.6775 
L 398.323125 172.092 
L 396.230625 168.921 
L 394.66125 167.3355 
L 393.615 165.75 
L 390.47625 162.579 
L 389.43 160.9935 
L 369.028125 140.382 
L 366.935625 138.7965 
L 362.2275 134.04 
L 360.135 132.4545 
L 356.99625 129.2835 
L 354.90375 127.698 
L 351.765 124.527 
L 349.6725 122.9415 
L 348.103125 121.356 
L 346.010625 119.7705 
L 342.871875 116.5995 
L 340.779375 115.014 
L 337.640625 111.843 
L 335.548125 110.2575 
L 330.84 105.501 
L 328.7475 103.9155 
L 324.039375 99.159 
L 321.946875 97.5735 
L 296.836875 72.2055 
L 295.790625 70.62 
L 291.0825 65.8635 
L 290.03625 64.278 
L 286.8975 61.107 
L 285.85125 59.5215 
L 284.281875 57.936 
L 283.235625 56.3505 
L 281.66625 54.765 
L 280.62 53.1795 
L 279.050625 51.594 
L 278.004375 50.0085 
L 276.435 48.423 
L 274.3425 45.252 
L 272.773125 43.6665 
L 270.680625 40.4955 
L 269.11125 38.91 
L 264.92625 32.568 
L 263.356875 30.9825 
L 248.709375 8.7855 
L 248.18625 7.2 
L 244.00125 0.858 
L 243.298306 -1 
L 243.298306 -1 
" style="fill:none;stroke:#b8860b;stroke-dasharray:6,0;stroke-dashoffset:0;stroke-width:3;"/>
   </g>
   <g id="line2d_50">
    <path clip-path="url(#pb7333fe83d)" d="M 47.30625 197.46 
L 549.50625 197.46 
" style="fill:none;stroke:#000000;stroke-linecap:round;stroke-opacity:0.5;stroke-width:2;"/>
   </g>
   <g id="patch_3">
    <path d="M 47.30625 387.72 
L 47.30625 7.2 
" style="fill:none;stroke:#cccccc;stroke-linecap:square;stroke-linejoin:miter;"/>
   </g>
   <g id="patch_4">
    <path d="M 549.50625 387.72 
L 549.50625 7.2 
" style="fill:none;stroke:#cccccc;stroke-linecap:square;stroke-linejoin:miter;"/>
   </g>
   <g id="patch_5">
    <path d="M 47.30625 387.72 
L 549.50625 387.72 
" style="fill:none;stroke:#cccccc;stroke-linecap:square;stroke-linejoin:miter;"/>
   </g>
   <g id="patch_6">
    <path d="M 47.30625 7.2 
L 549.50625 7.2 
" style="fill:none;stroke:#cccccc;stroke-linecap:square;stroke-linejoin:miter;"/>
   </g>
   <g id="legend_1">
    <g id="line2d_51">
     <path d="M 405.784375 19.979687 
L 425.784375 19.979687 
" style="fill:none;stroke:#cd5c5c;stroke-dasharray:3,6;stroke-dashoffset:0;stroke-opacity:0.25;stroke-width:3;"/>
    </g>
    <g id="line2d_52"/>
    <g id="text_23">
     <!-- Climate collapse 1.5C -->
     <g style="fill:#262626;" transform="translate(433.784375 23.479687)scale(0.1 -0.1)">
      <defs>
       <path d="M 58.796875 25.09375 
L 68.265625 22.703125 
Q 65.28125 11.03125 57.546875 4.90625 
Q 49.8125 -1.21875 38.625 -1.21875 
Q 27.046875 -1.21875 19.796875 3.484375 
Q 12.546875 8.203125 8.765625 17.140625 
Q 4.984375 26.078125 4.984375 36.328125 
Q 4.984375 47.515625 9.25 55.828125 
Q 13.53125 64.15625 21.40625 68.46875 
Q 29.296875 72.796875 38.765625 72.796875 
Q 49.515625 72.796875 56.828125 67.328125 
Q 64.15625 61.859375 67.046875 51.953125 
L 57.71875 49.75 
Q 55.21875 57.5625 50.484375 61.125 
Q 45.75 64.703125 38.578125 64.703125 
Q 30.328125 64.703125 24.78125 60.734375 
Q 19.234375 56.78125 16.984375 50.109375 
Q 14.75 43.453125 14.75 36.375 
Q 14.75 27.25 17.40625 20.4375 
Q 20.0625 13.625 25.671875 10.25 
Q 31.296875 6.890625 37.84375 6.890625 
Q 45.796875 6.890625 51.3125 11.46875 
Q 56.84375 16.0625 58.796875 25.09375 
z
" id="ArialMT-67"/>
       <path d="M 6.640625 61.46875 
L 6.640625 71.578125 
L 15.4375 71.578125 
L 15.4375 61.46875 
z
M 6.640625 0 
L 6.640625 51.859375 
L 15.4375 51.859375 
L 15.4375 0 
z
" id="ArialMT-105"/>
       <path d="M 6.59375 0 
L 6.59375 51.859375 
L 14.453125 51.859375 
L 14.453125 44.578125 
Q 16.890625 48.390625 20.9375 50.703125 
Q 25 53.03125 30.171875 53.03125 
Q 35.9375 53.03125 39.625 50.640625 
Q 43.3125 48.25 44.828125 43.953125 
Q 50.984375 53.03125 60.84375 53.03125 
Q 68.5625 53.03125 72.703125 48.75 
Q 76.859375 44.484375 76.859375 35.59375 
L 76.859375 0 
L 68.109375 0 
L 68.109375 32.671875 
Q 68.109375 37.9375 67.25 40.25 
Q 66.40625 42.578125 64.15625 43.984375 
Q 61.921875 45.40625 58.890625 45.40625 
Q 53.421875 45.40625 49.796875 41.765625 
Q 46.1875 38.140625 46.1875 30.125 
L 46.1875 0 
L 37.40625 0 
L 37.40625 33.6875 
Q 37.40625 39.546875 35.25 42.46875 
Q 33.109375 45.40625 28.21875 45.40625 
Q 24.515625 45.40625 21.359375 43.453125 
Q 18.21875 41.5 16.796875 37.734375 
Q 15.375 33.984375 15.375 26.90625 
L 15.375 0 
z
" id="ArialMT-109"/>
       <path d="M 40.4375 19 
L 49.078125 17.875 
Q 47.65625 8.9375 41.8125 3.875 
Q 35.984375 -1.171875 27.484375 -1.171875 
Q 16.84375 -1.171875 10.375 5.78125 
Q 3.90625 12.75 3.90625 25.734375 
Q 3.90625 34.125 6.6875 40.421875 
Q 9.46875 46.734375 15.15625 49.875 
Q 20.84375 53.03125 27.546875 53.03125 
Q 35.984375 53.03125 41.359375 48.75 
Q 46.734375 44.484375 48.25 36.625 
L 39.703125 35.296875 
Q 38.484375 40.53125 35.375 43.15625 
Q 32.28125 45.796875 27.875 45.796875 
Q 21.234375 45.796875 17.078125 41.03125 
Q 12.9375 36.28125 12.9375 25.984375 
Q 12.9375 15.53125 16.9375 10.796875 
Q 20.953125 6.0625 27.390625 6.0625 
Q 32.5625 6.0625 36.03125 9.234375 
Q 39.5 12.40625 40.4375 19 
z
" id="ArialMT-99"/>
       <path d="M 6.59375 -19.875 
L 6.59375 51.859375 
L 14.59375 51.859375 
L 14.59375 45.125 
Q 17.4375 49.078125 21 51.046875 
Q 24.5625 53.03125 29.640625 53.03125 
Q 36.28125 53.03125 41.359375 49.609375 
Q 46.4375 46.1875 49.015625 39.953125 
Q 51.609375 33.734375 51.609375 26.3125 
Q 51.609375 18.359375 48.75 11.984375 
Q 45.90625 5.609375 40.453125 2.21875 
Q 35.015625 -1.171875 29 -1.171875 
Q 24.609375 -1.171875 21.109375 0.6875 
Q 17.625 2.546875 15.375 5.375 
L 15.375 -19.875 
z
M 14.546875 25.640625 
Q 14.546875 15.625 18.59375 10.84375 
Q 22.65625 6.0625 28.421875 6.0625 
Q 34.28125 6.0625 38.453125 11.015625 
Q 42.625 15.96875 42.625 26.375 
Q 42.625 36.28125 38.546875 41.203125 
Q 34.46875 46.140625 28.8125 46.140625 
Q 23.1875 46.140625 18.859375 40.890625 
Q 14.546875 35.640625 14.546875 25.640625 
z
" id="ArialMT-112"/>
       <path d="M 3.078125 15.484375 
L 11.765625 16.84375 
Q 12.5 11.625 15.84375 8.84375 
Q 19.1875 6.0625 25.203125 6.0625 
Q 31.25 6.0625 34.171875 8.515625 
Q 37.109375 10.984375 37.109375 14.3125 
Q 37.109375 17.28125 34.515625 19 
Q 32.71875 20.171875 25.53125 21.96875 
Q 15.875 24.421875 12.140625 26.203125 
Q 8.40625 27.984375 6.46875 31.125 
Q 4.546875 34.28125 4.546875 38.09375 
Q 4.546875 41.546875 6.125 44.5 
Q 7.71875 47.46875 10.453125 49.421875 
Q 12.5 50.921875 16.03125 51.96875 
Q 19.578125 53.03125 23.640625 53.03125 
Q 29.734375 53.03125 34.34375 51.265625 
Q 38.96875 49.515625 41.15625 46.5 
Q 43.359375 43.5 44.1875 38.484375 
L 35.59375 37.3125 
Q 35.015625 41.3125 32.203125 43.546875 
Q 29.390625 45.796875 24.265625 45.796875 
Q 18.21875 45.796875 15.625 43.796875 
Q 13.03125 41.796875 13.03125 39.109375 
Q 13.03125 37.40625 14.109375 36.03125 
Q 15.1875 34.625 17.484375 33.6875 
Q 18.796875 33.203125 25.25 31.453125 
Q 34.578125 28.953125 38.25 27.359375 
Q 41.9375 25.78125 44.03125 22.75 
Q 46.140625 19.734375 46.140625 15.234375 
Q 46.140625 10.84375 43.578125 6.953125 
Q 41.015625 3.078125 36.171875 0.953125 
Q 31.34375 -1.171875 25.25 -1.171875 
Q 15.140625 -1.171875 9.84375 3.03125 
Q 4.546875 7.234375 3.078125 15.484375 
z
" id="ArialMT-115"/>
       <path d="M 9.078125 0 
L 9.078125 10.015625 
L 19.09375 10.015625 
L 19.09375 0 
z
" id="ArialMT-46"/>
       <path d="M 6.25 59.28125 
Q 6.25 64.890625 10.21875 68.84375 
Q 14.203125 72.796875 19.78125 72.796875 
Q 25.4375 72.796875 29.390625 68.84375 
Q 33.34375 64.890625 33.34375 59.28125 
Q 33.34375 53.65625 29.359375 49.671875 
Q 25.390625 45.703125 19.78125 45.703125 
Q 14.203125 45.703125 10.21875 49.65625 
Q 6.25 53.609375 6.25 59.28125 
z
M 11.578125 59.28125 
Q 11.578125 55.859375 13.984375 53.4375 
Q 16.40625 51.03125 19.828125 51.03125 
Q 23.1875 51.03125 25.609375 53.4375 
Q 28.03125 55.859375 28.03125 59.28125 
Q 28.03125 62.703125 25.609375 65.109375 
Q 23.1875 67.53125 19.828125 67.53125 
Q 16.40625 67.53125 13.984375 65.109375 
Q 11.578125 62.703125 11.578125 59.28125 
z
" id="ArialMT-176"/>
      </defs>
      <use xlink:href="#ArialMT-67"/>
      <use x="72.216797" xlink:href="#ArialMT-108"/>
      <use x="94.433594" xlink:href="#ArialMT-105"/>
      <use x="116.650391" xlink:href="#ArialMT-109"/>
      <use x="199.951172" xlink:href="#ArialMT-97"/>
      <use x="255.566406" xlink:href="#ArialMT-116"/>
      <use x="283.349609" xlink:href="#ArialMT-101"/>
      <use x="338.964844" xlink:href="#ArialMT-32"/>
      <use x="366.748047" xlink:href="#ArialMT-99"/>
      <use x="416.748047" xlink:href="#ArialMT-111"/>
      <use x="472.363281" xlink:href="#ArialMT-108"/>
      <use x="494.580078" xlink:href="#ArialMT-108"/>
      <use x="516.796875" xlink:href="#ArialMT-97"/>
      <use x="572.412109" xlink:href="#ArialMT-112"/>
      <use x="628.027344" xlink:href="#ArialMT-115"/>
      <use x="678.027344" xlink:href="#ArialMT-101"/>
      <use x="733.642578" xlink:href="#ArialMT-32"/>
      <use x="761.425781" xlink:href="#ArialMT-49"/>
      <use x="817.041016" xlink:href="#ArialMT-46"/>
      <use x="844.824219" xlink:href="#ArialMT-53"/>
      <use x="900.439453" xlink:href="#ArialMT-176"/>
      <use x="940.429688" xlink:href="#ArialMT-67"/>
     </g>
    </g>
    <g id="line2d_53">
     <path d="M 405.784375 34.246875 
L 425.784375 34.246875 
" style="fill:none;stroke:#cd5c5c;stroke-dasharray:6;stroke-dashoffset:0;stroke-opacity:0.6;stroke-width:3;"/>
    </g>
    <g id="line2d_54"/>
    <g id="text_24">
     <!-- Climate collapse 2C -->
     <g style="fill:#262626;" transform="translate(433.784375 37.746875)scale(0.1 -0.1)">
      <use xlink:href="#ArialMT-67"/>
      <use x="72.216797" xlink:href="#ArialMT-108"/>
      <use x="94.433594" xlink:href="#ArialMT-105"/>
      <use x="116.650391" xlink:href="#ArialMT-109"/>
      <use x="199.951172" xlink:href="#ArialMT-97"/>
      <use x="255.566406" xlink:href="#ArialMT-116"/>
      <use x="283.349609" xlink:href="#ArialMT-101"/>
      <use x="338.964844" xlink:href="#ArialMT-32"/>
      <use x="366.748047" xlink:href="#ArialMT-99"/>
      <use x="416.748047" xlink:href="#ArialMT-111"/>
      <use x="472.363281" xlink:href="#ArialMT-108"/>
      <use x="494.580078" xlink:href="#ArialMT-108"/>
      <use x="516.796875" xlink:href="#ArialMT-97"/>
      <use x="572.412109" xlink:href="#ArialMT-112"/>
      <use x="628.027344" xlink:href="#ArialMT-115"/>
      <use x="678.027344" xlink:href="#ArialMT-101"/>
      <use x="733.642578" xlink:href="#ArialMT-32"/>
      <use x="761.425781" xlink:href="#ArialMT-50"/>
      <use x="817.041016" xlink:href="#ArialMT-176"/>
      <use x="857.03125" xlink:href="#ArialMT-67"/>
     </g>
    </g>
    <g id="line2d_55">
     <path d="M 405.784375 48.514062 
L 425.784375 48.514062 
" style="fill:none;stroke:#cd5c5c;stroke-dasharray:6,0;stroke-dashoffset:0;stroke-width:3;"/>
    </g>
    <g id="line2d_56"/>
    <g id="text_25">
     <!-- Climate collapse 5C -->
     <g style="fill:#262626;" transform="translate(433.784375 52.014062)scale(0.1 -0.1)">
      <use xlink:href="#ArialMT-67"/>
      <use x="72.216797" xlink:href="#ArialMT-108"/>
      <use x="94.433594" xlink:href="#ArialMT-105"/>
      <use x="116.650391" xlink:href="#ArialMT-109"/>
      <use x="199.951172" xlink:href="#ArialMT-97"/>
      <use x="255.566406" xlink:href="#ArialMT-116"/>
      <use x="283.349609" xlink:href="#ArialMT-101"/>
      <use x="338.964844" xlink:href="#ArialMT-32"/>
      <use x="366.748047" xlink:href="#ArialMT-99"/>
      <use x="416.748047" xlink:href="#ArialMT-111"/>
      <use x="472.363281" xlink:href="#ArialMT-108"/>
      <use x="494.580078" xlink:href="#ArialMT-108"/>
      <use x="516.796875" xlink:href="#ArialMT-97"/>
      <use x="572.412109" xlink:href="#ArialMT-112"/>
      <use x="628.027344" xlink:href="#ArialMT-115"/>
      <use x="678.027344" xlink:href="#ArialMT-101"/>
      <use x="733.642578" xlink:href="#ArialMT-32"/>
      <use x="761.425781" xlink:href="#ArialMT-53"/>
      <use x="817.041016" xlink:href="#ArialMT-176"/>
      <use x="857.03125" xlink:href="#ArialMT-67"/>
     </g>
    </g>
    <g id="line2d_57">
     <path d="M 405.784375 62.78125 
L 425.784375 62.78125 
" style="fill:none;stroke:#4682b4;stroke-dasharray:3,6;stroke-dashoffset:0;stroke-opacity:0.25;stroke-width:3;"/>
    </g>
    <g id="line2d_58"/>
    <g id="text_26">
     <!-- Social collapse 75% -->
     <g style="fill:#262626;" transform="translate(433.784375 66.28125)scale(0.1 -0.1)">
      <defs>
       <path d="M 4.5 23 
L 13.421875 23.78125 
Q 14.0625 18.40625 16.375 14.96875 
Q 18.703125 11.53125 23.578125 9.40625 
Q 28.46875 7.28125 34.578125 7.28125 
Q 39.984375 7.28125 44.140625 8.890625 
Q 48.296875 10.5 50.3125 13.296875 
Q 52.34375 16.109375 52.34375 19.4375 
Q 52.34375 22.796875 50.390625 25.3125 
Q 48.4375 27.828125 43.953125 29.546875 
Q 41.0625 30.671875 31.203125 33.03125 
Q 21.34375 35.40625 17.390625 37.5 
Q 12.25 40.1875 9.734375 44.15625 
Q 7.234375 48.140625 7.234375 53.078125 
Q 7.234375 58.5 10.296875 63.203125 
Q 13.375 67.921875 19.28125 70.359375 
Q 25.203125 72.796875 32.421875 72.796875 
Q 40.375 72.796875 46.453125 70.234375 
Q 52.546875 67.671875 55.8125 62.6875 
Q 59.078125 57.71875 59.328125 51.421875 
L 50.25 50.734375 
Q 49.515625 57.515625 45.28125 60.984375 
Q 41.0625 64.453125 32.8125 64.453125 
Q 24.21875 64.453125 20.28125 61.296875 
Q 16.359375 58.15625 16.359375 53.71875 
Q 16.359375 49.859375 19.140625 47.359375 
Q 21.875 44.875 33.421875 42.265625 
Q 44.96875 39.65625 49.265625 37.703125 
Q 55.515625 34.8125 58.484375 30.390625 
Q 61.46875 25.984375 61.46875 20.21875 
Q 61.46875 14.5 58.203125 9.4375 
Q 54.9375 4.390625 48.796875 1.578125 
Q 42.671875 -1.21875 35.015625 -1.21875 
Q 25.296875 -1.21875 18.71875 1.609375 
Q 12.15625 4.4375 8.421875 10.125 
Q 4.6875 15.828125 4.5 23 
z
" id="ArialMT-83"/>
      </defs>
      <use xlink:href="#ArialMT-83"/>
      <use x="66.699219" xlink:href="#ArialMT-111"/>
      <use x="122.314453" xlink:href="#ArialMT-99"/>
      <use x="172.314453" xlink:href="#ArialMT-105"/>
      <use x="194.53125" xlink:href="#ArialMT-97"/>
      <use x="250.146484" xlink:href="#ArialMT-108"/>
      <use x="272.363281" xlink:href="#ArialMT-32"/>
      <use x="300.146484" xlink:href="#ArialMT-99"/>
      <use x="350.146484" xlink:href="#ArialMT-111"/>
      <use x="405.761719" xlink:href="#ArialMT-108"/>
      <use x="427.978516" xlink:href="#ArialMT-108"/>
      <use x="450.195312" xlink:href="#ArialMT-97"/>
      <use x="505.810547" xlink:href="#ArialMT-112"/>
      <use x="561.425781" xlink:href="#ArialMT-115"/>
      <use x="611.425781" xlink:href="#ArialMT-101"/>
      <use x="667.041016" xlink:href="#ArialMT-32"/>
      <use x="694.824219" xlink:href="#ArialMT-55"/>
      <use x="750.439453" xlink:href="#ArialMT-53"/>
      <use x="806.054688" xlink:href="#ArialMT-37"/>
     </g>
    </g>
    <g id="line2d_59">
     <path d="M 405.784375 77.048437 
L 425.784375 77.048437 
" style="fill:none;stroke:#4682b4;stroke-dasharray:6;stroke-dashoffset:0;stroke-opacity:0.6;stroke-width:3;"/>
    </g>
    <g id="line2d_60"/>
    <g id="text_27">
     <!-- Social collapse 50% -->
     <g style="fill:#262626;" transform="translate(433.784375 80.548437)scale(0.1 -0.1)">
      <use xlink:href="#ArialMT-83"/>
      <use x="66.699219" xlink:href="#ArialMT-111"/>
      <use x="122.314453" xlink:href="#ArialMT-99"/>
      <use x="172.314453" xlink:href="#ArialMT-105"/>
      <use x="194.53125" xlink:href="#ArialMT-97"/>
      <use x="250.146484" xlink:href="#ArialMT-108"/>
      <use x="272.363281" xlink:href="#ArialMT-32"/>
      <use x="300.146484" xlink:href="#ArialMT-99"/>
      <use x="350.146484" xlink:href="#ArialMT-111"/>
      <use x="405.761719" xlink:href="#ArialMT-108"/>
      <use x="427.978516" xlink:href="#ArialMT-108"/>
      <use x="450.195312" xlink:href="#ArialMT-97"/>
      <use x="505.810547" xlink:href="#ArialMT-112"/>
      <use x="561.425781" xlink:href="#ArialMT-115"/>
      <use x="611.425781" xlink:href="#ArialMT-101"/>
      <use x="667.041016" xlink:href="#ArialMT-32"/>
      <use x="694.824219" xlink:href="#ArialMT-53"/>
      <use x="750.439453" xlink:href="#ArialMT-48"/>
      <use x="806.054688" xlink:href="#ArialMT-37"/>
     </g>
    </g>
    <g id="line2d_61">
     <path d="M 405.784375 91.315625 
L 425.784375 91.315625 
" style="fill:none;stroke:#4682b4;stroke-dasharray:6,0;stroke-dashoffset:0;stroke-width:3;"/>
    </g>
    <g id="line2d_62"/>
    <g id="text_28">
     <!-- Social collapse 25% -->
     <g style="fill:#262626;" transform="translate(433.784375 94.815625)scale(0.1 -0.1)">
      <use xlink:href="#ArialMT-83"/>
      <use x="66.699219" xlink:href="#ArialMT-111"/>
      <use x="122.314453" xlink:href="#ArialMT-99"/>
      <use x="172.314453" xlink:href="#ArialMT-105"/>
      <use x="194.53125" xlink:href="#ArialMT-97"/>
      <use x="250.146484" xlink:href="#ArialMT-108"/>
      <use x="272.363281" xlink:href="#ArialMT-32"/>
      <use x="300.146484" xlink:href="#ArialMT-99"/>
      <use x="350.146484" xlink:href="#ArialMT-111"/>
      <use x="405.761719" xlink:href="#ArialMT-108"/>
      <use x="427.978516" xlink:href="#ArialMT-108"/>
      <use x="450.195312" xlink:href="#ArialMT-97"/>
      <use x="505.810547" xlink:href="#ArialMT-112"/>
      <use x="561.425781" xlink:href="#ArialMT-115"/>
      <use x="611.425781" xlink:href="#ArialMT-101"/>
      <use x="667.041016" xlink:href="#ArialMT-32"/>
      <use x="694.824219" xlink:href="#ArialMT-50"/>
      <use x="750.439453" xlink:href="#ArialMT-53"/>
      <use x="806.054688" xlink:href="#ArialMT-37"/>
     </g>
    </g>
    <g id="line2d_63">
     <path d="M 405.784375 105.490625 
L 425.784375 105.490625 
" style="fill:none;stroke:#b8860b;stroke-dasharray:3,6;stroke-dashoffset:0;stroke-opacity:0.25;stroke-width:3;"/>
    </g>
    <g id="line2d_64"/>
    <g id="text_29">
     <!-- Resource collapse 20y -->
     <g style="fill:#262626;" transform="translate(433.784375 108.990625)scale(0.1 -0.1)">
      <defs>
       <path d="M 7.859375 0 
L 7.859375 71.578125 
L 39.59375 71.578125 
Q 49.171875 71.578125 54.140625 69.640625 
Q 59.125 67.71875 62.109375 62.828125 
Q 65.09375 57.953125 65.09375 52.046875 
Q 65.09375 44.4375 60.15625 39.203125 
Q 55.21875 33.984375 44.921875 32.5625 
Q 48.6875 30.765625 50.640625 29 
Q 54.78125 25.203125 58.5 19.484375 
L 70.953125 0 
L 59.03125 0 
L 49.5625 14.890625 
Q 45.40625 21.34375 42.71875 24.75 
Q 40.046875 28.171875 37.921875 29.53125 
Q 35.796875 30.90625 33.59375 31.453125 
Q 31.984375 31.78125 28.328125 31.78125 
L 17.328125 31.78125 
L 17.328125 0 
z
M 17.328125 39.984375 
L 37.703125 39.984375 
Q 44.1875 39.984375 47.84375 41.328125 
Q 51.515625 42.671875 53.421875 45.625 
Q 55.328125 48.578125 55.328125 52.046875 
Q 55.328125 57.125 51.640625 60.390625 
Q 47.953125 63.671875 39.984375 63.671875 
L 17.328125 63.671875 
z
" id="ArialMT-82"/>
       <path d="M 6.203125 -19.96875 
L 5.21875 -11.71875 
Q 8.109375 -12.5 10.25 -12.5 
Q 13.1875 -12.5 14.9375 -11.515625 
Q 16.703125 -10.546875 17.828125 -8.796875 
Q 18.65625 -7.46875 20.515625 -2.25 
Q 20.75 -1.515625 21.296875 -0.09375 
L 1.609375 51.859375 
L 11.078125 51.859375 
L 21.875 21.828125 
Q 23.96875 16.109375 25.640625 9.8125 
Q 27.15625 15.875 29.25 21.625 
L 40.328125 51.859375 
L 49.125 51.859375 
L 29.390625 -0.875 
Q 26.21875 -9.421875 24.46875 -12.640625 
Q 22.125 -17 19.09375 -19.015625 
Q 16.0625 -21.046875 11.859375 -21.046875 
Q 9.328125 -21.046875 6.203125 -19.96875 
z
" id="ArialMT-121"/>
      </defs>
      <use xlink:href="#ArialMT-82"/>
      <use x="72.216797" xlink:href="#ArialMT-101"/>
      <use x="127.832031" xlink:href="#ArialMT-115"/>
      <use x="177.832031" xlink:href="#ArialMT-111"/>
      <use x="233.447266" xlink:href="#ArialMT-117"/>
      <use x="289.0625" xlink:href="#ArialMT-114"/>
      <use x="322.363281" xlink:href="#ArialMT-99"/>
      <use x="372.363281" xlink:href="#ArialMT-101"/>
      <use x="427.978516" xlink:href="#ArialMT-32"/>
      <use x="455.761719" xlink:href="#ArialMT-99"/>
      <use x="505.761719" xlink:href="#ArialMT-111"/>
      <use x="561.376953" xlink:href="#ArialMT-108"/>
      <use x="583.59375" xlink:href="#ArialMT-108"/>
      <use x="605.810547" xlink:href="#ArialMT-97"/>
      <use x="661.425781" xlink:href="#ArialMT-112"/>
      <use x="717.041016" xlink:href="#ArialMT-115"/>
      <use x="767.041016" xlink:href="#ArialMT-101"/>
      <use x="822.65625" xlink:href="#ArialMT-32"/>
      <use x="850.439453" xlink:href="#ArialMT-50"/>
      <use x="906.054688" xlink:href="#ArialMT-48"/>
      <use x="961.669922" xlink:href="#ArialMT-121"/>
     </g>
    </g>
    <g id="line2d_65">
     <path d="M 405.784375 119.782812 
L 425.784375 119.782812 
" style="fill:none;stroke:#b8860b;stroke-dasharray:6;stroke-dashoffset:0;stroke-opacity:0.6;stroke-width:3;"/>
    </g>
    <g id="line2d_66"/>
    <g id="text_30">
     <!-- Resource collapse 50y -->
     <g style="fill:#262626;" transform="translate(433.784375 123.282812)scale(0.1 -0.1)">
      <use xlink:href="#ArialMT-82"/>
      <use x="72.216797" xlink:href="#ArialMT-101"/>
      <use x="127.832031" xlink:href="#ArialMT-115"/>
      <use x="177.832031" xlink:href="#ArialMT-111"/>
      <use x="233.447266" xlink:href="#ArialMT-117"/>
      <use x="289.0625" xlink:href="#ArialMT-114"/>
      <use x="322.363281" xlink:href="#ArialMT-99"/>
      <use x="372.363281" xlink:href="#ArialMT-101"/>
      <use x="427.978516" xlink:href="#ArialMT-32"/>
      <use x="455.761719" xlink:href="#ArialMT-99"/>
      <use x="505.761719" xlink:href="#ArialMT-111"/>
      <use x="561.376953" xlink:href="#ArialMT-108"/>
      <use x="583.59375" xlink:href="#ArialMT-108"/>
      <use x="605.810547" xlink:href="#ArialMT-97"/>
      <use x="661.425781" xlink:href="#ArialMT-112"/>
      <use x="717.041016" xlink:href="#ArialMT-115"/>
      <use x="767.041016" xlink:href="#ArialMT-101"/>
      <use x="822.65625" xlink:href="#ArialMT-32"/>
      <use x="850.439453" xlink:href="#ArialMT-53"/>
      <use x="906.054688" xlink:href="#ArialMT-48"/>
      <use x="961.669922" xlink:href="#ArialMT-121"/>
     </g>
    </g>
    <g id="line2d_67">
     <path d="M 405.784375 134.075 
L 425.784375 134.075 
" style="fill:none;stroke:#b8860b;stroke-dasharray:6,0;stroke-dashoffset:0;stroke-width:3;"/>
    </g>
    <g id="line2d_68"/>
    <g id="text_31">
     <!-- Resource collapse 100y -->
     <g style="fill:#262626;" transform="translate(433.784375 137.575)scale(0.1 -0.1)">
      <use xlink:href="#ArialMT-82"/>
      <use x="72.216797" xlink:href="#ArialMT-101"/>
      <use x="127.832031" xlink:href="#ArialMT-115"/>
      <use x="177.832031" xlink:href="#ArialMT-111"/>
      <use x="233.447266" xlink:href="#ArialMT-117"/>
      <use x="289.0625" xlink:href="#ArialMT-114"/>
      <use x="322.363281" xlink:href="#ArialMT-99"/>
      <use x="372.363281" xlink:href="#ArialMT-101"/>
      <use x="427.978516" xlink:href="#ArialMT-32"/>
      <use x="455.761719" xlink:href="#ArialMT-99"/>
      <use x="505.761719" xlink:href="#ArialMT-111"/>
      <use x="561.376953" xlink:href="#ArialMT-108"/>
      <use x="583.59375" xlink:href="#ArialMT-108"/>
      <use x="605.810547" xlink:href="#ArialMT-97"/>
      <use x="661.425781" xlink:href="#ArialMT-112"/>
      <use x="717.041016" xlink:href="#ArialMT-115"/>
      <use x="767.041016" xlink:href="#ArialMT-101"/>
      <use x="822.65625" xlink:href="#ArialMT-32"/>
      <use x="850.439453" xlink:href="#ArialMT-49"/>
      <use x="906.054688" xlink:href="#ArialMT-48"/>
      <use x="961.669922" xlink:href="#ArialMT-48"/>
      <use x="1017.285156" xlink:href="#ArialMT-121"/>
     </g>
    </g>
   </g>
  </g>
 </g>
 <defs>
  <clipPath id="pb7333fe83d">
   <rect height="380.52" width="502.2" x="47.30625" y="7.2"/>
  </clipPath>
 </defs>
</svg>
