<svg xmlns="http://www.w3.org/2000/svg" version="1.1" style="font-family:Lato, &#x27;Helvetica Neue&#x27;, Helvetica, Arial, sans-serif;font-size:16px;background-color:white;text-rendering:optimizeLegibility;-webkit-font-smoothing:antialiased" width="850" height="600" viewBox="0 0 850 600"><g class="HeaderView"><a href="https://ourworldindata.org/grapher/human-development-index-escosura" style="font-family:&quot;Playfair Display&quot;, Georgia, &quot;Times New Roman&quot;, serif" target="_blank" rel="noopener"><text font-size="22.40" x="15.0" y="32.9" fill="#555"><tspan x="15" y="32.92">Historical Index of Human Development, 1870 to 2015</tspan></text></a><text font-size="12.80" x="15.0" y="51.6" fill="#666"><tspan x="15" y="51.64">The Historical Index of Human Development (HIHD) is a summary measure of average achievement in three key dimensions of</tspan><tspan x="15" y="67">human development: a long and healthy life, being knowledgeable and having a decent standard of living.</tspan></text></g><g class="LineChart"><defs><clipPath id="boundsClip-3"><rect x="30.160000000000004" y="68.2" width="830" height="925.1999999999999"></rect></clipPath></defs><g class="DualAxisView"><g class="HorizontalAxis"><line x1="40.2" y1="529.4" x2="40.2" y2="533.4" stroke="#ccc"></line><line x1="86.7" y1="529.4" x2="86.7" y2="533.4" stroke="#ccc"></line><line x1="179.6" y1="529.4" x2="179.6" y2="533.4" stroke="#ccc"></line><line x1="272.6" y1="529.4" x2="272.6" y2="533.4" stroke="#ccc"></line><line x1="365.6" y1="529.4" x2="365.6" y2="533.4" stroke="#ccc"></line><line x1="458.6" y1="529.4" x2="458.6" y2="533.4" stroke="#ccc"></line><line x1="551.6" y1="529.4" x2="551.6" y2="533.4" stroke="#ccc"></line><line x1="644.6" y1="529.4" x2="644.6" y2="533.4" stroke="#ccc"></line><line x1="714.3" y1="529.4" x2="714.3" y2="533.4" stroke="#ccc"></line><text x="40.2" y="548.8" fill="#666" text-anchor="middle" font-size="14.4">1870</text><text x="86.7" y="548.8" fill="#666" text-anchor="middle" font-size="14.4">1880</text><text x="179.6" y="548.8" fill="#666" text-anchor="middle" font-size="14.4">1900</text><text x="272.6" y="548.8" fill="#666" text-anchor="middle" font-size="14.4">1920</text><text x="365.6" y="548.8" fill="#666" text-anchor="middle" font-size="14.4">1940</text><text x="458.6" y="548.8" fill="#666" text-anchor="middle" font-size="14.4">1960</text><text x="551.6" y="548.8" fill="#666" text-anchor="middle" font-size="14.4">1980</text><text x="644.6" y="548.8" fill="#666" text-anchor="middle" font-size="14.4">2000</text><text x="714.3" y="548.8" fill="#666" text-anchor="middle" font-size="14.4">2015</text></g><g class="VerticalAxis"><text x="35.16" y="529.4" fill="#666" dominant-baseline="middle" text-anchor="end" font-size="14.4">0</text><text x="35.16" y="475.4" fill="#666" dominant-baseline="middle" text-anchor="end" font-size="14.4">0.1</text><text x="35.16" y="421.3" fill="#666" dominant-baseline="middle" text-anchor="end" font-size="14.4">0.2</text><text x="35.16" y="367.3" fill="#666" dominant-baseline="middle" text-anchor="end" font-size="14.4">0.3</text><text x="35.16" y="313.2" fill="#666" dominant-baseline="middle" text-anchor="end" font-size="14.4">0.4</text><text x="35.16" y="259.2" fill="#666" dominant-baseline="middle" text-anchor="end" font-size="14.4">0.5</text><text x="35.16" y="205.1" fill="#666" dominant-baseline="middle" text-anchor="end" font-size="14.4">0.6</text><text x="35.16" y="151.1" fill="#666" dominant-baseline="middle" text-anchor="end" font-size="14.4">0.7</text><text x="35.16" y="97" fill="#666" dominant-baseline="middle" text-anchor="end" font-size="14.4">0.8</text></g><g class="AxisGridLines horizontalLines"><line x1="40.16" y1="529.4" x2="714.32" y2="529.4" stroke="#ccc"></line><line x1="40.16" y1="475.4" x2="714.32" y2="475.4" stroke="#d3d3d3" stroke-dasharray="3,2"></line><line x1="40.16" y1="421.3" x2="714.32" y2="421.3" stroke="#d3d3d3" stroke-dasharray="3,2"></line><line x1="40.16" y1="367.3" x2="714.32" y2="367.3" stroke="#d3d3d3" stroke-dasharray="3,2"></line><line x1="40.16" y1="313.2" x2="714.32" y2="313.2" stroke="#d3d3d3" stroke-dasharray="3,2"></line><line x1="40.16" y1="259.2" x2="714.32" y2="259.2" stroke="#d3d3d3" stroke-dasharray="3,2"></line><line x1="40.16" y1="205.1" x2="714.32" y2="205.1" stroke="#d3d3d3" stroke-dasharray="3,2"></line><line x1="40.16" y1="151.1" x2="714.32" y2="151.1" stroke="#d3d3d3" stroke-dasharray="3,2"></line><line x1="40.16" y1="97" x2="714.32" y2="97" stroke="#d3d3d3" stroke-dasharray="3,2"></line></g></g><g clip-path="url(#boundsClip-3)"><g class="LineLabels" style="cursor:default"><g class="legendMark"><g class="indicator"><path d="M718.32,86.2 H739.9200000000001 V92.2 H745.32" stroke="#999" stroke-width="0.5" fill="none"></path></g><rect x="714.32" y="86.2" width="72.44" height="12" fill="#fff" opacity="0"></rect><text font-size="12.00" x="749.3" y="95.8" fill="#4C6A9C"><tspan x="749.32" y="95.8">France</tspan></text></g><g class="legendMark"><g class="indicator"><path d="M718.32,97 H734.52 V106.2 H745.32" stroke="#999" stroke-width="0.5" fill="none"></path></g><rect x="714.32" y="100.2" width="84.44" height="12" fill="#fff" opacity="0"></rect><text font-size="12.00" x="749.3" y="109.8" fill="#C05917"><tspan x="749.32" y="109.8">Germany</tspan></text></g><g class="legendMark"><g class="indicator"><path d="M718.32,107.8 H729.12 V120.2 H745.32" stroke="#999" stroke-width="0.5" fill="none"></path></g><rect x="714.32" y="114.2" width="107.36" height="12" fill="#fff" opacity="0"></rect><text font-size="12.00" x="749.3" y="123.8" fill="#883039"><tspan x="749.32" y="123.8">United States</tspan></text></g><g class="legendMark"><g class="indicator"><path d="M718.32,118.6 H723.72 V134.2 H745.32" stroke="#999" stroke-width="0.5" fill="none"></path></g><rect x="714.32" y="128.2" width="120.67999999999999" height="12" fill="#fff" opacity="0"></rect><text font-size="12.00" x="749.3" y="137.8" fill="#CF0A66"><tspan x="749.32" y="137.79999999999998">United Kingdom</tspan></text></g><g class="legendMark"><g class="indicator"><path d="M718.32,237.5 H731.82 V230.5 H745.32" stroke="#999" stroke-width="0.5" fill="none"></path></g><rect x="714.32" y="224.5" width="65" height="12" fill="#fff" opacity="0"></rect><text font-size="12.00" x="749.3" y="234.1" fill="#3C4E66"><tspan x="749.32" y="234.1">Brazil</tspan></text></g><g class="legendMark"><g class="indicator"><path d="M718.32,237.5 H731.82 V244.5 H745.32" stroke="#999" stroke-width="0.5" fill="none"></path></g><rect x="714.32" y="238.5" width="66.44" height="12" fill="#fff" opacity="0"></rect><text font-size="12.00" x="749.3" y="248.1" fill="#B13507"><tspan x="749.32" y="248.1">China</tspan></text></g><g class="legendMark"><g class="indicator"><path d="M718.32,324 H731.82 V324 H745.32" stroke="#999" stroke-width="0.5" fill="none"></path></g><rect x="714.32" y="318" width="61.16" height="12" fill="#fff" opacity="0"></rect><text font-size="12.00" x="749.3" y="327.6" fill="#00847E"><tspan x="749.32" y="327.6">India</tspan></text></g><g class="legendMark"><g class="indicator"><path d="M718.32,388.9 H731.82 V388.9 H745.32" stroke="#999" stroke-width="0.5" fill="none"></path></g><rect x="714.32" y="382.9" width="73.03999999999999" height="12" fill="#fff" opacity="0"></rect><text font-size="12.00" x="749.3" y="392.5" fill="#D73C50"><tspan x="749.32" y="392.5">Nigeria</tspan></text></g></g><g class="Lines"><rect x="40" y="86" width="674" height="443" fill="rgba(255,255,255,0)" opacity="0"></rect><g><path stroke-linecap="round" stroke="#ddd" d="M40 502L87 497L133 492L180 486L240 481L296 475L315 470L333 465L356 459L412 427L435 416L459 405L482 394L505 384L528 356L552 346L575 335L598 324L621 302L645 270L668 265L677 265L691 254L714 238" fill="none" stroke-width="1"></path></g><g><path stroke-linecap="round" stroke="#ddd" d="M40 508L87 508L133 502L180 508L240 508L296 502L315 492L333 486L356 481L412 465L435 443L459 448L482 405L505 394L528 378L552 373L575 367L598 362L621 340L645 319L668 302L677 281L691 270L714 238" fill="none" stroke-width="1"></path></g><g><path stroke-linecap="round" stroke="#ddd" d="M40 427L87 416L133 400L180 389L240 378L296 367L315 351L333 340L356 335L412 308L435 286L459 265L482 259L505 243L528 232L552 221L575 211L598 194L621 167L645 140L668 129L677 113L691 102L714 86" fill="none" stroke-width="1"></path></g><g><path stroke-linecap="round" stroke="#ddd" d="M40 411L87 405L133 384L180 373L240 356L296 346L315 329L333 324L356 308L412 297L435 292L459 275L482 265L505 248L528 232L552 227L575 221L598 205L621 189L645 162L668 151L677 146L691 129L714 97" fill="none" stroke-width="1"></path></g><g><path stroke-linecap="round" stroke="#ddd" d="M40 513L87 513L133 508L180 508L240 508L296 497L315 492L333 492L356 486L412 470L435 465L459 454L482 443L505 438L528 432L552 421L575 416L598 405L621 394L645 384L668 373L677 362L691 351L714 324" fill="none" stroke-width="1"></path></g><g><path stroke-linecap="round" stroke="#ddd" d="M40 519L87 519L133 519L180 519L240 519L296 508L315 508L333 502L356 497L412 486L435 481L459 475L482 470L505 465L528 448L552 443L575 432L598 427L621 421L645 416L668 411L677 405L691 405L714 389" fill="none" stroke-width="1"></path></g><g><path stroke-linecap="round" stroke="#ddd" d="M40 416L87 405L133 389L180 378L240 351L296 335L315 329L333 329L356 319L412 281L435 265L459 259L482 259L505 243L528 238L552 227L575 227L598 216L621 200L645 162L668 140L677 146L691 140L714 119" fill="none" stroke-width="1"></path></g><g><path stroke-linecap="round" stroke="#ddd" d="M40 405L87 411L133 389L180 373L240 362L296 329L315 324L333 324L356 302L412 275L435 265L459 254L482 232L505 232L528 221L552 211L575 194L598 184L621 157L645 140L668 129L677 124L691 113L714 108" fill="none" stroke-width="1"></path></g><g><path stroke="#3C4E66" stroke-linecap="round" d="M40 502L87 497L133 492L180 486L240 481L296 475L315 470L333 465L356 459L412 427L435 416L459 405L482 394L505 384L528 356L552 346L575 335L598 324L621 302L645 270L668 265L677 265L691 254L714 238" fill="none" stroke-width="1.5"></path><g fill="#3C4E66"><circle cx="40" cy="502" r="2"></circle><circle cx="87" cy="497" r="2"></circle><circle cx="133" cy="492" r="2"></circle><circle cx="180" cy="486" r="2"></circle><circle cx="240" cy="481" r="2"></circle><circle cx="296" cy="475" r="2"></circle><circle cx="315" cy="470" r="2"></circle><circle cx="333" cy="465" r="2"></circle><circle cx="356" cy="459" r="2"></circle><circle cx="412" cy="427" r="2"></circle><circle cx="435" cy="416" r="2"></circle><circle cx="459" cy="405" r="2"></circle><circle cx="482" cy="394" r="2"></circle><circle cx="505" cy="384" r="2"></circle><circle cx="528" cy="356" r="2"></circle><circle cx="552" cy="346" r="2"></circle><circle cx="575" cy="335" r="2"></circle><circle cx="598" cy="324" r="2"></circle><circle cx="621" cy="302" r="2"></circle><circle cx="645" cy="270" r="2"></circle><circle cx="668" cy="265" r="2"></circle><circle cx="677" cy="265" r="2"></circle><circle cx="691" cy="254" r="2"></circle><circle cx="714" cy="238" r="2"></circle></g></g><g><path stroke="#B13507" stroke-linecap="round" d="M40 508L87 508L133 502L180 508L240 508L296 502L315 492L333 486L356 481L412 465L435 443L459 448L482 405L505 394L528 378L552 373L575 367L598 362L621 340L645 319L668 302L677 281L691 270L714 238" fill="none" stroke-width="1.5"></path><g fill="#B13507"><circle cx="40" cy="508" r="2"></circle><circle cx="87" cy="508" r="2"></circle><circle cx="133" cy="502" r="2"></circle><circle cx="180" cy="508" r="2"></circle><circle cx="240" cy="508" r="2"></circle><circle cx="296" cy="502" r="2"></circle><circle cx="315" cy="492" r="2"></circle><circle cx="333" cy="486" r="2"></circle><circle cx="356" cy="481" r="2"></circle><circle cx="412" cy="465" r="2"></circle><circle cx="435" cy="443" r="2"></circle><circle cx="459" cy="448" r="2"></circle><circle cx="482" cy="405" r="2"></circle><circle cx="505" cy="394" r="2"></circle><circle cx="528" cy="378" r="2"></circle><circle cx="552" cy="373" r="2"></circle><circle cx="575" cy="367" r="2"></circle><circle cx="598" cy="362" r="2"></circle><circle cx="621" cy="340" r="2"></circle><circle cx="645" cy="319" r="2"></circle><circle cx="668" cy="302" r="2"></circle><circle cx="677" cy="281" r="2"></circle><circle cx="691" cy="270" r="2"></circle><circle cx="714" cy="238" r="2"></circle></g></g><g><path stroke="#4C6A9C" stroke-linecap="round" d="M40 427L87 416L133 400L180 389L240 378L296 367L315 351L333 340L356 335L412 308L435 286L459 265L482 259L505 243L528 232L552 221L575 211L598 194L621 167L645 140L668 129L677 113L691 102L714 86" fill="none" stroke-width="1.5"></path><g fill="#4C6A9C"><circle cx="40" cy="427" r="2"></circle><circle cx="87" cy="416" r="2"></circle><circle cx="133" cy="400" r="2"></circle><circle cx="180" cy="389" r="2"></circle><circle cx="240" cy="378" r="2"></circle><circle cx="296" cy="367" r="2"></circle><circle cx="315" cy="351" r="2"></circle><circle cx="333" cy="340" r="2"></circle><circle cx="356" cy="335" r="2"></circle><circle cx="412" cy="308" r="2"></circle><circle cx="435" cy="286" r="2"></circle><circle cx="459" cy="265" r="2"></circle><circle cx="482" cy="259" r="2"></circle><circle cx="505" cy="243" r="2"></circle><circle cx="528" cy="232" r="2"></circle><circle cx="552" cy="221" r="2"></circle><circle cx="575" cy="211" r="2"></circle><circle cx="598" cy="194" r="2"></circle><circle cx="621" cy="167" r="2"></circle><circle cx="645" cy="140" r="2"></circle><circle cx="668" cy="129" r="2"></circle><circle cx="677" cy="113" r="2"></circle><circle cx="691" cy="102" r="2"></circle><circle cx="714" cy="86" r="2"></circle></g></g><g><path stroke="#C05917" stroke-linecap="round" d="M40 411L87 405L133 384L180 373L240 356L296 346L315 329L333 324L356 308L412 297L435 292L459 275L482 265L505 248L528 232L552 227L575 221L598 205L621 189L645 162L668 151L677 146L691 129L714 97" fill="none" stroke-width="1.5"></path><g fill="#C05917"><circle cx="40" cy="411" r="2"></circle><circle cx="87" cy="405" r="2"></circle><circle cx="133" cy="384" r="2"></circle><circle cx="180" cy="373" r="2"></circle><circle cx="240" cy="356" r="2"></circle><circle cx="296" cy="346" r="2"></circle><circle cx="315" cy="329" r="2"></circle><circle cx="333" cy="324" r="2"></circle><circle cx="356" cy="308" r="2"></circle><circle cx="412" cy="297" r="2"></circle><circle cx="435" cy="292" r="2"></circle><circle cx="459" cy="275" r="2"></circle><circle cx="482" cy="265" r="2"></circle><circle cx="505" cy="248" r="2"></circle><circle cx="528" cy="232" r="2"></circle><circle cx="552" cy="227" r="2"></circle><circle cx="575" cy="221" r="2"></circle><circle cx="598" cy="205" r="2"></circle><circle cx="621" cy="189" r="2"></circle><circle cx="645" cy="162" r="2"></circle><circle cx="668" cy="151" r="2"></circle><circle cx="677" cy="146" r="2"></circle><circle cx="691" cy="129" r="2"></circle><circle cx="714" cy="97" r="2"></circle></g></g><g><path stroke="#00847E" stroke-linecap="round" d="M40 513L87 513L133 508L180 508L240 508L296 497L315 492L333 492L356 486L412 470L435 465L459 454L482 443L505 438L528 432L552 421L575 416L598 405L621 394L645 384L668 373L677 362L691 351L714 324" fill="none" stroke-width="1.5"></path><g fill="#00847E"><circle cx="40" cy="513" r="2"></circle><circle cx="87" cy="513" r="2"></circle><circle cx="133" cy="508" r="2"></circle><circle cx="180" cy="508" r="2"></circle><circle cx="240" cy="508" r="2"></circle><circle cx="296" cy="497" r="2"></circle><circle cx="315" cy="492" r="2"></circle><circle cx="333" cy="492" r="2"></circle><circle cx="356" cy="486" r="2"></circle><circle cx="412" cy="470" r="2"></circle><circle cx="435" cy="465" r="2"></circle><circle cx="459" cy="454" r="2"></circle><circle cx="482" cy="443" r="2"></circle><circle cx="505" cy="438" r="2"></circle><circle cx="528" cy="432" r="2"></circle><circle cx="552" cy="421" r="2"></circle><circle cx="575" cy="416" r="2"></circle><circle cx="598" cy="405" r="2"></circle><circle cx="621" cy="394" r="2"></circle><circle cx="645" cy="384" r="2"></circle><circle cx="668" cy="373" r="2"></circle><circle cx="677" cy="362" r="2"></circle><circle cx="691" cy="351" r="2"></circle><circle cx="714" cy="324" r="2"></circle></g></g><g><path stroke="#D73C50" stroke-linecap="round" d="M40 519L87 519L133 519L180 519L240 519L296 508L315 508L333 502L356 497L412 486L435 481L459 475L482 470L505 465L528 448L552 443L575 432L598 427L621 421L645 416L668 411L677 405L691 405L714 389" fill="none" stroke-width="1.5"></path><g fill="#D73C50"><circle cx="40" cy="519" r="2"></circle><circle cx="87" cy="519" r="2"></circle><circle cx="133" cy="519" r="2"></circle><circle cx="180" cy="519" r="2"></circle><circle cx="240" cy="519" r="2"></circle><circle cx="296" cy="508" r="2"></circle><circle cx="315" cy="508" r="2"></circle><circle cx="333" cy="502" r="2"></circle><circle cx="356" cy="497" r="2"></circle><circle cx="412" cy="486" r="2"></circle><circle cx="435" cy="481" r="2"></circle><circle cx="459" cy="475" r="2"></circle><circle cx="482" cy="470" r="2"></circle><circle cx="505" cy="465" r="2"></circle><circle cx="528" cy="448" r="2"></circle><circle cx="552" cy="443" r="2"></circle><circle cx="575" cy="432" r="2"></circle><circle cx="598" cy="427" r="2"></circle><circle cx="621" cy="421" r="2"></circle><circle cx="645" cy="416" r="2"></circle><circle cx="668" cy="411" r="2"></circle><circle cx="677" cy="405" r="2"></circle><circle cx="691" cy="405" r="2"></circle><circle cx="714" cy="389" r="2"></circle></g></g><g><path stroke="#CF0A66" stroke-linecap="round" d="M40 416L87 405L133 389L180 378L240 351L296 335L315 329L333 329L356 319L412 281L435 265L459 259L482 259L505 243L528 238L552 227L575 227L598 216L621 200L645 162L668 140L677 146L691 140L714 119" fill="none" stroke-width="1.5"></path><g fill="#CF0A66"><circle cx="40" cy="416" r="2"></circle><circle cx="87" cy="405" r="2"></circle><circle cx="133" cy="389" r="2"></circle><circle cx="180" cy="378" r="2"></circle><circle cx="240" cy="351" r="2"></circle><circle cx="296" cy="335" r="2"></circle><circle cx="315" cy="329" r="2"></circle><circle cx="333" cy="329" r="2"></circle><circle cx="356" cy="319" r="2"></circle><circle cx="412" cy="281" r="2"></circle><circle cx="435" cy="265" r="2"></circle><circle cx="459" cy="259" r="2"></circle><circle cx="482" cy="259" r="2"></circle><circle cx="505" cy="243" r="2"></circle><circle cx="528" cy="238" r="2"></circle><circle cx="552" cy="227" r="2"></circle><circle cx="575" cy="227" r="2"></circle><circle cx="598" cy="216" r="2"></circle><circle cx="621" cy="200" r="2"></circle><circle cx="645" cy="162" r="2"></circle><circle cx="668" cy="140" r="2"></circle><circle cx="677" cy="146" r="2"></circle><circle cx="691" cy="140" r="2"></circle><circle cx="714" cy="119" r="2"></circle></g></g><g><path stroke="#883039" stroke-linecap="round" d="M40 405L87 411L133 389L180 373L240 362L296 329L315 324L333 324L356 302L412 275L435 265L459 254L482 232L505 232L528 221L552 211L575 194L598 184L621 157L645 140L668 129L677 124L691 113L714 108" fill="none" stroke-width="1.5"></path><g fill="#883039"><circle cx="40" cy="405" r="2"></circle><circle cx="87" cy="411" r="2"></circle><circle cx="133" cy="389" r="2"></circle><circle cx="180" cy="373" r="2"></circle><circle cx="240" cy="362" r="2"></circle><circle cx="296" cy="329" r="2"></circle><circle cx="315" cy="324" r="2"></circle><circle cx="333" cy="324" r="2"></circle><circle cx="356" cy="302" r="2"></circle><circle cx="412" cy="275" r="2"></circle><circle cx="435" cy="265" r="2"></circle><circle cx="459" cy="254" r="2"></circle><circle cx="482" cy="232" r="2"></circle><circle cx="505" cy="232" r="2"></circle><circle cx="528" cy="221" r="2"></circle><circle cx="552" cy="211" r="2"></circle><circle cx="575" cy="194" r="2"></circle><circle cx="598" cy="184" r="2"></circle><circle cx="621" cy="157" r="2"></circle><circle cx="645" cy="140" r="2"></circle><circle cx="668" cy="129" r="2"></circle><circle cx="677" cy="124" r="2"></circle><circle cx="691" cy="113" r="2"></circle><circle cx="714" cy="108" r="2"></circle></g></g></g></g></g><g class="SourcesFooter" style="fill:#777"><g style="fill:#777"><text font-size="11.20" x="15.0" y="582.8"><tspan x="15" y="582.76">Source: Prados de la Escosura (2018)</tspan></text></g><text font-size="11.20" x="552.2" y="582.8"><tspan x="552.2" y="582.76"><a target='_blank' style='fill: #777;' href='https://ourworldindata.org/human-development-index'>OurWorldInData.org/human-development-index</a> • <a style="fill: #777;" class="cclogo" href="http://creativecommons.org/licenses/by/4.0/deed.en_US" target="_blank">CC BY</a></tspan></text></g></svg>