<svg xmlns="http://www.w3.org/2000/svg" version="1.1" style="font-family:Lato, &#x27;Helvetica Neue&#x27;, Helvetica, Arial, sans-serif;font-size:18px;background-color:white;text-rendering:optimizeLegibility;-webkit-font-smoothing:antialiased" width="850" height="600" viewBox="0 0 850 600"><g class="HeaderView"><a href="https://ourworldindata.org/grapher/projected-population-by-country?country=CHN~IND~USA~NGA~OWID_WRL~Europe" style="font-family:&quot;Playfair Display&quot;, Georgia, &quot;Times New Roman&quot;, serif" target="_blank" rel="noopener"><text font-size="25.20" x="15.0" y="35.2" fill="#555"><tspan x="15" y="35.160000000000004">Population, 1800 to 2100</tspan></text></a><text font-size="14.40" x="15.0" y="55.7" fill="#666"><tspan x="15" y="55.72">Historical estimates of population, combined with the projected population to 2100 based on the UN&#x27;s medium</tspan><tspan x="15" y="73">variant scenario.</tspan></text></g><g class="LineChart"><defs><clipPath id="boundsClip-2"><rect x="74.152" y="74.2" width="830" height="881.2"></rect></clipPath></defs><g class="DualAxisView"><g class="HorizontalAxis"><line x1="84.2" y1="511.6" x2="84.2" y2="515.6" stroke="#ccc"></line><line x1="189.9" y1="511.6" x2="189.9" y2="515.6" stroke="#ccc"></line><line x1="295.6" y1="511.6" x2="295.6" y2="515.6" stroke="#ccc"></line><line x1="401.4" y1="511.6" x2="401.4" y2="515.6" stroke="#ccc"></line><line x1="507.1" y1="511.6" x2="507.1" y2="515.6" stroke="#ccc"></line><line x1="612.9" y1="511.6" x2="612.9" y2="515.6" stroke="#ccc"></line><line x1="718.6" y1="511.6" x2="718.6" y2="515.6" stroke="#ccc"></line><text x="84.2" y="532.8000000000001" fill="#666" text-anchor="middle" font-size="16.2">1800</text><text x="189.9" y="532.8000000000001" fill="#666" text-anchor="middle" font-size="16.2">1850</text><text x="295.6" y="532.8000000000001" fill="#666" text-anchor="middle" font-size="16.2">1900</text><text x="401.4" y="532.8000000000001" fill="#666" text-anchor="middle" font-size="16.2">1950</text><text x="507.1" y="532.8000000000001" fill="#666" text-anchor="middle" font-size="16.2">2000</text><text x="612.9" y="532.8000000000001" fill="#666" text-anchor="middle" font-size="16.2">2050</text><text x="718.6" y="532.8000000000001" fill="#666" text-anchor="middle" font-size="16.2">2100</text></g><g class="VerticalAxis"><text x="79.15" y="511.6" fill="#666" dominant-baseline="middle" text-anchor="end" font-size="16.2">0</text><text x="79.15" y="434.5" fill="#666" dominant-baseline="middle" text-anchor="end" font-size="16.2">2 billion</text><text x="79.15" y="357.3" fill="#666" dominant-baseline="middle" text-anchor="end" font-size="16.2">4 billion</text><text x="79.15" y="280.2" fill="#666" dominant-baseline="middle" text-anchor="end" font-size="16.2">6 billion</text><text x="79.15" y="203.1" fill="#666" dominant-baseline="middle" text-anchor="end" font-size="16.2">8 billion</text><text x="79.15" y="126" fill="#666" dominant-baseline="middle" text-anchor="end" font-size="16.2">10 billion</text></g><g class="AxisGridLines horizontalLines"><line x1="84.15" y1="511.6" x2="718.60" y2="511.6" stroke="#ccc"></line><line x1="84.15" y1="434.5" x2="718.60" y2="434.5" stroke="#d3d3d3" stroke-dasharray="3,2"></line><line x1="84.15" y1="357.3" x2="718.60" y2="357.3" stroke="#d3d3d3" stroke-dasharray="3,2"></line><line x1="84.15" y1="280.2" x2="718.60" y2="280.2" stroke="#d3d3d3" stroke-dasharray="3,2"></line><line x1="84.15" y1="203.1" x2="718.60" y2="203.1" stroke="#d3d3d3" stroke-dasharray="3,2"></line><line x1="84.15" y1="126" x2="718.60" y2="126" stroke="#d3d3d3" stroke-dasharray="3,2"></line></g></g><g clip-path="url(#boundsClip-2)"><g class="LineLabels" style="cursor:default"><g class="legendMark"><g class="indicator"><path d="M722.595,92.2 H736.095 V98.95 H749.595" stroke="#999" stroke-width="0.5" fill="none"></path></g><rect x="718.595" y="92.2" width="70.235" height="13.5" fill="#fff" opacity="0"></rect><text font-size="13.50" x="753.6" y="103.0" fill="#00823F"><tspan x="753.595" y="103">World</tspan></text></g><g class="legendMark"><g class="indicator"><path d="M722.595,455.8 H729.345 V442.85 H749.595" stroke="#999" stroke-width="0.5" fill="none"></path></g><rect x="718.595" y="436.1" width="64.43" height="13.5" fill="#fff" opacity="0"></rect><text font-size="13.50" x="753.6" y="446.9" fill="#883039"><tspan x="753.595" y="446.90000000000003">India</tspan></text></g><g class="legendMark"><g class="indicator"><path d="M722.595,470.5 H736.095 V458.35 H749.595" stroke="#999" stroke-width="0.5" fill="none"></path></g><rect x="718.595" y="451.6" width="70.37" height="13.5" fill="#fff" opacity="0"></rect><text font-size="13.50" x="753.6" y="462.4" fill="#3C4E66"><tspan x="753.595" y="462.40000000000003">China</tspan></text></g><g class="legendMark"><g class="indicator"><path d="M722.595,483.3 H742.845 V473.85 H749.595" stroke="#999" stroke-width="0.5" fill="none"></path></g><rect x="718.595" y="467.1" width="77.795" height="13.5" fill="#fff" opacity="0"></rect><text font-size="13.50" x="753.6" y="477.9" fill="#6D3E91"><tspan x="753.595" y="477.90000000000003">Nigeria</tspan></text></g><g class="legendMark"><g class="indicator"><path d="M722.595,487.3 H742.845 V489.35 H749.595" stroke="#999" stroke-width="0.5" fill="none"></path></g><rect x="718.595" y="482.6" width="78.74000000000001" height="13.5" fill="#fff" opacity="0"></rect><text font-size="13.50" x="753.6" y="493.4" fill="#4C6A9C"><tspan x="753.595" y="493.40000000000003">Europe</tspan></text></g><g class="legendMark"><g class="indicator"><path d="M722.595,494.9 H736.095 V504.85 H749.595" stroke="#999" stroke-width="0.5" fill="none"></path></g><rect x="718.595" y="498.1" width="116.405" height="13.5" fill="#fff" opacity="0"></rect><text font-size="13.50" x="753.6" y="508.9" fill="#B13507"><tspan x="753.595" y="508.90000000000003">United States</tspan></text></g></g><g class="Lines"><rect x="84" y="92" width="634" height="419" fill="rgba(255,255,255,0)" opacity="0"></rect><g><path stroke-linecap="round" stroke="#ddd" d="M84 504L105 504L126 503L148 503L169 502L190 501L211 500L232 499L253 498L275 497L296 495L317 493L338 493L359 492L380 490L401 490L404 490L406 490L408 490L410 490L412 489L414 489L416 489L418 489L420 489L423 488L425 488L427 488L429 488L431 487L433 487L435 487L437 487L439 487L442 486L444 486L446 486L448 486L450 486L452 486L454 486L456 485L459 485L461 485L463 485L465 485L467 485L469 485L471 485L473 484L475 484L478 484L480 484L482 484L484 484L486 484L488 484L490 484L492 484L494 484L497 484L499 484L501 484L503 484L505 484L507 484L509 484L511 484L514 484L516 484L518 484L520 483L522 483L524 483L526 483L528 483L530 483L533 483L535 483L537 483L539 483L541 483L543 483L545 483L547 483L549 483L552 483L554 483L556 483L558 483L560 483L562 483L564 483L566 483L568 483L571 483L573 483L575 483L577 483L579 483L581 483L583 483L585 483L588 483L590 484L592 484L594 484L596 484L598 484L600 484L602 484L604 484L607 484L609 484L611 484L613 484L615 484L617 484L619 484L621 485L623 485L626 485L628 485L630 485L632 485L634 485L636 485L638 485L640 485L643 485L645 486L647 486L649 486L651 486L653 486L655 486L657 486L659 486L662 486L664 486L666 486L668 486L670 486L672 486L674 487L676 487L678 487L681 487L683 487L685 487L687 487L689 487L691 487L693 487L695 487L697 487L700 487L702 487L704 487L706 487L708 487L710 487L712 487L714 487L717 487L719 487" fill="none" stroke-width="1"></path></g><g><path stroke-linecap="round" stroke="#ddd" d="M84 473L190 463L296 448L298 448L300 447L302 447L304 446L306 446L308 446L310 445L313 445L315 445L317 444L319 444L321 443L323 443L325 443L327 442L330 442L332 441L334 441L336 440L338 440L340 439L342 439L344 438L346 437L349 436L351 436L353 435L355 434L357 433L359 432L361 431L363 430L365 429L368 428L370 427L372 426L374 425L376 424L378 424L380 423L382 422L385 422L387 421L389 421L391 420L393 420L395 419L397 418L399 416L401 414L404 412L406 410L408 408L410 407L412 405L414 403L416 401L418 399L420 397L423 395L425 392L427 390L429 388L431 385L433 383L435 380L437 377L439 375L442 372L444 369L446 366L448 363L450 360L452 357L454 354L456 351L459 349L461 346L463 343L465 340L467 337L469 334L471 330L473 327L475 324L478 320L480 317L482 313L484 310L486 306L488 303L490 300L492 296L494 293L497 290L499 287L501 284L503 281L505 278L507 275L509 272L511 269L514 266L516 262L518 259L520 256L522 253L524 250L526 247L528 243L530 240L533 237L535 234L537 230L539 227L541 224L543 221L545 217L547 214L549 211L552 208L554 205L556 202L558 199L560 196L562 193L564 190L566 187L568 185L571 182L573 179L575 177L577 174L579 171L581 169L583 166L585 164L588 162L590 159L592 157L594 155L596 152L598 150L600 148L602 146L604 144L607 142L609 140L611 138L613 136L615 134L617 133L619 131L621 129L623 128L626 126L628 125L630 123L632 122L634 120L636 119L638 117L640 116L643 115L645 114L647 113L649 111L651 110L653 109L655 108L657 107L659 106L662 105L664 105L666 104L668 103L670 102L672 101L674 101L676 100L678 99L681 99L683 98L685 98L687 97L689 97L691 96L693 96L695 95L697 95L700 94L702 94L704 94L706 93L708 93L710 93L712 93L714 93L717 92L719 92" fill="none" stroke-width="1"></path></g><g><path stroke-linecap="round" stroke="#ddd" d="M84 499L86 499L88 499L91 499L93 499L95 499L97 499L99 498L101 498L103 498L105 498L107 498L110 498L112 498L114 498L116 498L118 497L120 497L122 497L124 497L126 497L129 497L131 497L133 497L135 497L137 496L139 496L141 496L143 496L146 496L148 496L150 496L152 496L154 496L156 496L158 496L160 496L162 496L165 496L167 496L169 496L171 496L173 496L175 496L177 496L179 496L181 496L184 496L186 496L188 496L190 496L192 496L194 496L196 496L198 496L201 496L203 497L205 497L207 497L209 497L211 497L213 497L215 497L217 497L220 497L222 497L224 497L226 497L228 497L230 498L232 498L234 498L236 498L239 498L241 498L243 498L245 498L247 498L249 498L251 497L253 497L256 497L258 497L260 497L262 497L264 497L266 497L268 497L270 497L272 497L275 497L277 497L279 497L281 497L283 497L285 497L287 497L289 496L291 496L294 496L296 496L298 496L300 496L302 496L304 496L306 496L308 496L310 496L313 495L315 495L317 495L319 495L321 495L323 495L325 495L327 494L330 494L332 494L334 494L336 494L338 493L340 493L342 493L344 493L346 493L349 493L351 493L353 493L355 493L357 493L359 493L361 493L363 492L365 492L368 492L370 492L372 492L374 492L376 492L378 492L380 492L382 492L385 491L387 491L389 491L391 491L393 491L395 491L397 491L399 491L401 490L404 490L406 489L408 489L410 488L412 488L414 488L416 487L418 487L420 487L423 486L425 486L427 485L429 485L431 484L433 484L435 483L437 482L439 481L442 481L444 480L446 479L448 478L450 477L452 477L454 476L456 475L459 475L461 474L463 474L465 473L467 473L469 472L471 471L473 471L475 470L478 469L480 469L482 468L484 467L486 466L488 466L490 465L492 465L494 464L497 464L499 463L501 463L503 463L505 462L507 462L509 462L511 461L514 461L516 461L518 460L520 460L522 460L524 459L526 459L528 459L530 459L533 458L535 458L537 458L539 457L541 457L543 457L545 457L547 456L549 456L552 456L554 456L556 456L558 456L560 455L562 455L564 455L566 455L568 455L571 455L573 455L575 455L577 455L579 455L581 455L583 455L585 455L588 456L590 456L592 456L594 456L596 456L598 456L600 456L602 457L604 457L607 457L609 457L611 457L613 458L615 458L617 458L619 458L621 459L623 459L626 459L628 459L630 460L632 460L634 460L636 461L638 461L640 461L643 461L645 462L647 462L649 462L651 463L653 463L655 463L657 463L659 464L662 464L664 464L666 465L668 465L670 465L672 465L674 466L676 466L678 466L681 466L683 467L685 467L687 467L689 467L691 468L693 468L695 468L697 468L700 469L702 469L704 469L706 469L708 470L710 470L712 470L714 470L717 470L719 471" fill="none" stroke-width="1"></path></g><g><path stroke-linecap="round" stroke="#ddd" d="M84 511L86 511L88 511L91 511L93 511L95 511L97 511L99 511L101 511L103 511L105 511L107 511L110 511L112 511L114 511L116 511L118 511L120 511L122 511L124 511L126 511L129 511L131 511L133 511L135 511L137 511L139 511L141 511L143 511L146 511L148 511L150 511L152 511L154 511L156 511L158 511L160 511L162 511L165 511L167 511L169 511L171 511L173 511L175 511L177 511L179 511L181 511L184 511L186 511L188 511L190 511L192 511L194 511L196 511L198 511L201 511L203 511L205 511L207 510L209 510L211 510L213 510L215 510L217 510L220 510L222 510L224 510L226 510L228 510L230 510L232 510L234 510L236 510L239 510L241 510L243 510L245 510L247 510L249 510L251 510L253 510L256 510L258 510L260 510L262 509L264 509L266 509L268 509L270 509L272 509L275 509L277 509L279 509L281 509L283 509L285 509L287 509L289 509L291 509L294 509L296 509L298 509L300 509L302 508L304 508L306 508L308 508L310 508L313 508L315 508L317 508L319 508L321 508L323 508L325 508L327 508L330 508L332 508L334 508L336 507L338 507L340 507L342 507L344 507L346 507L349 507L351 507L353 507L355 507L357 507L359 507L361 507L363 507L365 507L368 507L370 507L372 507L374 507L376 507L378 506L380 506L382 506L385 506L387 506L389 506L391 506L393 506L395 506L397 506L399 506L401 506L404 505L406 505L408 505L410 505L412 505L414 505L416 505L418 505L420 505L423 504L425 504L427 504L429 504L431 504L433 504L435 504L437 504L439 504L442 504L444 504L446 503L448 503L450 503L452 503L454 503L456 503L459 503L461 503L463 503L465 503L467 503L469 503L471 503L473 502L475 502L478 502L480 502L482 502L484 502L486 502L488 502L490 502L492 502L494 502L497 501L499 501L501 501L503 501L505 501L507 501L509 501L511 501L514 500L516 500L518 500L520 500L522 500L524 500L526 500L528 500L530 500L533 500L535 499L537 499L539 499L541 499L543 499L545 499L547 499L549 499L552 499L554 499L556 499L558 499L560 499L562 498L564 498L566 498L568 498L571 498L573 498L575 498L577 498L579 498L581 498L583 498L585 498L588 498L590 498L592 498L594 497L596 497L598 497L600 497L602 497L604 497L607 497L609 497L611 497L613 497L615 497L617 497L619 497L621 497L623 497L626 497L628 497L630 497L632 497L634 497L636 497L638 496L640 496L643 496L645 496L647 496L649 496L651 496L653 496L655 496L657 496L659 496L662 496L664 496L666 496L668 496L670 496L672 496L674 496L676 496L678 496L681 496L683 496L685 495L687 495L689 495L691 495L693 495L695 495L697 495L700 495L702 495L704 495L706 495L708 495L710 495L712 495L714 495L717 495L719 495" fill="none" stroke-width="1"></path></g><g><path stroke-linecap="round" stroke="#ddd" d="M84 511L86 511L88 511L91 511L93 511L95 511L97 511L99 511L101 511L103 511L105 511L107 511L110 511L112 511L114 511L116 511L118 511L120 511L122 511L124 511L126 511L129 511L131 511L133 511L135 511L137 511L139 511L141 511L143 511L146 511L148 511L150 511L152 511L154 511L156 511L158 511L160 511L162 511L165 511L167 511L169 511L171 511L173 511L175 511L177 511L179 511L181 511L184 511L186 511L188 511L190 511L192 511L194 511L196 511L198 511L201 511L203 511L205 511L207 511L209 511L211 511L213 511L215 511L217 511L220 511L222 511L224 511L226 511L228 511L230 511L232 511L234 511L236 511L239 511L241 511L243 511L245 511L247 511L249 511L251 511L253 511L256 511L258 511L260 511L262 511L264 511L266 511L268 511L270 511L272 511L275 511L277 511L279 511L281 511L283 511L285 511L287 511L289 511L291 511L294 511L296 511L298 511L300 511L302 511L304 511L306 511L308 511L310 511L313 511L315 511L317 511L319 511L321 511L323 511L325 511L327 511L330 511L332 511L334 511L336 511L338 511L340 511L342 511L344 511L346 511L349 511L351 511L353 511L355 511L357 511L359 511L361 511L363 511L365 511L368 511L370 511L372 511L374 511L376 511L378 511L380 511L382 511L385 511L387 511L389 510L391 510L393 510L395 510L397 510L399 510L401 510L404 510L406 510L408 510L410 510L412 510L414 510L416 510L418 510L420 510L423 510L425 510L427 510L429 510L431 510L433 510L435 510L437 510L439 510L442 510L444 509L446 509L448 509L450 509L452 509L454 509L456 509L459 509L461 509L463 509L465 509L467 509L469 509L471 509L473 509L475 508L478 508L480 508L482 508L484 508L486 508L488 508L490 508L492 508L494 508L497 507L499 507L501 507L503 507L505 507L507 507L509 507L511 507L514 507L516 506L518 506L520 506L522 506L524 506L526 506L528 506L530 505L533 505L535 505L537 505L539 505L541 504L543 504L545 504L547 504L549 504L552 503L554 503L556 503L558 503L560 503L562 502L564 502L566 502L568 502L571 502L573 501L575 501L577 501L579 501L581 500L583 500L585 500L588 499L590 499L592 499L594 499L596 498L598 498L600 498L602 498L604 497L607 497L609 497L611 496L613 496L615 496L617 496L619 495L621 495L623 495L626 494L628 494L630 494L632 494L634 493L636 493L638 493L640 492L643 492L645 492L647 492L649 491L651 491L653 491L655 490L657 490L659 490L662 490L664 489L666 489L668 489L670 489L672 488L674 488L676 488L678 487L681 487L683 487L685 487L687 486L689 486L691 486L693 486L695 486L697 485L700 485L702 485L704 485L706 485L708 484L710 484L712 484L714 484L717 484L719 483" fill="none" stroke-width="1"></path></g><g><path stroke-linecap="round" stroke="#ddd" d="M84 505L86 505L88 505L91 505L93 505L95 505L97 505L99 505L101 505L103 505L105 505L107 505L110 505L112 505L114 505L116 505L118 505L120 505L122 505L124 505L126 505L129 505L131 505L133 505L135 505L137 505L139 505L141 505L143 505L146 505L148 505L150 505L152 505L154 505L156 505L158 504L160 504L162 504L165 504L167 504L169 504L171 504L173 504L175 504L177 504L179 504L181 504L184 504L186 504L188 504L190 504L192 504L194 504L196 504L198 504L201 504L203 504L205 504L207 504L209 504L211 504L213 504L215 504L217 504L220 504L222 504L224 504L226 504L228 503L230 503L232 503L234 503L236 503L239 503L241 503L243 503L245 503L247 503L249 503L251 503L253 503L256 503L258 503L260 503L262 503L264 503L266 503L268 503L270 503L272 503L275 503L277 503L279 503L281 503L283 503L285 502L287 502L289 502L291 502L294 502L296 502L298 502L300 502L302 502L304 502L306 502L308 502L310 502L313 502L315 502L317 502L319 502L321 502L323 502L325 502L327 502L330 502L332 501L334 501L336 501L338 501L340 501L342 501L344 501L346 501L349 501L351 501L353 501L355 501L357 501L359 501L361 500L363 500L365 500L368 500L370 500L372 500L374 500L376 499L378 499L380 499L382 499L385 499L387 499L389 499L391 498L393 498L395 498L397 498L399 498L401 497L404 497L406 497L408 496L410 496L412 496L414 496L416 495L418 495L420 495L423 494L425 494L427 494L429 493L431 493L433 492L435 492L437 492L439 491L442 491L444 490L446 490L448 489L450 489L452 488L454 488L456 487L459 486L461 486L463 485L465 485L467 484L469 483L471 483L473 482L475 481L478 481L480 480L482 479L484 479L486 478L488 477L490 477L492 476L494 475L497 474L499 474L501 473L503 472L505 472L507 471L509 470L511 469L514 469L516 468L518 467L520 467L522 466L524 465L526 465L528 464L530 463L533 463L535 462L537 462L539 461L541 461L543 460L545 459L547 459L549 458L552 458L554 457L556 457L558 456L560 456L562 455L564 455L566 455L568 454L571 454L573 453L575 453L577 452L579 452L581 452L583 451L585 451L588 451L590 450L592 450L594 450L596 450L598 450L600 449L602 449L604 449L607 449L609 449L611 449L613 448L615 448L617 448L619 448L621 448L623 448L626 448L628 448L630 448L632 448L634 448L636 448L638 448L640 448L643 448L645 448L647 448L649 448L651 449L653 449L655 449L657 449L659 449L662 449L664 449L666 450L668 450L670 450L672 450L674 450L676 451L678 451L681 451L683 451L685 452L687 452L689 452L691 452L693 453L695 453L697 453L700 453L702 454L704 454L706 454L708 454L710 455L712 455L714 455L717 456L719 456" fill="none" stroke-width="1"></path></g><g><path stroke="#4C6A9C" stroke-linecap="round" d="M84 504L105 504L126 503L148 503L169 502L190 501L211 500L232 499L253 498L275 497L296 495L317 493L338 493L359 492L380 490L401 490L404 490L406 490L408 490L410 490L412 489L414 489L416 489L418 489L420 489L423 488L425 488L427 488L429 488L431 487L433 487L435 487L437 487L439 487L442 486L444 486L446 486L448 486L450 486L452 486L454 486L456 485L459 485L461 485L463 485L465 485L467 485L469 485L471 485L473 484L475 484L478 484L480 484L482 484L484 484L486 484L488 484L490 484L492 484L494 484L497 484L499 484L501 484L503 484L505 484L507 484L509 484L511 484L514 484L516 484L518 484L520 483L522 483L524 483L526 483L528 483L530 483L533 483L535 483L537 483L539 483L541 483L543 483L545 483L547 483L549 483L552 483L554 483L556 483L558 483L560 483L562 483L564 483L566 483L568 483L571 483L573 483L575 483L577 483L579 483L581 483L583 483L585 483L588 483L590 484L592 484L594 484L596 484L598 484L600 484L602 484L604 484L607 484L609 484L611 484L613 484L615 484L617 484L619 484L621 485L623 485L626 485L628 485L630 485L632 485L634 485L636 485L638 485L640 485L643 485L645 486L647 486L649 486L651 486L653 486L655 486L657 486L659 486L662 486L664 486L666 486L668 486L670 486L672 486L674 487L676 487L678 487L681 487L683 487L685 487L687 487L689 487L691 487L693 487L695 487L697 487L700 487L702 487L704 487L706 487L708 487L710 487L712 487L714 487L717 487L719 487" fill="none" stroke-width="1.5"></path></g><g><path stroke="#00823F" stroke-linecap="round" d="M84 473L190 463L296 448L298 448L300 447L302 447L304 446L306 446L308 446L310 445L313 445L315 445L317 444L319 444L321 443L323 443L325 443L327 442L330 442L332 441L334 441L336 440L338 440L340 439L342 439L344 438L346 437L349 436L351 436L353 435L355 434L357 433L359 432L361 431L363 430L365 429L368 428L370 427L372 426L374 425L376 424L378 424L380 423L382 422L385 422L387 421L389 421L391 420L393 420L395 419L397 418L399 416L401 414L404 412L406 410L408 408L410 407L412 405L414 403L416 401L418 399L420 397L423 395L425 392L427 390L429 388L431 385L433 383L435 380L437 377L439 375L442 372L444 369L446 366L448 363L450 360L452 357L454 354L456 351L459 349L461 346L463 343L465 340L467 337L469 334L471 330L473 327L475 324L478 320L480 317L482 313L484 310L486 306L488 303L490 300L492 296L494 293L497 290L499 287L501 284L503 281L505 278L507 275L509 272L511 269L514 266L516 262L518 259L520 256L522 253L524 250L526 247L528 243L530 240L533 237L535 234L537 230L539 227L541 224L543 221L545 217L547 214L549 211L552 208L554 205L556 202L558 199L560 196L562 193L564 190L566 187L568 185L571 182L573 179L575 177L577 174L579 171L581 169L583 166L585 164L588 162L590 159L592 157L594 155L596 152L598 150L600 148L602 146L604 144L607 142L609 140L611 138L613 136L615 134L617 133L619 131L621 129L623 128L626 126L628 125L630 123L632 122L634 120L636 119L638 117L640 116L643 115L645 114L647 113L649 111L651 110L653 109L655 108L657 107L659 106L662 105L664 105L666 104L668 103L670 102L672 101L674 101L676 100L678 99L681 99L683 98L685 98L687 97L689 97L691 96L693 96L695 95L697 95L700 94L702 94L704 94L706 93L708 93L710 93L712 93L714 93L717 92L719 92" fill="none" stroke-width="1.5"></path></g><g><path stroke="#3C4E66" stroke-linecap="round" d="M84 499L86 499L88 499L91 499L93 499L95 499L97 499L99 498L101 498L103 498L105 498L107 498L110 498L112 498L114 498L116 498L118 497L120 497L122 497L124 497L126 497L129 497L131 497L133 497L135 497L137 496L139 496L141 496L143 496L146 496L148 496L150 496L152 496L154 496L156 496L158 496L160 496L162 496L165 496L167 496L169 496L171 496L173 496L175 496L177 496L179 496L181 496L184 496L186 496L188 496L190 496L192 496L194 496L196 496L198 496L201 496L203 497L205 497L207 497L209 497L211 497L213 497L215 497L217 497L220 497L222 497L224 497L226 497L228 497L230 498L232 498L234 498L236 498L239 498L241 498L243 498L245 498L247 498L249 498L251 497L253 497L256 497L258 497L260 497L262 497L264 497L266 497L268 497L270 497L272 497L275 497L277 497L279 497L281 497L283 497L285 497L287 497L289 496L291 496L294 496L296 496L298 496L300 496L302 496L304 496L306 496L308 496L310 496L313 495L315 495L317 495L319 495L321 495L323 495L325 495L327 494L330 494L332 494L334 494L336 494L338 493L340 493L342 493L344 493L346 493L349 493L351 493L353 493L355 493L357 493L359 493L361 493L363 492L365 492L368 492L370 492L372 492L374 492L376 492L378 492L380 492L382 492L385 491L387 491L389 491L391 491L393 491L395 491L397 491L399 491L401 490L404 490L406 489L408 489L410 488L412 488L414 488L416 487L418 487L420 487L423 486L425 486L427 485L429 485L431 484L433 484L435 483L437 482L439 481L442 481L444 480L446 479L448 478L450 477L452 477L454 476L456 475L459 475L461 474L463 474L465 473L467 473L469 472L471 471L473 471L475 470L478 469L480 469L482 468L484 467L486 466L488 466L490 465L492 465L494 464L497 464L499 463L501 463L503 463L505 462L507 462L509 462L511 461L514 461L516 461L518 460L520 460L522 460L524 459L526 459L528 459L530 459L533 458L535 458L537 458L539 457L541 457L543 457L545 457L547 456L549 456L552 456L554 456L556 456L558 456L560 455L562 455L564 455L566 455L568 455L571 455L573 455L575 455L577 455L579 455L581 455L583 455L585 455L588 456L590 456L592 456L594 456L596 456L598 456L600 456L602 457L604 457L607 457L609 457L611 457L613 458L615 458L617 458L619 458L621 459L623 459L626 459L628 459L630 460L632 460L634 460L636 461L638 461L640 461L643 461L645 462L647 462L649 462L651 463L653 463L655 463L657 463L659 464L662 464L664 464L666 465L668 465L670 465L672 465L674 466L676 466L678 466L681 466L683 467L685 467L687 467L689 467L691 468L693 468L695 468L697 468L700 469L702 469L704 469L706 469L708 470L710 470L712 470L714 470L717 470L719 471" fill="none" stroke-width="1.5"></path></g><g><path stroke="#B13507" stroke-linecap="round" d="M84 511L86 511L88 511L91 511L93 511L95 511L97 511L99 511L101 511L103 511L105 511L107 511L110 511L112 511L114 511L116 511L118 511L120 511L122 511L124 511L126 511L129 511L131 511L133 511L135 511L137 511L139 511L141 511L143 511L146 511L148 511L150 511L152 511L154 511L156 511L158 511L160 511L162 511L165 511L167 511L169 511L171 511L173 511L175 511L177 511L179 511L181 511L184 511L186 511L188 511L190 511L192 511L194 511L196 511L198 511L201 511L203 511L205 511L207 510L209 510L211 510L213 510L215 510L217 510L220 510L222 510L224 510L226 510L228 510L230 510L232 510L234 510L236 510L239 510L241 510L243 510L245 510L247 510L249 510L251 510L253 510L256 510L258 510L260 510L262 509L264 509L266 509L268 509L270 509L272 509L275 509L277 509L279 509L281 509L283 509L285 509L287 509L289 509L291 509L294 509L296 509L298 509L300 509L302 508L304 508L306 508L308 508L310 508L313 508L315 508L317 508L319 508L321 508L323 508L325 508L327 508L330 508L332 508L334 508L336 507L338 507L340 507L342 507L344 507L346 507L349 507L351 507L353 507L355 507L357 507L359 507L361 507L363 507L365 507L368 507L370 507L372 507L374 507L376 507L378 506L380 506L382 506L385 506L387 506L389 506L391 506L393 506L395 506L397 506L399 506L401 506L404 505L406 505L408 505L410 505L412 505L414 505L416 505L418 505L420 505L423 504L425 504L427 504L429 504L431 504L433 504L435 504L437 504L439 504L442 504L444 504L446 503L448 503L450 503L452 503L454 503L456 503L459 503L461 503L463 503L465 503L467 503L469 503L471 503L473 502L475 502L478 502L480 502L482 502L484 502L486 502L488 502L490 502L492 502L494 502L497 501L499 501L501 501L503 501L505 501L507 501L509 501L511 501L514 500L516 500L518 500L520 500L522 500L524 500L526 500L528 500L530 500L533 500L535 499L537 499L539 499L541 499L543 499L545 499L547 499L549 499L552 499L554 499L556 499L558 499L560 499L562 498L564 498L566 498L568 498L571 498L573 498L575 498L577 498L579 498L581 498L583 498L585 498L588 498L590 498L592 498L594 497L596 497L598 497L600 497L602 497L604 497L607 497L609 497L611 497L613 497L615 497L617 497L619 497L621 497L623 497L626 497L628 497L630 497L632 497L634 497L636 497L638 496L640 496L643 496L645 496L647 496L649 496L651 496L653 496L655 496L657 496L659 496L662 496L664 496L666 496L668 496L670 496L672 496L674 496L676 496L678 496L681 496L683 496L685 495L687 495L689 495L691 495L693 495L695 495L697 495L700 495L702 495L704 495L706 495L708 495L710 495L712 495L714 495L717 495L719 495" fill="none" stroke-width="1.5"></path></g><g><path stroke="#6D3E91" stroke-linecap="round" d="M84 511L86 511L88 511L91 511L93 511L95 511L97 511L99 511L101 511L103 511L105 511L107 511L110 511L112 511L114 511L116 511L118 511L120 511L122 511L124 511L126 511L129 511L131 511L133 511L135 511L137 511L139 511L141 511L143 511L146 511L148 511L150 511L152 511L154 511L156 511L158 511L160 511L162 511L165 511L167 511L169 511L171 511L173 511L175 511L177 511L179 511L181 511L184 511L186 511L188 511L190 511L192 511L194 511L196 511L198 511L201 511L203 511L205 511L207 511L209 511L211 511L213 511L215 511L217 511L220 511L222 511L224 511L226 511L228 511L230 511L232 511L234 511L236 511L239 511L241 511L243 511L245 511L247 511L249 511L251 511L253 511L256 511L258 511L260 511L262 511L264 511L266 511L268 511L270 511L272 511L275 511L277 511L279 511L281 511L283 511L285 511L287 511L289 511L291 511L294 511L296 511L298 511L300 511L302 511L304 511L306 511L308 511L310 511L313 511L315 511L317 511L319 511L321 511L323 511L325 511L327 511L330 511L332 511L334 511L336 511L338 511L340 511L342 511L344 511L346 511L349 511L351 511L353 511L355 511L357 511L359 511L361 511L363 511L365 511L368 511L370 511L372 511L374 511L376 511L378 511L380 511L382 511L385 511L387 511L389 510L391 510L393 510L395 510L397 510L399 510L401 510L404 510L406 510L408 510L410 510L412 510L414 510L416 510L418 510L420 510L423 510L425 510L427 510L429 510L431 510L433 510L435 510L437 510L439 510L442 510L444 509L446 509L448 509L450 509L452 509L454 509L456 509L459 509L461 509L463 509L465 509L467 509L469 509L471 509L473 509L475 508L478 508L480 508L482 508L484 508L486 508L488 508L490 508L492 508L494 508L497 507L499 507L501 507L503 507L505 507L507 507L509 507L511 507L514 507L516 506L518 506L520 506L522 506L524 506L526 506L528 506L530 505L533 505L535 505L537 505L539 505L541 504L543 504L545 504L547 504L549 504L552 503L554 503L556 503L558 503L560 503L562 502L564 502L566 502L568 502L571 502L573 501L575 501L577 501L579 501L581 500L583 500L585 500L588 499L590 499L592 499L594 499L596 498L598 498L600 498L602 498L604 497L607 497L609 497L611 496L613 496L615 496L617 496L619 495L621 495L623 495L626 494L628 494L630 494L632 494L634 493L636 493L638 493L640 492L643 492L645 492L647 492L649 491L651 491L653 491L655 490L657 490L659 490L662 490L664 489L666 489L668 489L670 489L672 488L674 488L676 488L678 487L681 487L683 487L685 487L687 486L689 486L691 486L693 486L695 486L697 485L700 485L702 485L704 485L706 485L708 484L710 484L712 484L714 484L717 484L719 483" fill="none" stroke-width="1.5"></path></g><g><path stroke="#883039" stroke-linecap="round" d="M84 505L86 505L88 505L91 505L93 505L95 505L97 505L99 505L101 505L103 505L105 505L107 505L110 505L112 505L114 505L116 505L118 505L120 505L122 505L124 505L126 505L129 505L131 505L133 505L135 505L137 505L139 505L141 505L143 505L146 505L148 505L150 505L152 505L154 505L156 505L158 504L160 504L162 504L165 504L167 504L169 504L171 504L173 504L175 504L177 504L179 504L181 504L184 504L186 504L188 504L190 504L192 504L194 504L196 504L198 504L201 504L203 504L205 504L207 504L209 504L211 504L213 504L215 504L217 504L220 504L222 504L224 504L226 504L228 503L230 503L232 503L234 503L236 503L239 503L241 503L243 503L245 503L247 503L249 503L251 503L253 503L256 503L258 503L260 503L262 503L264 503L266 503L268 503L270 503L272 503L275 503L277 503L279 503L281 503L283 503L285 502L287 502L289 502L291 502L294 502L296 502L298 502L300 502L302 502L304 502L306 502L308 502L310 502L313 502L315 502L317 502L319 502L321 502L323 502L325 502L327 502L330 502L332 501L334 501L336 501L338 501L340 501L342 501L344 501L346 501L349 501L351 501L353 501L355 501L357 501L359 501L361 500L363 500L365 500L368 500L370 500L372 500L374 500L376 499L378 499L380 499L382 499L385 499L387 499L389 499L391 498L393 498L395 498L397 498L399 498L401 497L404 497L406 497L408 496L410 496L412 496L414 496L416 495L418 495L420 495L423 494L425 494L427 494L429 493L431 493L433 492L435 492L437 492L439 491L442 491L444 490L446 490L448 489L450 489L452 488L454 488L456 487L459 486L461 486L463 485L465 485L467 484L469 483L471 483L473 482L475 481L478 481L480 480L482 479L484 479L486 478L488 477L490 477L492 476L494 475L497 474L499 474L501 473L503 472L505 472L507 471L509 470L511 469L514 469L516 468L518 467L520 467L522 466L524 465L526 465L528 464L530 463L533 463L535 462L537 462L539 461L541 461L543 460L545 459L547 459L549 458L552 458L554 457L556 457L558 456L560 456L562 455L564 455L566 455L568 454L571 454L573 453L575 453L577 452L579 452L581 452L583 451L585 451L588 451L590 450L592 450L594 450L596 450L598 450L600 449L602 449L604 449L607 449L609 449L611 449L613 448L615 448L617 448L619 448L621 448L623 448L626 448L628 448L630 448L632 448L634 448L636 448L638 448L640 448L643 448L645 448L647 448L649 448L651 449L653 449L655 449L657 449L659 449L662 449L664 449L666 450L668 450L670 450L672 450L674 450L676 451L678 451L681 451L683 451L685 452L687 452L689 452L691 452L693 453L695 453L697 453L700 453L702 454L704 454L706 454L708 454L710 455L712 455L714 455L717 456L719 456" fill="none" stroke-width="1.5"></path></g></g></g></g><g class="SourcesFooter" style="fill:#777"><g style="fill:#777"><text font-size="12.60" x="15.0" y="567.9"><tspan x="15" y="567.88">Source: Gapminder &amp; UN Population Revision (2019) Medium Scenario</tspan></text></g><text font-size="12.60" x="15.0" y="582.5"><tspan x="15" y="582.48">Note: Historical country data is shown based on today&#x27;s geographical borders.</tspan></text><text font-size="12.60" x="529.5" y="567.9"><tspan x="529.45" y="567.88"><a target='_blank' style='fill: #777;' href='https://ourworldindata.org/future-population-growth'>OurWorldInData.org/future-population-growth</a> • <a style="fill: #777;" class="cclogo" href="http://creativecommons.org/licenses/by/4.0/deed.en_US" target="_blank">CC BY</a></tspan></text></g></svg>