<svg width="502.623" height="343.507" viewBox="0 0 376.967 257.631" xmlns="http://www.w3.org/2000/svg" xmlns:xlink="http://www.w3.org/1999/xlink" stroke-linejoin="round" overflow="hidden"><defs></defs><defs><clipPath id="p5045e2dd7f"><rect x="34.9672" y="7.2" width="334.8" height="217.44"/></clipPath></defs><g id="figure_1"><g id="patch_1"><path d="M0 257.631 376.967 257.631 376.967 0 0 0Z" fill="#FFFFFF"/></g><g id="axes_1"><g id="patch_2"><path d="M34.9672 224.64 369.767 224.64 369.767 7.2 34.9672 7.2Z" fill="#FFFFFF"/></g><g id="matplotlib.axis_1"><g id="xtick_1"><g id="line2d_1"><path d="M50.1854 224.64 50.1854 7.2" stroke="#CCCCCC" stroke-width="0.8" stroke-linecap="round" fill="none" clip-path="url(#p5045e2dd7f)"/></g><g id="line2d_2"></g><g id="text_1"><defs><path d="M4.15625 35.2969C4.15625 43.7656 5.02604 50.5781 6.76563 55.7344 8.50521 60.901 11.0885 64.8802 14.5156 67.6719 17.9531 70.474 22.276 71.875 27.4844 71.875 31.3281 71.875 34.6979 71.099 37.5938 69.5469 40.4896 68.0052 42.8802 65.776 44.7656 62.8594 46.6615 59.9531 48.1458 56.4063 49.2188 52.2188 50.2917 48.0417 50.8281 42.401 50.8281 35.2969 50.8281 26.901 49.9635 20.125 48.2344 14.9688 46.5156 9.8125 43.9375 5.82292 40.5 3 37.0729 0.1875 32.7344-1.21875 27.4844-1.21875 20.5885-1.21875 15.1719 1.25521 11.2344 6.20313 6.51563 12.1615 4.15625 21.8594 4.15625 35.2969ZM13.1875 35.2969C13.1875 23.5469 14.5625 15.724 17.3125 11.8281 20.0625 7.94271 23.4531 6 27.4844 6 31.526 6 34.9219 7.95313 37.6719 11.8594 40.4219 15.7656 41.7969 23.5781 41.7969 35.2969 41.7969 47.0885 40.4219 54.9167 37.6719 58.7813 34.9219 62.6563 31.4948 64.5938 27.3906 64.5938 23.3594 64.5938 20.1354 62.8854 17.7188 59.4688 14.6979 55.1146 13.1875 47.0573 13.1875 35.2969Z" id="ArialMT-48"/><path d="M9.07813 0 9.07813 10.0156 19.0938 10.0156 19.0938 0Z" id="ArialMT-46"/></defs><g fill="#262626" transform="matrix(0.1 0 0 -0.1 43.2354 235.298)"><use width="100%" height="100%" xlink:href="#ArialMT-48"></use><use x="55.6152" width="100%" height="100%" xlink:href="#ArialMT-46"></use><use x="83.3984" width="100%" height="100%" xlink:href="#ArialMT-48"></use></g></g></g><g id="xtick_2"><g id="line2d_3"><path d="M90.2332 224.64 90.2332 7.2" stroke="#CCCCCC" stroke-width="0.8" stroke-linecap="round" fill="none" clip-path="url(#p5045e2dd7f)"/></g><g id="line2d_4"></g><g id="text_2"><defs><path d="M50.3438 8.45313 50.3438 0 3.03125 0C2.96875 2.11458 3.30729 4.15104 4.04688 6.10938 5.25521 9.32813 7.18229 12.5 9.82813 15.625 12.4844 18.75 16.3229 22.3646 21.3438 26.4688 29.125 32.8438 34.3802 37.8958 37.1094 41.625 39.849 45.3542 41.2188 48.8802 41.2188 52.2031 41.2188 55.6823 39.9688 58.6146 37.4688 61 34.9792 63.3958 31.7344 64.5938 27.7344 64.5938 23.5052 64.5938 20.1198 63.3229 17.5781 60.7813 15.0365 58.25 13.75 54.7396 13.7188 50.25L4.6875 51.1719C5.30208 57.9115 7.625 63.0469 11.6563 66.5781 15.6979 70.1094 21.125 71.875 27.9375 71.875 34.8021 71.875 40.2344 69.9688 44.2344 66.1563 48.2448 62.3542 50.25 57.6354 50.25 52 50.25 49.1354 49.6615 46.3177 48.4844 43.5469 47.3177 40.7865 45.375 37.875 42.6563 34.8125 39.9375 31.75 35.4219 27.5521 29.1094 22.2188 23.8281 17.7917 20.4375 14.7865 18.9375 13.2031 17.4479 11.6302 16.2135 10.0469 15.2344 8.45313Z" id="ArialMT-50"/><path d="M4.15625 18.75 13.375 19.5313C14.0625 15.0417 15.651 11.6615 18.1406 9.39063 20.6302 7.13021 23.6354 6 27.1563 6 31.3854 6 34.9635 7.59375 37.8906 10.7813 40.8177 13.9792 42.2813 18.2135 42.2813 23.4844 42.2813 28.4948 40.875 32.4479 38.0625 35.3438 35.25 38.25 31.5625 39.7031 27 39.7031 24.1667 39.7031 21.6094 39.0573 19.3281 37.7656 17.0573 36.4844 15.2708 34.8177 13.9688 32.7656L5.71875 33.8438 12.6406 70.6094 48.25 70.6094 48.25 62.2031 19.6719 62.2031 15.8281 42.9688C20.1198 45.9688 24.625 47.4688 29.3438 47.4688 35.5938 47.4688 40.8646 45.3021 45.1563 40.9688 49.4583 36.6354 51.6094 31.0677 51.6094 24.2656 51.6094 17.7865 49.724 12.1875 45.9531 7.46875 41.3594 1.67708 35.0938-1.21875 27.1563-1.21875 20.6458-1.21875 15.3281 0.604167 11.2031 4.25 7.08854 7.89583 4.73958 12.7292 4.15625 18.75Z" id="ArialMT-53"/></defs><g fill="#262626" transform="matrix(0.1 0 0 -0.1 83.2832 235.298)"><use width="100%" height="100%" xlink:href="#ArialMT-50"></use><use x="55.6152" width="100%" height="100%" xlink:href="#ArialMT-46"></use><use x="83.3984" width="100%" height="100%" xlink:href="#ArialMT-53"></use></g></g></g><g id="xtick_3"><g id="line2d_5"><path d="M130.281 224.64 130.281 7.2" stroke="#CCCCCC" stroke-width="0.8" stroke-linecap="round" fill="none" clip-path="url(#p5045e2dd7f)"/></g><g id="line2d_6"></g><g id="text_3"><g fill="#262626" transform="matrix(0.1 0 0 -0.1 123.331 235.298)"><use width="100%" height="100%" xlink:href="#ArialMT-53"></use><use x="55.6152" width="100%" height="100%" xlink:href="#ArialMT-46"></use><use x="83.3984" width="100%" height="100%" xlink:href="#ArialMT-48"></use></g></g></g><g id="xtick_4"><g id="line2d_7"><path d="M170.329 224.64 170.329 7.2" stroke="#CCCCCC" stroke-width="0.8" stroke-linecap="round" fill="none" clip-path="url(#p5045e2dd7f)"/></g><g id="line2d_8"></g><g id="text_4"><defs><path d="M4.73438 62.2031 4.73438 70.6563 51.0781 70.6563 51.0781 63.8125C46.5156 58.9688 41.9948 52.526 37.5156 44.4844 33.0469 36.4427 29.5938 28.1719 27.1563 19.6719 25.3958 13.6823 24.2708 7.125 23.7813 0L14.75 0C14.8438 5.63542 15.9479 12.4375 18.0625 20.4063 20.1771 28.3854 23.2135 36.0781 27.1719 43.4844 31.1302 50.8906 35.3385 57.1302 39.7969 62.2031Z" id="ArialMT-55"/></defs><g fill="#262626" transform="matrix(0.1 0 0 -0.1 163.379 235.298)"><use width="100%" height="100%" xlink:href="#ArialMT-55"></use><use x="55.6152" width="100%" height="100%" xlink:href="#ArialMT-46"></use><use x="83.3984" width="100%" height="100%" xlink:href="#ArialMT-53"></use></g></g></g><g id="xtick_5"><g id="line2d_9"><path d="M210.377 224.64 210.377 7.2" stroke="#CCCCCC" stroke-width="0.8" stroke-linecap="round" fill="none" clip-path="url(#p5045e2dd7f)"/></g><g id="line2d_10"></g><g id="text_5"><defs><path d="M37.25 0 28.4688 0 28.4688 56C26.3542 53.9896 23.5781 51.974 20.1406 49.9531 16.7031 47.9323 13.6198 46.4167 10.8906 45.4063L10.8906 53.9063C15.8073 56.2188 20.1042 59.0156 23.7813 62.2969 27.4583 65.5885 30.0625 68.7813 31.5938 71.875L37.25 71.875Z" id="ArialMT-49"/></defs><g fill="#262626" transform="matrix(0.1 0 0 -0.1 200.646 235.298)"><use width="100%" height="100%" xlink:href="#ArialMT-49"></use><use x="55.6152" width="100%" height="100%" xlink:href="#ArialMT-48"></use><use x="111.23" width="100%" height="100%" xlink:href="#ArialMT-46"></use><use x="139.014" width="100%" height="100%" xlink:href="#ArialMT-48"></use></g></g></g><g id="xtick_6"><g id="line2d_11"><path d="M250.425 224.64 250.425 7.2" stroke="#CCCCCC" stroke-width="0.8" stroke-linecap="round" fill="none" clip-path="url(#p5045e2dd7f)"/></g><g id="line2d_12"></g><g id="text_6"><g fill="#262626" transform="matrix(0.1 0 0 -0.1 240.694 235.298)"><use width="100%" height="100%" xlink:href="#ArialMT-49"></use><use x="55.6152" width="100%" height="100%" xlink:href="#ArialMT-50"></use><use x="111.23" width="100%" height="100%" xlink:href="#ArialMT-46"></use><use x="139.014" width="100%" height="100%" xlink:href="#ArialMT-53"></use></g></g></g><g id="xtick_7"><g id="line2d_13"><path d="M290.472 224.64 290.472 7.2" stroke="#CCCCCC" stroke-width="0.8" stroke-linecap="round" fill="none" clip-path="url(#p5045e2dd7f)"/></g><g id="line2d_14"></g><g id="text_7"><g fill="#262626" transform="matrix(0.1 0 0 -0.1 280.742 235.298)"><use width="100%" height="100%" xlink:href="#ArialMT-49"></use><use x="55.6152" width="100%" height="100%" xlink:href="#ArialMT-53"></use><use x="111.23" width="100%" height="100%" xlink:href="#ArialMT-46"></use><use x="139.014" width="100%" height="100%" xlink:href="#ArialMT-48"></use></g></g></g><g id="xtick_8"><g id="line2d_15"><path d="M330.52 224.64 330.52 7.2" stroke="#CCCCCC" stroke-width="0.8" stroke-linecap="round" fill="none" clip-path="url(#p5045e2dd7f)"/></g><g id="line2d_16"></g><g id="text_8"><g fill="#262626" transform="matrix(0.1 0 0 -0.1 320.79 235.298)"><use width="100%" height="100%" xlink:href="#ArialMT-49"></use><use x="55.6152" width="100%" height="100%" xlink:href="#ArialMT-55"></use><use x="111.23" width="100%" height="100%" xlink:href="#ArialMT-46"></use><use x="139.014" width="100%" height="100%" xlink:href="#ArialMT-53"></use></g></g></g><g id="text_9"><defs><path d="M9.32813 0 9.32813 71.5781 18.7969 71.5781 18.7969 0Z" id="ArialMT-73"/><path d="M25.7813 7.85938 27.0469 0.09375C24.5781-0.427083 22.3646-0.6875 20.4063-0.6875 17.2188-0.6875 14.7448-0.182292 12.9844 0.828125 11.2344 1.83854 10 3.16667 9.28125 4.8125 8.5625 6.45833 8.20313 9.91667 8.20313 15.1875L8.20313 45.0156 1.76563 45.0156 1.76563 51.8594 8.20313 51.8594 8.20313 64.7031 16.9375 69.9688 16.9375 51.8594 25.7813 51.8594 25.7813 45.0156 16.9375 45.0156 16.9375 14.7031C16.9375 12.1927 17.0938 10.5781 17.4063 9.85938 17.7188 9.15104 18.224 8.58333 18.9219 8.15625 19.6198 7.72917 20.6198 7.51563 21.9219 7.51563 22.901 7.51563 24.1875 7.63021 25.7813 7.85938Z" id="ArialMT-116"/><path d="M42.0938 16.7031 51.1719 15.5781C49.7448 10.276 47.0938 6.15625 43.2188 3.21875 39.3438 0.291667 34.3958-1.17188 28.375-1.17188 20.7917-1.17188 14.776 1.16146 10.3281 5.82813 5.88021 10.5052 3.65625 17.0573 3.65625 25.4844 3.65625 34.2135 5.90104 40.9844 10.3906 45.7969 14.8906 50.6198 20.7188 53.0313 27.875 53.0313 34.8125 53.0313 40.4792 50.6719 44.875 45.9531 49.2708 41.2344 51.4688 34.5938 51.4688 26.0313 51.4688 25.5104 51.4531 24.7292 51.4219 23.6875L12.75 23.6875C13.0729 17.9896 14.6823 13.625 17.5781 10.5938 20.474 7.57292 24.0885 6.0625 28.4219 6.0625 31.6406 6.0625 34.3906 6.90625 36.6719 8.59375 38.9531 10.2917 40.7604 12.9948 42.0938 16.7031ZM13.2344 30.9063 42.1875 30.9063C41.8021 35.2708 40.6979 38.5417 38.875 40.7188 36.0729 44.1042 32.4427 45.7969 27.9844 45.7969 23.9427 45.7969 20.5469 44.4479 17.7969 41.75 15.0469 39.0521 13.526 35.4375 13.2344 30.9063Z" id="ArialMT-101"/><path d="M6.5 0 6.5 51.8594 14.4063 51.8594 14.4063 44C16.4271 47.6771 18.2917 50.099 20 51.2656 21.7083 52.4427 23.5885 53.0313 25.6406 53.0313 28.599 53.0313 31.6094 52.0885 34.6719 50.2031L31.6406 42.0469C29.4948 43.3177 27.349 43.9531 25.2031 43.9531 23.276 43.9531 21.5469 43.375 20.0156 42.2188 18.4844 41.0625 17.3958 39.4583 16.75 37.4063 15.7708 34.2813 15.2813 30.8646 15.2813 27.1563L15.2813 0Z" id="ArialMT-114"/><path d="M40.4375 6.39063C37.1771 3.63021 34.0417 1.67708 31.0313 0.53125 28.0208-0.604167 24.7917-1.17188 21.3438-1.17188 15.6458-1.17188 11.2656 0.21875 8.20313 3 5.14063 5.78125 3.60938 9.33854 3.60938 13.6719 3.60938 16.2135 4.1875 18.5313 5.34375 20.625 6.5 22.7292 8.01563 24.4167 9.89063 25.6875 11.7656 26.9583 13.875 27.9167 16.2188 28.5625 17.9375 29.0208 20.5417 29.4635 24.0313 29.8906 31.125 30.7344 36.349 31.7396 39.7031 32.9063 39.7344 34.1146 39.75 34.8802 39.75 35.2031 39.75 38.7865 38.9167 41.3125 37.25 42.7813 35.0104 44.7604 31.6771 45.75 27.25 45.75 23.1146 45.75 20.0625 45.026 18.0938 43.5781 16.125 42.1302 14.6667 39.5677 13.7188 35.8906L5.125 37.0625C5.90625 40.7396 7.19271 43.7083 8.98438 45.9688 10.776 48.2292 13.3646 49.9688 16.75 51.1875 20.1354 52.4167 24.0573 53.0313 28.5156 53.0313 32.9427 53.0313 36.5365 52.5104 39.2969 51.4688 42.0677 50.4271 44.1042 49.1146 45.4063 47.5313 46.7083 45.9583 47.6198 43.9635 48.1406 41.5469 48.4323 40.0573 48.5781 37.3594 48.5781 33.4531L48.5781 21.7344C48.5781 13.5573 48.7656 8.38542 49.1406 6.21875 49.5156 4.0625 50.2604 1.98958 51.375 0L42.1875 0C41.2813 1.82292 40.6979 3.95313 40.4375 6.39063ZM39.7031 26.0313C36.5052 24.7292 31.7188 23.6198 25.3438 22.7031 21.7292 22.1823 19.1719 21.5938 17.6719 20.9375 16.1823 20.2917 15.026 19.3438 14.2031 18.0938 13.3906 16.8438 12.9844 15.4531 12.9844 13.9219 12.9844 11.5781 13.8698 9.625 15.6406 8.0625 17.4219 6.5 20.0208 5.71875 23.4375 5.71875 26.8229 5.71875 29.8333 6.45833 32.4688 7.9375 35.1042 9.41667 37.0417 11.4427 38.2813 14.0156 39.2292 16.0052 39.7031 18.9323 39.7031 22.7969Z" id="ArialMT-97"/><path d="M6.64063 61.4688 6.64063 71.5781 15.4375 71.5781 15.4375 61.4688ZM6.64063 0 6.64063 51.8594 15.4375 51.8594 15.4375 0Z" id="ArialMT-105"/><path d="M3.32813 25.9219C3.32813 35.526 5.99479 42.6406 11.3281 47.2656 15.7865 51.1094 21.224 53.0313 27.6406 53.0313 34.7656 53.0313 40.5885 50.6927 45.1094 46.0156 49.6406 41.349 51.9063 34.8958 51.9063 26.6563 51.9063 19.9896 50.9063 14.7396 48.9063 10.9063 46.9063 7.08333 43.9896 4.11458 40.1563 2 36.3333-0.114583 32.1615-1.17188 27.6406-1.17188 20.3802-1.17188 14.5104 1.15625 10.0313 5.8125 5.5625 10.4688 3.32813 17.1719 3.32813 25.9219ZM12.3594 25.9219C12.3594 19.2865 13.8073 14.3177 16.7031 11.0156 19.599 7.71354 23.2448 6.0625 27.6406 6.0625 32.0052 6.0625 35.6354 7.71875 38.5313 11.0313 41.4271 14.3542 42.875 19.4167 42.875 26.2188 42.875 32.6354 41.4167 37.4948 38.5 40.7969 35.5833 44.099 31.9635 45.75 27.6406 45.75 23.2448 45.75 19.599 44.1042 16.7031 40.8125 13.8073 37.5313 12.3594 32.5677 12.3594 25.9219Z" id="ArialMT-111"/><path d="M6.59375 0 6.59375 51.8594 14.5 51.8594 14.5 44.4844C18.3125 50.1823 23.8125 53.0313 31 53.0313 34.125 53.0313 37 52.4688 39.625 51.3438 42.25 50.2188 44.2135 48.7448 45.5156 46.9219 46.8177 45.099 47.7292 42.9375 48.25 40.4375 48.5729 38.8021 48.7344 35.9531 48.7344 31.8906L48.7344 0 39.9375 0 39.9375 31.5469C39.9375 35.1302 39.5938 37.8073 38.9063 39.5781 38.2292 41.349 37.0208 42.7604 35.2813 43.8125 33.5417 44.875 31.5 45.4063 29.1563 45.4063 25.4063 45.4063 22.1719 44.2188 19.4531 41.8438 16.7344 39.4688 15.375 34.9635 15.375 28.3281L15.375 0Z" id="ArialMT-110"/></defs><g fill="#262626" transform="matrix(0.1 0 0 -0.1 184.302 248.443)"><use width="100%" height="100%" xlink:href="#ArialMT-73"></use><use x="27.7832" width="100%" height="100%" xlink:href="#ArialMT-116"></use><use x="55.5664" width="100%" height="100%" xlink:href="#ArialMT-101"></use><use x="111.182" width="100%" height="100%" xlink:href="#ArialMT-114"></use><use x="144.482" width="100%" height="100%" xlink:href="#ArialMT-97"></use><use x="200.098" width="100%" height="100%" xlink:href="#ArialMT-116"></use><use x="227.881" width="100%" height="100%" xlink:href="#ArialMT-105"></use><use x="250.098" width="100%" height="100%" xlink:href="#ArialMT-111"></use><use x="305.713" width="100%" height="100%" xlink:href="#ArialMT-110"></use></g></g></g><g id="matplotlib.axis_2"><g id="ytick_1"><g id="line2d_17"><path d="M34.9672 213.855 369.767 213.855" stroke="#CCCCCC" stroke-width="0.8" stroke-linecap="round" fill="none" clip-path="url(#p5045e2dd7f)"/></g><g id="line2d_18"></g><g id="text_10"><g fill="#262626" transform="matrix(0.1 0 0 -0.1 25.9063 217.434)"><use width="100%" height="100%" xlink:href="#ArialMT-55"></use></g></g></g><g id="ytick_2"><g id="line2d_19"><path d="M34.9672 180.887 369.767 180.887" stroke="#CCCCCC" stroke-width="0.8" stroke-linecap="round" fill="none" clip-path="url(#p5045e2dd7f)"/></g><g id="line2d_20"></g><g id="text_11"><defs><path d="M17.6719 38.8125C14.026 40.1563 11.3229 42.0625 9.5625 44.5313 7.8125 47.0104 6.9375 49.974 6.9375 53.4219 6.9375 58.6302 8.80729 63.0052 12.5469 66.5469 16.2969 70.099 21.276 71.875 27.4844 71.875 33.7344 71.875 38.7656 70.0573 42.5781 66.4219 46.3906 62.7969 48.2969 58.3802 48.2969 53.1719 48.2969 49.849 47.4219 46.9583 45.6719 44.5 43.9323 42.0521 41.2917 40.1563 37.75 38.8125 42.1458 37.3854 45.4896 35.0729 47.7813 31.875 50.0729 28.6875 51.2188 24.8802 51.2188 20.4531 51.2188 14.3385 49.0521 9.19792 44.7188 5.03125 40.3958 0.864583 34.7031-1.21875 27.6406-1.21875 20.5781-1.21875 14.8802 0.869792 10.5469 5.04688 6.21354 9.23438 4.04688 14.4531 4.04688 20.7031 4.04688 25.3594 5.22917 29.2552 7.59375 32.3906 9.95833 35.5365 13.3177 37.6771 17.6719 38.8125ZM15.9219 53.7188C15.9219 50.3333 17.0104 47.5625 19.1875 45.4063 21.375 43.2604 24.2083 42.1875 27.6875 42.1875 31.0729 42.1875 33.849 43.25 36.0156 45.375 38.1823 47.5104 39.2656 50.125 39.2656 53.2188 39.2656 56.4479 38.1458 59.1615 35.9063 61.3594 33.6771 63.5573 30.9063 64.6563 27.5938 64.6563 24.2396 64.6563 21.4531 63.5781 19.2344 61.4219 17.026 59.276 15.9219 56.7083 15.9219 53.7188ZM13.0938 20.6563C13.0938 18.1458 13.6875 15.7188 14.875 13.375 16.0625 11.0313 17.8281 9.21354 20.1719 7.92188 22.5156 6.64063 25.0365 6 27.7344 6 31.9323 6 35.3958 7.34896 38.125 10.0469 40.8646 12.7552 42.2344 16.1927 42.2344 20.3594 42.2344 24.5885 40.8281 28.0885 38.0156 30.8594 35.2031 33.6302 31.6771 35.0156 27.4375 35.0156 23.3021 35.0156 19.875 33.6458 17.1563 30.9063 14.4479 28.1771 13.0938 24.7604 13.0938 20.6563Z" id="ArialMT-56"/></defs><g fill="#262626" transform="matrix(0.1 0 0 -0.1 25.9063 184.466)"><use width="100%" height="100%" xlink:href="#ArialMT-56"></use></g></g></g><g id="ytick_3"><g id="line2d_21"><path d="M34.9672 147.919 369.767 147.919" stroke="#CCCCCC" stroke-width="0.8" stroke-linecap="round" fill="none" clip-path="url(#p5045e2dd7f)"/></g><g id="line2d_22"></g><g id="text_12"><defs><path d="M5.46875 16.5469 13.9219 17.3281C14.6302 13.3594 15.9948 10.4792 18.0156 8.6875 20.0365 6.89583 22.625 6 25.7813 6 28.4792 6 30.8438 6.61979 32.875 7.85938 34.9167 9.09896 36.5885 10.75 37.8906 12.8125 39.1927 14.8854 40.2813 17.6771 41.1563 21.1875 42.0417 24.7083 42.4844 28.2917 42.4844 31.9375 42.4844 32.3229 42.4688 32.9063 42.4375 33.6875 40.6771 30.8958 38.276 28.625 35.2344 26.875 32.1927 25.1354 28.8958 24.2656 25.3438 24.2656 19.4167 24.2656 14.401 26.4115 10.2969 30.7031 6.20313 35.0052 4.15625 40.6719 4.15625 47.7031 4.15625 54.9635 6.29688 60.8073 10.5781 65.2344 14.8594 69.6615 20.2188 71.875 26.6563 71.875 31.3125 71.875 35.5677 70.6198 39.4219 68.1094 43.2865 65.6094 46.2188 62.0365 48.2188 57.3906 50.2188 52.7552 51.2188 46.0417 51.2188 37.25 51.2188 28.1042 50.224 20.8229 48.2344 15.4063 46.2552 9.98958 43.3021 5.86458 39.375 3.03125 35.4583 0.197917 30.8646-1.21875 25.5938-1.21875 19.9896-1.21875 15.4115 0.333333 11.8594 3.4375 8.31771 6.55208 6.1875 10.9219 5.46875 16.5469ZM41.4531 48.1406C41.4531 53.1927 40.1094 57.1979 37.4219 60.1563 34.7448 63.1146 31.5156 64.5938 27.7344 64.5938 23.8281 64.5938 20.4271 63 17.5313 59.8125 14.6354 56.625 13.1875 52.4896 13.1875 47.4063 13.1875 42.8542 14.5625 39.151 17.3125 36.2969 20.0625 33.4531 23.4531 32.0313 27.4844 32.0313 31.5573 32.0313 34.901 33.4531 37.5156 36.2969 40.1406 39.151 41.4531 43.099 41.4531 48.1406Z" id="ArialMT-57"/></defs><g fill="#262626" transform="matrix(0.1 0 0 -0.1 25.9063 151.498)"><use width="100%" height="100%" xlink:href="#ArialMT-57"></use></g></g></g><g id="ytick_4"><g id="line2d_23"><path d="M34.9672 114.951 369.767 114.951" stroke="#CCCCCC" stroke-width="0.8" stroke-linecap="round" fill="none" clip-path="url(#p5045e2dd7f)"/></g><g id="line2d_24"></g><g id="text_13"><g fill="#262626" transform="matrix(0.1 0 0 -0.1 20.3453 118.529)"><use width="100%" height="100%" xlink:href="#ArialMT-49"></use><use x="55.6152" width="100%" height="100%" xlink:href="#ArialMT-48"></use></g></g></g><g id="ytick_5"><g id="line2d_25"><path d="M34.9672 81.9824 369.767 81.9824" stroke="#CCCCCC" stroke-width="0.8" stroke-linecap="round" fill="none" clip-path="url(#p5045e2dd7f)"/></g><g id="line2d_26"></g><g id="text_14"><g fill="#262626" transform="matrix(0.1 0 0 -0.1 20.3562 85.5614)"><use width="100%" height="100%" xlink:href="#ArialMT-49"></use><use x="55.5059" width="100%" height="100%" xlink:href="#ArialMT-49"></use></g></g></g><g id="ytick_6"><g id="line2d_27"><path d="M34.9672 49.0144 369.767 49.0144" stroke="#CCCCCC" stroke-width="0.8" stroke-linecap="round" fill="none" clip-path="url(#p5045e2dd7f)"/></g><g id="line2d_28"></g><g id="text_15"><g fill="#262626" transform="matrix(0.1 0 0 -0.1 20.3453 52.5933)"><use width="100%" height="100%" xlink:href="#ArialMT-49"></use><use x="55.6152" width="100%" height="100%" xlink:href="#ArialMT-50"></use></g></g></g><g id="ytick_7"><g id="line2d_29"><path d="M34.9672 16.0463 369.767 16.0463" stroke="#CCCCCC" stroke-width="0.8" stroke-linecap="round" fill="none" clip-path="url(#p5045e2dd7f)"/></g><g id="line2d_30"></g><g id="text_16"><defs><path d="M4.20313 18.8906 12.9844 20.0625C13.9948 15.0833 15.7135 11.4948 18.1406 9.29688 20.5677 7.09896 23.5208 6 27 6 31.1354 6 34.625 7.43229 37.4688 10.2969 40.3229 13.1615 41.75 16.7135 41.75 20.9531 41.75 24.9844 40.4323 28.3073 37.7969 30.9219 35.1615 33.5469 31.8073 34.8594 27.7344 34.8594 26.0781 34.8594 24.0104 34.5365 21.5313 33.8906L22.5156 41.6094C23.099 41.5365 23.5677 41.5 23.9219 41.5 27.6719 41.5 31.0417 42.474 34.0313 44.4219 37.0313 46.3802 38.5313 49.3958 38.5313 53.4688 38.5313 56.6875 37.4375 59.3542 35.25 61.4688 33.0729 63.5938 30.2604 64.6563 26.8125 64.6563 23.3958 64.6563 20.5469 63.5781 18.2656 61.4219 15.9844 59.276 14.5208 56.0573 13.875 51.7656L5.07813 53.3281C6.15104 59.2135 8.58854 63.776 12.3906 67.0156 16.2031 70.2552 20.9427 71.875 26.6094 71.875 30.5156 71.875 34.1094 71.0365 37.3906 69.3594 40.6823 67.6823 43.1979 65.3958 44.9375 62.5 46.6875 59.6042 47.5625 56.526 47.5625 53.2656 47.5625 50.1823 46.7292 47.3698 45.0625 44.8281 43.4063 42.2865 40.9531 40.2656 37.7031 38.7656 41.9323 37.7969 45.2188 35.7708 47.5625 32.6875 49.9063 29.6146 51.0781 25.7656 51.0781 21.1406 51.0781 14.8906 48.7969 9.59375 44.2344 5.25 39.6823 0.90625 33.9219-1.26563 26.9531-1.26563 20.6719-1.26563 15.4531 0.604167 11.2969 4.34375 7.15104 8.09375 4.78646 12.9427 4.20313 18.8906Z" id="ArialMT-51"/></defs><g fill="#262626" transform="matrix(0.1 0 0 -0.1 20.3453 19.6252)"><use width="100%" height="100%" xlink:href="#ArialMT-49"></use><use x="55.6152" width="100%" height="100%" xlink:href="#ArialMT-51"></use></g></g></g><g id="text_17"><defs><path d="M4.5 23 13.4219 23.7813C13.849 20.1979 14.8333 17.2604 16.375 14.9688 17.9271 12.6771 20.3281 10.8229 23.5781 9.40625 26.8385 7.98958 30.5052 7.28125 34.5781 7.28125 38.1823 7.28125 41.3698 7.81771 44.1406 8.89063 46.9115 9.96354 48.9688 11.4323 50.3125 13.2969 51.6667 15.1719 52.3438 17.2188 52.3438 19.4375 52.3438 21.6771 51.6927 23.6354 50.3906 25.3125 49.0885 26.9896 46.9427 28.401 43.9531 29.5469 42.026 30.2969 37.776 31.4583 31.2031 33.0313 24.6302 34.6146 20.026 36.1042 17.3906 37.5 13.9635 39.2917 11.4115 41.5104 9.73438 44.1563 8.06771 46.8125 7.23438 49.7865 7.23438 53.0781 7.23438 56.6927 8.25521 60.0677 10.2969 63.2031 12.349 66.349 15.3438 68.7344 19.2813 70.3594 23.2292 71.9844 27.6094 72.7969 32.4219 72.7969 37.724 72.7969 42.401 71.9427 46.4531 70.2344 50.5156 68.526 53.6354 66.0104 55.8125 62.6875 57.9896 59.375 59.1615 55.6198 59.3281 51.4219L50.25 50.7344C49.7604 55.2552 48.1042 58.6719 45.2813 60.9844 42.4688 63.2969 38.3125 64.4531 32.8125 64.4531 27.0833 64.4531 22.9063 63.401 20.2813 61.2969 17.6667 59.2031 16.3594 56.6771 16.3594 53.7188 16.3594 51.1458 17.2865 49.026 19.1406 47.3594 20.9635 45.7031 25.724 44.0052 33.4219 42.2656 41.1198 40.526 46.401 39.0052 49.2656 37.7031 53.4323 35.776 56.5052 33.3385 58.4844 30.3906 60.474 27.4531 61.4688 24.0625 61.4688 20.2188 61.4688 16.4063 60.3802 12.8125 58.2031 9.4375 56.026 6.07292 52.8906 3.45313 48.7969 1.57813 44.7135-0.286458 40.1198-1.21875 35.0156-1.21875 28.5365-1.21875 23.1042-0.276042 18.7188 1.60938 14.3438 3.49479 10.9115 6.33333 8.42188 10.125 5.93229 13.9271 4.625 18.2188 4.5 23Z" id="ArialMT-83"/><path d="M40.4375 19 49.0781 17.875C48.1302 11.9167 45.7083 7.25 41.8125 3.875 37.9271 0.510417 33.151-1.17188 27.4844-1.17188 20.3906-1.17188 14.6875 1.14583 10.375 5.78125 6.0625 10.4271 3.90625 17.0781 3.90625 25.7344 3.90625 31.3281 4.83333 36.224 6.6875 40.4219 8.54167 44.6302 11.3646 47.7813 15.1563 49.875 18.9479 51.9792 23.0781 53.0313 27.5469 53.0313 33.1719 53.0313 37.776 51.6042 41.3594 48.75 44.9427 45.9063 47.2396 41.8646 48.25 36.625L39.7031 35.2969C38.8906 38.7865 37.4479 41.4063 35.375 43.1563 33.3125 44.9167 30.8125 45.7969 27.875 45.7969 23.4479 45.7969 19.849 44.2083 17.0781 41.0313 14.3177 37.8646 12.9375 32.849 12.9375 25.9844 12.9375 19.0156 14.2708 13.9531 16.9375 10.7969 19.6146 7.64063 23.099 6.0625 27.3906 6.0625 30.8385 6.0625 33.7188 7.11979 36.0313 9.23438 38.3438 11.349 39.8125 14.6042 40.4375 19Z" id="ArialMT-99"/></defs><g fill="#262626" transform="matrix(6.12323e-18 -0.1 -0.1 -6.12323e-18 14.3578 128.981)"><use width="100%" height="100%" xlink:href="#ArialMT-83"></use><use x="66.6992" width="100%" height="100%" xlink:href="#ArialMT-99"></use><use x="116.699" width="100%" height="100%" xlink:href="#ArialMT-111"></use><use x="172.314" width="100%" height="100%" xlink:href="#ArialMT-114"></use><use x="205.615" width="100%" height="100%" xlink:href="#ArialMT-101"></use></g></g></g><g id="line2d_31"><path d="M50.1854 211.3 66.2045 161.081 82.2236 117.63 98.2428 150.905 114.262 36.4122 130.281 116.441 146.3 162.572 162.319 174.56 178.338 114.678 194.358 163.117 210.377 70.0364 226.396 91.0763 242.415 139.165 258.434 90.8541 274.453 81.0757 290.472 152.692 306.492 46.0471 322.511 36.6467 338.53 44.9084 354.549 17.0836" stroke="#CD5C5C" stroke-width="3" stroke-dasharray="6 3" fill="none" clip-path="url(#p5045e2dd7f)"/></g><g id="line2d_32"><path d="M50.1854 213.604 66.2045 210.78 82.2236 209.323 98.2428 190.868 114.262 190.907 130.281 196.92 146.3 193 162.319 197.137 178.338 170.205 194.358 202.111 210.377 182.78 226.396 140.886 242.415 214.756 258.434 170.694 274.453 169.708 290.472 153.935 306.492 145.621 322.511 95.9979 338.53 82.7717 354.549 179.548" stroke="#CD5C5C" stroke-width="3" stroke-dasharray="6 0" fill="none" clip-path="url(#p5045e2dd7f)"/></g><g id="patch_3"><path d="M34.9672 224.64 34.9672 7.2" stroke="#CCCCCC" stroke-linecap="square" stroke-linejoin="miter" fill="none"/></g><g id="patch_4"><path d="M369.767 224.64 369.767 7.2" stroke="#CCCCCC" stroke-linecap="square" stroke-linejoin="miter" fill="none"/></g><g id="patch_5"><path d="M34.9672 224.64 369.767 224.64" stroke="#CCCCCC" stroke-linecap="square" stroke-linejoin="miter" fill="none"/></g><g id="patch_6"><path d="M34.9672 7.2 369.767 7.2" stroke="#CCCCCC" stroke-linecap="square" stroke-linejoin="miter" fill="none"/></g><g id="legend_1"><g id="line2d_33"><path d="M273.316 195.762 293.316 195.762" stroke="#CD5C5C" stroke-width="3" stroke-dasharray="6 3" fill="none"/></g><g id="line2d_34"></g><g id="text_18"><defs><path d="M40.4844 46 34.1875 40.9219C30.1771 43.9427 26.4323 45.4531 22.9531 45.4531 20.0885 45.4531 17.9948 44.6875 16.6719 43.1563 15.3594 41.6354 14.7031 39.9948 14.7031 38.2344 14.7031 35.9531 15.6771 34.0573 17.625 32.5469 19.5833 31.0365 22.4479 30.2813 26.2188 30.2813 26.7083 30.2813 27.5208 30.2969 28.6563 30.3281L28.6563 22.9531C27.6146 22.9844 26.8333 23 26.3125 23 21.6667 23 18.4375 22.1042 16.625 20.3125 14.8229 18.5208 13.9219 16.5052 13.9219 14.2656 13.9219 11.9531 14.8333 10.0052 16.6563 8.42188 18.4792 6.84896 20.6406 6.0625 23.1406 6.0625 27.7344 6.0625 32.0313 8.19271 36.0313 12.4531L42.3281 7.125C37.1198 1.59375 30.6458-1.17188 22.9063-1.17188 16.8125-1.17188 12.2656 0.375 9.26563 3.46875 6.27604 6.5625 4.78125 10.1615 4.78125 14.2656 4.78125 20.151 7.64583 24.3333 13.375 26.8125 8.59375 29.5104 6.20313 33.2344 6.20313 37.9844 6.20313 41.8594 7.61979 45.3333 10.4531 48.4063 13.2865 51.4896 17.6302 53.0313 23.4844 53.0313 30.1927 53.0313 35.8594 50.6875 40.4844 46Z" id="ArialMT-949"/><path d="M3.17188 21.4844 3.17188 30.3281 30.1719 30.3281 30.1719 21.4844Z" id="ArialMT-45"/><path d="M41.2188 28.0781 41.2188 36.4688 71.5313 36.5313 71.5313 9.96875C66.875 6.25 62.0729 3.45313 57.125 1.57813 52.1771-0.286458 47.099-1.21875 41.8906-1.21875 34.8594-1.21875 28.4688 0.286458 22.7188 3.29688 16.9792 6.30729 12.6458 10.6615 9.71875 16.3594 6.79167 22.0573 5.32813 28.4219 5.32813 35.4531 5.32813 42.4219 6.78125 48.9219 9.6875 54.9531 12.6042 60.9948 16.7969 65.4792 22.2656 68.4063 27.7344 71.3333 34.0313 72.7969 41.1563 72.7969 46.3333 72.7969 51.0104 71.9583 55.1875 70.2813 59.375 68.6146 62.6563 66.2813 65.0313 63.2813 67.4167 60.2917 69.224 56.3854 70.4531 51.5625L61.9219 49.2188C60.8385 52.8646 59.5 55.7292 57.9063 57.8125 56.3125 59.8958 54.0313 61.5625 51.0625 62.8125 48.1042 64.0729 44.8229 64.7031 41.2188 64.7031 36.8854 64.7031 33.1406 64.0417 29.9844 62.7188 26.8281 61.4063 24.2813 59.6719 22.3438 57.5156 20.4063 55.3698 18.901 53.0104 17.8281 50.4375 16.0052 46.0104 15.0938 41.2083 15.0938 36.0313 15.0938 29.6563 16.1927 24.3177 18.3906 20.0156 20.5885 15.724 23.7865 12.5365 27.9844 10.4531 32.1823 8.36979 36.6406 7.32813 41.3594 7.32813 45.4635 7.32813 49.4688 8.11458 53.375 9.6875 57.2813 11.2708 60.2396 12.9583 62.25 14.75L62.25 28.0781Z" id="ArialMT-71"/><path d="M40.2344 0 40.2344 6.54688C36.9427 1.40104 32.1094-1.17188 25.7344-1.17188 21.599-1.17188 17.7969-0.03125 14.3281 2.25 10.8594 4.53125 8.17188 7.71354 6.26563 11.7969 4.36979 15.8802 3.42188 20.5729 3.42188 25.875 3.42188 31.0521 4.28125 35.75 6 39.9688 7.72917 44.1875 10.3177 47.4167 13.7656 49.6563 17.224 51.9063 21.0833 53.0313 25.3438 53.0313 28.4688 53.0313 31.25 52.3698 33.6875 51.0469 36.1354 49.7344 38.125 48.0208 39.6563 45.9063L39.6563 71.5781 48.3906 71.5781 48.3906 0ZM12.4531 25.875C12.4531 19.2396 13.849 14.276 16.6406 10.9844 19.4427 7.70313 22.75 6.0625 26.5625 6.0625 30.4063 6.0625 33.6667 7.63021 36.3438 10.7656 39.0313 13.9115 40.375 18.7031 40.375 25.1406 40.375 32.2448 39.0052 37.4531 36.2656 40.7656 33.5365 44.0885 30.1719 45.75 26.1719 45.75 22.2656 45.75 19 44.1563 16.375 40.9688 13.7604 37.7813 12.4531 32.75 12.4531 25.875Z" id="ArialMT-100"/><path d="M6.20313-19.9688 5.21875-11.7188C7.14583-12.2396 8.82292-12.5 10.25-12.5 12.2083-12.5 13.7708-12.1719 14.9375-11.5156 16.1146-10.8698 17.0781-9.96354 17.8281-8.79688 18.3802-7.91146 19.276-5.72917 20.5156-2.25 20.6719-1.76042 20.9323-1.04167 21.2969-0.09375L1.60938 51.8594 11.0781 51.8594 21.875 21.8281C23.2708 18.0156 24.526 14.0104 25.6406 9.8125 26.651 13.8542 27.8542 17.7917 29.25 21.625L40.3281 51.8594 49.125 51.8594 29.3906-0.875C27.276-6.57292 25.6354-10.4948 24.4688-12.6406 22.9063-15.5469 21.1146-17.6719 19.0938-19.0156 17.0729-20.3698 14.6615-21.0469 11.8594-21.0469 10.1719-21.0469 8.28646-20.6875 6.20313-19.9688Z" id="ArialMT-121"/></defs><g fill="#262626" transform="matrix(0.1 0 0 -0.1 301.316 199.262)"><use width="100%" height="100%" xlink:href="#ArialMT-949"></use><use x="44.5801" width="100%" height="100%" xlink:href="#ArialMT-45"></use><use x="77.8809" width="100%" height="100%" xlink:href="#ArialMT-71"></use><use x="155.664" width="100%" height="100%" xlink:href="#ArialMT-114"></use><use x="188.965" width="100%" height="100%" xlink:href="#ArialMT-101"></use><use x="244.58" width="100%" height="100%" xlink:href="#ArialMT-101"></use><use x="300.195" width="100%" height="100%" xlink:href="#ArialMT-100"></use><use x="355.811" width="100%" height="100%" xlink:href="#ArialMT-121"></use></g></g><g id="line2d_35"><path d="M273.316 210.152 293.316 210.152" stroke="#CD5C5C" stroke-width="3" stroke-dasharray="6 0" fill="none"/></g><g id="line2d_36"></g><g id="text_19"><defs><path d="M4.82813 34.8594C4.82813 46.7448 8.01563 56.0469 14.3906 62.7656 20.776 69.4948 29.0156 72.8594 39.1094 72.8594 45.724 72.8594 51.6823 71.276 56.9844 68.1094 62.2865 64.9531 66.3281 60.5521 69.1094 54.9063 71.901 49.2604 73.2969 42.8542 73.2969 35.6875 73.2969 28.4375 71.8281 21.9479 68.8906 16.2188 65.9635 10.4896 61.8125 6.15104 56.4375 3.20313 51.0729 0.255208 45.2813-1.21875 39.0625-1.21875 32.3229-1.21875 26.2969 0.40625 20.9844 3.65625 15.6823 6.91667 11.6615 11.3594 8.92188 16.9844 6.19271 22.6198 4.82813 28.5781 4.82813 34.8594ZM14.5938 34.7188C14.5938 26.0938 16.9115 19.2969 21.5469 14.3281 26.1927 9.36979 32.0156 6.89063 39.0156 6.89063 46.1406 6.89063 52.0052 9.39583 56.6094 14.4063 61.224 19.4167 63.5313 26.5313 63.5313 35.75 63.5313 41.5729 62.5469 46.6563 60.5781 51 58.6094 55.3438 55.724 58.7135 51.9219 61.1094 48.1302 63.5052 43.875 64.7031 39.1563 64.7031 32.4583 64.7031 26.6875 62.3958 21.8438 57.7813 17.0104 53.1771 14.5938 45.4896 14.5938 34.7188Z" id="ArialMT-79"/><path d="M6.59375-19.875 6.59375 51.8594 14.5938 51.8594 14.5938 45.125C16.4896 47.7604 18.625 49.7344 21 51.0469 23.375 52.3698 26.2552 53.0313 29.6406 53.0313 34.0677 53.0313 37.974 51.8906 41.3594 49.6094 44.7448 47.3281 47.2969 44.1094 49.0156 39.9531 50.7448 35.8073 51.6094 31.2604 51.6094 26.3125 51.6094 21.0104 50.6563 16.2344 48.75 11.9844 46.8542 7.73438 44.0885 4.47917 40.4531 2.21875 36.8281-0.0416667 33.0104-1.17188 29-1.17188 26.0729-1.17188 23.4427-0.552083 21.1094 0.6875 18.7865 1.92708 16.875 3.48958 15.375 5.375L15.375-19.875ZM14.5469 25.6406C14.5469 18.9635 15.8958 14.0313 18.5938 10.8438 21.3021 7.65625 24.5781 6.0625 28.4219 6.0625 32.3281 6.0625 35.6719 7.71354 38.4531 11.0156 41.2344 14.3177 42.625 19.4375 42.625 26.375 42.625 32.9792 41.2656 37.9219 38.5469 41.2031 35.8281 44.4948 32.5833 46.1406 28.8125 46.1406 25.0625 46.1406 21.7448 44.3906 18.8594 40.8906 15.9844 37.3906 14.5469 32.3073 14.5469 25.6406Z" id="ArialMT-112"/><path d="M6.59375 0 6.59375 51.8594 14.4531 51.8594 14.4531 44.5781C16.0781 47.1198 18.2396 49.1615 20.9375 50.7031 23.6458 52.2552 26.724 53.0313 30.1719 53.0313 34.0156 53.0313 37.1667 52.2344 39.625 50.6406 42.0833 49.0469 43.8177 46.8177 44.8281 43.9531 48.9323 50.0052 54.2708 53.0313 60.8438 53.0313 65.9896 53.0313 69.9427 51.6042 72.7031 48.75 75.474 45.9063 76.8594 41.5208 76.8594 35.5938L76.8594 0 68.1094 0 68.1094 32.6719C68.1094 36.1823 67.8229 38.7083 67.25 40.25 66.6875 41.8021 65.6563 43.0469 64.1563 43.9844 62.6667 44.9323 60.9115 45.4063 58.8906 45.4063 55.2448 45.4063 52.2135 44.1927 49.7969 41.7656 47.3906 39.349 46.1875 35.4688 46.1875 30.125L46.1875 0 37.4063 0 37.4063 33.6875C37.4063 37.5938 36.6875 40.5208 35.25 42.4688 33.8229 44.4271 31.4792 45.4063 28.2188 45.4063 25.75 45.4063 23.4635 44.7552 21.3594 43.4531 19.2656 42.151 17.7448 40.2448 16.7969 37.7344 15.849 35.2344 15.375 31.625 15.375 26.9063L15.375 0Z" id="ArialMT-109"/><path d="M3.07813 15.4844 11.7656 16.8438C12.2552 13.3646 13.6146 10.6979 15.8438 8.84375 18.0729 6.98958 21.1927 6.0625 25.2031 6.0625 29.2344 6.0625 32.224 6.88021 34.1719 8.51563 36.1302 10.1615 37.1094 12.0938 37.1094 14.3125 37.1094 16.2917 36.2448 17.8542 34.5156 19 33.3177 19.7813 30.3229 20.7708 25.5313 21.9688 19.0938 23.6042 14.6302 25.0156 12.1406 26.2031 9.65104 27.3906 7.76042 29.0313 6.46875 31.125 5.1875 33.2292 4.54688 35.5521 4.54688 38.0938 4.54688 40.3958 5.07292 42.5313 6.125 44.5 7.1875 46.4792 8.63021 48.1198 10.4531 49.4219 11.8177 50.4219 13.6771 51.2708 16.0313 51.9688 18.3958 52.6771 20.9323 53.0313 23.6406 53.0313 27.7031 53.0313 31.2708 52.4427 34.3438 51.2656 37.4271 50.099 39.6979 48.5104 41.1563 46.5 42.625 44.5 43.6354 41.8281 44.1875 38.4844L35.5938 37.3125C35.2083 39.9792 34.0781 42.0573 32.2031 43.5469 30.3281 45.0469 27.6823 45.7969 24.2656 45.7969 20.2344 45.7969 17.3542 45.1302 15.625 43.7969 13.8958 42.4635 13.0313 40.901 13.0313 39.1094 13.0313 37.974 13.3906 36.9479 14.1094 36.0313 14.8281 35.0938 15.9531 34.3125 17.4844 33.6875 18.3594 33.3646 20.9479 32.6198 25.25 31.4531 31.4688 29.7865 35.8021 28.4219 38.25 27.3594 40.7083 26.3073 42.6354 24.7708 44.0313 22.75 45.4375 20.7396 46.1406 18.2344 46.1406 15.2344 46.1406 12.3073 45.2865 9.54688 43.5781 6.95313 41.8698 4.36979 39.401 2.36979 36.1719 0.953125 32.9531-0.463542 29.3125-1.17188 25.25-1.17188 18.5104-1.17188 13.375 0.229167 9.84375 3.03125 6.3125 5.83333 4.05729 9.98438 3.07813 15.4844Z" id="ArialMT-115"/><path d="" id="ArialMT-32"/></defs><g fill="#262626" transform="matrix(0.1 0 0 -0.1 301.316 213.653)"><use width="100%" height="100%" xlink:href="#ArialMT-79"></use><use x="77.7832" width="100%" height="100%" xlink:href="#ArialMT-112"></use><use x="133.398" width="100%" height="100%" xlink:href="#ArialMT-116"></use><use x="161.182" width="100%" height="100%" xlink:href="#ArialMT-105"></use><use x="183.398" width="100%" height="100%" xlink:href="#ArialMT-109"></use><use x="266.699" width="100%" height="100%" xlink:href="#ArialMT-105"></use><use x="288.916" width="100%" height="100%" xlink:href="#ArialMT-115"></use><use x="338.916" width="100%" height="100%" xlink:href="#ArialMT-116"></use><use x="366.699" width="100%" height="100%" xlink:href="#ArialMT-105"></use><use x="388.916" width="100%" height="100%" xlink:href="#ArialMT-99"></use><use x="438.916" width="100%" height="100%" xlink:href="#ArialMT-32"></use><use x="466.699" width="100%" height="100%" xlink:href="#ArialMT-105"></use><use x="488.916" width="100%" height="100%" xlink:href="#ArialMT-110"></use><use x="544.531" width="100%" height="100%" xlink:href="#ArialMT-105"></use><use x="566.748" width="100%" height="100%" xlink:href="#ArialMT-116"></use></g></g></g></g></g></svg>