<svg width="510.038" height="343.507" viewBox="0 0 382.528 257.631" xmlns="http://www.w3.org/2000/svg" xmlns:xlink="http://www.w3.org/1999/xlink" stroke-linejoin="round" overflow="hidden"><defs></defs><defs><clipPath id="p6380f418d9"><rect x="40.5281" y="7.2" width="334.8" height="217.44"/></clipPath></defs><g id="figure_1"><g id="patch_1"><path d="M0 257.631 382.528 257.631 382.528 0 0 0Z" fill="#FFFFFF"/></g><g id="axes_1"><g id="patch_2"><path d="M40.5281 224.64 375.328 224.64 375.328 7.2 40.5281 7.2Z" fill="#FFFFFF"/></g><g id="matplotlib.axis_1"><g id="xtick_1"><g id="line2d_1"><path d="M55.7463 224.64 55.7463 7.2" stroke="#CCCCCC" stroke-width="0.8" stroke-linecap="round" fill="none" clip-path="url(#p6380f418d9)"/></g><g id="line2d_2"></g><g id="text_1"><defs><path d="M4.15625 35.2969C4.15625 43.7656 5.02604 50.5781 6.76563 55.7344 8.50521 60.901 11.0885 64.8802 14.5156 67.6719 17.9531 70.474 22.276 71.875 27.4844 71.875 31.3281 71.875 34.6979 71.099 37.5938 69.5469 40.4896 68.0052 42.8802 65.776 44.7656 62.8594 46.6615 59.9531 48.1458 56.4063 49.2188 52.2188 50.2917 48.0417 50.8281 42.401 50.8281 35.2969 50.8281 26.901 49.9635 20.125 48.2344 14.9688 46.5156 9.8125 43.9375 5.82292 40.5 3 37.0729 0.1875 32.7344-1.21875 27.4844-1.21875 20.5885-1.21875 15.1719 1.25521 11.2344 6.20313 6.51563 12.1615 4.15625 21.8594 4.15625 35.2969ZM13.1875 35.2969C13.1875 23.5469 14.5625 15.724 17.3125 11.8281 20.0625 7.94271 23.4531 6 27.4844 6 31.526 6 34.9219 7.95313 37.6719 11.8594 40.4219 15.7656 41.7969 23.5781 41.7969 35.2969 41.7969 47.0885 40.4219 54.9167 37.6719 58.7813 34.9219 62.6563 31.4948 64.5938 27.3906 64.5938 23.3594 64.5938 20.1354 62.8854 17.7188 59.4688 14.6979 55.1146 13.1875 47.0573 13.1875 35.2969Z" id="ArialMT-48"/></defs><g fill="#262626" transform="matrix(0.1 0 0 -0.1 52.9658 235.298)"><use width="100%" height="100%" xlink:href="#ArialMT-48"></use></g></g></g><g id="xtick_2"><g id="line2d_3"><path d="M116.619 224.64 116.619 7.2" stroke="#CCCCCC" stroke-width="0.8" stroke-linecap="round" fill="none" clip-path="url(#p6380f418d9)"/></g><g id="line2d_4"></g><g id="text_2"><defs><path d="M37.25 0 28.4688 0 28.4688 56C26.3542 53.9896 23.5781 51.974 20.1406 49.9531 16.7031 47.9323 13.6198 46.4167 10.8906 45.4063L10.8906 53.9063C15.8073 56.2188 20.1042 59.0156 23.7813 62.2969 27.4583 65.5885 30.0625 68.7813 31.5938 71.875L37.25 71.875Z" id="ArialMT-49"/></defs><g fill="#262626" transform="matrix(0.1 0 0 -0.1 111.058 235.298)"><use width="100%" height="100%" xlink:href="#ArialMT-49"></use><use x="55.6152" width="100%" height="100%" xlink:href="#ArialMT-48"></use></g></g></g><g id="xtick_3"><g id="line2d_5"><path d="M177.492 224.64 177.492 7.2" stroke="#CCCCCC" stroke-width="0.8" stroke-linecap="round" fill="none" clip-path="url(#p6380f418d9)"/></g><g id="line2d_6"></g><g id="text_3"><defs><path d="M50.3438 8.45313 50.3438 0 3.03125 0C2.96875 2.11458 3.30729 4.15104 4.04688 6.10938 5.25521 9.32813 7.18229 12.5 9.82813 15.625 12.4844 18.75 16.3229 22.3646 21.3438 26.4688 29.125 32.8438 34.3802 37.8958 37.1094 41.625 39.849 45.3542 41.2188 48.8802 41.2188 52.2031 41.2188 55.6823 39.9688 58.6146 37.4688 61 34.9792 63.3958 31.7344 64.5938 27.7344 64.5938 23.5052 64.5938 20.1198 63.3229 17.5781 60.7813 15.0365 58.25 13.75 54.7396 13.7188 50.25L4.6875 51.1719C5.30208 57.9115 7.625 63.0469 11.6563 66.5781 15.6979 70.1094 21.125 71.875 27.9375 71.875 34.8021 71.875 40.2344 69.9688 44.2344 66.1563 48.2448 62.3542 50.25 57.6354 50.25 52 50.25 49.1354 49.6615 46.3177 48.4844 43.5469 47.3177 40.7865 45.375 37.875 42.6563 34.8125 39.9375 31.75 35.4219 27.5521 29.1094 22.2188 23.8281 17.7917 20.4375 14.7865 18.9375 13.2031 17.4479 11.6302 16.2135 10.0469 15.2344 8.45313Z" id="ArialMT-50"/></defs><g fill="#262626" transform="matrix(0.1 0 0 -0.1 171.931 235.298)"><use width="100%" height="100%" xlink:href="#ArialMT-50"></use><use x="55.6152" width="100%" height="100%" xlink:href="#ArialMT-48"></use></g></g></g><g id="xtick_4"><g id="line2d_7"><path d="M238.364 224.64 238.364 7.2" stroke="#CCCCCC" stroke-width="0.8" stroke-linecap="round" fill="none" clip-path="url(#p6380f418d9)"/></g><g id="line2d_8"></g><g id="text_4"><defs><path d="M4.20313 18.8906 12.9844 20.0625C13.9948 15.0833 15.7135 11.4948 18.1406 9.29688 20.5677 7.09896 23.5208 6 27 6 31.1354 6 34.625 7.43229 37.4688 10.2969 40.3229 13.1615 41.75 16.7135 41.75 20.9531 41.75 24.9844 40.4323 28.3073 37.7969 30.9219 35.1615 33.5469 31.8073 34.8594 27.7344 34.8594 26.0781 34.8594 24.0104 34.5365 21.5313 33.8906L22.5156 41.6094C23.099 41.5365 23.5677 41.5 23.9219 41.5 27.6719 41.5 31.0417 42.474 34.0313 44.4219 37.0313 46.3802 38.5313 49.3958 38.5313 53.4688 38.5313 56.6875 37.4375 59.3542 35.25 61.4688 33.0729 63.5938 30.2604 64.6563 26.8125 64.6563 23.3958 64.6563 20.5469 63.5781 18.2656 61.4219 15.9844 59.276 14.5208 56.0573 13.875 51.7656L5.07813 53.3281C6.15104 59.2135 8.58854 63.776 12.3906 67.0156 16.2031 70.2552 20.9427 71.875 26.6094 71.875 30.5156 71.875 34.1094 71.0365 37.3906 69.3594 40.6823 67.6823 43.1979 65.3958 44.9375 62.5 46.6875 59.6042 47.5625 56.526 47.5625 53.2656 47.5625 50.1823 46.7292 47.3698 45.0625 44.8281 43.4063 42.2865 40.9531 40.2656 37.7031 38.7656 41.9323 37.7969 45.2188 35.7708 47.5625 32.6875 49.9063 29.6146 51.0781 25.7656 51.0781 21.1406 51.0781 14.8906 48.7969 9.59375 44.2344 5.25 39.6823 0.90625 33.9219-1.26563 26.9531-1.26563 20.6719-1.26563 15.4531 0.604167 11.2969 4.34375 7.15104 8.09375 4.78646 12.9427 4.20313 18.8906Z" id="ArialMT-51"/></defs><g fill="#262626" transform="matrix(0.1 0 0 -0.1 232.804 235.298)"><use width="100%" height="100%" xlink:href="#ArialMT-51"></use><use x="55.6152" width="100%" height="100%" xlink:href="#ArialMT-48"></use></g></g></g><g id="xtick_5"><g id="line2d_9"><path d="M299.237 224.64 299.237 7.2" stroke="#CCCCCC" stroke-width="0.8" stroke-linecap="round" fill="none" clip-path="url(#p6380f418d9)"/></g><g id="line2d_10"></g><g id="text_5"><defs><path d="M32.3281 0 32.3281 17.1406 1.26563 17.1406 1.26563 25.2031 33.9375 71.5781 41.1094 71.5781 41.1094 25.2031 50.7813 25.2031 50.7813 17.1406 41.1094 17.1406 41.1094 0ZM32.3281 25.2031 32.3281 57.4688 9.90625 25.2031Z" id="ArialMT-52"/></defs><g fill="#262626" transform="matrix(0.1 0 0 -0.1 293.676 235.298)"><use width="100%" height="100%" xlink:href="#ArialMT-52"></use><use x="55.6152" width="100%" height="100%" xlink:href="#ArialMT-48"></use></g></g></g><g id="xtick_6"><g id="line2d_11"><path d="M360.11 224.64 360.11 7.2" stroke="#CCCCCC" stroke-width="0.8" stroke-linecap="round" fill="none" clip-path="url(#p6380f418d9)"/></g><g id="line2d_12"></g><g id="text_6"><defs><path d="M4.15625 18.75 13.375 19.5313C14.0625 15.0417 15.651 11.6615 18.1406 9.39063 20.6302 7.13021 23.6354 6 27.1563 6 31.3854 6 34.9635 7.59375 37.8906 10.7813 40.8177 13.9792 42.2813 18.2135 42.2813 23.4844 42.2813 28.4948 40.875 32.4479 38.0625 35.3438 35.25 38.25 31.5625 39.7031 27 39.7031 24.1667 39.7031 21.6094 39.0573 19.3281 37.7656 17.0573 36.4844 15.2708 34.8177 13.9688 32.7656L5.71875 33.8438 12.6406 70.6094 48.25 70.6094 48.25 62.2031 19.6719 62.2031 15.8281 42.9688C20.1198 45.9688 24.625 47.4688 29.3438 47.4688 35.5938 47.4688 40.8646 45.3021 45.1563 40.9688 49.4583 36.6354 51.6094 31.0677 51.6094 24.2656 51.6094 17.7865 49.724 12.1875 45.9531 7.46875 41.3594 1.67708 35.0938-1.21875 27.1563-1.21875 20.6458-1.21875 15.3281 0.604167 11.2031 4.25 7.08854 7.89583 4.73958 12.7292 4.15625 18.75Z" id="ArialMT-53"/></defs><g fill="#262626" transform="matrix(0.1 0 0 -0.1 354.549 235.298)"><use width="100%" height="100%" xlink:href="#ArialMT-53"></use><use x="55.6152" width="100%" height="100%" xlink:href="#ArialMT-48"></use></g></g></g><g id="text_7"><defs><path d="M9.32813 0 9.32813 71.5781 18.7969 71.5781 18.7969 0Z" id="ArialMT-73"/><path d="M25.7813 7.85938 27.0469 0.09375C24.5781-0.427083 22.3646-0.6875 20.4063-0.6875 17.2188-0.6875 14.7448-0.182292 12.9844 0.828125 11.2344 1.83854 10 3.16667 9.28125 4.8125 8.5625 6.45833 8.20313 9.91667 8.20313 15.1875L8.20313 45.0156 1.76563 45.0156 1.76563 51.8594 8.20313 51.8594 8.20313 64.7031 16.9375 69.9688 16.9375 51.8594 25.7813 51.8594 25.7813 45.0156 16.9375 45.0156 16.9375 14.7031C16.9375 12.1927 17.0938 10.5781 17.4063 9.85938 17.7188 9.15104 18.224 8.58333 18.9219 8.15625 19.6198 7.72917 20.6198 7.51563 21.9219 7.51563 22.901 7.51563 24.1875 7.63021 25.7813 7.85938Z" id="ArialMT-116"/><path d="M42.0938 16.7031 51.1719 15.5781C49.7448 10.276 47.0938 6.15625 43.2188 3.21875 39.3438 0.291667 34.3958-1.17188 28.375-1.17188 20.7917-1.17188 14.776 1.16146 10.3281 5.82813 5.88021 10.5052 3.65625 17.0573 3.65625 25.4844 3.65625 34.2135 5.90104 40.9844 10.3906 45.7969 14.8906 50.6198 20.7188 53.0313 27.875 53.0313 34.8125 53.0313 40.4792 50.6719 44.875 45.9531 49.2708 41.2344 51.4688 34.5938 51.4688 26.0313 51.4688 25.5104 51.4531 24.7292 51.4219 23.6875L12.75 23.6875C13.0729 17.9896 14.6823 13.625 17.5781 10.5938 20.474 7.57292 24.0885 6.0625 28.4219 6.0625 31.6406 6.0625 34.3906 6.90625 36.6719 8.59375 38.9531 10.2917 40.7604 12.9948 42.0938 16.7031ZM13.2344 30.9063 42.1875 30.9063C41.8021 35.2708 40.6979 38.5417 38.875 40.7188 36.0729 44.1042 32.4427 45.7969 27.9844 45.7969 23.9427 45.7969 20.5469 44.4479 17.7969 41.75 15.0469 39.0521 13.526 35.4375 13.2344 30.9063Z" id="ArialMT-101"/><path d="M6.5 0 6.5 51.8594 14.4063 51.8594 14.4063 44C16.4271 47.6771 18.2917 50.099 20 51.2656 21.7083 52.4427 23.5885 53.0313 25.6406 53.0313 28.599 53.0313 31.6094 52.0885 34.6719 50.2031L31.6406 42.0469C29.4948 43.3177 27.349 43.9531 25.2031 43.9531 23.276 43.9531 21.5469 43.375 20.0156 42.2188 18.4844 41.0625 17.3958 39.4583 16.75 37.4063 15.7708 34.2813 15.2813 30.8646 15.2813 27.1563L15.2813 0Z" id="ArialMT-114"/><path d="M40.4375 6.39063C37.1771 3.63021 34.0417 1.67708 31.0313 0.53125 28.0208-0.604167 24.7917-1.17188 21.3438-1.17188 15.6458-1.17188 11.2656 0.21875 8.20313 3 5.14063 5.78125 3.60938 9.33854 3.60938 13.6719 3.60938 16.2135 4.1875 18.5313 5.34375 20.625 6.5 22.7292 8.01563 24.4167 9.89063 25.6875 11.7656 26.9583 13.875 27.9167 16.2188 28.5625 17.9375 29.0208 20.5417 29.4635 24.0313 29.8906 31.125 30.7344 36.349 31.7396 39.7031 32.9063 39.7344 34.1146 39.75 34.8802 39.75 35.2031 39.75 38.7865 38.9167 41.3125 37.25 42.7813 35.0104 44.7604 31.6771 45.75 27.25 45.75 23.1146 45.75 20.0625 45.026 18.0938 43.5781 16.125 42.1302 14.6667 39.5677 13.7188 35.8906L5.125 37.0625C5.90625 40.7396 7.19271 43.7083 8.98438 45.9688 10.776 48.2292 13.3646 49.9688 16.75 51.1875 20.1354 52.4167 24.0573 53.0313 28.5156 53.0313 32.9427 53.0313 36.5365 52.5104 39.2969 51.4688 42.0677 50.4271 44.1042 49.1146 45.4063 47.5313 46.7083 45.9583 47.6198 43.9635 48.1406 41.5469 48.4323 40.0573 48.5781 37.3594 48.5781 33.4531L48.5781 21.7344C48.5781 13.5573 48.7656 8.38542 49.1406 6.21875 49.5156 4.0625 50.2604 1.98958 51.375 0L42.1875 0C41.2813 1.82292 40.6979 3.95313 40.4375 6.39063ZM39.7031 26.0313C36.5052 24.7292 31.7188 23.6198 25.3438 22.7031 21.7292 22.1823 19.1719 21.5938 17.6719 20.9375 16.1823 20.2917 15.026 19.3438 14.2031 18.0938 13.3906 16.8438 12.9844 15.4531 12.9844 13.9219 12.9844 11.5781 13.8698 9.625 15.6406 8.0625 17.4219 6.5 20.0208 5.71875 23.4375 5.71875 26.8229 5.71875 29.8333 6.45833 32.4688 7.9375 35.1042 9.41667 37.0417 11.4427 38.2813 14.0156 39.2292 16.0052 39.7031 18.9323 39.7031 22.7969Z" id="ArialMT-97"/><path d="M6.64063 61.4688 6.64063 71.5781 15.4375 71.5781 15.4375 61.4688ZM6.64063 0 6.64063 51.8594 15.4375 51.8594 15.4375 0Z" id="ArialMT-105"/><path d="M3.32813 25.9219C3.32813 35.526 5.99479 42.6406 11.3281 47.2656 15.7865 51.1094 21.224 53.0313 27.6406 53.0313 34.7656 53.0313 40.5885 50.6927 45.1094 46.0156 49.6406 41.349 51.9063 34.8958 51.9063 26.6563 51.9063 19.9896 50.9063 14.7396 48.9063 10.9063 46.9063 7.08333 43.9896 4.11458 40.1563 2 36.3333-0.114583 32.1615-1.17188 27.6406-1.17188 20.3802-1.17188 14.5104 1.15625 10.0313 5.8125 5.5625 10.4688 3.32813 17.1719 3.32813 25.9219ZM12.3594 25.9219C12.3594 19.2865 13.8073 14.3177 16.7031 11.0156 19.599 7.71354 23.2448 6.0625 27.6406 6.0625 32.0052 6.0625 35.6354 7.71875 38.5313 11.0313 41.4271 14.3542 42.875 19.4167 42.875 26.2188 42.875 32.6354 41.4167 37.4948 38.5 40.7969 35.5833 44.099 31.9635 45.75 27.6406 45.75 23.2448 45.75 19.599 44.1042 16.7031 40.8125 13.8073 37.5313 12.3594 32.5677 12.3594 25.9219Z" id="ArialMT-111"/><path d="M6.59375 0 6.59375 51.8594 14.5 51.8594 14.5 44.4844C18.3125 50.1823 23.8125 53.0313 31 53.0313 34.125 53.0313 37 52.4688 39.625 51.3438 42.25 50.2188 44.2135 48.7448 45.5156 46.9219 46.8177 45.099 47.7292 42.9375 48.25 40.4375 48.5729 38.8021 48.7344 35.9531 48.7344 31.8906L48.7344 0 39.9375 0 39.9375 31.5469C39.9375 35.1302 39.5938 37.8073 38.9063 39.5781 38.2292 41.349 37.0208 42.7604 35.2813 43.8125 33.5417 44.875 31.5 45.4063 29.1563 45.4063 25.4063 45.4063 22.1719 44.2188 19.4531 41.8438 16.7344 39.4688 15.375 34.9635 15.375 28.3281L15.375 0Z" id="ArialMT-110"/></defs><g fill="#262626" transform="matrix(0.1 0 0 -0.1 189.863 248.443)"><use width="100%" height="100%" xlink:href="#ArialMT-73"></use><use x="27.7832" width="100%" height="100%" xlink:href="#ArialMT-116"></use><use x="55.5664" width="100%" height="100%" xlink:href="#ArialMT-101"></use><use x="111.182" width="100%" height="100%" xlink:href="#ArialMT-114"></use><use x="144.482" width="100%" height="100%" xlink:href="#ArialMT-97"></use><use x="200.098" width="100%" height="100%" xlink:href="#ArialMT-116"></use><use x="227.881" width="100%" height="100%" xlink:href="#ArialMT-105"></use><use x="250.098" width="100%" height="100%" xlink:href="#ArialMT-111"></use><use x="305.713" width="100%" height="100%" xlink:href="#ArialMT-110"></use></g></g></g><g id="matplotlib.axis_2"><g id="ytick_1"><g id="line2d_13"><path d="M40.5281 216.833 375.328 216.833" stroke="#CCCCCC" stroke-width="0.8" stroke-linecap="round" fill="none" clip-path="url(#p6380f418d9)"/></g><g id="line2d_14"></g><g id="text_8"><g fill="#262626" transform="matrix(0.1 0 0 -0.1 31.4672 220.412)"><use width="100%" height="100%" xlink:href="#ArialMT-48"></use></g></g></g><g id="ytick_2"><g id="line2d_15"><path d="M40.5281 175.715 375.328 175.715" stroke="#CCCCCC" stroke-width="0.8" stroke-linecap="round" fill="none" clip-path="url(#p6380f418d9)"/></g><g id="line2d_16"></g><g id="text_9"><g fill="#262626" transform="matrix(0.1 0 0 -0.1 20.3453 179.294)"><use width="100%" height="100%" xlink:href="#ArialMT-49"></use><use x="55.6152" width="100%" height="100%" xlink:href="#ArialMT-48"></use><use x="111.23" width="100%" height="100%" xlink:href="#ArialMT-48"></use></g></g></g><g id="ytick_3"><g id="line2d_17"><path d="M40.5281 134.598 375.328 134.598" stroke="#CCCCCC" stroke-width="0.8" stroke-linecap="round" fill="none" clip-path="url(#p6380f418d9)"/></g><g id="line2d_18"></g><g id="text_10"><g fill="#262626" transform="matrix(0.1 0 0 -0.1 20.3453 138.176)"><use width="100%" height="100%" xlink:href="#ArialMT-50"></use><use x="55.6152" width="100%" height="100%" xlink:href="#ArialMT-48"></use><use x="111.23" width="100%" height="100%" xlink:href="#ArialMT-48"></use></g></g></g><g id="ytick_4"><g id="line2d_19"><path d="M40.5281 93.4798 375.328 93.4798" stroke="#CCCCCC" stroke-width="0.8" stroke-linecap="round" fill="none" clip-path="url(#p6380f418d9)"/></g><g id="line2d_20"></g><g id="text_11"><g fill="#262626" transform="matrix(0.1 0 0 -0.1 20.3453 97.0587)"><use width="100%" height="100%" xlink:href="#ArialMT-51"></use><use x="55.6152" width="100%" height="100%" xlink:href="#ArialMT-48"></use><use x="111.23" width="100%" height="100%" xlink:href="#ArialMT-48"></use></g></g></g><g id="ytick_5"><g id="line2d_21"><path d="M40.5281 52.3621 375.328 52.3621" stroke="#CCCCCC" stroke-width="0.8" stroke-linecap="round" fill="none" clip-path="url(#p6380f418d9)"/></g><g id="line2d_22"></g><g id="text_12"><g fill="#262626" transform="matrix(0.1 0 0 -0.1 20.3453 55.941)"><use width="100%" height="100%" xlink:href="#ArialMT-52"></use><use x="55.6152" width="100%" height="100%" xlink:href="#ArialMT-48"></use><use x="111.23" width="100%" height="100%" xlink:href="#ArialMT-48"></use></g></g></g><g id="ytick_6"><g id="line2d_23"><path d="M40.5281 11.2444 375.328 11.2444" stroke="#CCCCCC" stroke-width="0.8" stroke-linecap="round" fill="none" clip-path="url(#p6380f418d9)"/></g><g id="line2d_24"></g><g id="text_13"><g fill="#262626" transform="matrix(0.1 0 0 -0.1 20.3453 14.8233)"><use width="100%" height="100%" xlink:href="#ArialMT-53"></use><use x="55.6152" width="100%" height="100%" xlink:href="#ArialMT-48"></use><use x="111.23" width="100%" height="100%" xlink:href="#ArialMT-48"></use></g></g></g><g id="text_14"><defs><path d="M4.5 23 13.4219 23.7813C13.849 20.1979 14.8333 17.2604 16.375 14.9688 17.9271 12.6771 20.3281 10.8229 23.5781 9.40625 26.8385 7.98958 30.5052 7.28125 34.5781 7.28125 38.1823 7.28125 41.3698 7.81771 44.1406 8.89063 46.9115 9.96354 48.9688 11.4323 50.3125 13.2969 51.6667 15.1719 52.3438 17.2188 52.3438 19.4375 52.3438 21.6771 51.6927 23.6354 50.3906 25.3125 49.0885 26.9896 46.9427 28.401 43.9531 29.5469 42.026 30.2969 37.776 31.4583 31.2031 33.0313 24.6302 34.6146 20.026 36.1042 17.3906 37.5 13.9635 39.2917 11.4115 41.5104 9.73438 44.1563 8.06771 46.8125 7.23438 49.7865 7.23438 53.0781 7.23438 56.6927 8.25521 60.0677 10.2969 63.2031 12.349 66.349 15.3438 68.7344 19.2813 70.3594 23.2292 71.9844 27.6094 72.7969 32.4219 72.7969 37.724 72.7969 42.401 71.9427 46.4531 70.2344 50.5156 68.526 53.6354 66.0104 55.8125 62.6875 57.9896 59.375 59.1615 55.6198 59.3281 51.4219L50.25 50.7344C49.7604 55.2552 48.1042 58.6719 45.2813 60.9844 42.4688 63.2969 38.3125 64.4531 32.8125 64.4531 27.0833 64.4531 22.9063 63.401 20.2813 61.2969 17.6667 59.2031 16.3594 56.6771 16.3594 53.7188 16.3594 51.1458 17.2865 49.026 19.1406 47.3594 20.9635 45.7031 25.724 44.0052 33.4219 42.2656 41.1198 40.526 46.401 39.0052 49.2656 37.7031 53.4323 35.776 56.5052 33.3385 58.4844 30.3906 60.474 27.4531 61.4688 24.0625 61.4688 20.2188 61.4688 16.4063 60.3802 12.8125 58.2031 9.4375 56.026 6.07292 52.8906 3.45313 48.7969 1.57813 44.7135-0.286458 40.1198-1.21875 35.0156-1.21875 28.5365-1.21875 23.1042-0.276042 18.7188 1.60938 14.3438 3.49479 10.9115 6.33333 8.42188 10.125 5.93229 13.9271 4.625 18.2188 4.5 23Z" id="ArialMT-83"/><path d="M40.4375 19 49.0781 17.875C48.1302 11.9167 45.7083 7.25 41.8125 3.875 37.9271 0.510417 33.151-1.17188 27.4844-1.17188 20.3906-1.17188 14.6875 1.14583 10.375 5.78125 6.0625 10.4271 3.90625 17.0781 3.90625 25.7344 3.90625 31.3281 4.83333 36.224 6.6875 40.4219 8.54167 44.6302 11.3646 47.7813 15.1563 49.875 18.9479 51.9792 23.0781 53.0313 27.5469 53.0313 33.1719 53.0313 37.776 51.6042 41.3594 48.75 44.9427 45.9063 47.2396 41.8646 48.25 36.625L39.7031 35.2969C38.8906 38.7865 37.4479 41.4063 35.375 43.1563 33.3125 44.9167 30.8125 45.7969 27.875 45.7969 23.4479 45.7969 19.849 44.2083 17.0781 41.0313 14.3177 37.8646 12.9375 32.849 12.9375 25.9844 12.9375 19.0156 14.2708 13.9531 16.9375 10.7969 19.6146 7.64063 23.099 6.0625 27.3906 6.0625 30.8385 6.0625 33.7188 7.11979 36.0313 9.23438 38.3438 11.349 39.8125 14.6042 40.4375 19Z" id="ArialMT-99"/></defs><g fill="#262626" transform="matrix(6.12323e-18 -0.1 -0.1 -6.12323e-18 14.3578 128.981)"><use width="100%" height="100%" xlink:href="#ArialMT-83"></use><use x="66.6992" width="100%" height="100%" xlink:href="#ArialMT-99"></use><use x="116.699" width="100%" height="100%" xlink:href="#ArialMT-111"></use><use x="172.314" width="100%" height="100%" xlink:href="#ArialMT-114"></use><use x="205.615" width="100%" height="100%" xlink:href="#ArialMT-101"></use></g></g></g><g id="PolyCollection_1"><defs><path d="M55.7463-43.5757 55.7463-42.8743 61.8336-43.2104 67.9209-51.7381 74.0081-51.7542 80.0954-51.7388 86.1827-59.9707 92.2699-59.9062 98.3572-59.9441 104.444-59.9437 110.532-59.9374 116.619-51.7541 122.706-51.6732 128.794-59.9013 134.881-59.9483 140.968-51.6702 147.055-84.5208 153.143-68.1705 159.23-84.5337 159.23-191.307 159.23-191.307 153.143-215.889 147.055-215.935 140.968-207.721 134.881-199.527 128.794-199.487 122.706-199.501 116.619-199.489 110.532-207.695 104.444-191.313 98.3572-207.717 92.2699-183.107 86.1827-207.693 80.0954-191.263 74.0081-191.309 67.9209-207.682 61.8336-150.271 55.7463-43.5757Z" id="m7df2ffbc1d" stroke="#CD5C5C" stroke-opacity="0.15"/></defs><g clip-path="url(#p6380f418d9)"><use y="257.631" width="100%" height="100%" xlink:href="#m7df2ffbc1d" stroke="#CD5C5C" stroke-opacity="0.15" fill="#CD5C5C" fill-opacity="0.15"></use></g></g><g id="PolyCollection_2"><defs><path d="M55.7463-43.5531 55.7463-42.8772 61.8336-43.2104 67.9209-84.4627 74.0081-92.6857 80.0954-92.6705 86.1827-84.4603 92.2699-92.6843 98.3572-100.919 104.444-109.091 110.532-100.923 116.619-100.941 122.706-100.921 128.794-109.207 134.881-117.351 140.968-117.306 147.055-117.305 153.143-117.32 159.23-117.344 165.317-117.299 171.404-125.502 177.492-117.366 183.579-125.515 189.666-125.48 195.754-117.367 201.841-117.351 207.928-125.514 214.015-117.26 220.103-109.068 226.19-125.5 232.277-125.467 238.364-117.344 244.452-125.456 250.539-125.534 256.626-117.373 262.714-117.303 268.801-125.52 274.888-125.569 280.975-125.523 287.063-125.562 293.15-109.211 299.237-125.524 305.324-125.496 311.412-125.539 317.499-125.511 323.586-117.406 329.674-125.538 335.761-125.51 341.848-117.294 347.935-125.535 354.023-125.526 360.11-125.503 360.11-207.685 360.11-207.685 354.023-215.903 347.935-199.499 341.848-199.484 335.761-199.519 329.674-207.664 323.586-207.706 317.499-224.129 311.412-240.547 305.324-224.106 299.237-224.074 293.15-215.899 287.063-199.467 280.975-207.701 274.888-207.637 268.801-215.888 262.714-215.943 256.626-215.907 250.539-207.69 244.452-215.885 238.364-215.851 232.277-207.687 226.19-215.876 220.103-207.728 214.015-215.931 207.928-207.652 201.841-207.706 195.754-207.695 189.666-207.675 183.579-207.645 177.492-199.489 171.404-207.628 165.317-199.459 159.23-215.882 153.143-215.898 147.055-207.672 140.968-207.657 134.881-199.483 128.794-215.913 122.706-199.471 116.619-199.487 110.532-183.085 104.444-199.497 98.3572-183.11 92.2699-174.841 86.1827-166.634 80.0954-191.256 74.0081-174.876 67.9209-166.654 61.8336-158.415 55.7463-43.5531Z" id="m766f47057f" stroke="#CD5C5C" stroke-opacity="0.15"/></defs><g clip-path="url(#p6380f418d9)"><use y="257.631" width="100%" height="100%" xlink:href="#m766f47057f" stroke="#CD5C5C" stroke-opacity="0.15" fill="#CD5C5C" fill-opacity="0.15"></use></g></g><g id="line2d_25"><path d="M55.7463 214.426 61.8336 186.674 67.9209 123.601 74.0081 117.814 80.0954 118.845 86.1827 112.03 92.2699 118.843 98.3572 114.371 104.444 115.354 110.532 114.617 116.619 111.622 122.706 110.146 128.794 111.546 134.881 107.192 140.968 104.193 147.055 106.171 153.143 104.155 159.23 106.088" stroke="#CD5C5C" stroke-width="3" stroke-dasharray="6 3" fill="none" clip-path="url(#p6380f418d9)"/></g><g id="line2d_26"><path d="M55.7463 214.396 61.8336 184.593 67.9209 139.733 74.0081 136.986 80.0954 133.617 86.1827 129.433 92.2699 126.1 98.3572 121.501 104.444 117.149 110.532 114.447 116.619 111.321 122.706 109.517 128.794 106.318 134.881 105.171 140.968 103.361 147.055 101.766 153.143 101.767 159.23 99.88 165.317 101.481 171.404 100.576 177.492 100.618 183.579 99.7977 189.666 101.144 195.754 98.6044 201.841 99.1383 207.928 100.528 214.015 100.077 220.103 98.0651 226.19 99.0479 232.277 99.5834 238.364 101.018 244.452 99.5434 250.539 97.2814 256.626 99.6623 262.714 99.504 268.801 97.2017 274.888 99.8282 280.975 98.5568 287.063 99.8683 293.15 100.484 299.237 98.9211 305.324 96.8729 311.412 99.0435 317.499 99.5395 323.586 98.7574 329.674 96.8264 335.761 101.389 341.848 99.5782 347.935 99.7856 354.023 98.6363 360.11 97.1183" stroke="#CD5C5C" stroke-width="3" stroke-dasharray="6 0" fill="none" clip-path="url(#p6380f418d9)"/></g><g id="patch_3"><path d="M40.5281 224.64 40.5281 7.2" stroke="#CCCCCC" stroke-linecap="square" stroke-linejoin="miter" fill="none"/></g><g id="patch_4"><path d="M375.328 224.64 375.328 7.2" stroke="#CCCCCC" stroke-linecap="square" stroke-linejoin="miter" fill="none"/></g><g id="patch_5"><path d="M40.5281 224.64 375.328 224.64" stroke="#CCCCCC" stroke-linecap="square" stroke-linejoin="miter" fill="none"/></g><g id="patch_6"><path d="M40.5281 7.2 375.328 7.2" stroke="#CCCCCC" stroke-linecap="square" stroke-linejoin="miter" fill="none"/></g><g id="legend_1"><g id="line2d_27"><path d="M313.587 19.8875 333.587 19.8875" stroke="#CD5C5C" stroke-width="3" stroke-dasharray="6 3" fill="none"/></g><g id="line2d_28"></g><g id="text_15"><defs><path d="M1.21875 51.8594 10.4531 51.8594 24.9531 10.9844 39.7969 51.8594 48.7813 51.8594 29.3906 0 29.3906-19.875 20.4531-19.875 20.4531 0Z" id="ArialMT-947"/><path d="M52.8281 42.0938 5.5625 42.0938 5.5625 50.2969 52.8281 50.2969ZM52.8281 20.3594 5.5625 20.3594 5.5625 28.5625 52.8281 28.5625Z" id="ArialMT-61"/><path d="M9.07813 0 9.07813 10.0156 19.0938 10.0156 19.0938 0Z" id="ArialMT-46"/></defs><g fill="#262626" transform="matrix(0.1 0 0 -0.1 341.587 23.3875)"><use width="100%" height="100%" xlink:href="#ArialMT-947"></use><use x="50" width="100%" height="100%" xlink:href="#ArialMT-61"></use><use x="108.398" width="100%" height="100%" xlink:href="#ArialMT-48"></use><use x="164.014" width="100%" height="100%" xlink:href="#ArialMT-46"></use><use x="191.797" width="100%" height="100%" xlink:href="#ArialMT-53"></use></g></g><g id="line2d_29"><path d="M313.587 34.0625 333.587 34.0625" stroke="#CD5C5C" stroke-width="3" stroke-dasharray="6 0" fill="none"/></g><g id="line2d_30"></g><g id="text_16"><defs><path d="M5.46875 16.5469 13.9219 17.3281C14.6302 13.3594 15.9948 10.4792 18.0156 8.6875 20.0365 6.89583 22.625 6 25.7813 6 28.4792 6 30.8438 6.61979 32.875 7.85938 34.9167 9.09896 36.5885 10.75 37.8906 12.8125 39.1927 14.8854 40.2813 17.6771 41.1563 21.1875 42.0417 24.7083 42.4844 28.2917 42.4844 31.9375 42.4844 32.3229 42.4688 32.9063 42.4375 33.6875 40.6771 30.8958 38.276 28.625 35.2344 26.875 32.1927 25.1354 28.8958 24.2656 25.3438 24.2656 19.4167 24.2656 14.401 26.4115 10.2969 30.7031 6.20313 35.0052 4.15625 40.6719 4.15625 47.7031 4.15625 54.9635 6.29688 60.8073 10.5781 65.2344 14.8594 69.6615 20.2188 71.875 26.6563 71.875 31.3125 71.875 35.5677 70.6198 39.4219 68.1094 43.2865 65.6094 46.2188 62.0365 48.2188 57.3906 50.2188 52.7552 51.2188 46.0417 51.2188 37.25 51.2188 28.1042 50.224 20.8229 48.2344 15.4063 46.2552 9.98958 43.3021 5.86458 39.375 3.03125 35.4583 0.197917 30.8646-1.21875 25.5938-1.21875 19.9896-1.21875 15.4115 0.333333 11.8594 3.4375 8.31771 6.55208 6.1875 10.9219 5.46875 16.5469ZM41.4531 48.1406C41.4531 53.1927 40.1094 57.1979 37.4219 60.1563 34.7448 63.1146 31.5156 64.5938 27.7344 64.5938 23.8281 64.5938 20.4271 63 17.5313 59.8125 14.6354 56.625 13.1875 52.4896 13.1875 47.4063 13.1875 42.8542 14.5625 39.151 17.3125 36.2969 20.0625 33.4531 23.4531 32.0313 27.4844 32.0313 31.5573 32.0313 34.901 33.4531 37.5156 36.2969 40.1406 39.151 41.4531 43.099 41.4531 48.1406Z" id="ArialMT-57"/></defs><g fill="#262626" transform="matrix(0.1 0 0 -0.1 341.587 37.5625)"><use width="100%" height="100%" xlink:href="#ArialMT-947"></use><use x="50" width="100%" height="100%" xlink:href="#ArialMT-61"></use><use x="108.398" width="100%" height="100%" xlink:href="#ArialMT-48"></use><use x="164.014" width="100%" height="100%" xlink:href="#ArialMT-46"></use><use x="191.797" width="100%" height="100%" xlink:href="#ArialMT-57"></use></g></g></g></g></g></svg>