<svg width="510.194" height="343.507" viewBox="0 0 382.645 257.631" xmlns="http://www.w3.org/2000/svg" xmlns:xlink="http://www.w3.org/1999/xlink" stroke-linejoin="round" overflow="hidden"><defs></defs><defs><clipPath id="p178cc62416"><rect x="40.6453" y="7.2" width="334.8" height="217.44"/></clipPath></defs><g id="figure_1"><g id="patch_1"><path d="M0 257.631 382.645 257.631 382.645 0 0 0Z" fill="#FFFFFF"/></g><g id="axes_1"><g id="patch_2"><path d="M40.6453 224.64 375.445 224.64 375.445 7.2 40.6453 7.2Z" fill="#FFFFFF"/></g><g id="matplotlib.axis_1"><g id="xtick_1"><g id="line2d_1"><path d="M49.652 224.64 49.652 7.2" stroke="#CCCCCC" stroke-width="0.8" stroke-linecap="round" fill="none" clip-path="url(#p178cc62416)"/></g><g id="line2d_2"></g><g id="text_1"><defs><path d="M4.15625 35.2969C4.15625 43.7656 5.02604 50.5781 6.76563 55.7344 8.50521 60.901 11.0885 64.8802 14.5156 67.6719 17.9531 70.474 22.276 71.875 27.4844 71.875 31.3281 71.875 34.6979 71.099 37.5938 69.5469 40.4896 68.0052 42.8802 65.776 44.7656 62.8594 46.6615 59.9531 48.1458 56.4063 49.2188 52.2188 50.2917 48.0417 50.8281 42.401 50.8281 35.2969 50.8281 26.901 49.9635 20.125 48.2344 14.9688 46.5156 9.8125 43.9375 5.82292 40.5 3 37.0729 0.1875 32.7344-1.21875 27.4844-1.21875 20.5885-1.21875 15.1719 1.25521 11.2344 6.20313 6.51563 12.1615 4.15625 21.8594 4.15625 35.2969ZM13.1875 35.2969C13.1875 23.5469 14.5625 15.724 17.3125 11.8281 20.0625 7.94271 23.4531 6 27.4844 6 31.526 6 34.9219 7.95313 37.6719 11.8594 40.4219 15.7656 41.7969 23.5781 41.7969 35.2969 41.7969 47.0885 40.4219 54.9167 37.6719 58.7813 34.9219 62.6563 31.4948 64.5938 27.3906 64.5938 23.3594 64.5938 20.1354 62.8854 17.7188 59.4688 14.6979 55.1146 13.1875 47.0573 13.1875 35.2969Z" id="ArialMT-48"/></defs><g fill="#262626" transform="matrix(0.1 0 0 -0.1 46.8715 235.298)"><use width="100%" height="100%" xlink:href="#ArialMT-48"></use></g></g></g><g id="xtick_2"><g id="line2d_3"><path d="M111.767 224.64 111.767 7.2" stroke="#CCCCCC" stroke-width="0.8" stroke-linecap="round" fill="none" clip-path="url(#p178cc62416)"/></g><g id="line2d_4"></g><g id="text_2"><defs><path d="M37.25 0 28.4688 0 28.4688 56C26.3542 53.9896 23.5781 51.974 20.1406 49.9531 16.7031 47.9323 13.6198 46.4167 10.8906 45.4063L10.8906 53.9063C15.8073 56.2188 20.1042 59.0156 23.7813 62.2969 27.4583 65.5885 30.0625 68.7813 31.5938 71.875L37.25 71.875Z" id="ArialMT-49"/></defs><g fill="#262626" transform="matrix(0.1 0 0 -0.1 106.206 235.298)"><use width="100%" height="100%" xlink:href="#ArialMT-49"></use><use x="55.6152" width="100%" height="100%" xlink:href="#ArialMT-48"></use></g></g></g><g id="xtick_3"><g id="line2d_5"><path d="M173.882 224.64 173.882 7.2" stroke="#CCCCCC" stroke-width="0.8" stroke-linecap="round" fill="none" clip-path="url(#p178cc62416)"/></g><g id="line2d_6"></g><g id="text_3"><defs><path d="M50.3438 8.45313 50.3438 0 3.03125 0C2.96875 2.11458 3.30729 4.15104 4.04688 6.10938 5.25521 9.32813 7.18229 12.5 9.82813 15.625 12.4844 18.75 16.3229 22.3646 21.3438 26.4688 29.125 32.8438 34.3802 37.8958 37.1094 41.625 39.849 45.3542 41.2188 48.8802 41.2188 52.2031 41.2188 55.6823 39.9688 58.6146 37.4688 61 34.9792 63.3958 31.7344 64.5938 27.7344 64.5938 23.5052 64.5938 20.1198 63.3229 17.5781 60.7813 15.0365 58.25 13.75 54.7396 13.7188 50.25L4.6875 51.1719C5.30208 57.9115 7.625 63.0469 11.6563 66.5781 15.6979 70.1094 21.125 71.875 27.9375 71.875 34.8021 71.875 40.2344 69.9688 44.2344 66.1563 48.2448 62.3542 50.25 57.6354 50.25 52 50.25 49.1354 49.6615 46.3177 48.4844 43.5469 47.3177 40.7865 45.375 37.875 42.6563 34.8125 39.9375 31.75 35.4219 27.5521 29.1094 22.2188 23.8281 17.7917 20.4375 14.7865 18.9375 13.2031 17.4479 11.6302 16.2135 10.0469 15.2344 8.45313Z" id="ArialMT-50"/></defs><g fill="#262626" transform="matrix(0.1 0 0 -0.1 168.321 235.298)"><use width="100%" height="100%" xlink:href="#ArialMT-50"></use><use x="55.6152" width="100%" height="100%" xlink:href="#ArialMT-48"></use></g></g></g><g id="xtick_4"><g id="line2d_7"><path d="M235.997 224.64 235.997 7.2" stroke="#CCCCCC" stroke-width="0.8" stroke-linecap="round" fill="none" clip-path="url(#p178cc62416)"/></g><g id="line2d_8"></g><g id="text_4"><defs><path d="M4.20313 18.8906 12.9844 20.0625C13.9948 15.0833 15.7135 11.4948 18.1406 9.29688 20.5677 7.09896 23.5208 6 27 6 31.1354 6 34.625 7.43229 37.4688 10.2969 40.3229 13.1615 41.75 16.7135 41.75 20.9531 41.75 24.9844 40.4323 28.3073 37.7969 30.9219 35.1615 33.5469 31.8073 34.8594 27.7344 34.8594 26.0781 34.8594 24.0104 34.5365 21.5313 33.8906L22.5156 41.6094C23.099 41.5365 23.5677 41.5 23.9219 41.5 27.6719 41.5 31.0417 42.474 34.0313 44.4219 37.0313 46.3802 38.5313 49.3958 38.5313 53.4688 38.5313 56.6875 37.4375 59.3542 35.25 61.4688 33.0729 63.5938 30.2604 64.6563 26.8125 64.6563 23.3958 64.6563 20.5469 63.5781 18.2656 61.4219 15.9844 59.276 14.5208 56.0573 13.875 51.7656L5.07813 53.3281C6.15104 59.2135 8.58854 63.776 12.3906 67.0156 16.2031 70.2552 20.9427 71.875 26.6094 71.875 30.5156 71.875 34.1094 71.0365 37.3906 69.3594 40.6823 67.6823 43.1979 65.3958 44.9375 62.5 46.6875 59.6042 47.5625 56.526 47.5625 53.2656 47.5625 50.1823 46.7292 47.3698 45.0625 44.8281 43.4063 42.2865 40.9531 40.2656 37.7031 38.7656 41.9323 37.7969 45.2188 35.7708 47.5625 32.6875 49.9063 29.6146 51.0781 25.7656 51.0781 21.1406 51.0781 14.8906 48.7969 9.59375 44.2344 5.25 39.6823 0.90625 33.9219-1.26563 26.9531-1.26563 20.6719-1.26563 15.4531 0.604167 11.2969 4.34375 7.15104 8.09375 4.78646 12.9427 4.20313 18.8906Z" id="ArialMT-51"/></defs><g fill="#262626" transform="matrix(0.1 0 0 -0.1 230.436 235.298)"><use width="100%" height="100%" xlink:href="#ArialMT-51"></use><use x="55.6152" width="100%" height="100%" xlink:href="#ArialMT-48"></use></g></g></g><g id="xtick_5"><g id="line2d_9"><path d="M298.112 224.64 298.112 7.2" stroke="#CCCCCC" stroke-width="0.8" stroke-linecap="round" fill="none" clip-path="url(#p178cc62416)"/></g><g id="line2d_10"></g><g id="text_5"><defs><path d="M32.3281 0 32.3281 17.1406 1.26563 17.1406 1.26563 25.2031 33.9375 71.5781 41.1094 71.5781 41.1094 25.2031 50.7813 25.2031 50.7813 17.1406 41.1094 17.1406 41.1094 0ZM32.3281 25.2031 32.3281 57.4688 9.90625 25.2031Z" id="ArialMT-52"/></defs><g fill="#262626" transform="matrix(0.1 0 0 -0.1 292.551 235.298)"><use width="100%" height="100%" xlink:href="#ArialMT-52"></use><use x="55.6152" width="100%" height="100%" xlink:href="#ArialMT-48"></use></g></g></g><g id="xtick_6"><g id="line2d_11"><path d="M360.227 224.64 360.227 7.2" stroke="#CCCCCC" stroke-width="0.8" stroke-linecap="round" fill="none" clip-path="url(#p178cc62416)"/></g><g id="line2d_12"></g><g id="text_6"><defs><path d="M4.15625 18.75 13.375 19.5313C14.0625 15.0417 15.651 11.6615 18.1406 9.39063 20.6302 7.13021 23.6354 6 27.1563 6 31.3854 6 34.9635 7.59375 37.8906 10.7813 40.8177 13.9792 42.2813 18.2135 42.2813 23.4844 42.2813 28.4948 40.875 32.4479 38.0625 35.3438 35.25 38.25 31.5625 39.7031 27 39.7031 24.1667 39.7031 21.6094 39.0573 19.3281 37.7656 17.0573 36.4844 15.2708 34.8177 13.9688 32.7656L5.71875 33.8438 12.6406 70.6094 48.25 70.6094 48.25 62.2031 19.6719 62.2031 15.8281 42.9688C20.1198 45.9688 24.625 47.4688 29.3438 47.4688 35.5938 47.4688 40.8646 45.3021 45.1563 40.9688 49.4583 36.6354 51.6094 31.0677 51.6094 24.2656 51.6094 17.7865 49.724 12.1875 45.9531 7.46875 41.3594 1.67708 35.0938-1.21875 27.1563-1.21875 20.6458-1.21875 15.3281 0.604167 11.2031 4.25 7.08854 7.89583 4.73958 12.7292 4.15625 18.75Z" id="ArialMT-53"/></defs><g fill="#262626" transform="matrix(0.1 0 0 -0.1 354.666 235.298)"><use width="100%" height="100%" xlink:href="#ArialMT-53"></use><use x="55.6152" width="100%" height="100%" xlink:href="#ArialMT-48"></use></g></g></g><g id="text_7"><defs><path d="M9.32813 0 9.32813 71.5781 18.7969 71.5781 18.7969 0Z" id="ArialMT-73"/><path d="M25.7813 7.85938 27.0469 0.09375C24.5781-0.427083 22.3646-0.6875 20.4063-0.6875 17.2188-0.6875 14.7448-0.182292 12.9844 0.828125 11.2344 1.83854 10 3.16667 9.28125 4.8125 8.5625 6.45833 8.20313 9.91667 8.20313 15.1875L8.20313 45.0156 1.76563 45.0156 1.76563 51.8594 8.20313 51.8594 8.20313 64.7031 16.9375 69.9688 16.9375 51.8594 25.7813 51.8594 25.7813 45.0156 16.9375 45.0156 16.9375 14.7031C16.9375 12.1927 17.0938 10.5781 17.4063 9.85938 17.7188 9.15104 18.224 8.58333 18.9219 8.15625 19.6198 7.72917 20.6198 7.51563 21.9219 7.51563 22.901 7.51563 24.1875 7.63021 25.7813 7.85938Z" id="ArialMT-116"/><path d="M42.0938 16.7031 51.1719 15.5781C49.7448 10.276 47.0938 6.15625 43.2188 3.21875 39.3438 0.291667 34.3958-1.17188 28.375-1.17188 20.7917-1.17188 14.776 1.16146 10.3281 5.82813 5.88021 10.5052 3.65625 17.0573 3.65625 25.4844 3.65625 34.2135 5.90104 40.9844 10.3906 45.7969 14.8906 50.6198 20.7188 53.0313 27.875 53.0313 34.8125 53.0313 40.4792 50.6719 44.875 45.9531 49.2708 41.2344 51.4688 34.5938 51.4688 26.0313 51.4688 25.5104 51.4531 24.7292 51.4219 23.6875L12.75 23.6875C13.0729 17.9896 14.6823 13.625 17.5781 10.5938 20.474 7.57292 24.0885 6.0625 28.4219 6.0625 31.6406 6.0625 34.3906 6.90625 36.6719 8.59375 38.9531 10.2917 40.7604 12.9948 42.0938 16.7031ZM13.2344 30.9063 42.1875 30.9063C41.8021 35.2708 40.6979 38.5417 38.875 40.7188 36.0729 44.1042 32.4427 45.7969 27.9844 45.7969 23.9427 45.7969 20.5469 44.4479 17.7969 41.75 15.0469 39.0521 13.526 35.4375 13.2344 30.9063Z" id="ArialMT-101"/><path d="M6.5 0 6.5 51.8594 14.4063 51.8594 14.4063 44C16.4271 47.6771 18.2917 50.099 20 51.2656 21.7083 52.4427 23.5885 53.0313 25.6406 53.0313 28.599 53.0313 31.6094 52.0885 34.6719 50.2031L31.6406 42.0469C29.4948 43.3177 27.349 43.9531 25.2031 43.9531 23.276 43.9531 21.5469 43.375 20.0156 42.2188 18.4844 41.0625 17.3958 39.4583 16.75 37.4063 15.7708 34.2813 15.2813 30.8646 15.2813 27.1563L15.2813 0Z" id="ArialMT-114"/><path d="M40.4375 6.39063C37.1771 3.63021 34.0417 1.67708 31.0313 0.53125 28.0208-0.604167 24.7917-1.17188 21.3438-1.17188 15.6458-1.17188 11.2656 0.21875 8.20313 3 5.14063 5.78125 3.60938 9.33854 3.60938 13.6719 3.60938 16.2135 4.1875 18.5313 5.34375 20.625 6.5 22.7292 8.01563 24.4167 9.89063 25.6875 11.7656 26.9583 13.875 27.9167 16.2188 28.5625 17.9375 29.0208 20.5417 29.4635 24.0313 29.8906 31.125 30.7344 36.349 31.7396 39.7031 32.9063 39.7344 34.1146 39.75 34.8802 39.75 35.2031 39.75 38.7865 38.9167 41.3125 37.25 42.7813 35.0104 44.7604 31.6771 45.75 27.25 45.75 23.1146 45.75 20.0625 45.026 18.0938 43.5781 16.125 42.1302 14.6667 39.5677 13.7188 35.8906L5.125 37.0625C5.90625 40.7396 7.19271 43.7083 8.98438 45.9688 10.776 48.2292 13.3646 49.9688 16.75 51.1875 20.1354 52.4167 24.0573 53.0313 28.5156 53.0313 32.9427 53.0313 36.5365 52.5104 39.2969 51.4688 42.0677 50.4271 44.1042 49.1146 45.4063 47.5313 46.7083 45.9583 47.6198 43.9635 48.1406 41.5469 48.4323 40.0573 48.5781 37.3594 48.5781 33.4531L48.5781 21.7344C48.5781 13.5573 48.7656 8.38542 49.1406 6.21875 49.5156 4.0625 50.2604 1.98958 51.375 0L42.1875 0C41.2813 1.82292 40.6979 3.95313 40.4375 6.39063ZM39.7031 26.0313C36.5052 24.7292 31.7188 23.6198 25.3438 22.7031 21.7292 22.1823 19.1719 21.5938 17.6719 20.9375 16.1823 20.2917 15.026 19.3438 14.2031 18.0938 13.3906 16.8438 12.9844 15.4531 12.9844 13.9219 12.9844 11.5781 13.8698 9.625 15.6406 8.0625 17.4219 6.5 20.0208 5.71875 23.4375 5.71875 26.8229 5.71875 29.8333 6.45833 32.4688 7.9375 35.1042 9.41667 37.0417 11.4427 38.2813 14.0156 39.2292 16.0052 39.7031 18.9323 39.7031 22.7969Z" id="ArialMT-97"/><path d="M6.64063 61.4688 6.64063 71.5781 15.4375 71.5781 15.4375 61.4688ZM6.64063 0 6.64063 51.8594 15.4375 51.8594 15.4375 0Z" id="ArialMT-105"/><path d="M3.32813 25.9219C3.32813 35.526 5.99479 42.6406 11.3281 47.2656 15.7865 51.1094 21.224 53.0313 27.6406 53.0313 34.7656 53.0313 40.5885 50.6927 45.1094 46.0156 49.6406 41.349 51.9063 34.8958 51.9063 26.6563 51.9063 19.9896 50.9063 14.7396 48.9063 10.9063 46.9063 7.08333 43.9896 4.11458 40.1563 2 36.3333-0.114583 32.1615-1.17188 27.6406-1.17188 20.3802-1.17188 14.5104 1.15625 10.0313 5.8125 5.5625 10.4688 3.32813 17.1719 3.32813 25.9219ZM12.3594 25.9219C12.3594 19.2865 13.8073 14.3177 16.7031 11.0156 19.599 7.71354 23.2448 6.0625 27.6406 6.0625 32.0052 6.0625 35.6354 7.71875 38.5313 11.0313 41.4271 14.3542 42.875 19.4167 42.875 26.2188 42.875 32.6354 41.4167 37.4948 38.5 40.7969 35.5833 44.099 31.9635 45.75 27.6406 45.75 23.2448 45.75 19.599 44.1042 16.7031 40.8125 13.8073 37.5313 12.3594 32.5677 12.3594 25.9219Z" id="ArialMT-111"/><path d="M6.59375 0 6.59375 51.8594 14.5 51.8594 14.5 44.4844C18.3125 50.1823 23.8125 53.0313 31 53.0313 34.125 53.0313 37 52.4688 39.625 51.3438 42.25 50.2188 44.2135 48.7448 45.5156 46.9219 46.8177 45.099 47.7292 42.9375 48.25 40.4375 48.5729 38.8021 48.7344 35.9531 48.7344 31.8906L48.7344 0 39.9375 0 39.9375 31.5469C39.9375 35.1302 39.5938 37.8073 38.9063 39.5781 38.2292 41.349 37.0208 42.7604 35.2813 43.8125 33.5417 44.875 31.5 45.4063 29.1563 45.4063 25.4063 45.4063 22.1719 44.2188 19.4531 41.8438 16.7344 39.4688 15.375 34.9635 15.375 28.3281L15.375 0Z" id="ArialMT-110"/></defs><g fill="#262626" transform="matrix(0.1 0 0 -0.1 189.98 248.443)"><use width="100%" height="100%" xlink:href="#ArialMT-73"></use><use x="27.7832" width="100%" height="100%" xlink:href="#ArialMT-116"></use><use x="55.5664" width="100%" height="100%" xlink:href="#ArialMT-101"></use><use x="111.182" width="100%" height="100%" xlink:href="#ArialMT-114"></use><use x="144.482" width="100%" height="100%" xlink:href="#ArialMT-97"></use><use x="200.098" width="100%" height="100%" xlink:href="#ArialMT-116"></use><use x="227.881" width="100%" height="100%" xlink:href="#ArialMT-105"></use><use x="250.098" width="100%" height="100%" xlink:href="#ArialMT-111"></use><use x="305.713" width="100%" height="100%" xlink:href="#ArialMT-110"></use></g></g></g><g id="matplotlib.axis_2"><g id="ytick_1"><g id="line2d_13"><path d="M40.6453 217.57 375.445 217.57" stroke="#CCCCCC" stroke-width="0.8" stroke-linecap="round" fill="none" clip-path="url(#p178cc62416)"/></g><g id="line2d_14"></g><g id="text_8"><g fill="#262626" transform="matrix(0.1 0 0 -0.1 31.5844 221.149)"><use width="100%" height="100%" xlink:href="#ArialMT-48"></use></g></g></g><g id="ytick_2"><g id="line2d_15"><path d="M40.6453 185.715 375.445 185.715" stroke="#CCCCCC" stroke-width="0.8" stroke-linecap="round" fill="none" clip-path="url(#p178cc62416)"/></g><g id="line2d_16"></g><g id="text_9"><g fill="#262626" transform="matrix(0.1 0 0 -0.1 20.4625 189.293)"><use width="100%" height="100%" xlink:href="#ArialMT-49"></use><use x="55.6152" width="100%" height="100%" xlink:href="#ArialMT-48"></use><use x="111.23" width="100%" height="100%" xlink:href="#ArialMT-48"></use></g></g></g><g id="ytick_3"><g id="line2d_17"><path d="M40.6453 153.859 375.445 153.859" stroke="#CCCCCC" stroke-width="0.8" stroke-linecap="round" fill="none" clip-path="url(#p178cc62416)"/></g><g id="line2d_18"></g><g id="text_10"><g fill="#262626" transform="matrix(0.1 0 0 -0.1 20.4625 157.438)"><use width="100%" height="100%" xlink:href="#ArialMT-50"></use><use x="55.6152" width="100%" height="100%" xlink:href="#ArialMT-48"></use><use x="111.23" width="100%" height="100%" xlink:href="#ArialMT-48"></use></g></g></g><g id="ytick_4"><g id="line2d_19"><path d="M40.6453 122.004 375.445 122.004" stroke="#CCCCCC" stroke-width="0.8" stroke-linecap="round" fill="none" clip-path="url(#p178cc62416)"/></g><g id="line2d_20"></g><g id="text_11"><g fill="#262626" transform="matrix(0.1 0 0 -0.1 20.4625 125.583)"><use width="100%" height="100%" xlink:href="#ArialMT-51"></use><use x="55.6152" width="100%" height="100%" xlink:href="#ArialMT-48"></use><use x="111.23" width="100%" height="100%" xlink:href="#ArialMT-48"></use></g></g></g><g id="ytick_5"><g id="line2d_21"><path d="M40.6453 90.1488 375.445 90.1488" stroke="#CCCCCC" stroke-width="0.8" stroke-linecap="round" fill="none" clip-path="url(#p178cc62416)"/></g><g id="line2d_22"></g><g id="text_12"><g fill="#262626" transform="matrix(0.1 0 0 -0.1 20.4625 93.7277)"><use width="100%" height="100%" xlink:href="#ArialMT-52"></use><use x="55.6152" width="100%" height="100%" xlink:href="#ArialMT-48"></use><use x="111.23" width="100%" height="100%" xlink:href="#ArialMT-48"></use></g></g></g><g id="ytick_6"><g id="line2d_23"><path d="M40.6453 58.2936 375.445 58.2936" stroke="#CCCCCC" stroke-width="0.8" stroke-linecap="round" fill="none" clip-path="url(#p178cc62416)"/></g><g id="line2d_24"></g><g id="text_13"><g fill="#262626" transform="matrix(0.1 0 0 -0.1 20.4625 61.8725)"><use width="100%" height="100%" xlink:href="#ArialMT-53"></use><use x="55.6152" width="100%" height="100%" xlink:href="#ArialMT-48"></use><use x="111.23" width="100%" height="100%" xlink:href="#ArialMT-48"></use></g></g></g><g id="ytick_7"><g id="line2d_25"><path d="M40.6453 26.4384 375.445 26.4384" stroke="#CCCCCC" stroke-width="0.8" stroke-linecap="round" fill="none" clip-path="url(#p178cc62416)"/></g><g id="line2d_26"></g><g id="text_14"><defs><path d="M49.75 54.0469 41.0156 53.375C40.2344 56.8229 39.1302 59.3281 37.7031 60.8906 35.3177 63.401 32.3854 64.6563 28.9063 64.6563 26.1042 64.6563 23.6458 63.875 21.5313 62.3125 18.7708 60.2917 16.5885 57.3438 14.9844 53.4688 13.3906 49.5938 12.5625 44.0781 12.5 36.9219 14.6146 40.1406 17.2031 42.5313 20.2656 44.0938 23.3281 45.6563 26.5365 46.4375 29.8906 46.4375 35.7448 46.4375 40.7292 44.2813 44.8438 39.9688 48.9688 35.6563 51.0313 30.0833 51.0313 23.25 51.0313 18.75 50.0625 14.5729 48.125 10.7188 46.1875 6.86458 43.526 3.91146 40.1406 1.85938 36.7552-0.192708 32.9115-1.21875 28.6094-1.21875 21.2865-1.21875 15.3125 1.47396 10.6875 6.85938 6.07292 12.2448 3.76563 21.125 3.76563 33.5 3.76563 47.3333 6.31771 57.3906 11.4219 63.6719 15.8802 69.1406 21.8854 71.875 29.4375 71.875 35.0729 71.875 39.6875 70.2969 43.2813 67.1406 46.8854 63.9844 49.0417 59.6198 49.75 54.0469ZM13.875 23.1875C13.875 20.1667 14.5156 17.2708 15.7969 14.5 17.0781 11.7396 18.875 9.63021 21.1875 8.17188 23.5 6.72396 25.9271 6 28.4688 6 32.1771 6 35.3646 7.49479 38.0313 10.4844 40.7083 13.4844 42.0469 17.5573 42.0469 22.7031 42.0469 27.651 40.724 31.5469 38.0781 34.3906 35.4427 37.2448 32.125 38.6719 28.125 38.6719 24.1563 38.6719 20.7865 37.2448 18.0156 34.3906 15.2552 31.5469 13.875 27.8125 13.875 23.1875Z" id="ArialMT-54"/></defs><g fill="#262626" transform="matrix(0.1 0 0 -0.1 20.4625 30.0173)"><use width="100%" height="100%" xlink:href="#ArialMT-54"></use><use x="55.6152" width="100%" height="100%" xlink:href="#ArialMT-48"></use><use x="111.23" width="100%" height="100%" xlink:href="#ArialMT-48"></use></g></g></g><g id="text_15"><defs><path d="M7.71875 0 7.71875 71.5781 34.7188 71.5781C39.4688 71.5781 43.099 71.3542 45.6094 70.9063 49.1198 70.3125 52.0625 69.1927 54.4375 67.5469 56.8229 65.9115 58.7396 63.6094 60.1875 60.6406 61.6354 57.6823 62.3594 54.4271 62.3594 50.875 62.3594 44.7917 60.4219 39.6406 56.5469 35.4219 52.6719 31.2135 45.6719 29.1094 35.5469 29.1094L17.1875 29.1094 17.1875 0ZM17.1875 37.5469 35.6875 37.5469C41.8125 37.5469 46.1615 38.6875 48.7344 40.9688 51.3073 43.25 52.5938 46.4583 52.5938 50.5938 52.5938 53.5833 51.8333 56.1406 50.3125 58.2656 48.8021 60.401 46.8125 61.8125 44.3438 62.5 42.7396 62.9271 39.7917 63.1406 35.5 63.1406L17.1875 63.1406Z" id="ArialMT-80"/><path d="M6.39063 0 6.39063 71.5781 15.1875 71.5781 15.1875 0Z" id="ArialMT-108"/><path d="M40.4375 19 49.0781 17.875C48.1302 11.9167 45.7083 7.25 41.8125 3.875 37.9271 0.510417 33.151-1.17188 27.4844-1.17188 20.3906-1.17188 14.6875 1.14583 10.375 5.78125 6.0625 10.4271 3.90625 17.0781 3.90625 25.7344 3.90625 31.3281 4.83333 36.224 6.6875 40.4219 8.54167 44.6302 11.3646 47.7813 15.1563 49.875 18.9479 51.9792 23.0781 53.0313 27.5469 53.0313 33.1719 53.0313 37.776 51.6042 41.3594 48.75 44.9427 45.9063 47.2396 41.8646 48.25 36.625L39.7031 35.2969C38.8906 38.7865 37.4479 41.4063 35.375 43.1563 33.3125 44.9167 30.8125 45.7969 27.875 45.7969 23.4479 45.7969 19.849 44.2083 17.0781 41.0313 14.3177 37.8646 12.9375 32.849 12.9375 25.9844 12.9375 19.0156 14.2708 13.9531 16.9375 10.7969 19.6146 7.64063 23.099 6.0625 27.3906 6.0625 30.8385 6.0625 33.7188 7.11979 36.0313 9.23438 38.3438 11.349 39.8125 14.6042 40.4375 19Z" id="ArialMT-99"/><path d="M6.20313-19.9688 5.21875-11.7188C7.14583-12.2396 8.82292-12.5 10.25-12.5 12.2083-12.5 13.7708-12.1719 14.9375-11.5156 16.1146-10.8698 17.0781-9.96354 17.8281-8.79688 18.3802-7.91146 19.276-5.72917 20.5156-2.25 20.6719-1.76042 20.9323-1.04167 21.2969-0.09375L1.60938 51.8594 11.0781 51.8594 21.875 21.8281C23.2708 18.0156 24.526 14.0104 25.6406 9.8125 26.651 13.8542 27.8542 17.7917 29.25 21.625L40.3281 51.8594 49.125 51.8594 29.3906-0.875C27.276-6.57292 25.6354-10.4948 24.4688-12.6406 22.9063-15.5469 21.1146-17.6719 19.0938-19.0156 17.0729-20.3698 14.6615-21.0469 11.8594-21.0469 10.1719-21.0469 8.28646-20.6875 6.20313-19.9688Z" id="ArialMT-121"/><path d="" id="ArialMT-32"/><path d="M6.59375 0 6.59375 71.5781 15.375 71.5781 15.375 45.9063C19.4792 50.6563 24.6563 53.0313 30.9063 53.0313 34.75 53.0313 38.0885 52.2708 40.9219 50.75 43.7552 49.2396 45.7813 47.151 47 44.4844 48.2188 41.8177 48.8281 37.9427 48.8281 32.8594L48.8281 0 40.0469 0 40.0469 32.8594C40.0469 37.2552 39.0938 40.4531 37.1875 42.4531 35.2813 44.4531 32.5885 45.4531 29.1094 45.4531 26.5052 45.4531 24.0521 44.776 21.75 43.4219 19.4583 42.0781 17.8229 40.25 16.8438 37.9375 15.8646 35.625 15.375 32.4375 15.375 28.375L15.375 0Z" id="ArialMT-104"/><path d="M4.98438-4.29688 13.5313-5.5625C13.8854-8.19792 14.875-10.1198 16.5-11.3281 18.6875-12.9531 21.6667-13.7656 25.4375-13.7656 29.5104-13.7656 32.651-12.9531 34.8594-11.3281 37.0781-9.70313 38.5781-7.42708 39.3594-4.5 39.8177-2.70833 40.026 1.05208 39.9844 6.78125 36.151 2.26042 31.3698 0 25.6406 0 18.5052 0 12.9844 2.57292 9.07813 7.71875 5.17188 12.8646 3.21875 19.0313 3.21875 26.2188 3.21875 31.1667 4.11458 35.7292 5.90625 39.9063 7.69792 44.0938 10.2917 47.3281 13.6875 49.6094 17.0938 51.8906 21.0938 53.0313 25.6875 53.0313 31.8021 53.0313 36.849 50.5573 40.8281 45.6094L40.8281 51.8594 48.9219 51.8594 48.9219 7.03125C48.9219-1.04167 48.099-6.76042 46.4531-10.125 44.8177-13.5 42.2135-16.1615 38.6406-18.1094 35.0781-20.0677 30.6927-21.0469 25.4844-21.0469 19.3073-21.0469 14.3125-19.6563 10.5-16.875 6.6875-14.0938 4.84896-9.90104 4.98438-4.29688ZM12.25 26.8594C12.25 20.0573 13.599 15.0938 16.2969 11.9688 19.0052 8.84375 22.3958 7.28125 26.4688 7.28125 30.5 7.28125 33.8802 8.83333 36.6094 11.9375 39.349 15.0521 40.7188 19.9271 40.7188 26.5625 40.7188 32.9063 39.3125 37.6875 36.5 40.9063 33.6875 44.1354 30.2917 45.75 26.3125 45.75 22.4063 45.75 19.0833 44.1615 16.3438 40.9844 13.6146 37.8177 12.25 33.1094 12.25 26.8594Z" id="ArialMT-103"/></defs><g fill="#262626" transform="matrix(6.12323e-18 -0.1 -0.1 -6.12323e-18 14.3578 147.049)"><use width="100%" height="100%" xlink:href="#ArialMT-80"></use><use x="66.6992" width="100%" height="100%" xlink:href="#ArialMT-111"></use><use x="122.314" width="100%" height="100%" xlink:href="#ArialMT-108"></use><use x="144.531" width="100%" height="100%" xlink:href="#ArialMT-105"></use><use x="166.748" width="100%" height="100%" xlink:href="#ArialMT-99"></use><use x="216.748" width="100%" height="100%" xlink:href="#ArialMT-121"></use><use x="266.748" width="100%" height="100%" xlink:href="#ArialMT-32"></use><use x="294.531" width="100%" height="100%" xlink:href="#ArialMT-99"></use><use x="344.531" width="100%" height="100%" xlink:href="#ArialMT-104"></use><use x="400.146" width="100%" height="100%" xlink:href="#ArialMT-97"></use><use x="455.762" width="100%" height="100%" xlink:href="#ArialMT-110"></use><use x="511.377" width="100%" height="100%" xlink:href="#ArialMT-103"></use><use x="566.992" width="100%" height="100%" xlink:href="#ArialMT-101"></use></g></g></g><g id="line2d_27"><path d="M55.8635 17.0836 62.075 80.9769 68.2865 179.913 74.498 191.088 80.7095 192.127 86.921 195.573 93.1325 198.417 99.344 199.34 105.556 201.026 111.767 202.322 117.979 201.828 124.19 201.224 130.402 200.4 136.613 200.116 142.825 203.192 149.036 207.577 155.248 209.405" stroke="#4682B4" stroke-width="3" stroke-dasharray="6 9" fill="none" clip-path="url(#p178cc62416)"/></g><g id="line2d_28"><path d="M55.8635 19.2403 62.075 132.915 68.2865 173.49 74.498 173.411 80.7095 175.994 86.921 175.666 93.1325 176.753 99.344 178.022 105.556 178.472 111.767 178.766 117.979 179.173 124.19 178.773 130.402 180.279 136.613 180.054 142.825 182.41 149.036 182.235 155.248 184.243 161.459 185.242 167.671 185.35 173.882 187.861 180.094 187.646 186.305 189.75 192.517 192.39 198.728 192.301 204.94 195.271 211.151 196.803 217.363 199.951 223.574 201.295 229.786 204.705 235.997 205.24 242.209 205.788 248.42 206.618 254.632 207.058 260.843 208.639 267.055 207.705 273.266 207.297 279.478 207.336 285.689 206.102 291.901 205.515 298.112 205.939 304.324 207.725 310.535 208.125 316.747 209.606 322.958 210.995 329.17 211.801 335.381 212.513 341.593 213.38 347.804 214.756 354.016 214.738" stroke="#4682B4" stroke-width="3" stroke-dasharray="6 3" fill="none" clip-path="url(#p178cc62416)"/></g><g id="line2d_29"><path d="M55.8635 25.1119 62.075 121.17 68.2865 169.573 74.498 184.205 80.7095 188.149 86.921 192.459 93.1325 194.581 99.344 195.358 105.556 195.502 111.767 194.667 117.979 195.442 124.19 195.948 130.402 195.378 136.613 193.492 142.825 195.303 149.036 194.025 155.248 193.935 161.459 195.696 167.671 195.873 173.882 194.973 180.094 194.749 186.305 195.294 192.517 194.977 198.728 196.536 204.94 194.475 211.151 194.968 217.363 196.725 223.574 188.835 229.786 194.714 235.997 197.72 242.209 194.843 248.42 193.907 254.632 196.21 260.843 197.153 267.055 194.829 273.266 193.505 279.478 197.62 285.689 197.113 291.901 196.075 298.112 193.541 304.324 198.303 310.535 196.073 316.747 198.609 322.958 192.889 329.17 198.306 335.381 198.913 341.593 198.729 347.804 196.101 354.016 196.203 360.227 199.788" stroke="#4682B4" stroke-width="3" stroke-dasharray="6 0" fill="none" clip-path="url(#p178cc62416)"/></g><g id="patch_3"><path d="M40.6453 224.64 40.6453 7.2" stroke="#CCCCCC" stroke-linecap="square" stroke-linejoin="miter" fill="none"/></g><g id="patch_4"><path d="M375.445 224.64 375.445 7.2" stroke="#CCCCCC" stroke-linecap="square" stroke-linejoin="miter" fill="none"/></g><g id="patch_5"><path d="M40.6453 224.64 375.445 224.64" stroke="#CCCCCC" stroke-linecap="square" stroke-linejoin="miter" fill="none"/></g><g id="patch_6"><path d="M40.6453 7.2 375.445 7.2" stroke="#CCCCCC" stroke-linecap="square" stroke-linejoin="miter" fill="none"/></g><g id="legend_1"><g id="line2d_30"><path d="M308.144 19.8875 328.144 19.8875" stroke="#4682B4" stroke-width="3" stroke-dasharray="6 9" fill="none"/></g><g id="line2d_31"></g><g id="text_16"><defs><path d="M1.21875 51.8594 10.4531 51.8594 24.9531 10.9844 39.7969 51.8594 48.7813 51.8594 29.3906 0 29.3906-19.875 20.4531-19.875 20.4531 0Z" id="ArialMT-947"/><path d="M52.8281 42.0938 5.5625 42.0938 5.5625 50.2969 52.8281 50.2969ZM52.8281 20.3594 5.5625 20.3594 5.5625 28.5625 52.8281 28.5625Z" id="ArialMT-61"/><path d="M9.07813 0 9.07813 10.0156 19.0938 10.0156 19.0938 0Z" id="ArialMT-46"/></defs><g fill="#262626" transform="matrix(0.1 0 0 -0.1 336.144 23.3875)"><use width="100%" height="100%" xlink:href="#ArialMT-947"></use><use x="50" width="100%" height="100%" xlink:href="#ArialMT-61"></use><use x="108.398" width="100%" height="100%" xlink:href="#ArialMT-48"></use><use x="164.014" width="100%" height="100%" xlink:href="#ArialMT-46"></use><use x="191.797" width="100%" height="100%" xlink:href="#ArialMT-53"></use><use x="247.412" width="100%" height="100%" xlink:href="#ArialMT-48"></use></g></g><g id="line2d_32"><path d="M308.144 34.0625 328.144 34.0625" stroke="#4682B4" stroke-width="3" stroke-dasharray="6 3" fill="none"/></g><g id="line2d_33"></g><g id="text_17"><defs><path d="M5.46875 16.5469 13.9219 17.3281C14.6302 13.3594 15.9948 10.4792 18.0156 8.6875 20.0365 6.89583 22.625 6 25.7813 6 28.4792 6 30.8438 6.61979 32.875 7.85938 34.9167 9.09896 36.5885 10.75 37.8906 12.8125 39.1927 14.8854 40.2813 17.6771 41.1563 21.1875 42.0417 24.7083 42.4844 28.2917 42.4844 31.9375 42.4844 32.3229 42.4688 32.9063 42.4375 33.6875 40.6771 30.8958 38.276 28.625 35.2344 26.875 32.1927 25.1354 28.8958 24.2656 25.3438 24.2656 19.4167 24.2656 14.401 26.4115 10.2969 30.7031 6.20313 35.0052 4.15625 40.6719 4.15625 47.7031 4.15625 54.9635 6.29688 60.8073 10.5781 65.2344 14.8594 69.6615 20.2188 71.875 26.6563 71.875 31.3125 71.875 35.5677 70.6198 39.4219 68.1094 43.2865 65.6094 46.2188 62.0365 48.2188 57.3906 50.2188 52.7552 51.2188 46.0417 51.2188 37.25 51.2188 28.1042 50.224 20.8229 48.2344 15.4063 46.2552 9.98958 43.3021 5.86458 39.375 3.03125 35.4583 0.197917 30.8646-1.21875 25.5938-1.21875 19.9896-1.21875 15.4115 0.333333 11.8594 3.4375 8.31771 6.55208 6.1875 10.9219 5.46875 16.5469ZM41.4531 48.1406C41.4531 53.1927 40.1094 57.1979 37.4219 60.1563 34.7448 63.1146 31.5156 64.5938 27.7344 64.5938 23.8281 64.5938 20.4271 63 17.5313 59.8125 14.6354 56.625 13.1875 52.4896 13.1875 47.4063 13.1875 42.8542 14.5625 39.151 17.3125 36.2969 20.0625 33.4531 23.4531 32.0313 27.4844 32.0313 31.5573 32.0313 34.901 33.4531 37.5156 36.2969 40.1406 39.151 41.4531 43.099 41.4531 48.1406Z" id="ArialMT-57"/></defs><g fill="#262626" transform="matrix(0.1 0 0 -0.1 336.144 37.5625)"><use width="100%" height="100%" xlink:href="#ArialMT-947"></use><use x="50" width="100%" height="100%" xlink:href="#ArialMT-61"></use><use x="108.398" width="100%" height="100%" xlink:href="#ArialMT-48"></use><use x="164.014" width="100%" height="100%" xlink:href="#ArialMT-46"></use><use x="191.797" width="100%" height="100%" xlink:href="#ArialMT-57"></use><use x="247.412" width="100%" height="100%" xlink:href="#ArialMT-48"></use></g></g><g id="line2d_34"><path d="M308.144 48.2375 328.144 48.2375" stroke="#4682B4" stroke-width="3" stroke-dasharray="6 0" fill="none"/></g><g id="line2d_35"></g><g id="text_18"><g fill="#262626" transform="matrix(0.1 0 0 -0.1 336.144 51.7375)"><use width="100%" height="100%" xlink:href="#ArialMT-947"></use><use x="50" width="100%" height="100%" xlink:href="#ArialMT-61"></use><use x="108.398" width="100%" height="100%" xlink:href="#ArialMT-48"></use><use x="164.014" width="100%" height="100%" xlink:href="#ArialMT-46"></use><use x="191.797" width="100%" height="100%" xlink:href="#ArialMT-57"></use><use x="247.412" width="100%" height="100%" xlink:href="#ArialMT-57"></use></g></g></g></g></g></svg>