<svg width="502.779" height="343.507" viewBox="0 0 377.084 257.631" xmlns="http://www.w3.org/2000/svg" xmlns:xlink="http://www.w3.org/1999/xlink" stroke-linejoin="round" overflow="hidden"><defs></defs><defs><clipPath id="pf4a3f032a5"><rect x="35.0844" y="7.2" width="334.8" height="217.44"/></clipPath></defs><g id="figure_1"><g id="patch_1"><path d="M0 257.631 377.084 257.631 377.084 0 0 0Z" fill="#FFFFFF"/></g><g id="axes_1"><g id="patch_2"><path d="M35.0844 224.64 369.884 224.64 369.884 7.2 35.0844 7.2Z" fill="#FFFFFF"/></g><g id="matplotlib.axis_1"><g id="xtick_1"><g id="line2d_1"><path d="M42.4984 224.64 42.4984 7.2" stroke="#CCCCCC" stroke-width="0.8" stroke-linecap="round" fill="none" clip-path="url(#pf4a3f032a5)"/></g><g id="line2d_2"></g><g id="text_1"><defs><path d="M4.15625 35.2969C4.15625 43.7656 5.02604 50.5781 6.76563 55.7344 8.50521 60.901 11.0885 64.8802 14.5156 67.6719 17.9531 70.474 22.276 71.875 27.4844 71.875 31.3281 71.875 34.6979 71.099 37.5938 69.5469 40.4896 68.0052 42.8802 65.776 44.7656 62.8594 46.6615 59.9531 48.1458 56.4063 49.2188 52.2188 50.2917 48.0417 50.8281 42.401 50.8281 35.2969 50.8281 26.901 49.9635 20.125 48.2344 14.9688 46.5156 9.8125 43.9375 5.82292 40.5 3 37.0729 0.1875 32.7344-1.21875 27.4844-1.21875 20.5885-1.21875 15.1719 1.25521 11.2344 6.20313 6.51563 12.1615 4.15625 21.8594 4.15625 35.2969ZM13.1875 35.2969C13.1875 23.5469 14.5625 15.724 17.3125 11.8281 20.0625 7.94271 23.4531 6 27.4844 6 31.526 6 34.9219 7.95313 37.6719 11.8594 40.4219 15.7656 41.7969 23.5781 41.7969 35.2969 41.7969 47.0885 40.4219 54.9167 37.6719 58.7813 34.9219 62.6563 31.4948 64.5938 27.3906 64.5938 23.3594 64.5938 20.1354 62.8854 17.7188 59.4688 14.6979 55.1146 13.1875 47.0573 13.1875 35.2969Z" id="ArialMT-48"/></defs><g fill="#262626" transform="matrix(0.1 0 0 -0.1 39.7179 235.298)"><use width="100%" height="100%" xlink:href="#ArialMT-48"></use></g></g></g><g id="xtick_2"><g id="line2d_3"><path d="M81.5193 224.64 81.5193 7.2" stroke="#CCCCCC" stroke-width="0.8" stroke-linecap="round" fill="none" clip-path="url(#pf4a3f032a5)"/></g><g id="line2d_4"></g><g id="text_2"><defs><path d="M4.15625 18.75 13.375 19.5313C14.0625 15.0417 15.651 11.6615 18.1406 9.39063 20.6302 7.13021 23.6354 6 27.1563 6 31.3854 6 34.9635 7.59375 37.8906 10.7813 40.8177 13.9792 42.2813 18.2135 42.2813 23.4844 42.2813 28.4948 40.875 32.4479 38.0625 35.3438 35.25 38.25 31.5625 39.7031 27 39.7031 24.1667 39.7031 21.6094 39.0573 19.3281 37.7656 17.0573 36.4844 15.2708 34.8177 13.9688 32.7656L5.71875 33.8438 12.6406 70.6094 48.25 70.6094 48.25 62.2031 19.6719 62.2031 15.8281 42.9688C20.1198 45.9688 24.625 47.4688 29.3438 47.4688 35.5938 47.4688 40.8646 45.3021 45.1563 40.9688 49.4583 36.6354 51.6094 31.0677 51.6094 24.2656 51.6094 17.7865 49.724 12.1875 45.9531 7.46875 41.3594 1.67708 35.0938-1.21875 27.1563-1.21875 20.6458-1.21875 15.3281 0.604167 11.2031 4.25 7.08854 7.89583 4.73958 12.7292 4.15625 18.75Z" id="ArialMT-53"/></defs><g fill="#262626" transform="matrix(0.1 0 0 -0.1 78.7389 235.298)"><use width="100%" height="100%" xlink:href="#ArialMT-53"></use></g></g></g><g id="xtick_3"><g id="line2d_5"><path d="M120.54 224.64 120.54 7.2" stroke="#CCCCCC" stroke-width="0.8" stroke-linecap="round" fill="none" clip-path="url(#pf4a3f032a5)"/></g><g id="line2d_6"></g><g id="text_3"><defs><path d="M37.25 0 28.4688 0 28.4688 56C26.3542 53.9896 23.5781 51.974 20.1406 49.9531 16.7031 47.9323 13.6198 46.4167 10.8906 45.4063L10.8906 53.9063C15.8073 56.2188 20.1042 59.0156 23.7813 62.2969 27.4583 65.5885 30.0625 68.7813 31.5938 71.875L37.25 71.875Z" id="ArialMT-49"/></defs><g fill="#262626" transform="matrix(0.1 0 0 -0.1 114.979 235.298)"><use width="100%" height="100%" xlink:href="#ArialMT-49"></use><use x="55.6152" width="100%" height="100%" xlink:href="#ArialMT-48"></use></g></g></g><g id="xtick_4"><g id="line2d_7"><path d="M159.561 224.64 159.561 7.2" stroke="#CCCCCC" stroke-width="0.8" stroke-linecap="round" fill="none" clip-path="url(#pf4a3f032a5)"/></g><g id="line2d_8"></g><g id="text_4"><g fill="#262626" transform="matrix(0.1 0 0 -0.1 154 235.298)"><use width="100%" height="100%" xlink:href="#ArialMT-49"></use><use x="55.6152" width="100%" height="100%" xlink:href="#ArialMT-53"></use></g></g></g><g id="xtick_5"><g id="line2d_9"><path d="M198.582 224.64 198.582 7.2" stroke="#CCCCCC" stroke-width="0.8" stroke-linecap="round" fill="none" clip-path="url(#pf4a3f032a5)"/></g><g id="line2d_10"></g><g id="text_5"><defs><path d="M50.3438 8.45313 50.3438 0 3.03125 0C2.96875 2.11458 3.30729 4.15104 4.04688 6.10938 5.25521 9.32813 7.18229 12.5 9.82813 15.625 12.4844 18.75 16.3229 22.3646 21.3438 26.4688 29.125 32.8438 34.3802 37.8958 37.1094 41.625 39.849 45.3542 41.2188 48.8802 41.2188 52.2031 41.2188 55.6823 39.9688 58.6146 37.4688 61 34.9792 63.3958 31.7344 64.5938 27.7344 64.5938 23.5052 64.5938 20.1198 63.3229 17.5781 60.7813 15.0365 58.25 13.75 54.7396 13.7188 50.25L4.6875 51.1719C5.30208 57.9115 7.625 63.0469 11.6563 66.5781 15.6979 70.1094 21.125 71.875 27.9375 71.875 34.8021 71.875 40.2344 69.9688 44.2344 66.1563 48.2448 62.3542 50.25 57.6354 50.25 52 50.25 49.1354 49.6615 46.3177 48.4844 43.5469 47.3177 40.7865 45.375 37.875 42.6563 34.8125 39.9375 31.75 35.4219 27.5521 29.1094 22.2188 23.8281 17.7917 20.4375 14.7865 18.9375 13.2031 17.4479 11.6302 16.2135 10.0469 15.2344 8.45313Z" id="ArialMT-50"/></defs><g fill="#262626" transform="matrix(0.1 0 0 -0.1 193.021 235.298)"><use width="100%" height="100%" xlink:href="#ArialMT-50"></use><use x="55.6152" width="100%" height="100%" xlink:href="#ArialMT-48"></use></g></g></g><g id="xtick_6"><g id="line2d_11"><path d="M237.603 224.64 237.603 7.2" stroke="#CCCCCC" stroke-width="0.8" stroke-linecap="round" fill="none" clip-path="url(#pf4a3f032a5)"/></g><g id="line2d_12"></g><g id="text_6"><g fill="#262626" transform="matrix(0.1 0 0 -0.1 232.042 235.298)"><use width="100%" height="100%" xlink:href="#ArialMT-50"></use><use x="55.6152" width="100%" height="100%" xlink:href="#ArialMT-53"></use></g></g></g><g id="xtick_7"><g id="line2d_13"><path d="M276.624 224.64 276.624 7.2" stroke="#CCCCCC" stroke-width="0.8" stroke-linecap="round" fill="none" clip-path="url(#pf4a3f032a5)"/></g><g id="line2d_14"></g><g id="text_7"><defs><path d="M4.20313 18.8906 12.9844 20.0625C13.9948 15.0833 15.7135 11.4948 18.1406 9.29688 20.5677 7.09896 23.5208 6 27 6 31.1354 6 34.625 7.43229 37.4688 10.2969 40.3229 13.1615 41.75 16.7135 41.75 20.9531 41.75 24.9844 40.4323 28.3073 37.7969 30.9219 35.1615 33.5469 31.8073 34.8594 27.7344 34.8594 26.0781 34.8594 24.0104 34.5365 21.5313 33.8906L22.5156 41.6094C23.099 41.5365 23.5677 41.5 23.9219 41.5 27.6719 41.5 31.0417 42.474 34.0313 44.4219 37.0313 46.3802 38.5313 49.3958 38.5313 53.4688 38.5313 56.6875 37.4375 59.3542 35.25 61.4688 33.0729 63.5938 30.2604 64.6563 26.8125 64.6563 23.3958 64.6563 20.5469 63.5781 18.2656 61.4219 15.9844 59.276 14.5208 56.0573 13.875 51.7656L5.07813 53.3281C6.15104 59.2135 8.58854 63.776 12.3906 67.0156 16.2031 70.2552 20.9427 71.875 26.6094 71.875 30.5156 71.875 34.1094 71.0365 37.3906 69.3594 40.6823 67.6823 43.1979 65.3958 44.9375 62.5 46.6875 59.6042 47.5625 56.526 47.5625 53.2656 47.5625 50.1823 46.7292 47.3698 45.0625 44.8281 43.4063 42.2865 40.9531 40.2656 37.7031 38.7656 41.9323 37.7969 45.2188 35.7708 47.5625 32.6875 49.9063 29.6146 51.0781 25.7656 51.0781 21.1406 51.0781 14.8906 48.7969 9.59375 44.2344 5.25 39.6823 0.90625 33.9219-1.26563 26.9531-1.26563 20.6719-1.26563 15.4531 0.604167 11.2969 4.34375 7.15104 8.09375 4.78646 12.9427 4.20313 18.8906Z" id="ArialMT-51"/></defs><g fill="#262626" transform="matrix(0.1 0 0 -0.1 271.063 235.298)"><use width="100%" height="100%" xlink:href="#ArialMT-51"></use><use x="55.6152" width="100%" height="100%" xlink:href="#ArialMT-48"></use></g></g></g><g id="xtick_8"><g id="line2d_15"><path d="M315.645 224.64 315.645 7.2" stroke="#CCCCCC" stroke-width="0.8" stroke-linecap="round" fill="none" clip-path="url(#pf4a3f032a5)"/></g><g id="line2d_16"></g><g id="text_8"><g fill="#262626" transform="matrix(0.1 0 0 -0.1 310.084 235.298)"><use width="100%" height="100%" xlink:href="#ArialMT-51"></use><use x="55.6152" width="100%" height="100%" xlink:href="#ArialMT-53"></use></g></g></g><g id="xtick_9"><g id="line2d_17"><path d="M354.666 224.64 354.666 7.2" stroke="#CCCCCC" stroke-width="0.8" stroke-linecap="round" fill="none" clip-path="url(#pf4a3f032a5)"/></g><g id="line2d_18"></g><g id="text_9"><defs><path d="M32.3281 0 32.3281 17.1406 1.26563 17.1406 1.26563 25.2031 33.9375 71.5781 41.1094 71.5781 41.1094 25.2031 50.7813 25.2031 50.7813 17.1406 41.1094 17.1406 41.1094 0ZM32.3281 25.2031 32.3281 57.4688 9.90625 25.2031Z" id="ArialMT-52"/></defs><g fill="#262626" transform="matrix(0.1 0 0 -0.1 349.105 235.298)"><use width="100%" height="100%" xlink:href="#ArialMT-52"></use><use x="55.6152" width="100%" height="100%" xlink:href="#ArialMT-48"></use></g></g></g><g id="text_10"><defs><path d="M3.07813 15.4844 11.7656 16.8438C12.2552 13.3646 13.6146 10.6979 15.8438 8.84375 18.0729 6.98958 21.1927 6.0625 25.2031 6.0625 29.2344 6.0625 32.224 6.88021 34.1719 8.51563 36.1302 10.1615 37.1094 12.0938 37.1094 14.3125 37.1094 16.2917 36.2448 17.8542 34.5156 19 33.3177 19.7813 30.3229 20.7708 25.5313 21.9688 19.0938 23.6042 14.6302 25.0156 12.1406 26.2031 9.65104 27.3906 7.76042 29.0313 6.46875 31.125 5.1875 33.2292 4.54688 35.5521 4.54688 38.0938 4.54688 40.3958 5.07292 42.5313 6.125 44.5 7.1875 46.4792 8.63021 48.1198 10.4531 49.4219 11.8177 50.4219 13.6771 51.2708 16.0313 51.9688 18.3958 52.6771 20.9323 53.0313 23.6406 53.0313 27.7031 53.0313 31.2708 52.4427 34.3438 51.2656 37.4271 50.099 39.6979 48.5104 41.1563 46.5 42.625 44.5 43.6354 41.8281 44.1875 38.4844L35.5938 37.3125C35.2083 39.9792 34.0781 42.0573 32.2031 43.5469 30.3281 45.0469 27.6823 45.7969 24.2656 45.7969 20.2344 45.7969 17.3542 45.1302 15.625 43.7969 13.8958 42.4635 13.0313 40.901 13.0313 39.1094 13.0313 37.974 13.3906 36.9479 14.1094 36.0313 14.8281 35.0938 15.9531 34.3125 17.4844 33.6875 18.3594 33.3646 20.9479 32.6198 25.25 31.4531 31.4688 29.7865 35.8021 28.4219 38.25 27.3594 40.7083 26.3073 42.6354 24.7708 44.0313 22.75 45.4375 20.7396 46.1406 18.2344 46.1406 15.2344 46.1406 12.3073 45.2865 9.54688 43.5781 6.95313 41.8698 4.36979 39.401 2.36979 36.1719 0.953125 32.9531-0.463542 29.3125-1.17188 25.25-1.17188 18.5104-1.17188 13.375 0.229167 9.84375 3.03125 6.3125 5.83333 4.05729 9.98438 3.07813 15.4844Z" id="ArialMT-115"/><path d="" id="ArialMT-32"/><path d="M3.32813 25.9219C3.32813 35.526 5.99479 42.6406 11.3281 47.2656 15.7865 51.1094 21.224 53.0313 27.6406 53.0313 34.7656 53.0313 40.5885 50.6927 45.1094 46.0156 49.6406 41.349 51.9063 34.8958 51.9063 26.6563 51.9063 19.9896 50.9063 14.7396 48.9063 10.9063 46.9063 7.08333 43.9896 4.11458 40.1563 2 36.3333-0.114583 32.1615-1.17188 27.6406-1.17188 20.3802-1.17188 14.5104 1.15625 10.0313 5.8125 5.5625 10.4688 3.32813 17.1719 3.32813 25.9219ZM12.3594 25.9219C12.3594 19.2865 13.8073 14.3177 16.7031 11.0156 19.599 7.71354 23.2448 6.0625 27.6406 6.0625 32.0052 6.0625 35.6354 7.71875 38.5313 11.0313 41.4271 14.3542 42.875 19.4167 42.875 26.2188 42.875 32.6354 41.4167 37.4948 38.5 40.7969 35.5833 44.099 31.9635 45.75 27.6406 45.75 23.2448 45.75 19.599 44.1042 16.7031 40.8125 13.8073 37.5313 12.3594 32.5677 12.3594 25.9219Z" id="ArialMT-111"/><path d="M8.6875 0 8.6875 45.0156 0.921875 45.0156 0.921875 51.8594 8.6875 51.8594 8.6875 57.375C8.6875 60.8542 9 63.4427 9.625 65.1406 10.4688 67.4219 11.9531 69.2656 14.0781 70.6719 16.2135 72.0885 19.2031 72.7969 23.0469 72.7969 25.526 72.7969 28.2604 72.5052 31.25 71.9219L29.9375 64.2656C28.1146 64.5885 26.3854 64.75 24.75 64.75 22.0833 64.75 20.1979 64.1771 19.0938 63.0313 17.9896 61.8958 17.4375 59.7656 17.4375 56.6406L17.4375 51.8594 27.5469 51.8594 27.5469 45.0156 17.4375 45.0156 17.4375 0Z" id="ArialMT-102"/><path d="M6.64063 61.4688 6.64063 71.5781 15.4375 71.5781 15.4375 61.4688ZM6.64063 0 6.64063 51.8594 15.4375 51.8594 15.4375 0Z" id="ArialMT-105"/><path d="M25.7813 7.85938 27.0469 0.09375C24.5781-0.427083 22.3646-0.6875 20.4063-0.6875 17.2188-0.6875 14.7448-0.182292 12.9844 0.828125 11.2344 1.83854 10 3.16667 9.28125 4.8125 8.5625 6.45833 8.20313 9.91667 8.20313 15.1875L8.20313 45.0156 1.76563 45.0156 1.76563 51.8594 8.20313 51.8594 8.20313 64.7031 16.9375 69.9688 16.9375 51.8594 25.7813 51.8594 25.7813 45.0156 16.9375 45.0156 16.9375 14.7031C16.9375 12.1927 17.0938 10.5781 17.4063 9.85938 17.7188 9.15104 18.224 8.58333 18.9219 8.15625 19.6198 7.72917 20.6198 7.51563 21.9219 7.51563 22.901 7.51563 24.1875 7.63021 25.7813 7.85938Z" id="ArialMT-116"/><path d="M42.0938 16.7031 51.1719 15.5781C49.7448 10.276 47.0938 6.15625 43.2188 3.21875 39.3438 0.291667 34.3958-1.17188 28.375-1.17188 20.7917-1.17188 14.776 1.16146 10.3281 5.82813 5.88021 10.5052 3.65625 17.0573 3.65625 25.4844 3.65625 34.2135 5.90104 40.9844 10.3906 45.7969 14.8906 50.6198 20.7188 53.0313 27.875 53.0313 34.8125 53.0313 40.4792 50.6719 44.875 45.9531 49.2708 41.2344 51.4688 34.5938 51.4688 26.0313 51.4688 25.5104 51.4531 24.7292 51.4219 23.6875L12.75 23.6875C13.0729 17.9896 14.6823 13.625 17.5781 10.5938 20.474 7.57292 24.0885 6.0625 28.4219 6.0625 31.6406 6.0625 34.3906 6.90625 36.6719 8.59375 38.9531 10.2917 40.7604 12.9948 42.0938 16.7031ZM13.2344 30.9063 42.1875 30.9063C41.8021 35.2708 40.6979 38.5417 38.875 40.7188 36.0729 44.1042 32.4427 45.7969 27.9844 45.7969 23.9427 45.7969 20.5469 44.4479 17.7969 41.75 15.0469 39.0521 13.526 35.4375 13.2344 30.9063Z" id="ArialMT-101"/><path d="M6.5 0 6.5 51.8594 14.4063 51.8594 14.4063 44C16.4271 47.6771 18.2917 50.099 20 51.2656 21.7083 52.4427 23.5885 53.0313 25.6406 53.0313 28.599 53.0313 31.6094 52.0885 34.6719 50.2031L31.6406 42.0469C29.4948 43.3177 27.349 43.9531 25.2031 43.9531 23.276 43.9531 21.5469 43.375 20.0156 42.2188 18.4844 41.0625 17.3958 39.4583 16.75 37.4063 15.7708 34.2813 15.2813 30.8646 15.2813 27.1563L15.2813 0Z" id="ArialMT-114"/><path d="M40.4375 6.39063C37.1771 3.63021 34.0417 1.67708 31.0313 0.53125 28.0208-0.604167 24.7917-1.17188 21.3438-1.17188 15.6458-1.17188 11.2656 0.21875 8.20313 3 5.14063 5.78125 3.60938 9.33854 3.60938 13.6719 3.60938 16.2135 4.1875 18.5313 5.34375 20.625 6.5 22.7292 8.01563 24.4167 9.89063 25.6875 11.7656 26.9583 13.875 27.9167 16.2188 28.5625 17.9375 29.0208 20.5417 29.4635 24.0313 29.8906 31.125 30.7344 36.349 31.7396 39.7031 32.9063 39.7344 34.1146 39.75 34.8802 39.75 35.2031 39.75 38.7865 38.9167 41.3125 37.25 42.7813 35.0104 44.7604 31.6771 45.75 27.25 45.75 23.1146 45.75 20.0625 45.026 18.0938 43.5781 16.125 42.1302 14.6667 39.5677 13.7188 35.8906L5.125 37.0625C5.90625 40.7396 7.19271 43.7083 8.98438 45.9688 10.776 48.2292 13.3646 49.9688 16.75 51.1875 20.1354 52.4167 24.0573 53.0313 28.5156 53.0313 32.9427 53.0313 36.5365 52.5104 39.2969 51.4688 42.0677 50.4271 44.1042 49.1146 45.4063 47.5313 46.7083 45.9583 47.6198 43.9635 48.1406 41.5469 48.4323 40.0573 48.5781 37.3594 48.5781 33.4531L48.5781 21.7344C48.5781 13.5573 48.7656 8.38542 49.1406 6.21875 49.5156 4.0625 50.2604 1.98958 51.375 0L42.1875 0C41.2813 1.82292 40.6979 3.95313 40.4375 6.39063ZM39.7031 26.0313C36.5052 24.7292 31.7188 23.6198 25.3438 22.7031 21.7292 22.1823 19.1719 21.5938 17.6719 20.9375 16.1823 20.2917 15.026 19.3438 14.2031 18.0938 13.3906 16.8438 12.9844 15.4531 12.9844 13.9219 12.9844 11.5781 13.8698 9.625 15.6406 8.0625 17.4219 6.5 20.0208 5.71875 23.4375 5.71875 26.8229 5.71875 29.8333 6.45833 32.4688 7.9375 35.1042 9.41667 37.0417 11.4427 38.2813 14.0156 39.2292 16.0052 39.7031 18.9323 39.7031 22.7969Z" id="ArialMT-97"/><path d="M6.59375 0 6.59375 51.8594 14.5 51.8594 14.5 44.4844C18.3125 50.1823 23.8125 53.0313 31 53.0313 34.125 53.0313 37 52.4688 39.625 51.3438 42.25 50.2188 44.2135 48.7448 45.5156 46.9219 46.8177 45.099 47.7292 42.9375 48.25 40.4375 48.5729 38.8021 48.7344 35.9531 48.7344 31.8906L48.7344 0 39.9375 0 39.9375 31.5469C39.9375 35.1302 39.5938 37.8073 38.9063 39.5781 38.2292 41.349 37.0208 42.7604 35.2813 43.8125 33.5417 44.875 31.5 45.4063 29.1563 45.4063 25.4063 45.4063 22.1719 44.2188 19.4531 41.8438 16.7344 39.4688 15.375 34.9635 15.375 28.3281L15.375 0Z" id="ArialMT-110"/></defs><g fill="#262626" transform="matrix(0.1 0 0 -0.1 164.409 248.443)"><use width="100%" height="100%" xlink:href="#ArialMT-49"></use><use x="55.6152" width="100%" height="100%" xlink:href="#ArialMT-48"></use><use x="111.23" width="100%" height="100%" xlink:href="#ArialMT-48"></use><use x="166.846" width="100%" height="100%" xlink:href="#ArialMT-115"></use><use x="216.846" width="100%" height="100%" xlink:href="#ArialMT-32"></use><use x="244.629" width="100%" height="100%" xlink:href="#ArialMT-111"></use><use x="300.244" width="100%" height="100%" xlink:href="#ArialMT-102"></use><use x="328.027" width="100%" height="100%" xlink:href="#ArialMT-32"></use><use x="355.811" width="100%" height="100%" xlink:href="#ArialMT-105"></use><use x="378.027" width="100%" height="100%" xlink:href="#ArialMT-116"></use><use x="405.811" width="100%" height="100%" xlink:href="#ArialMT-101"></use><use x="461.426" width="100%" height="100%" xlink:href="#ArialMT-114"></use><use x="494.727" width="100%" height="100%" xlink:href="#ArialMT-97"></use><use x="550.342" width="100%" height="100%" xlink:href="#ArialMT-116"></use><use x="578.125" width="100%" height="100%" xlink:href="#ArialMT-105"></use><use x="600.342" width="100%" height="100%" xlink:href="#ArialMT-111"></use><use x="655.957" width="100%" height="100%" xlink:href="#ArialMT-110"></use><use x="711.572" width="100%" height="100%" xlink:href="#ArialMT-115"></use></g></g></g><g id="matplotlib.axis_2"><g id="ytick_1"><g id="line2d_19"><path d="M35.0844 214.756 369.884 214.756" stroke="#CCCCCC" stroke-width="0.8" stroke-linecap="round" fill="none" clip-path="url(#pf4a3f032a5)"/></g><g id="line2d_20"></g><g id="text_11"><g fill="#262626" transform="matrix(0.1 0 0 -0.1 26.0234 218.335)"><use width="100%" height="100%" xlink:href="#ArialMT-48"></use></g></g></g><g id="ytick_2"><g id="line2d_21"><path d="M35.0844 172.155 369.884 172.155" stroke="#CCCCCC" stroke-width="0.8" stroke-linecap="round" fill="none" clip-path="url(#pf4a3f032a5)"/></g><g id="line2d_22"></g><g id="text_12"><g fill="#262626" transform="matrix(0.1 0 0 -0.1 20.4625 175.734)"><use width="100%" height="100%" xlink:href="#ArialMT-49"></use><use x="55.6152" width="100%" height="100%" xlink:href="#ArialMT-48"></use></g></g></g><g id="ytick_3"><g id="line2d_23"><path d="M35.0844 129.553 369.884 129.553" stroke="#CCCCCC" stroke-width="0.8" stroke-linecap="round" fill="none" clip-path="url(#pf4a3f032a5)"/></g><g id="line2d_24"></g><g id="text_13"><g fill="#262626" transform="matrix(0.1 0 0 -0.1 20.4625 133.132)"><use width="100%" height="100%" xlink:href="#ArialMT-50"></use><use x="55.6152" width="100%" height="100%" xlink:href="#ArialMT-48"></use></g></g></g><g id="ytick_4"><g id="line2d_25"><path d="M35.0844 86.9519 369.884 86.9519" stroke="#CCCCCC" stroke-width="0.8" stroke-linecap="round" fill="none" clip-path="url(#pf4a3f032a5)"/></g><g id="line2d_26"></g><g id="text_14"><g fill="#262626" transform="matrix(0.1 0 0 -0.1 20.4625 90.5308)"><use width="100%" height="100%" xlink:href="#ArialMT-51"></use><use x="55.6152" width="100%" height="100%" xlink:href="#ArialMT-48"></use></g></g></g><g id="ytick_5"><g id="line2d_27"><path d="M35.0844 44.3504 369.884 44.3504" stroke="#CCCCCC" stroke-width="0.8" stroke-linecap="round" fill="none" clip-path="url(#pf4a3f032a5)"/></g><g id="line2d_28"></g><g id="text_15"><g fill="#262626" transform="matrix(0.1 0 0 -0.1 20.4625 47.9293)"><use width="100%" height="100%" xlink:href="#ArialMT-52"></use><use x="55.6152" width="100%" height="100%" xlink:href="#ArialMT-48"></use></g></g></g><g id="text_16"><defs><path d="M7.71875 0 7.71875 71.5781 34.7188 71.5781C39.4688 71.5781 43.099 71.3542 45.6094 70.9063 49.1198 70.3125 52.0625 69.1927 54.4375 67.5469 56.8229 65.9115 58.7396 63.6094 60.1875 60.6406 61.6354 57.6823 62.3594 54.4271 62.3594 50.875 62.3594 44.7917 60.4219 39.6406 56.5469 35.4219 52.6719 31.2135 45.6719 29.1094 35.5469 29.1094L17.1875 29.1094 17.1875 0ZM17.1875 37.5469 35.6875 37.5469C41.8125 37.5469 46.1615 38.6875 48.7344 40.9688 51.3073 43.25 52.5938 46.4583 52.5938 50.5938 52.5938 53.5833 51.8333 56.1406 50.3125 58.2656 48.8021 60.401 46.8125 61.8125 44.3438 62.5 42.7396 62.9271 39.7917 63.1406 35.5 63.1406L17.1875 63.1406Z" id="ArialMT-80"/><path d="M6.39063 0 6.39063 71.5781 15.1875 71.5781 15.1875 0Z" id="ArialMT-108"/><path d="M40.4375 19 49.0781 17.875C48.1302 11.9167 45.7083 7.25 41.8125 3.875 37.9271 0.510417 33.151-1.17188 27.4844-1.17188 20.3906-1.17188 14.6875 1.14583 10.375 5.78125 6.0625 10.4271 3.90625 17.0781 3.90625 25.7344 3.90625 31.3281 4.83333 36.224 6.6875 40.4219 8.54167 44.6302 11.3646 47.7813 15.1563 49.875 18.9479 51.9792 23.0781 53.0313 27.5469 53.0313 33.1719 53.0313 37.776 51.6042 41.3594 48.75 44.9427 45.9063 47.2396 41.8646 48.25 36.625L39.7031 35.2969C38.8906 38.7865 37.4479 41.4063 35.375 43.1563 33.3125 44.9167 30.8125 45.7969 27.875 45.7969 23.4479 45.7969 19.849 44.2083 17.0781 41.0313 14.3177 37.8646 12.9375 32.849 12.9375 25.9844 12.9375 19.0156 14.2708 13.9531 16.9375 10.7969 19.6146 7.64063 23.099 6.0625 27.3906 6.0625 30.8385 6.0625 33.7188 7.11979 36.0313 9.23438 38.3438 11.349 39.8125 14.6042 40.4375 19Z" id="ArialMT-99"/><path d="M6.20313-19.9688 5.21875-11.7188C7.14583-12.2396 8.82292-12.5 10.25-12.5 12.2083-12.5 13.7708-12.1719 14.9375-11.5156 16.1146-10.8698 17.0781-9.96354 17.8281-8.79688 18.3802-7.91146 19.276-5.72917 20.5156-2.25 20.6719-1.76042 20.9323-1.04167 21.2969-0.09375L1.60938 51.8594 11.0781 51.8594 21.875 21.8281C23.2708 18.0156 24.526 14.0104 25.6406 9.8125 26.651 13.8542 27.8542 17.7917 29.25 21.625L40.3281 51.8594 49.125 51.8594 29.3906-0.875C27.276-6.57292 25.6354-10.4948 24.4688-12.6406 22.9063-15.5469 21.1146-17.6719 19.0938-19.0156 17.0729-20.3698 14.6615-21.0469 11.8594-21.0469 10.1719-21.0469 8.28646-20.6875 6.20313-19.9688Z" id="ArialMT-121"/><path d="M6.59375 0 6.59375 71.5781 15.375 71.5781 15.375 45.9063C19.4792 50.6563 24.6563 53.0313 30.9063 53.0313 34.75 53.0313 38.0885 52.2708 40.9219 50.75 43.7552 49.2396 45.7813 47.151 47 44.4844 48.2188 41.8177 48.8281 37.9427 48.8281 32.8594L48.8281 0 40.0469 0 40.0469 32.8594C40.0469 37.2552 39.0938 40.4531 37.1875 42.4531 35.2813 44.4531 32.5885 45.4531 29.1094 45.4531 26.5052 45.4531 24.0521 44.776 21.75 43.4219 19.4583 42.0781 17.8229 40.25 16.8438 37.9375 15.8646 35.625 15.375 32.4375 15.375 28.375L15.375 0Z" id="ArialMT-104"/><path d="M4.98438-4.29688 13.5313-5.5625C13.8854-8.19792 14.875-10.1198 16.5-11.3281 18.6875-12.9531 21.6667-13.7656 25.4375-13.7656 29.5104-13.7656 32.651-12.9531 34.8594-11.3281 37.0781-9.70313 38.5781-7.42708 39.3594-4.5 39.8177-2.70833 40.026 1.05208 39.9844 6.78125 36.151 2.26042 31.3698 0 25.6406 0 18.5052 0 12.9844 2.57292 9.07813 7.71875 5.17188 12.8646 3.21875 19.0313 3.21875 26.2188 3.21875 31.1667 4.11458 35.7292 5.90625 39.9063 7.69792 44.0938 10.2917 47.3281 13.6875 49.6094 17.0938 51.8906 21.0938 53.0313 25.6875 53.0313 31.8021 53.0313 36.849 50.5573 40.8281 45.6094L40.8281 51.8594 48.9219 51.8594 48.9219 7.03125C48.9219-1.04167 48.099-6.76042 46.4531-10.125 44.8177-13.5 42.2135-16.1615 38.6406-18.1094 35.0781-20.0677 30.6927-21.0469 25.4844-21.0469 19.3073-21.0469 14.3125-19.6563 10.5-16.875 6.6875-14.0938 4.84896-9.90104 4.98438-4.29688ZM12.25 26.8594C12.25 20.0573 13.599 15.0938 16.2969 11.9688 19.0052 8.84375 22.3958 7.28125 26.4688 7.28125 30.5 7.28125 33.8802 8.83333 36.6094 11.9375 39.349 15.0521 40.7188 19.9271 40.7188 26.5625 40.7188 32.9063 39.3125 37.6875 36.5 40.9063 33.6875 44.1354 30.2917 45.75 26.3125 45.75 22.4063 45.75 19.0833 44.1615 16.3438 40.9844 13.6146 37.8177 12.25 33.1094 12.25 26.8594Z" id="ArialMT-103"/></defs><g fill="#262626" transform="matrix(6.12323e-18 -0.1 -0.1 -6.12323e-18 14.3578 147.049)"><use width="100%" height="100%" xlink:href="#ArialMT-80"></use><use x="66.6992" width="100%" height="100%" xlink:href="#ArialMT-111"></use><use x="122.314" width="100%" height="100%" xlink:href="#ArialMT-108"></use><use x="144.531" width="100%" height="100%" xlink:href="#ArialMT-105"></use><use x="166.748" width="100%" height="100%" xlink:href="#ArialMT-99"></use><use x="216.748" width="100%" height="100%" xlink:href="#ArialMT-121"></use><use x="266.748" width="100%" height="100%" xlink:href="#ArialMT-32"></use><use x="294.531" width="100%" height="100%" xlink:href="#ArialMT-99"></use><use x="344.531" width="100%" height="100%" xlink:href="#ArialMT-104"></use><use x="400.146" width="100%" height="100%" xlink:href="#ArialMT-97"></use><use x="455.762" width="100%" height="100%" xlink:href="#ArialMT-110"></use><use x="511.377" width="100%" height="100%" xlink:href="#ArialMT-103"></use><use x="566.992" width="100%" height="100%" xlink:href="#ArialMT-101"></use></g></g></g><g id="line2d_29"><path d="M50.3026 214.756 58.1068 214.756 65.9109 214.756 73.7151 214.756 81.5193 214.756 89.3235 214.756 97.1277 214.756 104.932 214.756 112.736 214.756 120.54 214.756 128.345 214.756 136.149 214.756 143.953 214.756 151.757 214.756 159.561 214.756 167.365 214.756 175.17 214.756 182.974 214.756 190.778 214.756 198.582 214.756 206.386 214.756 214.191 214.756 221.995 214.756 229.799 214.756 237.603 214.756 245.407 214.756 253.212 214.756 261.016 214.756 268.82 214.756 276.624 214.756 284.428 214.756 292.233 214.756 300.037 214.756 307.841 214.756 315.645 214.756 323.449 214.756 331.254 214.756 339.058 214.756 346.862 214.756 354.666 214.756" stroke="#4682B4" stroke-width="3" stroke-linecap="round" fill="none" clip-path="url(#pf4a3f032a5)"/></g><g id="line2d_30"><path d="M50.3026 121.713 58.1068 122.595 65.9109 122.792 73.7151 122.399 81.5193 128.285 89.3235 121.324 97.1277 127.138 104.932 115.485 112.736 124.687 120.54 124.485 128.345 121.518 136.149 120.166 143.953 121.616 151.757 125.802 159.561 126.519 167.365 125.598 175.17 121.324 182.974 120.84 190.778 121.324 198.582 114.756 206.386 127.762 214.191 122.3 221.995 127.971 229.799 124.184 237.603 127.553 245.407 126.416 253.212 120.936 261.016 125.395 268.82 128.285 276.624 129.447 284.428 121.909 292.233 127.138 300.037 124.385 307.841 124.084 315.645 122.792 323.449 123.585 331.254 132.479 339.058 125.293 346.862 124.687 354.666 127.035" stroke="#4682B4" stroke-width="3" stroke-linecap="round" stroke-opacity="0.8" fill="none" clip-path="url(#pf4a3f032a5)"/></g><g id="line2d_31"><path d="M50.3026 79.0989 58.1068 74.8833 65.9109 78.4982 73.7151 76.9091 81.5193 78.0992 89.3235 83.9344 97.1277 75.8598 104.932 71.1698 112.736 76.6461 120.54 81.3926 128.345 76.975 136.149 77.569 143.953 80.2409 151.757 78.4982 159.561 82.9669 167.365 77.8338 175.17 74.236 182.974 78.0992 190.778 80.3759 198.582 75.8598 206.386 80.106 214.191 79.032 221.995 77.7014 229.799 79.6351 237.603 83.7265 245.407 76.8433 253.212 79.7695 261.016 76.975 268.82 80.7139 276.624 85.049 284.428 80.3083 292.233 79.9713 300.037 84.2817 307.841 79.0989 315.645 83.7958 323.449 76.7118 331.254 75.9252 339.058 85.189 346.862 82.8293 354.666 77.3047" stroke="#4682B4" stroke-width="3" stroke-linecap="round" stroke-opacity="0.6" fill="none" clip-path="url(#pf4a3f032a5)"/></g><g id="line2d_32"><path d="M50.3026 35.7287 58.1068 44.244 65.9109 44.9372 73.7151 41.6559 81.5193 39.4679 89.3235 44.6169 97.1277 40.6106 104.932 41.6559 112.736 40.8191 120.54 37.4093 128.345 48.556 136.149 45.3652 143.953 44.0844 151.757 43.6595 159.561 43.2358 167.365 45.1511 175.17 42.1809 182.974 45.1511 190.778 42.1809 198.582 37.5629 206.386 45.8481 214.191 43.0243 221.995 38.2299 229.799 43.3416 237.603 37.2559 245.407 43.7657 253.212 44.5636 261.016 42.444 268.82 39.7788 276.624 38.2813 284.428 46.3323 292.233 40.8191 300.037 40.2982 307.841 46.1707 315.645 45.2046 323.449 46.3323 331.254 40.9235 339.058 41.7083 346.862 46.1169 354.666 40.3502" stroke="#4682B4" stroke-width="3" stroke-linecap="round" stroke-opacity="0.4" fill="none" clip-path="url(#pf4a3f032a5)"/></g><g id="line2d_33"><path d="M50.3026 19.0212 58.1068 21.2593 65.9109 26.4886 73.7151 24.0939 81.5193 24.7136 89.3235 25.3833 97.1277 23.097 104.932 25.5751 112.736 21.7289 120.54 25.623 128.345 23.5236 136.149 22.5297 143.953 28.7678 151.757 29.1586 159.561 29.9425 167.365 26.8263 175.17 26.3923 182.974 24.8569 190.778 28.5728 198.582 18.8822 206.386 27.4067 214.191 23.3813 221.995 21.5409 229.799 27.8917 237.603 24.2844 245.407 25.4792 253.212 30.0899 261.016 23.2391 268.82 28.4266 276.624 29.9916 284.428 23.9987 292.233 30.139 300.037 29.4032 307.841 29.7462 315.645 24.6659 323.449 23.5711 331.254 26.2959 339.058 28.3292 346.862 30.139 354.666 27.3582" stroke="#4682B4" stroke-width="3" stroke-linecap="round" stroke-opacity="0.2" fill="none" clip-path="url(#pf4a3f032a5)"/></g><g id="line2d_34"><path d="M50.3026 21.9641 58.1068 23.3813 65.9109 23.097 73.7151 20.6039 81.5193 21.025 89.3235 17.3133 97.1277 20.7441 104.932 17.3133 112.736 25.5751 120.54 28.2319 128.345 20.7909 136.149 19.8109 143.953 26.7298 151.757 18.0962 159.561 21.4939 167.365 25.0003 175.17 20.6506 182.974 23.5711 190.778 17.0836 198.582 22.1995 206.386 18.7432 214.191 23.1917 221.995 20.0438 229.799 24.475 237.603 21.2593 245.407 20.4637 253.212 18.8358 261.016 20.2303 268.82 23.7135 276.624 22.8132 284.428 27.552 292.233 25.767 300.037 18.327 307.841 21.4001 315.645 24.475 323.449 21.7759 331.254 25.5271 339.058 23.0497 346.862 19.3924 354.666 23.9512" stroke="#4682B4" stroke-width="3" stroke-linecap="round" stroke-opacity="0.1" fill="none" clip-path="url(#pf4a3f032a5)"/></g><g id="patch_3"><path d="M35.0844 224.64 35.0844 7.2" stroke="#CCCCCC" stroke-linecap="square" stroke-linejoin="miter" fill="none"/></g><g id="patch_4"><path d="M369.884 224.64 369.884 7.2" stroke="#CCCCCC" stroke-linecap="square" stroke-linejoin="miter" fill="none"/></g><g id="patch_5"><path d="M35.0844 224.64 369.884 224.64" stroke="#CCCCCC" stroke-linecap="square" stroke-linejoin="miter" fill="none"/></g><g id="patch_6"><path d="M35.0844 7.2 369.884 7.2" stroke="#CCCCCC" stroke-linecap="square" stroke-linejoin="miter" fill="none"/></g><g id="legend_1"><g id="line2d_35"><path d="M44.0844 139.426 64.0844 139.426" stroke="#4682B4" stroke-width="3" stroke-linecap="round" fill="none"/></g><g id="line2d_36"></g><g id="text_17"><defs><path d="M40.4844 46 34.1875 40.9219C30.1771 43.9427 26.4323 45.4531 22.9531 45.4531 20.0885 45.4531 17.9948 44.6875 16.6719 43.1563 15.3594 41.6354 14.7031 39.9948 14.7031 38.2344 14.7031 35.9531 15.6771 34.0573 17.625 32.5469 19.5833 31.0365 22.4479 30.2813 26.2188 30.2813 26.7083 30.2813 27.5208 30.2969 28.6563 30.3281L28.6563 22.9531C27.6146 22.9844 26.8333 23 26.3125 23 21.6667 23 18.4375 22.1042 16.625 20.3125 14.8229 18.5208 13.9219 16.5052 13.9219 14.2656 13.9219 11.9531 14.8333 10.0052 16.6563 8.42188 18.4792 6.84896 20.6406 6.0625 23.1406 6.0625 27.7344 6.0625 32.0313 8.19271 36.0313 12.4531L42.3281 7.125C37.1198 1.59375 30.6458-1.17188 22.9063-1.17188 16.8125-1.17188 12.2656 0.375 9.26563 3.46875 6.27604 6.5625 4.78125 10.1615 4.78125 14.2656 4.78125 20.151 7.64583 24.3333 13.375 26.8125 8.59375 29.5104 6.20313 33.2344 6.20313 37.9844 6.20313 41.8594 7.61979 45.3333 10.4531 48.4063 13.2865 51.4896 17.6302 53.0313 23.4844 53.0313 30.1927 53.0313 35.8594 50.6875 40.4844 46Z" id="ArialMT-949"/><path d="M52.8281 42.0938 5.5625 42.0938 5.5625 50.2969 52.8281 50.2969ZM52.8281 20.3594 5.5625 20.3594 5.5625 28.5625 52.8281 28.5625Z" id="ArialMT-61"/><path d="M9.07813 0 9.07813 10.0156 19.0938 10.0156 19.0938 0Z" id="ArialMT-46"/></defs><g fill="#262626" transform="matrix(0.1 0 0 -0.1 72.0844 142.926)"><use width="100%" height="100%" xlink:href="#ArialMT-949"></use><use x="44.5801" width="100%" height="100%" xlink:href="#ArialMT-61"></use><use x="102.979" width="100%" height="100%" xlink:href="#ArialMT-48"></use><use x="158.594" width="100%" height="100%" xlink:href="#ArialMT-46"></use><use x="186.377" width="100%" height="100%" xlink:href="#ArialMT-48"></use><use x="241.992" width="100%" height="100%" xlink:href="#ArialMT-48"></use></g></g><g id="line2d_37"><path d="M44.0844 153.571 64.0844 153.571" stroke="#4682B4" stroke-width="3" stroke-linecap="round" stroke-opacity="0.8" fill="none"/></g><g id="line2d_38"></g><g id="text_18"><g fill="#262626" transform="matrix(0.1 0 0 -0.1 72.0844 157.071)"><use width="100%" height="100%" xlink:href="#ArialMT-949"></use><use x="44.5801" width="100%" height="100%" xlink:href="#ArialMT-61"></use><use x="102.979" width="100%" height="100%" xlink:href="#ArialMT-48"></use><use x="158.594" width="100%" height="100%" xlink:href="#ArialMT-46"></use><use x="186.377" width="100%" height="100%" xlink:href="#ArialMT-49"></use><use x="241.992" width="100%" height="100%" xlink:href="#ArialMT-48"></use></g></g><g id="line2d_39"><path d="M44.0844 167.717 64.0844 167.717" stroke="#4682B4" stroke-width="3" stroke-linecap="round" stroke-opacity="0.6" fill="none"/></g><g id="line2d_40"></g><g id="text_19"><g fill="#262626" transform="matrix(0.1 0 0 -0.1 72.0844 171.217)"><use width="100%" height="100%" xlink:href="#ArialMT-949"></use><use x="44.5801" width="100%" height="100%" xlink:href="#ArialMT-61"></use><use x="102.979" width="100%" height="100%" xlink:href="#ArialMT-48"></use><use x="158.594" width="100%" height="100%" xlink:href="#ArialMT-46"></use><use x="186.377" width="100%" height="100%" xlink:href="#ArialMT-50"></use><use x="241.992" width="100%" height="100%" xlink:href="#ArialMT-53"></use></g></g><g id="line2d_41"><path d="M44.0844 181.862 64.0844 181.862" stroke="#4682B4" stroke-width="3" stroke-linecap="round" stroke-opacity="0.4" fill="none"/></g><g id="line2d_42"></g><g id="text_20"><g fill="#262626" transform="matrix(0.1 0 0 -0.1 72.0844 185.362)"><use width="100%" height="100%" xlink:href="#ArialMT-949"></use><use x="44.5801" width="100%" height="100%" xlink:href="#ArialMT-61"></use><use x="102.979" width="100%" height="100%" xlink:href="#ArialMT-48"></use><use x="158.594" width="100%" height="100%" xlink:href="#ArialMT-46"></use><use x="186.377" width="100%" height="100%" xlink:href="#ArialMT-53"></use><use x="241.992" width="100%" height="100%" xlink:href="#ArialMT-48"></use></g></g><g id="line2d_43"><path d="M44.0844 196.007 64.0844 196.007" stroke="#4682B4" stroke-width="3" stroke-linecap="round" stroke-opacity="0.2" fill="none"/></g><g id="line2d_44"></g><g id="text_21"><defs><path d="M4.73438 62.2031 4.73438 70.6563 51.0781 70.6563 51.0781 63.8125C46.5156 58.9688 41.9948 52.526 37.5156 44.4844 33.0469 36.4427 29.5938 28.1719 27.1563 19.6719 25.3958 13.6823 24.2708 7.125 23.7813 0L14.75 0C14.8438 5.63542 15.9479 12.4375 18.0625 20.4063 20.1771 28.3854 23.2135 36.0781 27.1719 43.4844 31.1302 50.8906 35.3385 57.1302 39.7969 62.2031Z" id="ArialMT-55"/></defs><g fill="#262626" transform="matrix(0.1 0 0 -0.1 72.0844 199.507)"><use width="100%" height="100%" xlink:href="#ArialMT-949"></use><use x="44.5801" width="100%" height="100%" xlink:href="#ArialMT-61"></use><use x="102.979" width="100%" height="100%" xlink:href="#ArialMT-48"></use><use x="158.594" width="100%" height="100%" xlink:href="#ArialMT-46"></use><use x="186.377" width="100%" height="100%" xlink:href="#ArialMT-55"></use><use x="241.992" width="100%" height="100%" xlink:href="#ArialMT-53"></use></g></g><g id="line2d_45"><path d="M44.0844 210.152 64.0844 210.152" stroke="#4682B4" stroke-width="3" stroke-linecap="round" stroke-opacity="0.1" fill="none"/></g><g id="line2d_46"></g><g id="text_22"><g fill="#262626" transform="matrix(0.1 0 0 -0.1 72.0844 213.653)"><use width="100%" height="100%" xlink:href="#ArialMT-949"></use><use x="44.5801" width="100%" height="100%" xlink:href="#ArialMT-61"></use><use x="102.979" width="100%" height="100%" xlink:href="#ArialMT-49"></use><use x="158.594" width="100%" height="100%" xlink:href="#ArialMT-46"></use><use x="186.377" width="100%" height="100%" xlink:href="#ArialMT-48"></use><use x="241.992" width="100%" height="100%" xlink:href="#ArialMT-48"></use></g></g></g></g></g></svg>