<svg width="510.038" height="343.507" viewBox="0 0 382.528 257.631" xmlns="http://www.w3.org/2000/svg" xmlns:xlink="http://www.w3.org/1999/xlink" stroke-linejoin="round" overflow="hidden"><defs></defs><defs><clipPath id="pe0fe58a07e"><rect x="40.5281" y="7.2" width="334.8" height="217.44"/></clipPath></defs><g id="figure_1"><g id="patch_1"><path d="M0 257.631 382.528 257.631 382.528 0 0 0Z" fill="#FFFFFF"/></g><g id="axes_1"><g id="patch_2"><path d="M40.5281 224.64 375.328 224.64 375.328 7.2 40.5281 7.2Z" fill="#FFFFFF"/></g><g id="matplotlib.axis_1"><g id="xtick_1"><g id="line2d_1"><path d="M55.7463 224.64 55.7463 7.2" stroke="#CCCCCC" stroke-width="0.8" stroke-linecap="round" fill="none" clip-path="url(#pe0fe58a07e)"/></g><g id="line2d_2"></g><g id="text_1"><defs><path d="M4.15625 35.2969C4.15625 43.7656 5.02604 50.5781 6.76563 55.7344 8.50521 60.901 11.0885 64.8802 14.5156 67.6719 17.9531 70.474 22.276 71.875 27.4844 71.875 31.3281 71.875 34.6979 71.099 37.5938 69.5469 40.4896 68.0052 42.8802 65.776 44.7656 62.8594 46.6615 59.9531 48.1458 56.4063 49.2188 52.2188 50.2917 48.0417 50.8281 42.401 50.8281 35.2969 50.8281 26.901 49.9635 20.125 48.2344 14.9688 46.5156 9.8125 43.9375 5.82292 40.5 3 37.0729 0.1875 32.7344-1.21875 27.4844-1.21875 20.5885-1.21875 15.1719 1.25521 11.2344 6.20313 6.51563 12.1615 4.15625 21.8594 4.15625 35.2969ZM13.1875 35.2969C13.1875 23.5469 14.5625 15.724 17.3125 11.8281 20.0625 7.94271 23.4531 6 27.4844 6 31.526 6 34.9219 7.95313 37.6719 11.8594 40.4219 15.7656 41.7969 23.5781 41.7969 35.2969 41.7969 47.0885 40.4219 54.9167 37.6719 58.7813 34.9219 62.6563 31.4948 64.5938 27.3906 64.5938 23.3594 64.5938 20.1354 62.8854 17.7188 59.4688 14.6979 55.1146 13.1875 47.0573 13.1875 35.2969Z" id="ArialMT-48"/></defs><g fill="#262626" transform="matrix(0.1 0 0 -0.1 52.9658 235.298)"><use width="100%" height="100%" xlink:href="#ArialMT-48"></use></g></g></g><g id="xtick_2"><g id="line2d_3"><path d="M116.619 224.64 116.619 7.2" stroke="#CCCCCC" stroke-width="0.8" stroke-linecap="round" fill="none" clip-path="url(#pe0fe58a07e)"/></g><g id="line2d_4"></g><g id="text_2"><defs><path d="M37.25 0 28.4688 0 28.4688 56C26.3542 53.9896 23.5781 51.974 20.1406 49.9531 16.7031 47.9323 13.6198 46.4167 10.8906 45.4063L10.8906 53.9063C15.8073 56.2188 20.1042 59.0156 23.7813 62.2969 27.4583 65.5885 30.0625 68.7813 31.5938 71.875L37.25 71.875Z" id="ArialMT-49"/></defs><g fill="#262626" transform="matrix(0.1 0 0 -0.1 111.058 235.298)"><use width="100%" height="100%" xlink:href="#ArialMT-49"></use><use x="55.6152" width="100%" height="100%" xlink:href="#ArialMT-48"></use></g></g></g><g id="xtick_3"><g id="line2d_5"><path d="M177.492 224.64 177.492 7.2" stroke="#CCCCCC" stroke-width="0.8" stroke-linecap="round" fill="none" clip-path="url(#pe0fe58a07e)"/></g><g id="line2d_6"></g><g id="text_3"><defs><path d="M50.3438 8.45313 50.3438 0 3.03125 0C2.96875 2.11458 3.30729 4.15104 4.04688 6.10938 5.25521 9.32813 7.18229 12.5 9.82813 15.625 12.4844 18.75 16.3229 22.3646 21.3438 26.4688 29.125 32.8438 34.3802 37.8958 37.1094 41.625 39.849 45.3542 41.2188 48.8802 41.2188 52.2031 41.2188 55.6823 39.9688 58.6146 37.4688 61 34.9792 63.3958 31.7344 64.5938 27.7344 64.5938 23.5052 64.5938 20.1198 63.3229 17.5781 60.7813 15.0365 58.25 13.75 54.7396 13.7188 50.25L4.6875 51.1719C5.30208 57.9115 7.625 63.0469 11.6563 66.5781 15.6979 70.1094 21.125 71.875 27.9375 71.875 34.8021 71.875 40.2344 69.9688 44.2344 66.1563 48.2448 62.3542 50.25 57.6354 50.25 52 50.25 49.1354 49.6615 46.3177 48.4844 43.5469 47.3177 40.7865 45.375 37.875 42.6563 34.8125 39.9375 31.75 35.4219 27.5521 29.1094 22.2188 23.8281 17.7917 20.4375 14.7865 18.9375 13.2031 17.4479 11.6302 16.2135 10.0469 15.2344 8.45313Z" id="ArialMT-50"/></defs><g fill="#262626" transform="matrix(0.1 0 0 -0.1 171.931 235.298)"><use width="100%" height="100%" xlink:href="#ArialMT-50"></use><use x="55.6152" width="100%" height="100%" xlink:href="#ArialMT-48"></use></g></g></g><g id="xtick_4"><g id="line2d_7"><path d="M238.364 224.64 238.364 7.2" stroke="#CCCCCC" stroke-width="0.8" stroke-linecap="round" fill="none" clip-path="url(#pe0fe58a07e)"/></g><g id="line2d_8"></g><g id="text_4"><defs><path d="M4.20313 18.8906 12.9844 20.0625C13.9948 15.0833 15.7135 11.4948 18.1406 9.29688 20.5677 7.09896 23.5208 6 27 6 31.1354 6 34.625 7.43229 37.4688 10.2969 40.3229 13.1615 41.75 16.7135 41.75 20.9531 41.75 24.9844 40.4323 28.3073 37.7969 30.9219 35.1615 33.5469 31.8073 34.8594 27.7344 34.8594 26.0781 34.8594 24.0104 34.5365 21.5313 33.8906L22.5156 41.6094C23.099 41.5365 23.5677 41.5 23.9219 41.5 27.6719 41.5 31.0417 42.474 34.0313 44.4219 37.0313 46.3802 38.5313 49.3958 38.5313 53.4688 38.5313 56.6875 37.4375 59.3542 35.25 61.4688 33.0729 63.5938 30.2604 64.6563 26.8125 64.6563 23.3958 64.6563 20.5469 63.5781 18.2656 61.4219 15.9844 59.276 14.5208 56.0573 13.875 51.7656L5.07813 53.3281C6.15104 59.2135 8.58854 63.776 12.3906 67.0156 16.2031 70.2552 20.9427 71.875 26.6094 71.875 30.5156 71.875 34.1094 71.0365 37.3906 69.3594 40.6823 67.6823 43.1979 65.3958 44.9375 62.5 46.6875 59.6042 47.5625 56.526 47.5625 53.2656 47.5625 50.1823 46.7292 47.3698 45.0625 44.8281 43.4063 42.2865 40.9531 40.2656 37.7031 38.7656 41.9323 37.7969 45.2188 35.7708 47.5625 32.6875 49.9063 29.6146 51.0781 25.7656 51.0781 21.1406 51.0781 14.8906 48.7969 9.59375 44.2344 5.25 39.6823 0.90625 33.9219-1.26563 26.9531-1.26563 20.6719-1.26563 15.4531 0.604167 11.2969 4.34375 7.15104 8.09375 4.78646 12.9427 4.20313 18.8906Z" id="ArialMT-51"/></defs><g fill="#262626" transform="matrix(0.1 0 0 -0.1 232.804 235.298)"><use width="100%" height="100%" xlink:href="#ArialMT-51"></use><use x="55.6152" width="100%" height="100%" xlink:href="#ArialMT-48"></use></g></g></g><g id="xtick_5"><g id="line2d_9"><path d="M299.237 224.64 299.237 7.2" stroke="#CCCCCC" stroke-width="0.8" stroke-linecap="round" fill="none" clip-path="url(#pe0fe58a07e)"/></g><g id="line2d_10"></g><g id="text_5"><defs><path d="M32.3281 0 32.3281 17.1406 1.26563 17.1406 1.26563 25.2031 33.9375 71.5781 41.1094 71.5781 41.1094 25.2031 50.7813 25.2031 50.7813 17.1406 41.1094 17.1406 41.1094 0ZM32.3281 25.2031 32.3281 57.4688 9.90625 25.2031Z" id="ArialMT-52"/></defs><g fill="#262626" transform="matrix(0.1 0 0 -0.1 293.676 235.298)"><use width="100%" height="100%" xlink:href="#ArialMT-52"></use><use x="55.6152" width="100%" height="100%" xlink:href="#ArialMT-48"></use></g></g></g><g id="xtick_6"><g id="line2d_11"><path d="M360.11 224.64 360.11 7.2" stroke="#CCCCCC" stroke-width="0.8" stroke-linecap="round" fill="none" clip-path="url(#pe0fe58a07e)"/></g><g id="line2d_12"></g><g id="text_6"><defs><path d="M4.15625 18.75 13.375 19.5313C14.0625 15.0417 15.651 11.6615 18.1406 9.39063 20.6302 7.13021 23.6354 6 27.1563 6 31.3854 6 34.9635 7.59375 37.8906 10.7813 40.8177 13.9792 42.2813 18.2135 42.2813 23.4844 42.2813 28.4948 40.875 32.4479 38.0625 35.3438 35.25 38.25 31.5625 39.7031 27 39.7031 24.1667 39.7031 21.6094 39.0573 19.3281 37.7656 17.0573 36.4844 15.2708 34.8177 13.9688 32.7656L5.71875 33.8438 12.6406 70.6094 48.25 70.6094 48.25 62.2031 19.6719 62.2031 15.8281 42.9688C20.1198 45.9688 24.625 47.4688 29.3438 47.4688 35.5938 47.4688 40.8646 45.3021 45.1563 40.9688 49.4583 36.6354 51.6094 31.0677 51.6094 24.2656 51.6094 17.7865 49.724 12.1875 45.9531 7.46875 41.3594 1.67708 35.0938-1.21875 27.1563-1.21875 20.6458-1.21875 15.3281 0.604167 11.2031 4.25 7.08854 7.89583 4.73958 12.7292 4.15625 18.75Z" id="ArialMT-53"/></defs><g fill="#262626" transform="matrix(0.1 0 0 -0.1 354.549 235.298)"><use width="100%" height="100%" xlink:href="#ArialMT-53"></use><use x="55.6152" width="100%" height="100%" xlink:href="#ArialMT-48"></use></g></g></g><g id="text_7"><defs><path d="M9.32813 0 9.32813 71.5781 18.7969 71.5781 18.7969 0Z" id="ArialMT-73"/><path d="M25.7813 7.85938 27.0469 0.09375C24.5781-0.427083 22.3646-0.6875 20.4063-0.6875 17.2188-0.6875 14.7448-0.182292 12.9844 0.828125 11.2344 1.83854 10 3.16667 9.28125 4.8125 8.5625 6.45833 8.20313 9.91667 8.20313 15.1875L8.20313 45.0156 1.76563 45.0156 1.76563 51.8594 8.20313 51.8594 8.20313 64.7031 16.9375 69.9688 16.9375 51.8594 25.7813 51.8594 25.7813 45.0156 16.9375 45.0156 16.9375 14.7031C16.9375 12.1927 17.0938 10.5781 17.4063 9.85938 17.7188 9.15104 18.224 8.58333 18.9219 8.15625 19.6198 7.72917 20.6198 7.51563 21.9219 7.51563 22.901 7.51563 24.1875 7.63021 25.7813 7.85938Z" id="ArialMT-116"/><path d="M42.0938 16.7031 51.1719 15.5781C49.7448 10.276 47.0938 6.15625 43.2188 3.21875 39.3438 0.291667 34.3958-1.17188 28.375-1.17188 20.7917-1.17188 14.776 1.16146 10.3281 5.82813 5.88021 10.5052 3.65625 17.0573 3.65625 25.4844 3.65625 34.2135 5.90104 40.9844 10.3906 45.7969 14.8906 50.6198 20.7188 53.0313 27.875 53.0313 34.8125 53.0313 40.4792 50.6719 44.875 45.9531 49.2708 41.2344 51.4688 34.5938 51.4688 26.0313 51.4688 25.5104 51.4531 24.7292 51.4219 23.6875L12.75 23.6875C13.0729 17.9896 14.6823 13.625 17.5781 10.5938 20.474 7.57292 24.0885 6.0625 28.4219 6.0625 31.6406 6.0625 34.3906 6.90625 36.6719 8.59375 38.9531 10.2917 40.7604 12.9948 42.0938 16.7031ZM13.2344 30.9063 42.1875 30.9063C41.8021 35.2708 40.6979 38.5417 38.875 40.7188 36.0729 44.1042 32.4427 45.7969 27.9844 45.7969 23.9427 45.7969 20.5469 44.4479 17.7969 41.75 15.0469 39.0521 13.526 35.4375 13.2344 30.9063Z" id="ArialMT-101"/><path d="M6.5 0 6.5 51.8594 14.4063 51.8594 14.4063 44C16.4271 47.6771 18.2917 50.099 20 51.2656 21.7083 52.4427 23.5885 53.0313 25.6406 53.0313 28.599 53.0313 31.6094 52.0885 34.6719 50.2031L31.6406 42.0469C29.4948 43.3177 27.349 43.9531 25.2031 43.9531 23.276 43.9531 21.5469 43.375 20.0156 42.2188 18.4844 41.0625 17.3958 39.4583 16.75 37.4063 15.7708 34.2813 15.2813 30.8646 15.2813 27.1563L15.2813 0Z" id="ArialMT-114"/><path d="M40.4375 6.39063C37.1771 3.63021 34.0417 1.67708 31.0313 0.53125 28.0208-0.604167 24.7917-1.17188 21.3438-1.17188 15.6458-1.17188 11.2656 0.21875 8.20313 3 5.14063 5.78125 3.60938 9.33854 3.60938 13.6719 3.60938 16.2135 4.1875 18.5313 5.34375 20.625 6.5 22.7292 8.01563 24.4167 9.89063 25.6875 11.7656 26.9583 13.875 27.9167 16.2188 28.5625 17.9375 29.0208 20.5417 29.4635 24.0313 29.8906 31.125 30.7344 36.349 31.7396 39.7031 32.9063 39.7344 34.1146 39.75 34.8802 39.75 35.2031 39.75 38.7865 38.9167 41.3125 37.25 42.7813 35.0104 44.7604 31.6771 45.75 27.25 45.75 23.1146 45.75 20.0625 45.026 18.0938 43.5781 16.125 42.1302 14.6667 39.5677 13.7188 35.8906L5.125 37.0625C5.90625 40.7396 7.19271 43.7083 8.98438 45.9688 10.776 48.2292 13.3646 49.9688 16.75 51.1875 20.1354 52.4167 24.0573 53.0313 28.5156 53.0313 32.9427 53.0313 36.5365 52.5104 39.2969 51.4688 42.0677 50.4271 44.1042 49.1146 45.4063 47.5313 46.7083 45.9583 47.6198 43.9635 48.1406 41.5469 48.4323 40.0573 48.5781 37.3594 48.5781 33.4531L48.5781 21.7344C48.5781 13.5573 48.7656 8.38542 49.1406 6.21875 49.5156 4.0625 50.2604 1.98958 51.375 0L42.1875 0C41.2813 1.82292 40.6979 3.95313 40.4375 6.39063ZM39.7031 26.0313C36.5052 24.7292 31.7188 23.6198 25.3438 22.7031 21.7292 22.1823 19.1719 21.5938 17.6719 20.9375 16.1823 20.2917 15.026 19.3438 14.2031 18.0938 13.3906 16.8438 12.9844 15.4531 12.9844 13.9219 12.9844 11.5781 13.8698 9.625 15.6406 8.0625 17.4219 6.5 20.0208 5.71875 23.4375 5.71875 26.8229 5.71875 29.8333 6.45833 32.4688 7.9375 35.1042 9.41667 37.0417 11.4427 38.2813 14.0156 39.2292 16.0052 39.7031 18.9323 39.7031 22.7969Z" id="ArialMT-97"/><path d="M6.64063 61.4688 6.64063 71.5781 15.4375 71.5781 15.4375 61.4688ZM6.64063 0 6.64063 51.8594 15.4375 51.8594 15.4375 0Z" id="ArialMT-105"/><path d="M3.32813 25.9219C3.32813 35.526 5.99479 42.6406 11.3281 47.2656 15.7865 51.1094 21.224 53.0313 27.6406 53.0313 34.7656 53.0313 40.5885 50.6927 45.1094 46.0156 49.6406 41.349 51.9063 34.8958 51.9063 26.6563 51.9063 19.9896 50.9063 14.7396 48.9063 10.9063 46.9063 7.08333 43.9896 4.11458 40.1563 2 36.3333-0.114583 32.1615-1.17188 27.6406-1.17188 20.3802-1.17188 14.5104 1.15625 10.0313 5.8125 5.5625 10.4688 3.32813 17.1719 3.32813 25.9219ZM12.3594 25.9219C12.3594 19.2865 13.8073 14.3177 16.7031 11.0156 19.599 7.71354 23.2448 6.0625 27.6406 6.0625 32.0052 6.0625 35.6354 7.71875 38.5313 11.0313 41.4271 14.3542 42.875 19.4167 42.875 26.2188 42.875 32.6354 41.4167 37.4948 38.5 40.7969 35.5833 44.099 31.9635 45.75 27.6406 45.75 23.2448 45.75 19.599 44.1042 16.7031 40.8125 13.8073 37.5313 12.3594 32.5677 12.3594 25.9219Z" id="ArialMT-111"/><path d="M6.59375 0 6.59375 51.8594 14.5 51.8594 14.5 44.4844C18.3125 50.1823 23.8125 53.0313 31 53.0313 34.125 53.0313 37 52.4688 39.625 51.3438 42.25 50.2188 44.2135 48.7448 45.5156 46.9219 46.8177 45.099 47.7292 42.9375 48.25 40.4375 48.5729 38.8021 48.7344 35.9531 48.7344 31.8906L48.7344 0 39.9375 0 39.9375 31.5469C39.9375 35.1302 39.5938 37.8073 38.9063 39.5781 38.2292 41.349 37.0208 42.7604 35.2813 43.8125 33.5417 44.875 31.5 45.4063 29.1563 45.4063 25.4063 45.4063 22.1719 44.2188 19.4531 41.8438 16.7344 39.4688 15.375 34.9635 15.375 28.3281L15.375 0Z" id="ArialMT-110"/></defs><g fill="#262626" transform="matrix(0.1 0 0 -0.1 189.863 248.443)"><use width="100%" height="100%" xlink:href="#ArialMT-73"></use><use x="27.7832" width="100%" height="100%" xlink:href="#ArialMT-116"></use><use x="55.5664" width="100%" height="100%" xlink:href="#ArialMT-101"></use><use x="111.182" width="100%" height="100%" xlink:href="#ArialMT-114"></use><use x="144.482" width="100%" height="100%" xlink:href="#ArialMT-97"></use><use x="200.098" width="100%" height="100%" xlink:href="#ArialMT-116"></use><use x="227.881" width="100%" height="100%" xlink:href="#ArialMT-105"></use><use x="250.098" width="100%" height="100%" xlink:href="#ArialMT-111"></use><use x="305.713" width="100%" height="100%" xlink:href="#ArialMT-110"></use></g></g></g><g id="matplotlib.axis_2"><g id="ytick_1"><g id="line2d_13"><path d="M40.5281 214.756 375.328 214.756" stroke="#CCCCCC" stroke-width="0.8" stroke-linecap="round" fill="none" clip-path="url(#pe0fe58a07e)"/></g><g id="line2d_14"></g><g id="text_8"><g fill="#262626" transform="matrix(0.1 0 0 -0.1 31.4672 218.335)"><use width="100%" height="100%" xlink:href="#ArialMT-48"></use></g></g></g><g id="ytick_2"><g id="line2d_15"><path d="M40.5281 169.831 375.328 169.831" stroke="#CCCCCC" stroke-width="0.8" stroke-linecap="round" fill="none" clip-path="url(#pe0fe58a07e)"/></g><g id="line2d_16"></g><g id="text_9"><g fill="#262626" transform="matrix(0.1 0 0 -0.1 20.3453 173.41)"><use width="100%" height="100%" xlink:href="#ArialMT-49"></use><use x="55.6152" width="100%" height="100%" xlink:href="#ArialMT-48"></use><use x="111.23" width="100%" height="100%" xlink:href="#ArialMT-48"></use></g></g></g><g id="ytick_3"><g id="line2d_17"><path d="M40.5281 124.905 375.328 124.905" stroke="#CCCCCC" stroke-width="0.8" stroke-linecap="round" fill="none" clip-path="url(#pe0fe58a07e)"/></g><g id="line2d_18"></g><g id="text_10"><g fill="#262626" transform="matrix(0.1 0 0 -0.1 20.3453 128.484)"><use width="100%" height="100%" xlink:href="#ArialMT-50"></use><use x="55.6152" width="100%" height="100%" xlink:href="#ArialMT-48"></use><use x="111.23" width="100%" height="100%" xlink:href="#ArialMT-48"></use></g></g></g><g id="ytick_4"><g id="line2d_19"><path d="M40.5281 79.9795 375.328 79.9795" stroke="#CCCCCC" stroke-width="0.8" stroke-linecap="round" fill="none" clip-path="url(#pe0fe58a07e)"/></g><g id="line2d_20"></g><g id="text_11"><g fill="#262626" transform="matrix(0.1 0 0 -0.1 20.3453 83.5584)"><use width="100%" height="100%" xlink:href="#ArialMT-51"></use><use x="55.6152" width="100%" height="100%" xlink:href="#ArialMT-48"></use><use x="111.23" width="100%" height="100%" xlink:href="#ArialMT-48"></use></g></g></g><g id="ytick_5"><g id="line2d_21"><path d="M40.5281 35.0539 375.328 35.0539" stroke="#CCCCCC" stroke-width="0.8" stroke-linecap="round" fill="none" clip-path="url(#pe0fe58a07e)"/></g><g id="line2d_22"></g><g id="text_12"><g fill="#262626" transform="matrix(0.1 0 0 -0.1 20.3453 38.6328)"><use width="100%" height="100%" xlink:href="#ArialMT-52"></use><use x="55.6152" width="100%" height="100%" xlink:href="#ArialMT-48"></use><use x="111.23" width="100%" height="100%" xlink:href="#ArialMT-48"></use></g></g></g><g id="text_13"><defs><path d="M4.5 23 13.4219 23.7813C13.849 20.1979 14.8333 17.2604 16.375 14.9688 17.9271 12.6771 20.3281 10.8229 23.5781 9.40625 26.8385 7.98958 30.5052 7.28125 34.5781 7.28125 38.1823 7.28125 41.3698 7.81771 44.1406 8.89063 46.9115 9.96354 48.9688 11.4323 50.3125 13.2969 51.6667 15.1719 52.3438 17.2188 52.3438 19.4375 52.3438 21.6771 51.6927 23.6354 50.3906 25.3125 49.0885 26.9896 46.9427 28.401 43.9531 29.5469 42.026 30.2969 37.776 31.4583 31.2031 33.0313 24.6302 34.6146 20.026 36.1042 17.3906 37.5 13.9635 39.2917 11.4115 41.5104 9.73438 44.1563 8.06771 46.8125 7.23438 49.7865 7.23438 53.0781 7.23438 56.6927 8.25521 60.0677 10.2969 63.2031 12.349 66.349 15.3438 68.7344 19.2813 70.3594 23.2292 71.9844 27.6094 72.7969 32.4219 72.7969 37.724 72.7969 42.401 71.9427 46.4531 70.2344 50.5156 68.526 53.6354 66.0104 55.8125 62.6875 57.9896 59.375 59.1615 55.6198 59.3281 51.4219L50.25 50.7344C49.7604 55.2552 48.1042 58.6719 45.2813 60.9844 42.4688 63.2969 38.3125 64.4531 32.8125 64.4531 27.0833 64.4531 22.9063 63.401 20.2813 61.2969 17.6667 59.2031 16.3594 56.6771 16.3594 53.7188 16.3594 51.1458 17.2865 49.026 19.1406 47.3594 20.9635 45.7031 25.724 44.0052 33.4219 42.2656 41.1198 40.526 46.401 39.0052 49.2656 37.7031 53.4323 35.776 56.5052 33.3385 58.4844 30.3906 60.474 27.4531 61.4688 24.0625 61.4688 20.2188 61.4688 16.4063 60.3802 12.8125 58.2031 9.4375 56.026 6.07292 52.8906 3.45313 48.7969 1.57813 44.7135-0.286458 40.1198-1.21875 35.0156-1.21875 28.5365-1.21875 23.1042-0.276042 18.7188 1.60938 14.3438 3.49479 10.9115 6.33333 8.42188 10.125 5.93229 13.9271 4.625 18.2188 4.5 23Z" id="ArialMT-83"/><path d="M40.4375 19 49.0781 17.875C48.1302 11.9167 45.7083 7.25 41.8125 3.875 37.9271 0.510417 33.151-1.17188 27.4844-1.17188 20.3906-1.17188 14.6875 1.14583 10.375 5.78125 6.0625 10.4271 3.90625 17.0781 3.90625 25.7344 3.90625 31.3281 4.83333 36.224 6.6875 40.4219 8.54167 44.6302 11.3646 47.7813 15.1563 49.875 18.9479 51.9792 23.0781 53.0313 27.5469 53.0313 33.1719 53.0313 37.776 51.6042 41.3594 48.75 44.9427 45.9063 47.2396 41.8646 48.25 36.625L39.7031 35.2969C38.8906 38.7865 37.4479 41.4063 35.375 43.1563 33.3125 44.9167 30.8125 45.7969 27.875 45.7969 23.4479 45.7969 19.849 44.2083 17.0781 41.0313 14.3177 37.8646 12.9375 32.849 12.9375 25.9844 12.9375 19.0156 14.2708 13.9531 16.9375 10.7969 19.6146 7.64063 23.099 6.0625 27.3906 6.0625 30.8385 6.0625 33.7188 7.11979 36.0313 9.23438 38.3438 11.349 39.8125 14.6042 40.4375 19Z" id="ArialMT-99"/></defs><g fill="#262626" transform="matrix(6.12323e-18 -0.1 -0.1 -6.12323e-18 14.3578 128.981)"><use width="100%" height="100%" xlink:href="#ArialMT-83"></use><use x="66.6992" width="100%" height="100%" xlink:href="#ArialMT-99"></use><use x="116.699" width="100%" height="100%" xlink:href="#ArialMT-111"></use><use x="172.314" width="100%" height="100%" xlink:href="#ArialMT-114"></use><use x="205.615" width="100%" height="100%" xlink:href="#ArialMT-101"></use></g></g></g><g id="PolyCollection_1"><defs><path d="M55.7463-42.8743 55.7463-42.8743 61.8336-42.8743 67.9209-87.7999 74.0081-96.785 80.0954-87.7999 86.1827-96.785 92.2699-96.785 98.3572-96.785 104.444-105.77 110.532-105.77 116.619-96.785 122.706-114.755 128.794-114.755 134.881-123.74 140.968-114.755 147.055-105.77 153.143-123.74 159.23-105.77 159.23-213.592 159.23-213.592 153.143-213.592 147.055-222.577 140.968-222.577 134.881-204.606 128.794-195.621 122.706-222.577 116.619-195.621 110.532-195.621 104.444-204.606 98.3572-195.621 92.2699-204.606 86.1827-231.562 80.0954-195.621 74.0081-186.636 67.9209-177.651 61.8336-150.696 55.7463-42.8743Z" id="m48a6a75b49" stroke="#CD5C5C" stroke-opacity="0.15"/></defs><g clip-path="url(#pe0fe58a07e)"><use y="257.631" width="100%" height="100%" xlink:href="#m48a6a75b49" stroke="#CD5C5C" stroke-opacity="0.15" fill="#CD5C5C" fill-opacity="0.15"></use></g></g><g id="PolyCollection_2"><defs><path d="M55.7463-42.8743 55.7463-42.8743 61.8336-42.8743 67.9209-87.7999 74.0081-96.785 80.0954-87.7999 86.1827-96.785 92.2699-96.785 98.3572-105.77 104.444-105.77 110.532-96.785 116.619-105.77 122.706-105.77 128.794-105.77 134.881-114.755 140.968-114.755 147.055-114.755 153.143-114.755 159.23-123.74 165.317-114.755 171.404-114.755 177.492-123.74 183.579-123.74 189.666-123.74 195.754-123.74 201.841-123.74 207.928-123.74 214.015-123.74 220.103-114.755 226.19-114.755 232.277-123.74 238.364-123.74 244.452-123.74 250.539-123.74 256.626-123.74 262.714-123.74 268.801-132.725 274.888-123.74 280.975-114.755 287.063-114.755 293.15-123.74 299.237-123.74 305.324-114.755 311.412-123.74 317.499-114.755 323.586-114.755 329.674-123.74 335.761-123.74 341.848-123.74 347.935-123.74 354.023-123.74 354.023-231.562 354.023-231.562 347.935-213.592 341.848-222.577 335.761-204.606 329.674-213.592 323.586-213.592 317.499-213.592 311.412-222.577 305.324-204.606 299.237-213.592 293.15-213.592 287.063-204.606 280.975-213.592 274.888-222.577 268.801-240.547 262.714-240.547 256.626-204.606 250.539-213.592 244.452-213.592 238.364-222.577 232.277-222.577 226.19-213.592 220.103-204.606 214.015-222.577 207.928-222.577 201.841-204.606 195.754-222.577 189.666-213.592 183.579-204.606 177.492-222.577 171.404-213.592 165.317-195.621 159.23-204.606 153.143-204.606 147.055-213.592 140.968-204.606 134.881-204.606 128.794-204.606 122.706-213.592 116.619-204.606 110.532-213.592 104.444-186.636 98.3572-195.621 92.2699-186.636 86.1827-186.636 80.0954-168.666 74.0081-177.651 67.9209-159.681 61.8336-141.711 55.7463-42.8743Z" id="m571e49be75" stroke="#CD5C5C" stroke-opacity="0.15"/></defs><g clip-path="url(#pe0fe58a07e)"><use y="257.631" width="100%" height="100%" xlink:href="#m571e49be75" stroke="#CD5C5C" stroke-opacity="0.15" fill="#CD5C5C" fill-opacity="0.15"></use></g></g><g id="PolyCollection_3"><defs><path d="M55.7463-42.8743 55.7463-42.8743 61.8336-42.8743 67.9209-78.8148 74.0081-87.7999 80.0954-87.7999 86.1827-87.7999 92.2699-87.7999 98.3572-87.7999 104.444-87.7999 110.532-87.7999 116.619-87.7999 122.706-87.7999 128.794-87.7999 134.881-96.785 140.968-96.785 147.055-87.7999 153.143-96.785 159.23-87.7999 165.317-96.785 171.404-87.7999 177.492-96.785 183.579-96.785 189.666-96.785 195.754-96.785 201.841-96.785 207.928-105.77 214.015-96.785 220.103-96.785 226.19-105.77 232.277-96.785 238.364-105.77 244.452-96.785 250.539-105.77 256.626-105.77 262.714-105.77 268.801-96.785 274.888-114.755 280.975-105.77 287.063-114.755 293.15-114.755 299.237-105.77 305.324-105.77 311.412-105.77 317.499-114.755 323.586-114.755 329.674-114.755 335.761-114.755 341.848-114.755 347.935-114.755 354.023-114.755 360.11-114.755 360.11-213.592 360.11-213.592 354.023-213.592 347.935-204.606 341.848-204.606 335.761-204.606 329.674-204.606 323.586-204.606 317.499-222.577 311.412-222.577 305.324-204.606 299.237-231.562 293.15-222.577 287.063-204.606 280.975-195.621 274.888-195.621 268.801-204.606 262.714-204.606 256.626-195.621 250.539-213.592 244.452-222.577 238.364-213.592 232.277-195.621 226.19-195.621 220.103-231.562 214.015-213.592 207.928-195.621 201.841-177.651 195.754-177.651 189.666-204.606 183.579-195.621 177.492-195.621 171.404-177.651 165.317-204.606 159.23-177.651 153.143-177.651 147.055-177.651 140.968-168.666 134.881-177.651 128.794-168.666 122.706-186.636 116.619-159.681 110.532-168.666 104.444-168.666 98.3572-159.681 92.2699-150.696 86.1827-168.666 80.0954-177.651 74.0081-159.681 67.9209-150.696 61.8336-150.696 55.7463-42.8743Z" id="m64d54d874e" stroke="#CD5C5C" stroke-opacity="0.15"/></defs><g clip-path="url(#pe0fe58a07e)"><use y="257.631" width="100%" height="100%" xlink:href="#m64d54d874e" stroke="#CD5C5C" stroke-opacity="0.15" fill="#CD5C5C" fill-opacity="0.15"></use></g></g><g id="line2d_23"><path d="M55.7463 214.756 61.8336 193.911 67.9209 132.498 74.0081 125.579 80.0954 125.534 86.1827 122.344 92.2699 118.66 98.3572 114.842 104.444 112.955 110.532 111.427 116.619 109.271 122.706 106.036 128.794 103.251 134.881 100.645 140.968 97.4106 147.055 99.9714 153.143 97.4106 159.23 97.8599" stroke="#CD5C5C" stroke-width="3" stroke-dasharray="6 9" fill="none" clip-path="url(#pe0fe58a07e)"/></g><g id="line2d_24"><path d="M55.7463 214.756 61.8336 193.821 67.9209 134.115 74.0081 130.161 80.0954 131.285 86.1827 124.86 92.2699 119.2 98.3572 119.514 104.444 117.942 110.532 112.506 116.619 111.203 122.706 109.046 128.794 109.855 134.881 103.655 140.968 104.239 147.055 101.948 153.143 100.645 159.23 101.095 165.317 99.9265 171.404 98.6686 177.492 98.2642 183.579 96.2426 189.666 94.805 195.754 97.6353 201.841 95.2991 207.928 93.592 214.015 94.2209 220.103 95.5687 226.19 96.6918 232.277 91.4805 238.364 95.4788 244.452 97.5005 250.539 94.8948 256.626 95.7933 262.714 95.8382 268.801 92.5587 274.888 94.3557 280.975 95.4339 287.063 94.0412 293.15 95.4339 299.237 95.5238 305.324 96.1527 311.412 93.3673 317.499 95.8382 323.586 92.7384 329.674 96.2426 335.761 96.4672 341.848 95.2542 347.935 94.6702 354.023 94.5354" stroke="#CD5C5C" stroke-width="3" stroke-dasharray="6 3" fill="none" clip-path="url(#pe0fe58a07e)"/></g><g id="line2d_25"><path d="M55.7463 214.756 61.8336 191.036 67.9209 146.065 74.0081 142.875 80.0954 140.09 86.1827 138.787 92.2699 139.461 98.3572 135.867 104.444 135.013 110.532 134.34 116.619 133.8 122.706 133.351 128.794 133.755 134.881 130.027 140.968 130.79 147.055 129.173 153.143 130.072 159.23 126.612 165.317 127.376 171.404 126.028 177.492 124.546 183.579 121.895 189.666 121.401 195.754 121.67 201.841 120.997 207.928 117.088 214.015 117.088 220.103 117.268 226.19 118.885 232.277 113.764 238.364 114.707 244.452 111.158 250.539 112.596 256.626 111.427 262.714 111.562 268.801 111.832 274.888 111.652 280.975 110.709 287.063 106.8 293.15 108.058 299.237 109.316 305.324 107.609 311.412 109.001 317.499 105.452 323.586 106.441 329.674 105.632 335.761 104.554 341.848 103.97 347.935 103.61 354.023 102.712 360.11 103.296" stroke="#CD5C5C" stroke-width="3" stroke-dasharray="6 0" fill="none" clip-path="url(#pe0fe58a07e)"/></g><g id="patch_3"><path d="M40.5281 224.64 40.5281 7.2" stroke="#CCCCCC" stroke-linecap="square" stroke-linejoin="miter" fill="none"/></g><g id="patch_4"><path d="M375.328 224.64 375.328 7.2" stroke="#CCCCCC" stroke-linecap="square" stroke-linejoin="miter" fill="none"/></g><g id="patch_5"><path d="M40.5281 224.64 375.328 224.64" stroke="#CCCCCC" stroke-linecap="square" stroke-linejoin="miter" fill="none"/></g><g id="patch_6"><path d="M40.5281 7.2 375.328 7.2" stroke="#CCCCCC" stroke-linecap="square" stroke-linejoin="miter" fill="none"/></g><g id="legend_1"><g id="line2d_26"><path d="M308.027 19.8875 328.027 19.8875" stroke="#CD5C5C" stroke-width="3" stroke-dasharray="6 9" fill="none"/></g><g id="line2d_27"></g><g id="text_14"><defs><path d="M1.21875 51.8594 10.4531 51.8594 24.9531 10.9844 39.7969 51.8594 48.7813 51.8594 29.3906 0 29.3906-19.875 20.4531-19.875 20.4531 0Z" id="ArialMT-947"/><path d="M52.8281 42.0938 5.5625 42.0938 5.5625 50.2969 52.8281 50.2969ZM52.8281 20.3594 5.5625 20.3594 5.5625 28.5625 52.8281 28.5625Z" id="ArialMT-61"/><path d="M9.07813 0 9.07813 10.0156 19.0938 10.0156 19.0938 0Z" id="ArialMT-46"/></defs><g fill="#262626" transform="matrix(0.1 0 0 -0.1 336.027 23.3875)"><use width="100%" height="100%" xlink:href="#ArialMT-947"></use><use x="50" width="100%" height="100%" xlink:href="#ArialMT-61"></use><use x="108.398" width="100%" height="100%" xlink:href="#ArialMT-48"></use><use x="164.014" width="100%" height="100%" xlink:href="#ArialMT-46"></use><use x="191.797" width="100%" height="100%" xlink:href="#ArialMT-53"></use><use x="247.412" width="100%" height="100%" xlink:href="#ArialMT-48"></use></g></g><g id="line2d_28"><path d="M308.027 34.0625 328.027 34.0625" stroke="#CD5C5C" stroke-width="3" stroke-dasharray="6 3" fill="none"/></g><g id="line2d_29"></g><g id="text_15"><defs><path d="M5.46875 16.5469 13.9219 17.3281C14.6302 13.3594 15.9948 10.4792 18.0156 8.6875 20.0365 6.89583 22.625 6 25.7813 6 28.4792 6 30.8438 6.61979 32.875 7.85938 34.9167 9.09896 36.5885 10.75 37.8906 12.8125 39.1927 14.8854 40.2813 17.6771 41.1563 21.1875 42.0417 24.7083 42.4844 28.2917 42.4844 31.9375 42.4844 32.3229 42.4688 32.9063 42.4375 33.6875 40.6771 30.8958 38.276 28.625 35.2344 26.875 32.1927 25.1354 28.8958 24.2656 25.3438 24.2656 19.4167 24.2656 14.401 26.4115 10.2969 30.7031 6.20313 35.0052 4.15625 40.6719 4.15625 47.7031 4.15625 54.9635 6.29688 60.8073 10.5781 65.2344 14.8594 69.6615 20.2188 71.875 26.6563 71.875 31.3125 71.875 35.5677 70.6198 39.4219 68.1094 43.2865 65.6094 46.2188 62.0365 48.2188 57.3906 50.2188 52.7552 51.2188 46.0417 51.2188 37.25 51.2188 28.1042 50.224 20.8229 48.2344 15.4063 46.2552 9.98958 43.3021 5.86458 39.375 3.03125 35.4583 0.197917 30.8646-1.21875 25.5938-1.21875 19.9896-1.21875 15.4115 0.333333 11.8594 3.4375 8.31771 6.55208 6.1875 10.9219 5.46875 16.5469ZM41.4531 48.1406C41.4531 53.1927 40.1094 57.1979 37.4219 60.1563 34.7448 63.1146 31.5156 64.5938 27.7344 64.5938 23.8281 64.5938 20.4271 63 17.5313 59.8125 14.6354 56.625 13.1875 52.4896 13.1875 47.4063 13.1875 42.8542 14.5625 39.151 17.3125 36.2969 20.0625 33.4531 23.4531 32.0313 27.4844 32.0313 31.5573 32.0313 34.901 33.4531 37.5156 36.2969 40.1406 39.151 41.4531 43.099 41.4531 48.1406Z" id="ArialMT-57"/></defs><g fill="#262626" transform="matrix(0.1 0 0 -0.1 336.027 37.5625)"><use width="100%" height="100%" xlink:href="#ArialMT-947"></use><use x="50" width="100%" height="100%" xlink:href="#ArialMT-61"></use><use x="108.398" width="100%" height="100%" xlink:href="#ArialMT-48"></use><use x="164.014" width="100%" height="100%" xlink:href="#ArialMT-46"></use><use x="191.797" width="100%" height="100%" xlink:href="#ArialMT-57"></use><use x="247.412" width="100%" height="100%" xlink:href="#ArialMT-48"></use></g></g><g id="line2d_30"><path d="M308.027 48.2375 328.027 48.2375" stroke="#CD5C5C" stroke-width="3" stroke-dasharray="6 0" fill="none"/></g><g id="line2d_31"></g><g id="text_16"><g fill="#262626" transform="matrix(0.1 0 0 -0.1 336.027 51.7375)"><use width="100%" height="100%" xlink:href="#ArialMT-947"></use><use x="50" width="100%" height="100%" xlink:href="#ArialMT-61"></use><use x="108.398" width="100%" height="100%" xlink:href="#ArialMT-48"></use><use x="164.014" width="100%" height="100%" xlink:href="#ArialMT-46"></use><use x="191.797" width="100%" height="100%" xlink:href="#ArialMT-57"></use><use x="247.412" width="100%" height="100%" xlink:href="#ArialMT-57"></use></g></g></g></g></g></svg>