<svg width="510.038" height="345.539" viewBox="0 0 382.528 259.155" xmlns="http://www.w3.org/2000/svg" xmlns:xlink="http://www.w3.org/1999/xlink" stroke-linejoin="round" overflow="hidden"><defs></defs><defs><clipPath id="pf5bdb1681f"><rect x="40.5281" y="8.72389" width="334.8" height="217.44"/></clipPath></defs><g id="figure_1"><g id="patch_1"><path d="M0 259.155 382.528 259.155 382.528 0 0 0Z" fill="#FFFFFF"/></g><g id="axes_1"><g id="patch_2"><path d="M40.5281 226.164 375.328 226.164 375.328 8.72389 40.5281 8.72389Z" fill="#FFFFFF"/></g><g id="matplotlib.axis_1"><g id="xtick_1"><g id="line2d_1"><path d="M55.7463 226.164 55.7463 8.72389" stroke="#CCCCCC" stroke-width="0.8" stroke-linecap="round" fill="none" clip-path="url(#pf5bdb1681f)"/></g><g id="line2d_2"></g><g id="text_1"><defs><path d="M4.15625 35.2969C4.15625 43.7656 5.02604 50.5781 6.76563 55.7344 8.50521 60.901 11.0885 64.8802 14.5156 67.6719 17.9531 70.474 22.276 71.875 27.4844 71.875 31.3281 71.875 34.6979 71.099 37.5938 69.5469 40.4896 68.0052 42.8802 65.776 44.7656 62.8594 46.6615 59.9531 48.1458 56.4063 49.2188 52.2188 50.2917 48.0417 50.8281 42.401 50.8281 35.2969 50.8281 26.901 49.9635 20.125 48.2344 14.9688 46.5156 9.8125 43.9375 5.82292 40.5 3 37.0729 0.1875 32.7344-1.21875 27.4844-1.21875 20.5885-1.21875 15.1719 1.25521 11.2344 6.20313 6.51563 12.1615 4.15625 21.8594 4.15625 35.2969ZM13.1875 35.2969C13.1875 23.5469 14.5625 15.724 17.3125 11.8281 20.0625 7.94271 23.4531 6 27.4844 6 31.526 6 34.9219 7.95313 37.6719 11.8594 40.4219 15.7656 41.7969 23.5781 41.7969 35.2969 41.7969 47.0885 40.4219 54.9167 37.6719 58.7813 34.9219 62.6563 31.4948 64.5938 27.3906 64.5938 23.3594 64.5938 20.1354 62.8854 17.7188 59.4688 14.6979 55.1146 13.1875 47.0573 13.1875 35.2969Z" id="ArialMT-48"/><path d="M9.07813 0 9.07813 10.0156 19.0938 10.0156 19.0938 0Z" id="ArialMT-46"/></defs><g fill="#262626" transform="matrix(0.1 0 0 -0.1 48.7963 236.822)"><use width="100%" height="100%" xlink:href="#ArialMT-48"></use><use x="55.6152" width="100%" height="100%" xlink:href="#ArialMT-46"></use><use x="83.3984" width="100%" height="100%" xlink:href="#ArialMT-48"></use></g></g></g><g id="xtick_2"><g id="line2d_3"><path d="M95.7942 226.164 95.7942 8.72389" stroke="#CCCCCC" stroke-width="0.8" stroke-linecap="round" fill="none" clip-path="url(#pf5bdb1681f)"/></g><g id="line2d_4"></g><g id="text_2"><defs><path d="M50.3438 8.45313 50.3438 0 3.03125 0C2.96875 2.11458 3.30729 4.15104 4.04688 6.10938 5.25521 9.32813 7.18229 12.5 9.82813 15.625 12.4844 18.75 16.3229 22.3646 21.3438 26.4688 29.125 32.8438 34.3802 37.8958 37.1094 41.625 39.849 45.3542 41.2188 48.8802 41.2188 52.2031 41.2188 55.6823 39.9688 58.6146 37.4688 61 34.9792 63.3958 31.7344 64.5938 27.7344 64.5938 23.5052 64.5938 20.1198 63.3229 17.5781 60.7813 15.0365 58.25 13.75 54.7396 13.7188 50.25L4.6875 51.1719C5.30208 57.9115 7.625 63.0469 11.6563 66.5781 15.6979 70.1094 21.125 71.875 27.9375 71.875 34.8021 71.875 40.2344 69.9688 44.2344 66.1563 48.2448 62.3542 50.25 57.6354 50.25 52 50.25 49.1354 49.6615 46.3177 48.4844 43.5469 47.3177 40.7865 45.375 37.875 42.6563 34.8125 39.9375 31.75 35.4219 27.5521 29.1094 22.2188 23.8281 17.7917 20.4375 14.7865 18.9375 13.2031 17.4479 11.6302 16.2135 10.0469 15.2344 8.45313Z" id="ArialMT-50"/><path d="M4.15625 18.75 13.375 19.5313C14.0625 15.0417 15.651 11.6615 18.1406 9.39063 20.6302 7.13021 23.6354 6 27.1563 6 31.3854 6 34.9635 7.59375 37.8906 10.7813 40.8177 13.9792 42.2813 18.2135 42.2813 23.4844 42.2813 28.4948 40.875 32.4479 38.0625 35.3438 35.25 38.25 31.5625 39.7031 27 39.7031 24.1667 39.7031 21.6094 39.0573 19.3281 37.7656 17.0573 36.4844 15.2708 34.8177 13.9688 32.7656L5.71875 33.8438 12.6406 70.6094 48.25 70.6094 48.25 62.2031 19.6719 62.2031 15.8281 42.9688C20.1198 45.9688 24.625 47.4688 29.3438 47.4688 35.5938 47.4688 40.8646 45.3021 45.1563 40.9688 49.4583 36.6354 51.6094 31.0677 51.6094 24.2656 51.6094 17.7865 49.724 12.1875 45.9531 7.46875 41.3594 1.67708 35.0938-1.21875 27.1563-1.21875 20.6458-1.21875 15.3281 0.604167 11.2031 4.25 7.08854 7.89583 4.73958 12.7292 4.15625 18.75Z" id="ArialMT-53"/></defs><g fill="#262626" transform="matrix(0.1 0 0 -0.1 88.8442 236.822)"><use width="100%" height="100%" xlink:href="#ArialMT-50"></use><use x="55.6152" width="100%" height="100%" xlink:href="#ArialMT-46"></use><use x="83.3984" width="100%" height="100%" xlink:href="#ArialMT-53"></use></g></g></g><g id="xtick_3"><g id="line2d_5"><path d="M135.842 226.164 135.842 8.72389" stroke="#CCCCCC" stroke-width="0.8" stroke-linecap="round" fill="none" clip-path="url(#pf5bdb1681f)"/></g><g id="line2d_6"></g><g id="text_3"><g fill="#262626" transform="matrix(0.1 0 0 -0.1 128.892 236.822)"><use width="100%" height="100%" xlink:href="#ArialMT-53"></use><use x="55.6152" width="100%" height="100%" xlink:href="#ArialMT-46"></use><use x="83.3984" width="100%" height="100%" xlink:href="#ArialMT-48"></use></g></g></g><g id="xtick_4"><g id="line2d_7"><path d="M175.89 226.164 175.89 8.72389" stroke="#CCCCCC" stroke-width="0.8" stroke-linecap="round" fill="none" clip-path="url(#pf5bdb1681f)"/></g><g id="line2d_8"></g><g id="text_4"><defs><path d="M4.73438 62.2031 4.73438 70.6563 51.0781 70.6563 51.0781 63.8125C46.5156 58.9688 41.9948 52.526 37.5156 44.4844 33.0469 36.4427 29.5938 28.1719 27.1563 19.6719 25.3958 13.6823 24.2708 7.125 23.7813 0L14.75 0C14.8438 5.63542 15.9479 12.4375 18.0625 20.4063 20.1771 28.3854 23.2135 36.0781 27.1719 43.4844 31.1302 50.8906 35.3385 57.1302 39.7969 62.2031Z" id="ArialMT-55"/></defs><g fill="#262626" transform="matrix(0.1 0 0 -0.1 168.94 236.822)"><use width="100%" height="100%" xlink:href="#ArialMT-55"></use><use x="55.6152" width="100%" height="100%" xlink:href="#ArialMT-46"></use><use x="83.3984" width="100%" height="100%" xlink:href="#ArialMT-53"></use></g></g></g><g id="xtick_5"><g id="line2d_9"><path d="M215.938 226.164 215.938 8.72389" stroke="#CCCCCC" stroke-width="0.8" stroke-linecap="round" fill="none" clip-path="url(#pf5bdb1681f)"/></g><g id="line2d_10"></g><g id="text_5"><defs><path d="M37.25 0 28.4688 0 28.4688 56C26.3542 53.9896 23.5781 51.974 20.1406 49.9531 16.7031 47.9323 13.6198 46.4167 10.8906 45.4063L10.8906 53.9063C15.8073 56.2188 20.1042 59.0156 23.7813 62.2969 27.4583 65.5885 30.0625 68.7813 31.5938 71.875L37.25 71.875Z" id="ArialMT-49"/></defs><g fill="#262626" transform="matrix(0.1 0 0 -0.1 206.207 236.822)"><use width="100%" height="100%" xlink:href="#ArialMT-49"></use><use x="55.6152" width="100%" height="100%" xlink:href="#ArialMT-48"></use><use x="111.23" width="100%" height="100%" xlink:href="#ArialMT-46"></use><use x="139.014" width="100%" height="100%" xlink:href="#ArialMT-48"></use></g></g></g><g id="xtick_6"><g id="line2d_11"><path d="M255.986 226.164 255.986 8.72389" stroke="#CCCCCC" stroke-width="0.8" stroke-linecap="round" fill="none" clip-path="url(#pf5bdb1681f)"/></g><g id="line2d_12"></g><g id="text_6"><g fill="#262626" transform="matrix(0.1 0 0 -0.1 246.255 236.822)"><use width="100%" height="100%" xlink:href="#ArialMT-49"></use><use x="55.6152" width="100%" height="100%" xlink:href="#ArialMT-50"></use><use x="111.23" width="100%" height="100%" xlink:href="#ArialMT-46"></use><use x="139.014" width="100%" height="100%" xlink:href="#ArialMT-53"></use></g></g></g><g id="xtick_7"><g id="line2d_13"><path d="M296.033 226.164 296.033 8.72389" stroke="#CCCCCC" stroke-width="0.8" stroke-linecap="round" fill="none" clip-path="url(#pf5bdb1681f)"/></g><g id="line2d_14"></g><g id="text_7"><g fill="#262626" transform="matrix(0.1 0 0 -0.1 286.303 236.822)"><use width="100%" height="100%" xlink:href="#ArialMT-49"></use><use x="55.6152" width="100%" height="100%" xlink:href="#ArialMT-53"></use><use x="111.23" width="100%" height="100%" xlink:href="#ArialMT-46"></use><use x="139.014" width="100%" height="100%" xlink:href="#ArialMT-48"></use></g></g></g><g id="xtick_8"><g id="line2d_15"><path d="M336.081 226.164 336.081 8.72389" stroke="#CCCCCC" stroke-width="0.8" stroke-linecap="round" fill="none" clip-path="url(#pf5bdb1681f)"/></g><g id="line2d_16"></g><g id="text_8"><g fill="#262626" transform="matrix(0.1 0 0 -0.1 326.351 236.822)"><use width="100%" height="100%" xlink:href="#ArialMT-49"></use><use x="55.6152" width="100%" height="100%" xlink:href="#ArialMT-55"></use><use x="111.23" width="100%" height="100%" xlink:href="#ArialMT-46"></use><use x="139.014" width="100%" height="100%" xlink:href="#ArialMT-53"></use></g></g></g><g id="text_9"><defs><path d="M9.32813 0 9.32813 71.5781 18.7969 71.5781 18.7969 0Z" id="ArialMT-73"/><path d="M25.7813 7.85938 27.0469 0.09375C24.5781-0.427083 22.3646-0.6875 20.4063-0.6875 17.2188-0.6875 14.7448-0.182292 12.9844 0.828125 11.2344 1.83854 10 3.16667 9.28125 4.8125 8.5625 6.45833 8.20313 9.91667 8.20313 15.1875L8.20313 45.0156 1.76563 45.0156 1.76563 51.8594 8.20313 51.8594 8.20313 64.7031 16.9375 69.9688 16.9375 51.8594 25.7813 51.8594 25.7813 45.0156 16.9375 45.0156 16.9375 14.7031C16.9375 12.1927 17.0938 10.5781 17.4063 9.85938 17.7188 9.15104 18.224 8.58333 18.9219 8.15625 19.6198 7.72917 20.6198 7.51563 21.9219 7.51563 22.901 7.51563 24.1875 7.63021 25.7813 7.85938Z" id="ArialMT-116"/><path d="M42.0938 16.7031 51.1719 15.5781C49.7448 10.276 47.0938 6.15625 43.2188 3.21875 39.3438 0.291667 34.3958-1.17188 28.375-1.17188 20.7917-1.17188 14.776 1.16146 10.3281 5.82813 5.88021 10.5052 3.65625 17.0573 3.65625 25.4844 3.65625 34.2135 5.90104 40.9844 10.3906 45.7969 14.8906 50.6198 20.7188 53.0313 27.875 53.0313 34.8125 53.0313 40.4792 50.6719 44.875 45.9531 49.2708 41.2344 51.4688 34.5938 51.4688 26.0313 51.4688 25.5104 51.4531 24.7292 51.4219 23.6875L12.75 23.6875C13.0729 17.9896 14.6823 13.625 17.5781 10.5938 20.474 7.57292 24.0885 6.0625 28.4219 6.0625 31.6406 6.0625 34.3906 6.90625 36.6719 8.59375 38.9531 10.2917 40.7604 12.9948 42.0938 16.7031ZM13.2344 30.9063 42.1875 30.9063C41.8021 35.2708 40.6979 38.5417 38.875 40.7188 36.0729 44.1042 32.4427 45.7969 27.9844 45.7969 23.9427 45.7969 20.5469 44.4479 17.7969 41.75 15.0469 39.0521 13.526 35.4375 13.2344 30.9063Z" id="ArialMT-101"/><path d="M6.5 0 6.5 51.8594 14.4063 51.8594 14.4063 44C16.4271 47.6771 18.2917 50.099 20 51.2656 21.7083 52.4427 23.5885 53.0313 25.6406 53.0313 28.599 53.0313 31.6094 52.0885 34.6719 50.2031L31.6406 42.0469C29.4948 43.3177 27.349 43.9531 25.2031 43.9531 23.276 43.9531 21.5469 43.375 20.0156 42.2188 18.4844 41.0625 17.3958 39.4583 16.75 37.4063 15.7708 34.2813 15.2813 30.8646 15.2813 27.1563L15.2813 0Z" id="ArialMT-114"/><path d="M40.4375 6.39063C37.1771 3.63021 34.0417 1.67708 31.0313 0.53125 28.0208-0.604167 24.7917-1.17188 21.3438-1.17188 15.6458-1.17188 11.2656 0.21875 8.20313 3 5.14063 5.78125 3.60938 9.33854 3.60938 13.6719 3.60938 16.2135 4.1875 18.5313 5.34375 20.625 6.5 22.7292 8.01563 24.4167 9.89063 25.6875 11.7656 26.9583 13.875 27.9167 16.2188 28.5625 17.9375 29.0208 20.5417 29.4635 24.0313 29.8906 31.125 30.7344 36.349 31.7396 39.7031 32.9063 39.7344 34.1146 39.75 34.8802 39.75 35.2031 39.75 38.7865 38.9167 41.3125 37.25 42.7813 35.0104 44.7604 31.6771 45.75 27.25 45.75 23.1146 45.75 20.0625 45.026 18.0938 43.5781 16.125 42.1302 14.6667 39.5677 13.7188 35.8906L5.125 37.0625C5.90625 40.7396 7.19271 43.7083 8.98438 45.9688 10.776 48.2292 13.3646 49.9688 16.75 51.1875 20.1354 52.4167 24.0573 53.0313 28.5156 53.0313 32.9427 53.0313 36.5365 52.5104 39.2969 51.4688 42.0677 50.4271 44.1042 49.1146 45.4063 47.5313 46.7083 45.9583 47.6198 43.9635 48.1406 41.5469 48.4323 40.0573 48.5781 37.3594 48.5781 33.4531L48.5781 21.7344C48.5781 13.5573 48.7656 8.38542 49.1406 6.21875 49.5156 4.0625 50.2604 1.98958 51.375 0L42.1875 0C41.2813 1.82292 40.6979 3.95313 40.4375 6.39063ZM39.7031 26.0313C36.5052 24.7292 31.7188 23.6198 25.3438 22.7031 21.7292 22.1823 19.1719 21.5938 17.6719 20.9375 16.1823 20.2917 15.026 19.3438 14.2031 18.0938 13.3906 16.8438 12.9844 15.4531 12.9844 13.9219 12.9844 11.5781 13.8698 9.625 15.6406 8.0625 17.4219 6.5 20.0208 5.71875 23.4375 5.71875 26.8229 5.71875 29.8333 6.45833 32.4688 7.9375 35.1042 9.41667 37.0417 11.4427 38.2813 14.0156 39.2292 16.0052 39.7031 18.9323 39.7031 22.7969Z" id="ArialMT-97"/><path d="M6.64063 61.4688 6.64063 71.5781 15.4375 71.5781 15.4375 61.4688ZM6.64063 0 6.64063 51.8594 15.4375 51.8594 15.4375 0Z" id="ArialMT-105"/><path d="M3.32813 25.9219C3.32813 35.526 5.99479 42.6406 11.3281 47.2656 15.7865 51.1094 21.224 53.0313 27.6406 53.0313 34.7656 53.0313 40.5885 50.6927 45.1094 46.0156 49.6406 41.349 51.9063 34.8958 51.9063 26.6563 51.9063 19.9896 50.9063 14.7396 48.9063 10.9063 46.9063 7.08333 43.9896 4.11458 40.1563 2 36.3333-0.114583 32.1615-1.17188 27.6406-1.17188 20.3802-1.17188 14.5104 1.15625 10.0313 5.8125 5.5625 10.4688 3.32813 17.1719 3.32813 25.9219ZM12.3594 25.9219C12.3594 19.2865 13.8073 14.3177 16.7031 11.0156 19.599 7.71354 23.2448 6.0625 27.6406 6.0625 32.0052 6.0625 35.6354 7.71875 38.5313 11.0313 41.4271 14.3542 42.875 19.4167 42.875 26.2188 42.875 32.6354 41.4167 37.4948 38.5 40.7969 35.5833 44.099 31.9635 45.75 27.6406 45.75 23.2448 45.75 19.599 44.1042 16.7031 40.8125 13.8073 37.5313 12.3594 32.5677 12.3594 25.9219Z" id="ArialMT-111"/><path d="M6.59375 0 6.59375 51.8594 14.5 51.8594 14.5 44.4844C18.3125 50.1823 23.8125 53.0313 31 53.0313 34.125 53.0313 37 52.4688 39.625 51.3438 42.25 50.2188 44.2135 48.7448 45.5156 46.9219 46.8177 45.099 47.7292 42.9375 48.25 40.4375 48.5729 38.8021 48.7344 35.9531 48.7344 31.8906L48.7344 0 39.9375 0 39.9375 31.5469C39.9375 35.1302 39.5938 37.8073 38.9063 39.5781 38.2292 41.349 37.0208 42.7604 35.2813 43.8125 33.5417 44.875 31.5 45.4063 29.1563 45.4063 25.4063 45.4063 22.1719 44.2188 19.4531 41.8438 16.7344 39.4688 15.375 34.9635 15.375 28.3281L15.375 0Z" id="ArialMT-110"/></defs><g fill="#262626" transform="matrix(0.1 0 0 -0.1 189.863 249.967)"><use width="100%" height="100%" xlink:href="#ArialMT-73"></use><use x="27.7832" width="100%" height="100%" xlink:href="#ArialMT-116"></use><use x="55.5664" width="100%" height="100%" xlink:href="#ArialMT-101"></use><use x="111.182" width="100%" height="100%" xlink:href="#ArialMT-114"></use><use x="144.482" width="100%" height="100%" xlink:href="#ArialMT-97"></use><use x="200.098" width="100%" height="100%" xlink:href="#ArialMT-116"></use><use x="227.881" width="100%" height="100%" xlink:href="#ArialMT-105"></use><use x="250.098" width="100%" height="100%" xlink:href="#ArialMT-111"></use><use x="305.713" width="100%" height="100%" xlink:href="#ArialMT-110"></use></g></g></g><g id="matplotlib.axis_2"><g id="ytick_1"><g id="line2d_17"><path d="M40.5281 206.494 375.328 206.494" stroke="#CCCCCC" stroke-width="0.8" stroke-linecap="round" fill="none" clip-path="url(#pf5bdb1681f)"/></g><g id="line2d_18"></g><g id="text_10"><g fill="#262626" transform="matrix(0.1 0 0 -0.1 25.9063 210.073)"><use width="100%" height="100%" xlink:href="#ArialMT-50"></use><use x="55.6152" width="100%" height="100%" xlink:href="#ArialMT-48"></use></g></g></g><g id="ytick_2"><g id="line2d_19"><path d="M40.5281 167.351 375.328 167.351" stroke="#CCCCCC" stroke-width="0.8" stroke-linecap="round" fill="none" clip-path="url(#pf5bdb1681f)"/></g><g id="line2d_20"></g><g id="text_11"><defs><path d="M32.3281 0 32.3281 17.1406 1.26563 17.1406 1.26563 25.2031 33.9375 71.5781 41.1094 71.5781 41.1094 25.2031 50.7813 25.2031 50.7813 17.1406 41.1094 17.1406 41.1094 0ZM32.3281 25.2031 32.3281 57.4688 9.90625 25.2031Z" id="ArialMT-52"/></defs><g fill="#262626" transform="matrix(0.1 0 0 -0.1 25.9063 170.93)"><use width="100%" height="100%" xlink:href="#ArialMT-52"></use><use x="55.6152" width="100%" height="100%" xlink:href="#ArialMT-48"></use></g></g></g><g id="ytick_3"><g id="line2d_21"><path d="M40.5281 128.208 375.328 128.208" stroke="#CCCCCC" stroke-width="0.8" stroke-linecap="round" fill="none" clip-path="url(#pf5bdb1681f)"/></g><g id="line2d_22"></g><g id="text_12"><defs><path d="M49.75 54.0469 41.0156 53.375C40.2344 56.8229 39.1302 59.3281 37.7031 60.8906 35.3177 63.401 32.3854 64.6563 28.9063 64.6563 26.1042 64.6563 23.6458 63.875 21.5313 62.3125 18.7708 60.2917 16.5885 57.3438 14.9844 53.4688 13.3906 49.5938 12.5625 44.0781 12.5 36.9219 14.6146 40.1406 17.2031 42.5313 20.2656 44.0938 23.3281 45.6563 26.5365 46.4375 29.8906 46.4375 35.7448 46.4375 40.7292 44.2813 44.8438 39.9688 48.9688 35.6563 51.0313 30.0833 51.0313 23.25 51.0313 18.75 50.0625 14.5729 48.125 10.7188 46.1875 6.86458 43.526 3.91146 40.1406 1.85938 36.7552-0.192708 32.9115-1.21875 28.6094-1.21875 21.2865-1.21875 15.3125 1.47396 10.6875 6.85938 6.07292 12.2448 3.76563 21.125 3.76563 33.5 3.76563 47.3333 6.31771 57.3906 11.4219 63.6719 15.8802 69.1406 21.8854 71.875 29.4375 71.875 35.0729 71.875 39.6875 70.2969 43.2813 67.1406 46.8854 63.9844 49.0417 59.6198 49.75 54.0469ZM13.875 23.1875C13.875 20.1667 14.5156 17.2708 15.7969 14.5 17.0781 11.7396 18.875 9.63021 21.1875 8.17188 23.5 6.72396 25.9271 6 28.4688 6 32.1771 6 35.3646 7.49479 38.0313 10.4844 40.7083 13.4844 42.0469 17.5573 42.0469 22.7031 42.0469 27.651 40.724 31.5469 38.0781 34.3906 35.4427 37.2448 32.125 38.6719 28.125 38.6719 24.1563 38.6719 20.7865 37.2448 18.0156 34.3906 15.2552 31.5469 13.875 27.8125 13.875 23.1875Z" id="ArialMT-54"/></defs><g fill="#262626" transform="matrix(0.1 0 0 -0.1 25.9063 131.787)"><use width="100%" height="100%" xlink:href="#ArialMT-54"></use><use x="55.6152" width="100%" height="100%" xlink:href="#ArialMT-48"></use></g></g></g><g id="ytick_4"><g id="line2d_23"><path d="M40.5281 89.0651 375.328 89.0651" stroke="#CCCCCC" stroke-width="0.8" stroke-linecap="round" fill="none" clip-path="url(#pf5bdb1681f)"/></g><g id="line2d_24"></g><g id="text_13"><defs><path d="M17.6719 38.8125C14.026 40.1563 11.3229 42.0625 9.5625 44.5313 7.8125 47.0104 6.9375 49.974 6.9375 53.4219 6.9375 58.6302 8.80729 63.0052 12.5469 66.5469 16.2969 70.099 21.276 71.875 27.4844 71.875 33.7344 71.875 38.7656 70.0573 42.5781 66.4219 46.3906 62.7969 48.2969 58.3802 48.2969 53.1719 48.2969 49.849 47.4219 46.9583 45.6719 44.5 43.9323 42.0521 41.2917 40.1563 37.75 38.8125 42.1458 37.3854 45.4896 35.0729 47.7813 31.875 50.0729 28.6875 51.2188 24.8802 51.2188 20.4531 51.2188 14.3385 49.0521 9.19792 44.7188 5.03125 40.3958 0.864583 34.7031-1.21875 27.6406-1.21875 20.5781-1.21875 14.8802 0.869792 10.5469 5.04688 6.21354 9.23438 4.04688 14.4531 4.04688 20.7031 4.04688 25.3594 5.22917 29.2552 7.59375 32.3906 9.95833 35.5365 13.3177 37.6771 17.6719 38.8125ZM15.9219 53.7188C15.9219 50.3333 17.0104 47.5625 19.1875 45.4063 21.375 43.2604 24.2083 42.1875 27.6875 42.1875 31.0729 42.1875 33.849 43.25 36.0156 45.375 38.1823 47.5104 39.2656 50.125 39.2656 53.2188 39.2656 56.4479 38.1458 59.1615 35.9063 61.3594 33.6771 63.5573 30.9063 64.6563 27.5938 64.6563 24.2396 64.6563 21.4531 63.5781 19.2344 61.4219 17.026 59.276 15.9219 56.7083 15.9219 53.7188ZM13.0938 20.6563C13.0938 18.1458 13.6875 15.7188 14.875 13.375 16.0625 11.0313 17.8281 9.21354 20.1719 7.92188 22.5156 6.64063 25.0365 6 27.7344 6 31.9323 6 35.3958 7.34896 38.125 10.0469 40.8646 12.7552 42.2344 16.1927 42.2344 20.3594 42.2344 24.5885 40.8281 28.0885 38.0156 30.8594 35.2031 33.6302 31.6771 35.0156 27.4375 35.0156 23.3021 35.0156 19.875 33.6458 17.1563 30.9063 14.4479 28.1771 13.0938 24.7604 13.0938 20.6563Z" id="ArialMT-56"/></defs><g fill="#262626" transform="matrix(0.1 0 0 -0.1 25.9063 92.644)"><use width="100%" height="100%" xlink:href="#ArialMT-56"></use><use x="55.6152" width="100%" height="100%" xlink:href="#ArialMT-48"></use></g></g></g><g id="ytick_5"><g id="line2d_25"><path d="M40.5281 49.922 375.328 49.922" stroke="#CCCCCC" stroke-width="0.8" stroke-linecap="round" fill="none" clip-path="url(#pf5bdb1681f)"/></g><g id="line2d_26"></g><g id="text_14"><g fill="#262626" transform="matrix(0.1 0 0 -0.1 20.3453 53.5009)"><use width="100%" height="100%" xlink:href="#ArialMT-49"></use><use x="55.6152" width="100%" height="100%" xlink:href="#ArialMT-48"></use><use x="111.23" width="100%" height="100%" xlink:href="#ArialMT-48"></use></g></g></g><g id="ytick_6"><g id="line2d_27"><path d="M40.5281 10.7789 375.328 10.7789" stroke="#CCCCCC" stroke-width="0.8" stroke-linecap="round" fill="none" clip-path="url(#pf5bdb1681f)"/></g><g id="line2d_28"></g><g id="text_15"><g fill="#262626" transform="matrix(0.1 0 0 -0.1 20.3453 14.3578)"><use width="100%" height="100%" xlink:href="#ArialMT-49"></use><use x="55.6152" width="100%" height="100%" xlink:href="#ArialMT-50"></use><use x="111.23" width="100%" height="100%" xlink:href="#ArialMT-48"></use></g></g></g><g id="text_16"><defs><path d="M4.5 23 13.4219 23.7813C13.849 20.1979 14.8333 17.2604 16.375 14.9688 17.9271 12.6771 20.3281 10.8229 23.5781 9.40625 26.8385 7.98958 30.5052 7.28125 34.5781 7.28125 38.1823 7.28125 41.3698 7.81771 44.1406 8.89063 46.9115 9.96354 48.9688 11.4323 50.3125 13.2969 51.6667 15.1719 52.3438 17.2188 52.3438 19.4375 52.3438 21.6771 51.6927 23.6354 50.3906 25.3125 49.0885 26.9896 46.9427 28.401 43.9531 29.5469 42.026 30.2969 37.776 31.4583 31.2031 33.0313 24.6302 34.6146 20.026 36.1042 17.3906 37.5 13.9635 39.2917 11.4115 41.5104 9.73438 44.1563 8.06771 46.8125 7.23438 49.7865 7.23438 53.0781 7.23438 56.6927 8.25521 60.0677 10.2969 63.2031 12.349 66.349 15.3438 68.7344 19.2813 70.3594 23.2292 71.9844 27.6094 72.7969 32.4219 72.7969 37.724 72.7969 42.401 71.9427 46.4531 70.2344 50.5156 68.526 53.6354 66.0104 55.8125 62.6875 57.9896 59.375 59.1615 55.6198 59.3281 51.4219L50.25 50.7344C49.7604 55.2552 48.1042 58.6719 45.2813 60.9844 42.4688 63.2969 38.3125 64.4531 32.8125 64.4531 27.0833 64.4531 22.9063 63.401 20.2813 61.2969 17.6667 59.2031 16.3594 56.6771 16.3594 53.7188 16.3594 51.1458 17.2865 49.026 19.1406 47.3594 20.9635 45.7031 25.724 44.0052 33.4219 42.2656 41.1198 40.526 46.401 39.0052 49.2656 37.7031 53.4323 35.776 56.5052 33.3385 58.4844 30.3906 60.474 27.4531 61.4688 24.0625 61.4688 20.2188 61.4688 16.4063 60.3802 12.8125 58.2031 9.4375 56.026 6.07292 52.8906 3.45313 48.7969 1.57813 44.7135-0.286458 40.1198-1.21875 35.0156-1.21875 28.5365-1.21875 23.1042-0.276042 18.7188 1.60938 14.3438 3.49479 10.9115 6.33333 8.42188 10.125 5.93229 13.9271 4.625 18.2188 4.5 23Z" id="ArialMT-83"/><path d="M40.4375 19 49.0781 17.875C48.1302 11.9167 45.7083 7.25 41.8125 3.875 37.9271 0.510417 33.151-1.17188 27.4844-1.17188 20.3906-1.17188 14.6875 1.14583 10.375 5.78125 6.0625 10.4271 3.90625 17.0781 3.90625 25.7344 3.90625 31.3281 4.83333 36.224 6.6875 40.4219 8.54167 44.6302 11.3646 47.7813 15.1563 49.875 18.9479 51.9792 23.0781 53.0313 27.5469 53.0313 33.1719 53.0313 37.776 51.6042 41.3594 48.75 44.9427 45.9063 47.2396 41.8646 48.25 36.625L39.7031 35.2969C38.8906 38.7865 37.4479 41.4063 35.375 43.1563 33.3125 44.9167 30.8125 45.7969 27.875 45.7969 23.4479 45.7969 19.849 44.2083 17.0781 41.0313 14.3177 37.8646 12.9375 32.849 12.9375 25.9844 12.9375 19.0156 14.2708 13.9531 16.9375 10.7969 19.6146 7.64063 23.099 6.0625 27.3906 6.0625 30.8385 6.0625 33.7188 7.11979 36.0313 9.23438 38.3438 11.349 39.8125 14.6042 40.4375 19Z" id="ArialMT-99"/></defs><g fill="#262626" transform="matrix(6.12323e-18 -0.1 -0.1 -6.12323e-18 14.3578 130.505)"><use width="100%" height="100%" xlink:href="#ArialMT-83"></use><use x="66.6992" width="100%" height="100%" xlink:href="#ArialMT-99"></use><use x="116.699" width="100%" height="100%" xlink:href="#ArialMT-111"></use><use x="172.314" width="100%" height="100%" xlink:href="#ArialMT-114"></use><use x="205.615" width="100%" height="100%" xlink:href="#ArialMT-101"></use></g></g></g><g id="PolyCollection_1"><defs><path d="M55.7463-109.418 55.7463-50.7029 71.7654-158.346 87.7846-152.475 103.804-154.432 119.823-156.389 135.842-156.389 135.842-220.975 135.842-220.975 119.823-234.676 103.804-224.89 87.7846-224.89 71.7654-232.718 55.7463-109.418Z" id="m820f613a3f" stroke="#CD5C5C" stroke-opacity="0.15"/></defs><g clip-path="url(#pf5bdb1681f)"><use y="259.155" width="100%" height="100%" xlink:href="#m820f613a3f" stroke="#CD5C5C" stroke-opacity="0.15" fill="#CD5C5C" fill-opacity="0.15"></use></g></g><g id="PolyCollection_2"><defs><path d="M55.7463-127.032 55.7463-78.1031 71.7654-150.518 87.7846-158.346 103.804-148.561 119.823-160.304 135.842-154.432 151.861-158.346 167.88-156.389 183.899-154.432 199.919-154.432 215.938-154.432 231.957-162.261 247.976-152.475 263.995-146.604 280.014-162.261 296.033-154.432 312.053-156.389 312.053-222.933 312.053-222.933 296.033-222.933 280.014-226.847 263.995-228.804 247.976-226.847 231.957-220.975 215.938-220.975 199.919-240.547 183.899-226.847 167.88-222.933 151.861-224.89 135.842-220.975 119.823-222.933 103.804-232.718 87.7846-220.975 71.7654-230.761 55.7463-127.032Z" id="m41c7393d3e" stroke="#CD5C5C" stroke-opacity="0.15"/></defs><g clip-path="url(#pf5bdb1681f)"><use y="259.155" width="100%" height="100%" xlink:href="#m41c7393d3e" stroke="#CD5C5C" stroke-opacity="0.15" fill="#CD5C5C" fill-opacity="0.15"></use></g></g><g id="PolyCollection_3"><defs><path d="M55.7463-101.589 55.7463-42.8743 71.7654-136.818 87.7846-158.346 103.804-158.346 119.823-152.475 135.842-146.604 151.861-164.218 167.88-152.475 183.899-148.561 199.919-156.389 215.938-142.689 231.957-162.261 247.976-146.604 263.995-158.346 280.014-154.432 296.033-156.389 312.053-156.389 328.072-154.432 344.091-152.475 360.11-158.346 360.11-226.847 360.11-226.847 344.091-230.761 328.072-222.933 312.053-232.718 296.033-234.676 280.014-215.104 263.995-228.804 247.976-219.018 231.957-222.933 215.938-234.676 199.919-224.89 183.899-220.975 167.88-226.847 151.861-224.89 135.842-224.89 119.823-226.847 103.804-228.804 87.7846-220.975 71.7654-224.89 55.7463-101.589Z" id="mfc0a540b76" stroke="#CD5C5C" stroke-opacity="0.15"/></defs><g clip-path="url(#pf5bdb1681f)"><use y="259.155" width="100%" height="100%" xlink:href="#mfc0a540b76" stroke="#CD5C5C" stroke-opacity="0.15" fill="#CD5C5C" fill-opacity="0.15"></use></g></g><g id="line2d_29"><path d="M55.7463 181.971 71.7654 67.9474 87.7846 66.8318 103.804 67.8202 119.823 70.4037 135.842 70.3156" stroke="#CD5C5C" stroke-width="3" stroke-dasharray="6 9" fill="none" clip-path="url(#pf5bdb1681f)"/></g><g id="line2d_30"><path d="M55.7463 158.525 71.7654 68.2606 87.7846 69.3566 103.804 68.8966 119.823 67.4777 135.842 69.5229 151.861 69.5425 167.88 68.4171 183.899 68.7303 199.919 67.7615 215.938 68.789 231.957 69.6697 247.976 68.5639 263.995 69.1511 280.014 67.1548 296.033 69.337 312.053 69.6404" stroke="#CD5C5C" stroke-width="3" stroke-dasharray="6 3" fill="none" clip-path="url(#pf5bdb1681f)"/></g><g id="line2d_31"><path d="M55.7463 187.148 71.7654 81.0702 87.7846 68.0453 103.804 68.1334 119.823 66.2056 135.842 67.8691 151.861 69.0141 167.88 67.4092 183.899 68.0061 199.919 69.1511 215.938 68.9749 231.957 67.7909 247.976 68.5541 263.995 69.5621 280.014 69.6306 296.033 68.8281 312.053 68.8575 328.072 69.9241 344.091 68.4759 360.11 67.83" stroke="#CD5C5C" stroke-width="3" stroke-dasharray="6 0" fill="none" clip-path="url(#pf5bdb1681f)"/></g><g id="patch_3"><path d="M40.5281 226.164 40.5281 8.72389" stroke="#CCCCCC" stroke-linecap="square" stroke-linejoin="miter" fill="none"/></g><g id="patch_4"><path d="M375.328 226.164 375.328 8.72389" stroke="#CCCCCC" stroke-linecap="square" stroke-linejoin="miter" fill="none"/></g><g id="patch_5"><path d="M40.5281 226.164 375.328 226.164" stroke="#CCCCCC" stroke-linecap="square" stroke-linejoin="miter" fill="none"/></g><g id="patch_6"><path d="M40.5281 8.72389 375.328 8.72389" stroke="#CCCCCC" stroke-linecap="square" stroke-linejoin="miter" fill="none"/></g><g id="legend_1"><g id="line2d_32"><path d="M308.027 21.4114 328.027 21.4114" stroke="#CD5C5C" stroke-width="3" stroke-dasharray="6 9" fill="none"/></g><g id="line2d_33"></g><g id="text_17"><defs><path d="M1.21875 51.8594 10.4531 51.8594 24.9531 10.9844 39.7969 51.8594 48.7813 51.8594 29.3906 0 29.3906-19.875 20.4531-19.875 20.4531 0Z" id="ArialMT-947"/><path d="M52.8281 42.0938 5.5625 42.0938 5.5625 50.2969 52.8281 50.2969ZM52.8281 20.3594 5.5625 20.3594 5.5625 28.5625 52.8281 28.5625Z" id="ArialMT-61"/></defs><g fill="#262626" transform="matrix(0.1 0 0 -0.1 336.027 24.9114)"><use width="100%" height="100%" xlink:href="#ArialMT-947"></use><use x="50" width="100%" height="100%" xlink:href="#ArialMT-61"></use><use x="108.398" width="100%" height="100%" xlink:href="#ArialMT-48"></use><use x="164.014" width="100%" height="100%" xlink:href="#ArialMT-46"></use><use x="191.797" width="100%" height="100%" xlink:href="#ArialMT-53"></use><use x="247.412" width="100%" height="100%" xlink:href="#ArialMT-48"></use></g></g><g id="line2d_34"><path d="M308.027 35.5864 328.027 35.5864" stroke="#CD5C5C" stroke-width="3" stroke-dasharray="6 3" fill="none"/></g><g id="line2d_35"></g><g id="text_18"><defs><path d="M5.46875 16.5469 13.9219 17.3281C14.6302 13.3594 15.9948 10.4792 18.0156 8.6875 20.0365 6.89583 22.625 6 25.7813 6 28.4792 6 30.8438 6.61979 32.875 7.85938 34.9167 9.09896 36.5885 10.75 37.8906 12.8125 39.1927 14.8854 40.2813 17.6771 41.1563 21.1875 42.0417 24.7083 42.4844 28.2917 42.4844 31.9375 42.4844 32.3229 42.4688 32.9063 42.4375 33.6875 40.6771 30.8958 38.276 28.625 35.2344 26.875 32.1927 25.1354 28.8958 24.2656 25.3438 24.2656 19.4167 24.2656 14.401 26.4115 10.2969 30.7031 6.20313 35.0052 4.15625 40.6719 4.15625 47.7031 4.15625 54.9635 6.29688 60.8073 10.5781 65.2344 14.8594 69.6615 20.2188 71.875 26.6563 71.875 31.3125 71.875 35.5677 70.6198 39.4219 68.1094 43.2865 65.6094 46.2188 62.0365 48.2188 57.3906 50.2188 52.7552 51.2188 46.0417 51.2188 37.25 51.2188 28.1042 50.224 20.8229 48.2344 15.4063 46.2552 9.98958 43.3021 5.86458 39.375 3.03125 35.4583 0.197917 30.8646-1.21875 25.5938-1.21875 19.9896-1.21875 15.4115 0.333333 11.8594 3.4375 8.31771 6.55208 6.1875 10.9219 5.46875 16.5469ZM41.4531 48.1406C41.4531 53.1927 40.1094 57.1979 37.4219 60.1563 34.7448 63.1146 31.5156 64.5938 27.7344 64.5938 23.8281 64.5938 20.4271 63 17.5313 59.8125 14.6354 56.625 13.1875 52.4896 13.1875 47.4063 13.1875 42.8542 14.5625 39.151 17.3125 36.2969 20.0625 33.4531 23.4531 32.0313 27.4844 32.0313 31.5573 32.0313 34.901 33.4531 37.5156 36.2969 40.1406 39.151 41.4531 43.099 41.4531 48.1406Z" id="ArialMT-57"/></defs><g fill="#262626" transform="matrix(0.1 0 0 -0.1 336.027 39.0864)"><use width="100%" height="100%" xlink:href="#ArialMT-947"></use><use x="50" width="100%" height="100%" xlink:href="#ArialMT-61"></use><use x="108.398" width="100%" height="100%" xlink:href="#ArialMT-48"></use><use x="164.014" width="100%" height="100%" xlink:href="#ArialMT-46"></use><use x="191.797" width="100%" height="100%" xlink:href="#ArialMT-57"></use><use x="247.412" width="100%" height="100%" xlink:href="#ArialMT-48"></use></g></g><g id="line2d_36"><path d="M308.027 49.7614 328.027 49.7614" stroke="#CD5C5C" stroke-width="3" stroke-dasharray="6 0" fill="none"/></g><g id="line2d_37"></g><g id="text_19"><g fill="#262626" transform="matrix(0.1 0 0 -0.1 336.027 53.2614)"><use width="100%" height="100%" xlink:href="#ArialMT-947"></use><use x="50" width="100%" height="100%" xlink:href="#ArialMT-61"></use><use x="108.398" width="100%" height="100%" xlink:href="#ArialMT-48"></use><use x="164.014" width="100%" height="100%" xlink:href="#ArialMT-46"></use><use x="191.797" width="100%" height="100%" xlink:href="#ArialMT-57"></use><use x="247.412" width="100%" height="100%" xlink:href="#ArialMT-57"></use></g></g></g></g></g></svg>