<?xml version="1.0" encoding="utf-8" standalone="no"?>
<!DOCTYPE svg PUBLIC "-//W3C//DTD SVG 1.1//EN"
  "http://www.w3.org/Graphics/SVG/1.1/DTD/svg11.dtd">
<!-- Created with matplotlib (https://matplotlib.org/) -->
<svg height="257.630625pt" version="1.1" viewBox="0 0 385.30625 257.630625" width="385.30625pt" xmlns="http://www.w3.org/2000/svg" xmlns:xlink="http://www.w3.org/1999/xlink">
 <defs>
  <style type="text/css">
*{stroke-linecap:butt;stroke-linejoin:round;}
  </style>
 </defs>
 <g id="figure_1">
  <g id="patch_1">
   <path d="M 0 257.630625 
L 385.30625 257.630625 
L 385.30625 0 
L 0 0 
z
" style="fill:#ffffff;"/>
  </g>
  <g id="axes_1">
   <g id="patch_2">
    <path d="M 43.30625 224.64 
L 378.10625 224.64 
L 378.10625 7.2 
L 43.30625 7.2 
z
" style="fill:#ffffff;"/>
   </g>
   <g id="matplotlib.axis_1">
    <g id="xtick_1">
     <g id="line2d_1">
      <path clip-path="url(#p7fb87368e5)" d="M 50.185702 224.64 
L 50.185702 7.2 
" style="fill:none;stroke:#cccccc;stroke-linecap:round;stroke-width:0.8;"/>
     </g>
     <g id="line2d_2"/>
     <g id="text_1">
      <!-- 0 -->
      <defs>
       <path d="M 4.15625 35.296875 
Q 4.15625 48 6.765625 55.734375 
Q 9.375 63.484375 14.515625 67.671875 
Q 19.671875 71.875 27.484375 71.875 
Q 33.25 71.875 37.59375 69.546875 
Q 41.9375 67.234375 44.765625 62.859375 
Q 47.609375 58.5 49.21875 52.21875 
Q 50.828125 45.953125 50.828125 35.296875 
Q 50.828125 22.703125 48.234375 14.96875 
Q 45.65625 7.234375 40.5 3 
Q 35.359375 -1.21875 27.484375 -1.21875 
Q 17.140625 -1.21875 11.234375 6.203125 
Q 4.15625 15.140625 4.15625 35.296875 
z
M 13.1875 35.296875 
Q 13.1875 17.671875 17.3125 11.828125 
Q 21.4375 6 27.484375 6 
Q 33.546875 6 37.671875 11.859375 
Q 41.796875 17.71875 41.796875 35.296875 
Q 41.796875 52.984375 37.671875 58.78125 
Q 33.546875 64.59375 27.390625 64.59375 
Q 21.34375 64.59375 17.71875 59.46875 
Q 13.1875 52.9375 13.1875 35.296875 
z
" id="ArialMT-48"/>
      </defs>
      <g style="fill:#262626;" transform="translate(47.405233 235.297812)scale(0.1 -0.1)">
       <use xlink:href="#ArialMT-48"/>
      </g>
     </g>
    </g>
    <g id="xtick_2">
     <g id="line2d_3">
      <path clip-path="url(#p7fb87368e5)" d="M 91.879351 224.64 
L 91.879351 7.2 
" style="fill:none;stroke:#cccccc;stroke-linecap:round;stroke-width:0.8;"/>
     </g>
     <g id="line2d_4"/>
     <g id="text_2">
      <!-- 10 -->
      <defs>
       <path d="M 37.25 0 
L 28.46875 0 
L 28.46875 56 
Q 25.296875 52.984375 20.140625 49.953125 
Q 14.984375 46.921875 10.890625 45.40625 
L 10.890625 53.90625 
Q 18.265625 57.375 23.78125 62.296875 
Q 29.296875 67.234375 31.59375 71.875 
L 37.25 71.875 
z
" id="ArialMT-49"/>
      </defs>
      <g style="fill:#262626;" transform="translate(86.318413 235.297812)scale(0.1 -0.1)">
       <use xlink:href="#ArialMT-49"/>
       <use x="55.615234" xlink:href="#ArialMT-48"/>
      </g>
     </g>
    </g>
    <g id="xtick_3">
     <g id="line2d_5">
      <path clip-path="url(#p7fb87368e5)" d="M 133.573 224.64 
L 133.573 7.2 
" style="fill:none;stroke:#cccccc;stroke-linecap:round;stroke-width:0.8;"/>
     </g>
     <g id="line2d_6"/>
     <g id="text_3">
      <!-- 20 -->
      <defs>
       <path d="M 50.34375 8.453125 
L 50.34375 0 
L 3.03125 0 
Q 2.9375 3.171875 4.046875 6.109375 
Q 5.859375 10.9375 9.828125 15.625 
Q 13.8125 20.3125 21.34375 26.46875 
Q 33.015625 36.03125 37.109375 41.625 
Q 41.21875 47.21875 41.21875 52.203125 
Q 41.21875 57.421875 37.46875 61 
Q 33.734375 64.59375 27.734375 64.59375 
Q 21.390625 64.59375 17.578125 60.78125 
Q 13.765625 56.984375 13.71875 50.25 
L 4.6875 51.171875 
Q 5.609375 61.28125 11.65625 66.578125 
Q 17.71875 71.875 27.9375 71.875 
Q 38.234375 71.875 44.234375 66.15625 
Q 50.25 60.453125 50.25 52 
Q 50.25 47.703125 48.484375 43.546875 
Q 46.734375 39.40625 42.65625 34.8125 
Q 38.578125 30.21875 29.109375 22.21875 
Q 21.1875 15.578125 18.9375 13.203125 
Q 16.703125 10.84375 15.234375 8.453125 
z
" id="ArialMT-50"/>
      </defs>
      <g style="fill:#262626;" transform="translate(128.012062 235.297812)scale(0.1 -0.1)">
       <use xlink:href="#ArialMT-50"/>
       <use x="55.615234" xlink:href="#ArialMT-48"/>
      </g>
     </g>
    </g>
    <g id="xtick_4">
     <g id="line2d_7">
      <path clip-path="url(#p7fb87368e5)" d="M 175.266649 224.64 
L 175.266649 7.2 
" style="fill:none;stroke:#cccccc;stroke-linecap:round;stroke-width:0.8;"/>
     </g>
     <g id="line2d_8"/>
     <g id="text_4">
      <!-- 30 -->
      <defs>
       <path d="M 4.203125 18.890625 
L 12.984375 20.0625 
Q 14.5 12.59375 18.140625 9.296875 
Q 21.78125 6 27 6 
Q 33.203125 6 37.46875 10.296875 
Q 41.75 14.59375 41.75 20.953125 
Q 41.75 27 37.796875 30.921875 
Q 33.84375 34.859375 27.734375 34.859375 
Q 25.25 34.859375 21.53125 33.890625 
L 22.515625 41.609375 
Q 23.390625 41.5 23.921875 41.5 
Q 29.546875 41.5 34.03125 44.421875 
Q 38.53125 47.359375 38.53125 53.46875 
Q 38.53125 58.296875 35.25 61.46875 
Q 31.984375 64.65625 26.8125 64.65625 
Q 21.6875 64.65625 18.265625 61.421875 
Q 14.84375 58.203125 13.875 51.765625 
L 5.078125 53.328125 
Q 6.6875 62.15625 12.390625 67.015625 
Q 18.109375 71.875 26.609375 71.875 
Q 32.46875 71.875 37.390625 69.359375 
Q 42.328125 66.84375 44.9375 62.5 
Q 47.5625 58.15625 47.5625 53.265625 
Q 47.5625 48.640625 45.0625 44.828125 
Q 42.578125 41.015625 37.703125 38.765625 
Q 44.046875 37.3125 47.5625 32.6875 
Q 51.078125 28.078125 51.078125 21.140625 
Q 51.078125 11.765625 44.234375 5.25 
Q 37.40625 -1.265625 26.953125 -1.265625 
Q 17.53125 -1.265625 11.296875 4.34375 
Q 5.078125 9.96875 4.203125 18.890625 
z
" id="ArialMT-51"/>
      </defs>
      <g style="fill:#262626;" transform="translate(169.705711 235.297812)scale(0.1 -0.1)">
       <use xlink:href="#ArialMT-51"/>
       <use x="55.615234" xlink:href="#ArialMT-48"/>
      </g>
     </g>
    </g>
    <g id="xtick_5">
     <g id="line2d_9">
      <path clip-path="url(#p7fb87368e5)" d="M 216.960297 224.64 
L 216.960297 7.2 
" style="fill:none;stroke:#cccccc;stroke-linecap:round;stroke-width:0.8;"/>
     </g>
     <g id="line2d_10"/>
     <g id="text_5">
      <!-- 40 -->
      <defs>
       <path d="M 32.328125 0 
L 32.328125 17.140625 
L 1.265625 17.140625 
L 1.265625 25.203125 
L 33.9375 71.578125 
L 41.109375 71.578125 
L 41.109375 25.203125 
L 50.78125 25.203125 
L 50.78125 17.140625 
L 41.109375 17.140625 
L 41.109375 0 
z
M 32.328125 25.203125 
L 32.328125 57.46875 
L 9.90625 25.203125 
z
" id="ArialMT-52"/>
      </defs>
      <g style="fill:#262626;" transform="translate(211.39936 235.297812)scale(0.1 -0.1)">
       <use xlink:href="#ArialMT-52"/>
       <use x="55.615234" xlink:href="#ArialMT-48"/>
      </g>
     </g>
    </g>
    <g id="xtick_6">
     <g id="line2d_11">
      <path clip-path="url(#p7fb87368e5)" d="M 258.653946 224.64 
L 258.653946 7.2 
" style="fill:none;stroke:#cccccc;stroke-linecap:round;stroke-width:0.8;"/>
     </g>
     <g id="line2d_12"/>
     <g id="text_6">
      <!-- 50 -->
      <defs>
       <path d="M 4.15625 18.75 
L 13.375 19.53125 
Q 14.40625 12.796875 18.140625 9.390625 
Q 21.875 6 27.15625 6 
Q 33.5 6 37.890625 10.78125 
Q 42.28125 15.578125 42.28125 23.484375 
Q 42.28125 31 38.0625 35.34375 
Q 33.84375 39.703125 27 39.703125 
Q 22.75 39.703125 19.328125 37.765625 
Q 15.921875 35.84375 13.96875 32.765625 
L 5.71875 33.84375 
L 12.640625 70.609375 
L 48.25 70.609375 
L 48.25 62.203125 
L 19.671875 62.203125 
L 15.828125 42.96875 
Q 22.265625 47.46875 29.34375 47.46875 
Q 38.71875 47.46875 45.15625 40.96875 
Q 51.609375 34.46875 51.609375 24.265625 
Q 51.609375 14.546875 45.953125 7.46875 
Q 39.0625 -1.21875 27.15625 -1.21875 
Q 17.390625 -1.21875 11.203125 4.25 
Q 5.03125 9.71875 4.15625 18.75 
z
" id="ArialMT-53"/>
      </defs>
      <g style="fill:#262626;" transform="translate(253.093009 235.297812)scale(0.1 -0.1)">
       <use xlink:href="#ArialMT-53"/>
       <use x="55.615234" xlink:href="#ArialMT-48"/>
      </g>
     </g>
    </g>
    <g id="xtick_7">
     <g id="line2d_13">
      <path clip-path="url(#p7fb87368e5)" d="M 300.347595 224.64 
L 300.347595 7.2 
" style="fill:none;stroke:#cccccc;stroke-linecap:round;stroke-width:0.8;"/>
     </g>
     <g id="line2d_14"/>
     <g id="text_7">
      <!-- 60 -->
      <defs>
       <path d="M 49.75 54.046875 
L 41.015625 53.375 
Q 39.84375 58.546875 37.703125 60.890625 
Q 34.125 64.65625 28.90625 64.65625 
Q 24.703125 64.65625 21.53125 62.3125 
Q 17.390625 59.28125 14.984375 53.46875 
Q 12.59375 47.65625 12.5 36.921875 
Q 15.671875 41.75 20.265625 44.09375 
Q 24.859375 46.4375 29.890625 46.4375 
Q 38.671875 46.4375 44.84375 39.96875 
Q 51.03125 33.5 51.03125 23.25 
Q 51.03125 16.5 48.125 10.71875 
Q 45.21875 4.9375 40.140625 1.859375 
Q 35.0625 -1.21875 28.609375 -1.21875 
Q 17.625 -1.21875 10.6875 6.859375 
Q 3.765625 14.9375 3.765625 33.5 
Q 3.765625 54.25 11.421875 63.671875 
Q 18.109375 71.875 29.4375 71.875 
Q 37.890625 71.875 43.28125 67.140625 
Q 48.6875 62.40625 49.75 54.046875 
z
M 13.875 23.1875 
Q 13.875 18.65625 15.796875 14.5 
Q 17.71875 10.359375 21.1875 8.171875 
Q 24.65625 6 28.46875 6 
Q 34.03125 6 38.03125 10.484375 
Q 42.046875 14.984375 42.046875 22.703125 
Q 42.046875 30.125 38.078125 34.390625 
Q 34.125 38.671875 28.125 38.671875 
Q 22.171875 38.671875 18.015625 34.390625 
Q 13.875 30.125 13.875 23.1875 
z
" id="ArialMT-54"/>
      </defs>
      <g style="fill:#262626;" transform="translate(294.786657 235.297812)scale(0.1 -0.1)">
       <use xlink:href="#ArialMT-54"/>
       <use x="55.615234" xlink:href="#ArialMT-48"/>
      </g>
     </g>
    </g>
    <g id="xtick_8">
     <g id="line2d_15">
      <path clip-path="url(#p7fb87368e5)" d="M 342.041244 224.64 
L 342.041244 7.2 
" style="fill:none;stroke:#cccccc;stroke-linecap:round;stroke-width:0.8;"/>
     </g>
     <g id="line2d_16"/>
     <g id="text_8">
      <!-- 70 -->
      <defs>
       <path d="M 4.734375 62.203125 
L 4.734375 70.65625 
L 51.078125 70.65625 
L 51.078125 63.8125 
Q 44.234375 56.546875 37.515625 44.484375 
Q 30.8125 32.421875 27.15625 19.671875 
Q 24.515625 10.6875 23.78125 0 
L 14.75 0 
Q 14.890625 8.453125 18.0625 20.40625 
Q 21.234375 32.375 27.171875 43.484375 
Q 33.109375 54.59375 39.796875 62.203125 
z
" id="ArialMT-55"/>
      </defs>
      <g style="fill:#262626;" transform="translate(336.480306 235.297812)scale(0.1 -0.1)">
       <use xlink:href="#ArialMT-55"/>
       <use x="55.615234" xlink:href="#ArialMT-48"/>
      </g>
     </g>
    </g>
    <g id="text_9">
     <!-- Number of clusters -->
     <defs>
      <path d="M 7.625 0 
L 7.625 71.578125 
L 17.328125 71.578125 
L 54.9375 15.375 
L 54.9375 71.578125 
L 64.015625 71.578125 
L 64.015625 0 
L 54.296875 0 
L 16.703125 56.25 
L 16.703125 0 
z
" id="ArialMT-78"/>
      <path d="M 40.578125 0 
L 40.578125 7.625 
Q 34.515625 -1.171875 24.125 -1.171875 
Q 19.53125 -1.171875 15.546875 0.578125 
Q 11.578125 2.34375 9.640625 5 
Q 7.71875 7.671875 6.9375 11.53125 
Q 6.390625 14.109375 6.390625 19.734375 
L 6.390625 51.859375 
L 15.1875 51.859375 
L 15.1875 23.09375 
Q 15.1875 16.21875 15.71875 13.8125 
Q 16.546875 10.359375 19.234375 8.375 
Q 21.921875 6.390625 25.875 6.390625 
Q 29.828125 6.390625 33.296875 8.421875 
Q 36.765625 10.453125 38.203125 13.9375 
Q 39.65625 17.4375 39.65625 24.078125 
L 39.65625 51.859375 
L 48.4375 51.859375 
L 48.4375 0 
z
" id="ArialMT-117"/>
      <path d="M 6.59375 0 
L 6.59375 51.859375 
L 14.453125 51.859375 
L 14.453125 44.578125 
Q 16.890625 48.390625 20.9375 50.703125 
Q 25 53.03125 30.171875 53.03125 
Q 35.9375 53.03125 39.625 50.640625 
Q 43.3125 48.25 44.828125 43.953125 
Q 50.984375 53.03125 60.84375 53.03125 
Q 68.5625 53.03125 72.703125 48.75 
Q 76.859375 44.484375 76.859375 35.59375 
L 76.859375 0 
L 68.109375 0 
L 68.109375 32.671875 
Q 68.109375 37.9375 67.25 40.25 
Q 66.40625 42.578125 64.15625 43.984375 
Q 61.921875 45.40625 58.890625 45.40625 
Q 53.421875 45.40625 49.796875 41.765625 
Q 46.1875 38.140625 46.1875 30.125 
L 46.1875 0 
L 37.40625 0 
L 37.40625 33.6875 
Q 37.40625 39.546875 35.25 42.46875 
Q 33.109375 45.40625 28.21875 45.40625 
Q 24.515625 45.40625 21.359375 43.453125 
Q 18.21875 41.5 16.796875 37.734375 
Q 15.375 33.984375 15.375 26.90625 
L 15.375 0 
z
" id="ArialMT-109"/>
      <path d="M 14.703125 0 
L 6.546875 0 
L 6.546875 71.578125 
L 15.328125 71.578125 
L 15.328125 46.046875 
Q 20.90625 53.03125 29.546875 53.03125 
Q 34.328125 53.03125 38.59375 51.09375 
Q 42.875 49.171875 45.625 45.671875 
Q 48.390625 42.1875 49.953125 37.25 
Q 51.515625 32.328125 51.515625 26.703125 
Q 51.515625 13.375 44.921875 6.09375 
Q 38.328125 -1.171875 29.109375 -1.171875 
Q 19.921875 -1.171875 14.703125 6.5 
z
M 14.59375 26.3125 
Q 14.59375 17 17.140625 12.84375 
Q 21.296875 6.0625 28.375 6.0625 
Q 34.125 6.0625 38.328125 11.0625 
Q 42.53125 16.0625 42.53125 25.984375 
Q 42.53125 36.140625 38.5 40.96875 
Q 34.46875 45.796875 28.765625 45.796875 
Q 23 45.796875 18.796875 40.796875 
Q 14.59375 35.796875 14.59375 26.3125 
z
" id="ArialMT-98"/>
      <path d="M 42.09375 16.703125 
L 51.171875 15.578125 
Q 49.03125 7.625 43.21875 3.21875 
Q 37.40625 -1.171875 28.375 -1.171875 
Q 17 -1.171875 10.328125 5.828125 
Q 3.65625 12.84375 3.65625 25.484375 
Q 3.65625 38.578125 10.390625 45.796875 
Q 17.140625 53.03125 27.875 53.03125 
Q 38.28125 53.03125 44.875 45.953125 
Q 51.46875 38.875 51.46875 26.03125 
Q 51.46875 25.25 51.421875 23.6875 
L 12.75 23.6875 
Q 13.234375 15.140625 17.578125 10.59375 
Q 21.921875 6.0625 28.421875 6.0625 
Q 33.25 6.0625 36.671875 8.59375 
Q 40.09375 11.140625 42.09375 16.703125 
z
M 13.234375 30.90625 
L 42.1875 30.90625 
Q 41.609375 37.453125 38.875 40.71875 
Q 34.671875 45.796875 27.984375 45.796875 
Q 21.921875 45.796875 17.796875 41.75 
Q 13.671875 37.703125 13.234375 30.90625 
z
" id="ArialMT-101"/>
      <path d="M 6.5 0 
L 6.5 51.859375 
L 14.40625 51.859375 
L 14.40625 44 
Q 17.4375 49.515625 20 51.265625 
Q 22.5625 53.03125 25.640625 53.03125 
Q 30.078125 53.03125 34.671875 50.203125 
L 31.640625 42.046875 
Q 28.421875 43.953125 25.203125 43.953125 
Q 22.3125 43.953125 20.015625 42.21875 
Q 17.71875 40.484375 16.75 37.40625 
Q 15.28125 32.71875 15.28125 27.15625 
L 15.28125 0 
z
" id="ArialMT-114"/>
      <path id="ArialMT-32"/>
      <path d="M 3.328125 25.921875 
Q 3.328125 40.328125 11.328125 47.265625 
Q 18.015625 53.03125 27.640625 53.03125 
Q 38.328125 53.03125 45.109375 46.015625 
Q 51.90625 39.015625 51.90625 26.65625 
Q 51.90625 16.65625 48.90625 10.90625 
Q 45.90625 5.171875 40.15625 2 
Q 34.421875 -1.171875 27.640625 -1.171875 
Q 16.75 -1.171875 10.03125 5.8125 
Q 3.328125 12.796875 3.328125 25.921875 
z
M 12.359375 25.921875 
Q 12.359375 15.96875 16.703125 11.015625 
Q 21.046875 6.0625 27.640625 6.0625 
Q 34.1875 6.0625 38.53125 11.03125 
Q 42.875 16.015625 42.875 26.21875 
Q 42.875 35.84375 38.5 40.796875 
Q 34.125 45.75 27.640625 45.75 
Q 21.046875 45.75 16.703125 40.8125 
Q 12.359375 35.890625 12.359375 25.921875 
z
" id="ArialMT-111"/>
      <path d="M 8.6875 0 
L 8.6875 45.015625 
L 0.921875 45.015625 
L 0.921875 51.859375 
L 8.6875 51.859375 
L 8.6875 57.375 
Q 8.6875 62.59375 9.625 65.140625 
Q 10.890625 68.5625 14.078125 70.671875 
Q 17.28125 72.796875 23.046875 72.796875 
Q 26.765625 72.796875 31.25 71.921875 
L 29.9375 64.265625 
Q 27.203125 64.75 24.75 64.75 
Q 20.75 64.75 19.09375 63.03125 
Q 17.4375 61.328125 17.4375 56.640625 
L 17.4375 51.859375 
L 27.546875 51.859375 
L 27.546875 45.015625 
L 17.4375 45.015625 
L 17.4375 0 
z
" id="ArialMT-102"/>
      <path d="M 40.4375 19 
L 49.078125 17.875 
Q 47.65625 8.9375 41.8125 3.875 
Q 35.984375 -1.171875 27.484375 -1.171875 
Q 16.84375 -1.171875 10.375 5.78125 
Q 3.90625 12.75 3.90625 25.734375 
Q 3.90625 34.125 6.6875 40.421875 
Q 9.46875 46.734375 15.15625 49.875 
Q 20.84375 53.03125 27.546875 53.03125 
Q 35.984375 53.03125 41.359375 48.75 
Q 46.734375 44.484375 48.25 36.625 
L 39.703125 35.296875 
Q 38.484375 40.53125 35.375 43.15625 
Q 32.28125 45.796875 27.875 45.796875 
Q 21.234375 45.796875 17.078125 41.03125 
Q 12.9375 36.28125 12.9375 25.984375 
Q 12.9375 15.53125 16.9375 10.796875 
Q 20.953125 6.0625 27.390625 6.0625 
Q 32.5625 6.0625 36.03125 9.234375 
Q 39.5 12.40625 40.4375 19 
z
" id="ArialMT-99"/>
      <path d="M 6.390625 0 
L 6.390625 71.578125 
L 15.1875 71.578125 
L 15.1875 0 
z
" id="ArialMT-108"/>
      <path d="M 3.078125 15.484375 
L 11.765625 16.84375 
Q 12.5 11.625 15.84375 8.84375 
Q 19.1875 6.0625 25.203125 6.0625 
Q 31.25 6.0625 34.171875 8.515625 
Q 37.109375 10.984375 37.109375 14.3125 
Q 37.109375 17.28125 34.515625 19 
Q 32.71875 20.171875 25.53125 21.96875 
Q 15.875 24.421875 12.140625 26.203125 
Q 8.40625 27.984375 6.46875 31.125 
Q 4.546875 34.28125 4.546875 38.09375 
Q 4.546875 41.546875 6.125 44.5 
Q 7.71875 47.46875 10.453125 49.421875 
Q 12.5 50.921875 16.03125 51.96875 
Q 19.578125 53.03125 23.640625 53.03125 
Q 29.734375 53.03125 34.34375 51.265625 
Q 38.96875 49.515625 41.15625 46.5 
Q 43.359375 43.5 44.1875 38.484375 
L 35.59375 37.3125 
Q 35.015625 41.3125 32.203125 43.546875 
Q 29.390625 45.796875 24.265625 45.796875 
Q 18.21875 45.796875 15.625 43.796875 
Q 13.03125 41.796875 13.03125 39.109375 
Q 13.03125 37.40625 14.109375 36.03125 
Q 15.1875 34.625 17.484375 33.6875 
Q 18.796875 33.203125 25.25 31.453125 
Q 34.578125 28.953125 38.25 27.359375 
Q 41.9375 25.78125 44.03125 22.75 
Q 46.140625 19.734375 46.140625 15.234375 
Q 46.140625 10.84375 43.578125 6.953125 
Q 41.015625 3.078125 36.171875 0.953125 
Q 31.34375 -1.171875 25.25 -1.171875 
Q 15.140625 -1.171875 9.84375 3.03125 
Q 4.546875 7.234375 3.078125 15.484375 
z
" id="ArialMT-115"/>
      <path d="M 25.78125 7.859375 
L 27.046875 0.09375 
Q 23.34375 -0.6875 20.40625 -0.6875 
Q 15.625 -0.6875 12.984375 0.828125 
Q 10.359375 2.34375 9.28125 4.8125 
Q 8.203125 7.28125 8.203125 15.1875 
L 8.203125 45.015625 
L 1.765625 45.015625 
L 1.765625 51.859375 
L 8.203125 51.859375 
L 8.203125 64.703125 
L 16.9375 69.96875 
L 16.9375 51.859375 
L 25.78125 51.859375 
L 25.78125 45.015625 
L 16.9375 45.015625 
L 16.9375 14.703125 
Q 16.9375 10.9375 17.40625 9.859375 
Q 17.875 8.796875 18.921875 8.15625 
Q 19.96875 7.515625 21.921875 7.515625 
Q 23.390625 7.515625 25.78125 7.859375 
z
" id="ArialMT-116"/>
     </defs>
     <g style="fill:#262626;" transform="translate(168.750781 248.443125)scale(0.1 -0.1)">
      <use xlink:href="#ArialMT-78"/>
      <use x="72.216797" xlink:href="#ArialMT-117"/>
      <use x="127.832031" xlink:href="#ArialMT-109"/>
      <use x="211.132812" xlink:href="#ArialMT-98"/>
      <use x="266.748047" xlink:href="#ArialMT-101"/>
      <use x="322.363281" xlink:href="#ArialMT-114"/>
      <use x="355.664062" xlink:href="#ArialMT-32"/>
      <use x="383.447266" xlink:href="#ArialMT-111"/>
      <use x="439.0625" xlink:href="#ArialMT-102"/>
      <use x="466.845703" xlink:href="#ArialMT-32"/>
      <use x="494.628906" xlink:href="#ArialMT-99"/>
      <use x="544.628906" xlink:href="#ArialMT-108"/>
      <use x="566.845703" xlink:href="#ArialMT-117"/>
      <use x="622.460938" xlink:href="#ArialMT-115"/>
      <use x="672.460938" xlink:href="#ArialMT-116"/>
      <use x="700.244141" xlink:href="#ArialMT-101"/>
      <use x="755.859375" xlink:href="#ArialMT-114"/>
      <use x="789.160156" xlink:href="#ArialMT-115"/>
     </g>
    </g>
   </g>
   <g id="matplotlib.axis_2">
    <g id="ytick_1">
     <g id="line2d_17">
      <path clip-path="url(#p7fb87368e5)" d="M 43.30625 203.709675 
L 378.10625 203.709675 
" style="fill:none;stroke:#cccccc;stroke-linecap:round;stroke-width:0.8;"/>
     </g>
     <g id="line2d_18"/>
     <g id="text_10">
      <!-- 0.01 -->
      <defs>
       <path d="M 9.078125 0 
L 9.078125 10.015625 
L 19.09375 10.015625 
L 19.09375 0 
z
" id="ArialMT-46"/>
      </defs>
      <g style="fill:#262626;" transform="translate(20.345313 207.288581)scale(0.1 -0.1)">
       <use xlink:href="#ArialMT-48"/>
       <use x="55.615234" xlink:href="#ArialMT-46"/>
       <use x="83.398438" xlink:href="#ArialMT-48"/>
       <use x="139.013672" xlink:href="#ArialMT-49"/>
      </g>
     </g>
    </g>
    <g id="ytick_2">
     <g id="line2d_19">
      <path clip-path="url(#p7fb87368e5)" d="M 43.30625 172.59209 
L 378.10625 172.59209 
" style="fill:none;stroke:#cccccc;stroke-linecap:round;stroke-width:0.8;"/>
     </g>
     <g id="line2d_20"/>
     <g id="text_11">
      <!-- 0.02 -->
      <g style="fill:#262626;" transform="translate(20.345313 176.170996)scale(0.1 -0.1)">
       <use xlink:href="#ArialMT-48"/>
       <use x="55.615234" xlink:href="#ArialMT-46"/>
       <use x="83.398438" xlink:href="#ArialMT-48"/>
       <use x="139.013672" xlink:href="#ArialMT-50"/>
      </g>
     </g>
    </g>
    <g id="ytick_3">
     <g id="line2d_21">
      <path clip-path="url(#p7fb87368e5)" d="M 43.30625 141.474504 
L 378.10625 141.474504 
" style="fill:none;stroke:#cccccc;stroke-linecap:round;stroke-width:0.8;"/>
     </g>
     <g id="line2d_22"/>
     <g id="text_12">
      <!-- 0.03 -->
      <g style="fill:#262626;" transform="translate(20.345313 145.053411)scale(0.1 -0.1)">
       <use xlink:href="#ArialMT-48"/>
       <use x="55.615234" xlink:href="#ArialMT-46"/>
       <use x="83.398438" xlink:href="#ArialMT-48"/>
       <use x="139.013672" xlink:href="#ArialMT-51"/>
      </g>
     </g>
    </g>
    <g id="ytick_4">
     <g id="line2d_23">
      <path clip-path="url(#p7fb87368e5)" d="M 43.30625 110.356919 
L 378.10625 110.356919 
" style="fill:none;stroke:#cccccc;stroke-linecap:round;stroke-width:0.8;"/>
     </g>
     <g id="line2d_24"/>
     <g id="text_13">
      <!-- 0.04 -->
      <g style="fill:#262626;" transform="translate(20.345313 113.935825)scale(0.1 -0.1)">
       <use xlink:href="#ArialMT-48"/>
       <use x="55.615234" xlink:href="#ArialMT-46"/>
       <use x="83.398438" xlink:href="#ArialMT-48"/>
       <use x="139.013672" xlink:href="#ArialMT-52"/>
      </g>
     </g>
    </g>
    <g id="ytick_5">
     <g id="line2d_25">
      <path clip-path="url(#p7fb87368e5)" d="M 43.30625 79.239334 
L 378.10625 79.239334 
" style="fill:none;stroke:#cccccc;stroke-linecap:round;stroke-width:0.8;"/>
     </g>
     <g id="line2d_26"/>
     <g id="text_14">
      <!-- 0.05 -->
      <g style="fill:#262626;" transform="translate(20.345313 82.81824)scale(0.1 -0.1)">
       <use xlink:href="#ArialMT-48"/>
       <use x="55.615234" xlink:href="#ArialMT-46"/>
       <use x="83.398438" xlink:href="#ArialMT-48"/>
       <use x="139.013672" xlink:href="#ArialMT-53"/>
      </g>
     </g>
    </g>
    <g id="ytick_6">
     <g id="line2d_27">
      <path clip-path="url(#p7fb87368e5)" d="M 43.30625 48.121748 
L 378.10625 48.121748 
" style="fill:none;stroke:#cccccc;stroke-linecap:round;stroke-width:0.8;"/>
     </g>
     <g id="line2d_28"/>
     <g id="text_15">
      <!-- 0.06 -->
      <g style="fill:#262626;" transform="translate(20.345313 51.700655)scale(0.1 -0.1)">
       <use xlink:href="#ArialMT-48"/>
       <use x="55.615234" xlink:href="#ArialMT-46"/>
       <use x="83.398438" xlink:href="#ArialMT-48"/>
       <use x="139.013672" xlink:href="#ArialMT-54"/>
      </g>
     </g>
    </g>
    <g id="ytick_7">
     <g id="line2d_29">
      <path clip-path="url(#p7fb87368e5)" d="M 43.30625 17.004163 
L 378.10625 17.004163 
" style="fill:none;stroke:#cccccc;stroke-linecap:round;stroke-width:0.8;"/>
     </g>
     <g id="line2d_30"/>
     <g id="text_16">
      <!-- 0.07 -->
      <g style="fill:#262626;" transform="translate(20.345313 20.583069)scale(0.1 -0.1)">
       <use xlink:href="#ArialMT-48"/>
       <use x="55.615234" xlink:href="#ArialMT-46"/>
       <use x="83.398438" xlink:href="#ArialMT-48"/>
       <use x="139.013672" xlink:href="#ArialMT-55"/>
      </g>
     </g>
    </g>
    <g id="text_17">
     <!-- ARI and AMI -->
     <defs>
      <path d="M -0.140625 0 
L 27.34375 71.578125 
L 37.546875 71.578125 
L 66.84375 0 
L 56.0625 0 
L 47.703125 21.6875 
L 17.78125 21.6875 
L 9.90625 0 
z
M 20.515625 29.390625 
L 44.78125 29.390625 
L 37.3125 49.21875 
Q 33.890625 58.25 32.234375 64.0625 
Q 30.859375 57.171875 28.375 50.390625 
z
" id="ArialMT-65"/>
      <path d="M 7.859375 0 
L 7.859375 71.578125 
L 39.59375 71.578125 
Q 49.171875 71.578125 54.140625 69.640625 
Q 59.125 67.71875 62.109375 62.828125 
Q 65.09375 57.953125 65.09375 52.046875 
Q 65.09375 44.4375 60.15625 39.203125 
Q 55.21875 33.984375 44.921875 32.5625 
Q 48.6875 30.765625 50.640625 29 
Q 54.78125 25.203125 58.5 19.484375 
L 70.953125 0 
L 59.03125 0 
L 49.5625 14.890625 
Q 45.40625 21.34375 42.71875 24.75 
Q 40.046875 28.171875 37.921875 29.53125 
Q 35.796875 30.90625 33.59375 31.453125 
Q 31.984375 31.78125 28.328125 31.78125 
L 17.328125 31.78125 
L 17.328125 0 
z
M 17.328125 39.984375 
L 37.703125 39.984375 
Q 44.1875 39.984375 47.84375 41.328125 
Q 51.515625 42.671875 53.421875 45.625 
Q 55.328125 48.578125 55.328125 52.046875 
Q 55.328125 57.125 51.640625 60.390625 
Q 47.953125 63.671875 39.984375 63.671875 
L 17.328125 63.671875 
z
" id="ArialMT-82"/>
      <path d="M 9.328125 0 
L 9.328125 71.578125 
L 18.796875 71.578125 
L 18.796875 0 
z
" id="ArialMT-73"/>
      <path d="M 40.4375 6.390625 
Q 35.546875 2.25 31.03125 0.53125 
Q 26.515625 -1.171875 21.34375 -1.171875 
Q 12.796875 -1.171875 8.203125 3 
Q 3.609375 7.171875 3.609375 13.671875 
Q 3.609375 17.484375 5.34375 20.625 
Q 7.078125 23.78125 9.890625 25.6875 
Q 12.703125 27.59375 16.21875 28.5625 
Q 18.796875 29.25 24.03125 29.890625 
Q 34.671875 31.15625 39.703125 32.90625 
Q 39.75 34.71875 39.75 35.203125 
Q 39.75 40.578125 37.25 42.78125 
Q 33.890625 45.75 27.25 45.75 
Q 21.046875 45.75 18.09375 43.578125 
Q 15.140625 41.40625 13.71875 35.890625 
L 5.125 37.0625 
Q 6.296875 42.578125 8.984375 45.96875 
Q 11.671875 49.359375 16.75 51.1875 
Q 21.828125 53.03125 28.515625 53.03125 
Q 35.15625 53.03125 39.296875 51.46875 
Q 43.453125 49.90625 45.40625 47.53125 
Q 47.359375 45.171875 48.140625 41.546875 
Q 48.578125 39.3125 48.578125 33.453125 
L 48.578125 21.734375 
Q 48.578125 9.46875 49.140625 6.21875 
Q 49.703125 2.984375 51.375 0 
L 42.1875 0 
Q 40.828125 2.734375 40.4375 6.390625 
z
M 39.703125 26.03125 
Q 34.90625 24.078125 25.34375 22.703125 
Q 19.921875 21.921875 17.671875 20.9375 
Q 15.4375 19.96875 14.203125 18.09375 
Q 12.984375 16.21875 12.984375 13.921875 
Q 12.984375 10.40625 15.640625 8.0625 
Q 18.3125 5.71875 23.4375 5.71875 
Q 28.515625 5.71875 32.46875 7.9375 
Q 36.421875 10.15625 38.28125 14.015625 
Q 39.703125 17 39.703125 22.796875 
z
" id="ArialMT-97"/>
      <path d="M 6.59375 0 
L 6.59375 51.859375 
L 14.5 51.859375 
L 14.5 44.484375 
Q 20.21875 53.03125 31 53.03125 
Q 35.6875 53.03125 39.625 51.34375 
Q 43.5625 49.65625 45.515625 46.921875 
Q 47.46875 44.1875 48.25 40.4375 
Q 48.734375 37.984375 48.734375 31.890625 
L 48.734375 0 
L 39.9375 0 
L 39.9375 31.546875 
Q 39.9375 36.921875 38.90625 39.578125 
Q 37.890625 42.234375 35.28125 43.8125 
Q 32.671875 45.40625 29.15625 45.40625 
Q 23.53125 45.40625 19.453125 41.84375 
Q 15.375 38.28125 15.375 28.328125 
L 15.375 0 
z
" id="ArialMT-110"/>
      <path d="M 40.234375 0 
L 40.234375 6.546875 
Q 35.296875 -1.171875 25.734375 -1.171875 
Q 19.53125 -1.171875 14.328125 2.25 
Q 9.125 5.671875 6.265625 11.796875 
Q 3.421875 17.921875 3.421875 25.875 
Q 3.421875 33.640625 6 39.96875 
Q 8.59375 46.296875 13.765625 49.65625 
Q 18.953125 53.03125 25.34375 53.03125 
Q 30.03125 53.03125 33.6875 51.046875 
Q 37.359375 49.078125 39.65625 45.90625 
L 39.65625 71.578125 
L 48.390625 71.578125 
L 48.390625 0 
z
M 12.453125 25.875 
Q 12.453125 15.921875 16.640625 10.984375 
Q 20.84375 6.0625 26.5625 6.0625 
Q 32.328125 6.0625 36.34375 10.765625 
Q 40.375 15.484375 40.375 25.140625 
Q 40.375 35.796875 36.265625 40.765625 
Q 32.171875 45.75 26.171875 45.75 
Q 20.3125 45.75 16.375 40.96875 
Q 12.453125 36.1875 12.453125 25.875 
z
" id="ArialMT-100"/>
      <path d="M 7.421875 0 
L 7.421875 71.578125 
L 21.6875 71.578125 
L 38.625 20.90625 
Q 40.96875 13.8125 42.046875 10.296875 
Q 43.265625 14.203125 45.84375 21.78125 
L 62.984375 71.578125 
L 75.734375 71.578125 
L 75.734375 0 
L 66.609375 0 
L 66.609375 59.90625 
L 45.796875 0 
L 37.25 0 
L 16.546875 60.9375 
L 16.546875 0 
z
" id="ArialMT-77"/>
     </defs>
     <g style="fill:#262626;" transform="translate(14.357813 144.259844)rotate(-90)scale(0.1 -0.1)">
      <use xlink:href="#ArialMT-65"/>
      <use x="66.699219" xlink:href="#ArialMT-82"/>
      <use x="138.916016" xlink:href="#ArialMT-73"/>
      <use x="166.699219" xlink:href="#ArialMT-32"/>
      <use x="194.482422" xlink:href="#ArialMT-97"/>
      <use x="250.097656" xlink:href="#ArialMT-110"/>
      <use x="305.712891" xlink:href="#ArialMT-100"/>
      <use x="361.328125" xlink:href="#ArialMT-32"/>
      <use x="389.033203" xlink:href="#ArialMT-65"/>
      <use x="455.732422" xlink:href="#ArialMT-77"/>
      <use x="539.033203" xlink:href="#ArialMT-73"/>
     </g>
    </g>
   </g>
   <g id="PolyCollection_1">
    <defs>
     <path d="M 58.524432 -204.437217 
L 58.524432 -203.024095 
L 62.693797 -172.792941 
L 66.863162 -145.377362 
L 71.032526 -119.379724 
L 75.201891 -134.619404 
L 79.371256 -112.676116 
L 83.540621 -100.807502 
L 87.709986 -104.145905 
L 91.879351 -105.086896 
L 100.218081 -98.360006 
L 108.55681 -88.096053 
L 116.89554 -79.395407 
L 125.23427 -82.167751 
L 133.573 -71.865839 
L 141.911729 -68.208624 
L 150.250459 -67.929712 
L 158.589189 -62.70652 
L 166.927919 -62.096829 
L 175.266649 -63.597682 
L 196.113473 -56.680191 
L 216.960297 -54.64718 
L 237.807122 -53.644685 
L 258.653946 -52.215691 
L 279.500771 -50.075679 
L 300.347595 -45.496137 
L 321.194419 -43.02801 
L 342.041244 -43.398763 
L 362.888068 -42.874261 
L 362.888068 -48.428631 
L 362.888068 -48.428631 
L 342.041244 -49.196389 
L 321.194419 -49.554838 
L 300.347595 -51.591574 
L 279.500771 -52.275914 
L 258.653946 -58.934951 
L 237.807122 -58.330146 
L 216.960297 -62.282967 
L 196.113473 -66.786845 
L 175.266649 -74.431886 
L 166.927919 -75.031482 
L 158.589189 -74.120204 
L 150.250459 -82.87665 
L 141.911729 -85.953801 
L 133.573 -83.170766 
L 125.23427 -87.096316 
L 116.89554 -92.877376 
L 108.55681 -98.480853 
L 100.218081 -110.713181 
L 91.879351 -118.026691 
L 87.709986 -125.665696 
L 83.540621 -129.191861 
L 79.371256 -127.326788 
L 75.201891 -150.277782 
L 71.032526 -158.527124 
L 66.863162 -180.267769 
L 62.693797 -217.836509 
L 58.524432 -204.437217 
z
" id="mb1b9c632a0" style="stroke:#4682b4;stroke-opacity:0.15;"/>
    </defs>
    <g clip-path="url(#p7fb87368e5)">
     <use style="fill:#4682b4;fill-opacity:0.15;stroke:#4682b4;stroke-opacity:0.15;" x="0" xlink:href="#mb1b9c632a0" y="257.630625"/>
    </g>
   </g>
   <g id="PolyCollection_2">
    <defs>
     <path d="M 58.524432 -196.052297 
L 58.524432 -194.920744 
L 62.693797 -214.295992 
L 66.863162 -224.619486 
L 71.032526 -191.283423 
L 75.201891 -195.648037 
L 79.371256 -170.626003 
L 83.540621 -164.975171 
L 87.709986 -155.631231 
L 91.879351 -162.622364 
L 100.218081 -170.969895 
L 108.55681 -161.36228 
L 116.89554 -158.89042 
L 125.23427 -168.750161 
L 133.573 -164.660697 
L 141.911729 -161.762597 
L 150.250459 -168.349555 
L 158.589189 -157.295695 
L 166.927919 -154.633641 
L 175.266649 -155.991577 
L 196.113473 -154.754579 
L 216.960297 -156.816681 
L 237.807122 -150.527946 
L 258.653946 -155.696383 
L 279.500771 -154.698463 
L 300.347595 -152.083637 
L 321.194419 -148.674637 
L 342.041244 -146.814833 
L 362.888068 -155.534896 
L 362.888068 -166.563214 
L 362.888068 -166.563214 
L 342.041244 -166.614311 
L 321.194419 -161.28691 
L 300.347595 -164.22256 
L 279.500771 -169.424743 
L 258.653946 -176.572646 
L 237.807122 -165.262721 
L 216.960297 -171.583865 
L 196.113473 -171.042269 
L 175.266649 -184.882822 
L 166.927919 -173.078513 
L 158.589189 -176.36959 
L 150.250459 -188.740926 
L 141.911729 -181.729364 
L 133.573 -179.117406 
L 125.23427 -181.759115 
L 116.89554 -188.937694 
L 108.55681 -181.974234 
L 100.218081 -182.990037 
L 91.879351 -180.865919 
L 87.709986 -186.724643 
L 83.540621 -180.034366 
L 79.371256 -181.982062 
L 75.201891 -207.153471 
L 71.032526 -218.567103 
L 66.863162 -240.546989 
L 62.693797 -236.957367 
L 58.524432 -196.052297 
z
" id="m462f5144e7" style="stroke:#8fbc8f;stroke-opacity:0.15;"/>
    </defs>
    <g clip-path="url(#p7fb87368e5)">
     <use style="fill:#8fbc8f;fill-opacity:0.15;stroke:#8fbc8f;stroke-opacity:0.15;" x="0" xlink:href="#m462f5144e7" y="257.630625"/>
    </g>
   </g>
   <g id="line2d_31">
    <path clip-path="url(#p7fb87368e5)" d="M 58.524432 53.938573 
L 62.693797 58.80049 
L 66.863162 98.008204 
L 71.032526 110.350083 
L 75.201891 116.045205 
L 79.371256 137.224097 
L 83.540621 146.526204 
L 87.709986 143.372118 
L 91.879351 146.153595 
L 100.218081 151.262581 
L 108.55681 166.030075 
L 116.89554 172.763449 
L 125.23427 174.23582 
L 133.573 178.873008 
L 141.911729 181.654825 
L 150.250459 181.564323 
L 158.589189 190.346773 
L 166.927919 188.928746 
L 175.266649 187.899975 
L 196.113473 194.583111 
L 216.960297 198.952256 
L 237.807122 202.274502 
L 258.653946 202.144995 
L 279.500771 206.171153 
L 300.347595 209.282779 
L 321.194419 210.51669 
L 342.041244 211.532184 
L 362.888068 211.824555 
" style="fill:none;stroke:#4682b4;stroke-linecap:round;stroke-width:3;"/>
   </g>
   <g id="line2d_32">
    <path clip-path="url(#p7fb87368e5)" d="M 58.524432 155.426103 
L 62.693797 129.146208 
L 66.863162 145.55863 
L 71.032526 116.228769 
L 75.201891 97.210529 
L 79.371256 127.86665 
L 83.540621 129.978148 
L 87.709986 136.854892 
L 91.879351 135.753709 
L 100.218081 158.631208 
L 108.55681 165.380668 
L 116.89554 172.693653 
L 125.23427 177.777009 
L 133.573 179.978434 
L 141.911729 181.173278 
L 150.250459 184.991724 
L 158.589189 189.225877 
L 166.927919 185.949818 
L 175.266649 189.060558 
L 196.113473 192.077603 
L 216.960297 195.468283 
L 237.807122 199.83771 
L 258.653946 200.999096 
L 279.500771 203.373088 
L 300.347595 204.778372 
L 321.194419 207.531928 
L 342.041244 207.418607 
L 362.888068 209.218192 
" style="fill:none;stroke:#4682b4;stroke-dasharray:4,2;stroke-dashoffset:0;stroke-width:2;"/>
   </g>
   <g id="line2d_33">
    <path clip-path="url(#p7fb87368e5)" d="M 58.524432 62.044569 
L 62.693797 30.682733 
L 66.863162 21.941419 
L 71.032526 48.567189 
L 75.201891 55.624834 
L 79.371256 82.425883 
L 83.540621 86.153084 
L 87.709986 84.99247 
L 91.879351 88.192914 
L 100.218081 79.538415 
L 108.55681 87.779255 
L 116.89554 88.621808 
L 125.23427 83.168592 
L 133.573 87.837751 
L 141.911729 85.69128 
L 150.250459 80.28072 
L 158.589189 91.078196 
L 166.927919 91.46288 
L 175.266649 85.524724 
L 196.113473 93.885563 
L 216.960297 94.396361 
L 237.807122 100.592538 
L 258.653946 91.612929 
L 279.500771 96.166434 
L 300.347595 97.110737 
L 321.194419 100.856247 
L 342.041244 98.978535 
L 362.888068 98.037311 
" style="fill:none;stroke:#8fbc8f;stroke-linecap:round;stroke-width:3;"/>
   </g>
   <g id="line2d_34">
    <path clip-path="url(#p7fb87368e5)" d="M 58.524432 123.000063 
L 62.693797 119.030309 
L 66.863162 120.438832 
L 71.032526 87.259219 
L 75.201891 37.887479 
L 79.371256 52.183249 
L 83.540621 57.479815 
L 87.709986 60.954569 
L 91.879351 62.508774 
L 100.218081 80.260936 
L 108.55681 88.951172 
L 116.89554 88.520583 
L 125.23427 88.733815 
L 133.573 89.06179 
L 141.911729 89.264745 
L 150.250459 86.269914 
L 158.589189 96.632902 
L 166.927919 85.373698 
L 175.266649 87.726057 
L 196.113473 86.579372 
L 216.960297 84.656718 
L 237.807122 84.816428 
L 258.653946 85.987615 
L 279.500771 82.189067 
L 300.347595 79.906754 
L 321.194419 81.234632 
L 342.041244 80.436969 
L 362.888068 81.316463 
" style="fill:none;stroke:#8fbc8f;stroke-dasharray:4,2;stroke-dashoffset:0;stroke-width:2;"/>
   </g>
   <g id="patch_3">
    <path d="M 43.30625 224.64 
L 43.30625 7.2 
" style="fill:none;stroke:#cccccc;stroke-linecap:square;stroke-linejoin:miter;"/>
   </g>
   <g id="patch_4">
    <path d="M 378.10625 224.64 
L 378.10625 7.2 
" style="fill:none;stroke:#cccccc;stroke-linecap:square;stroke-linejoin:miter;"/>
   </g>
   <g id="patch_5">
    <path d="M 43.30625 224.64 
L 378.10625 224.64 
" style="fill:none;stroke:#cccccc;stroke-linecap:square;stroke-linejoin:miter;"/>
   </g>
   <g id="patch_6">
    <path d="M 43.30625 7.2 
L 378.10625 7.2 
" style="fill:none;stroke:#cccccc;stroke-linecap:square;stroke-linejoin:miter;"/>
   </g>
   <g id="legend_1">
    <g id="line2d_35">
     <path d="M 194.93125 19.8875 
L 214.93125 19.8875 
" style="fill:none;stroke:#4682b4;stroke-linecap:round;stroke-width:3;"/>
    </g>
    <g id="line2d_36"/>
    <g id="text_18">
     <!-- Adjusted Rand Index AE8 -->
     <defs>
      <path d="M 6.546875 61.375 
L 6.546875 71.578125 
L 15.328125 71.578125 
L 15.328125 61.375 
z
M -4.59375 -20.125 
L -2.9375 -12.640625 
Q -0.296875 -13.328125 1.21875 -13.328125 
Q 3.90625 -13.328125 5.21875 -11.546875 
Q 6.546875 -9.765625 6.546875 -2.640625 
L 6.546875 51.859375 
L 15.328125 51.859375 
L 15.328125 -2.828125 
Q 15.328125 -12.40625 12.84375 -16.15625 
Q 9.671875 -21.046875 2.296875 -21.046875 
Q -1.265625 -21.046875 -4.59375 -20.125 
z
" id="ArialMT-106"/>
      <path d="M 0.734375 0 
L 19.671875 26.953125 
L 2.15625 51.859375 
L 13.140625 51.859375 
L 21.09375 39.703125 
Q 23.34375 36.234375 24.703125 33.890625 
Q 26.859375 37.109375 28.65625 39.59375 
L 37.40625 51.859375 
L 47.90625 51.859375 
L 29.984375 27.4375 
L 49.265625 0 
L 38.484375 0 
L 27.828125 16.109375 
L 25 20.453125 
L 11.375 0 
z
" id="ArialMT-120"/>
      <path d="M 7.90625 0 
L 7.90625 71.578125 
L 59.671875 71.578125 
L 59.671875 63.140625 
L 17.390625 63.140625 
L 17.390625 41.21875 
L 56.984375 41.21875 
L 56.984375 32.8125 
L 17.390625 32.8125 
L 17.390625 8.453125 
L 61.328125 8.453125 
L 61.328125 0 
z
" id="ArialMT-69"/>
      <path d="M 17.671875 38.8125 
Q 12.203125 40.828125 9.5625 44.53125 
Q 6.9375 48.25 6.9375 53.421875 
Q 6.9375 61.234375 12.546875 66.546875 
Q 18.171875 71.875 27.484375 71.875 
Q 36.859375 71.875 42.578125 66.421875 
Q 48.296875 60.984375 48.296875 53.171875 
Q 48.296875 48.1875 45.671875 44.5 
Q 43.0625 40.828125 37.75 38.8125 
Q 44.34375 36.671875 47.78125 31.875 
Q 51.21875 27.09375 51.21875 20.453125 
Q 51.21875 11.28125 44.71875 5.03125 
Q 38.234375 -1.21875 27.640625 -1.21875 
Q 17.046875 -1.21875 10.546875 5.046875 
Q 4.046875 11.328125 4.046875 20.703125 
Q 4.046875 27.6875 7.59375 32.390625 
Q 11.140625 37.109375 17.671875 38.8125 
z
M 15.921875 53.71875 
Q 15.921875 48.640625 19.1875 45.40625 
Q 22.46875 42.1875 27.6875 42.1875 
Q 32.765625 42.1875 36.015625 45.375 
Q 39.265625 48.578125 39.265625 53.21875 
Q 39.265625 58.0625 35.90625 61.359375 
Q 32.5625 64.65625 27.59375 64.65625 
Q 22.5625 64.65625 19.234375 61.421875 
Q 15.921875 58.203125 15.921875 53.71875 
z
M 13.09375 20.65625 
Q 13.09375 16.890625 14.875 13.375 
Q 16.65625 9.859375 20.171875 7.921875 
Q 23.6875 6 27.734375 6 
Q 34.03125 6 38.125 10.046875 
Q 42.234375 14.109375 42.234375 20.359375 
Q 42.234375 26.703125 38.015625 30.859375 
Q 33.796875 35.015625 27.4375 35.015625 
Q 21.234375 35.015625 17.15625 30.90625 
Q 13.09375 26.8125 13.09375 20.65625 
z
" id="ArialMT-56"/>
     </defs>
     <g style="fill:#262626;" transform="translate(222.93125 23.3875)scale(0.1 -0.1)">
      <use xlink:href="#ArialMT-65"/>
      <use x="66.699219" xlink:href="#ArialMT-100"/>
      <use x="122.314453" xlink:href="#ArialMT-106"/>
      <use x="144.53125" xlink:href="#ArialMT-117"/>
      <use x="200.146484" xlink:href="#ArialMT-115"/>
      <use x="250.146484" xlink:href="#ArialMT-116"/>
      <use x="277.929688" xlink:href="#ArialMT-101"/>
      <use x="333.544922" xlink:href="#ArialMT-100"/>
      <use x="389.160156" xlink:href="#ArialMT-32"/>
      <use x="416.943359" xlink:href="#ArialMT-82"/>
      <use x="489.160156" xlink:href="#ArialMT-97"/>
      <use x="544.775391" xlink:href="#ArialMT-110"/>
      <use x="600.390625" xlink:href="#ArialMT-100"/>
      <use x="656.005859" xlink:href="#ArialMT-32"/>
      <use x="683.789062" xlink:href="#ArialMT-73"/>
      <use x="711.572266" xlink:href="#ArialMT-110"/>
      <use x="767.1875" xlink:href="#ArialMT-100"/>
      <use x="822.802734" xlink:href="#ArialMT-101"/>
      <use x="878.417969" xlink:href="#ArialMT-120"/>
      <use x="928.417969" xlink:href="#ArialMT-32"/>
      <use x="956.123047" xlink:href="#ArialMT-65"/>
      <use x="1022.822266" xlink:href="#ArialMT-69"/>
      <use x="1089.521484" xlink:href="#ArialMT-56"/>
     </g>
    </g>
    <g id="line2d_37">
     <path d="M 194.93125 34.15 
L 214.93125 34.15 
" style="fill:none;stroke:#4682b4;stroke-dasharray:4,2;stroke-dashoffset:0;stroke-width:2;"/>
    </g>
    <g id="line2d_38"/>
    <g id="text_19">
     <!-- Adjusted Rand Index -->
     <g style="fill:#262626;" transform="translate(222.93125 37.65)scale(0.1 -0.1)">
      <use xlink:href="#ArialMT-65"/>
      <use x="66.699219" xlink:href="#ArialMT-100"/>
      <use x="122.314453" xlink:href="#ArialMT-106"/>
      <use x="144.53125" xlink:href="#ArialMT-117"/>
      <use x="200.146484" xlink:href="#ArialMT-115"/>
      <use x="250.146484" xlink:href="#ArialMT-116"/>
      <use x="277.929688" xlink:href="#ArialMT-101"/>
      <use x="333.544922" xlink:href="#ArialMT-100"/>
      <use x="389.160156" xlink:href="#ArialMT-32"/>
      <use x="416.943359" xlink:href="#ArialMT-82"/>
      <use x="489.160156" xlink:href="#ArialMT-97"/>
      <use x="544.775391" xlink:href="#ArialMT-110"/>
      <use x="600.390625" xlink:href="#ArialMT-100"/>
      <use x="656.005859" xlink:href="#ArialMT-32"/>
      <use x="683.789062" xlink:href="#ArialMT-73"/>
      <use x="711.572266" xlink:href="#ArialMT-110"/>
      <use x="767.1875" xlink:href="#ArialMT-100"/>
      <use x="822.802734" xlink:href="#ArialMT-101"/>
      <use x="878.417969" xlink:href="#ArialMT-120"/>
     </g>
    </g>
    <g id="line2d_39">
     <path d="M 194.93125 48.534375 
L 214.93125 48.534375 
" style="fill:none;stroke:#8fbc8f;stroke-linecap:round;stroke-width:3;"/>
    </g>
    <g id="line2d_40"/>
    <g id="text_20">
     <!-- Adjusted Mutual Information AE8 -->
     <defs>
      <path d="M 6.640625 61.46875 
L 6.640625 71.578125 
L 15.4375 71.578125 
L 15.4375 61.46875 
z
M 6.640625 0 
L 6.640625 51.859375 
L 15.4375 51.859375 
L 15.4375 0 
z
" id="ArialMT-105"/>
     </defs>
     <g style="fill:#262626;" transform="translate(222.93125 52.034375)scale(0.1 -0.1)">
      <use xlink:href="#ArialMT-65"/>
      <use x="66.699219" xlink:href="#ArialMT-100"/>
      <use x="122.314453" xlink:href="#ArialMT-106"/>
      <use x="144.53125" xlink:href="#ArialMT-117"/>
      <use x="200.146484" xlink:href="#ArialMT-115"/>
      <use x="250.146484" xlink:href="#ArialMT-116"/>
      <use x="277.929688" xlink:href="#ArialMT-101"/>
      <use x="333.544922" xlink:href="#ArialMT-100"/>
      <use x="389.160156" xlink:href="#ArialMT-32"/>
      <use x="416.943359" xlink:href="#ArialMT-77"/>
      <use x="500.244141" xlink:href="#ArialMT-117"/>
      <use x="555.859375" xlink:href="#ArialMT-116"/>
      <use x="583.642578" xlink:href="#ArialMT-117"/>
      <use x="639.257812" xlink:href="#ArialMT-97"/>
      <use x="694.873047" xlink:href="#ArialMT-108"/>
      <use x="717.089844" xlink:href="#ArialMT-32"/>
      <use x="744.873047" xlink:href="#ArialMT-73"/>
      <use x="772.65625" xlink:href="#ArialMT-110"/>
      <use x="828.271484" xlink:href="#ArialMT-102"/>
      <use x="856.054688" xlink:href="#ArialMT-111"/>
      <use x="911.669922" xlink:href="#ArialMT-114"/>
      <use x="944.970703" xlink:href="#ArialMT-109"/>
      <use x="1028.271484" xlink:href="#ArialMT-97"/>
      <use x="1083.886719" xlink:href="#ArialMT-116"/>
      <use x="1111.669922" xlink:href="#ArialMT-105"/>
      <use x="1133.886719" xlink:href="#ArialMT-111"/>
      <use x="1189.501953" xlink:href="#ArialMT-110"/>
      <use x="1245.117188" xlink:href="#ArialMT-32"/>
      <use x="1272.822266" xlink:href="#ArialMT-65"/>
      <use x="1339.521484" xlink:href="#ArialMT-69"/>
      <use x="1406.220703" xlink:href="#ArialMT-56"/>
     </g>
    </g>
    <g id="line2d_41">
     <path d="M 194.93125 62.91875 
L 214.93125 62.91875 
" style="fill:none;stroke:#8fbc8f;stroke-dasharray:4,2;stroke-dashoffset:0;stroke-width:2;"/>
    </g>
    <g id="line2d_42"/>
    <g id="text_21">
     <!-- Adjusted Mutual Information -->
     <g style="fill:#262626;" transform="translate(222.93125 66.41875)scale(0.1 -0.1)">
      <use xlink:href="#ArialMT-65"/>
      <use x="66.699219" xlink:href="#ArialMT-100"/>
      <use x="122.314453" xlink:href="#ArialMT-106"/>
      <use x="144.53125" xlink:href="#ArialMT-117"/>
      <use x="200.146484" xlink:href="#ArialMT-115"/>
      <use x="250.146484" xlink:href="#ArialMT-116"/>
      <use x="277.929688" xlink:href="#ArialMT-101"/>
      <use x="333.544922" xlink:href="#ArialMT-100"/>
      <use x="389.160156" xlink:href="#ArialMT-32"/>
      <use x="416.943359" xlink:href="#ArialMT-77"/>
      <use x="500.244141" xlink:href="#ArialMT-117"/>
      <use x="555.859375" xlink:href="#ArialMT-116"/>
      <use x="583.642578" xlink:href="#ArialMT-117"/>
      <use x="639.257812" xlink:href="#ArialMT-97"/>
      <use x="694.873047" xlink:href="#ArialMT-108"/>
      <use x="717.089844" xlink:href="#ArialMT-32"/>
      <use x="744.873047" xlink:href="#ArialMT-73"/>
      <use x="772.65625" xlink:href="#ArialMT-110"/>
      <use x="828.271484" xlink:href="#ArialMT-102"/>
      <use x="856.054688" xlink:href="#ArialMT-111"/>
      <use x="911.669922" xlink:href="#ArialMT-114"/>
      <use x="944.970703" xlink:href="#ArialMT-109"/>
      <use x="1028.271484" xlink:href="#ArialMT-97"/>
      <use x="1083.886719" xlink:href="#ArialMT-116"/>
      <use x="1111.669922" xlink:href="#ArialMT-105"/>
      <use x="1133.886719" xlink:href="#ArialMT-111"/>
      <use x="1189.501953" xlink:href="#ArialMT-110"/>
     </g>
    </g>
   </g>
  </g>
 </g>
 <defs>
  <clipPath id="p7fb87368e5">
   <rect height="217.44" width="334.8" x="43.30625" y="7.2"/>
  </clipPath>
 </defs>
</svg>
