<svg width="503.323" height="363.321" viewBox="0 0 377.492 272.491" xmlns="http://www.w3.org/2000/svg" xmlns:xlink="http://www.w3.org/1999/xlink" stroke-linejoin="round" overflow="hidden"><defs></defs><defs><clipPath id="p716647695e"><rect x="35.4922" y="21.9431" width="334.8" height="217.44"/></clipPath></defs><g id="figure_1"><g id="patch_1"><path d="M0 272.491 377.492 272.491 377.492 0 0 0Z" fill="#FFFFFF"/></g><g id="axes_1"><g id="patch_2"><path d="M35.4922 239.383 370.292 239.383 370.292 21.9431 35.4922 21.9431Z" fill="#FFFFFF"/></g><g id="matplotlib.axis_1"><g id="xtick_1"><g id="line2d_1"><path d="M50.7104 239.383 50.7104 21.9431" stroke="#CCCCCC" stroke-width="0.8" stroke-linecap="round" fill="none" clip-path="url(#p716647695e)"/></g><g id="line2d_2"></g><g id="text_1"><defs><path d="M52.8281 31.2031 5.5625 31.2031 5.5625 39.4063 52.8281 39.4063Z" id="ArialMT-8722"/><path d="M4.15625 18.75 13.375 19.5313C14.0625 15.0417 15.651 11.6615 18.1406 9.39063 20.6302 7.13021 23.6354 6 27.1563 6 31.3854 6 34.9635 7.59375 37.8906 10.7813 40.8177 13.9792 42.2813 18.2135 42.2813 23.4844 42.2813 28.4948 40.875 32.4479 38.0625 35.3438 35.25 38.25 31.5625 39.7031 27 39.7031 24.1667 39.7031 21.6094 39.0573 19.3281 37.7656 17.0573 36.4844 15.2708 34.8177 13.9688 32.7656L5.71875 33.8438 12.6406 70.6094 48.25 70.6094 48.25 62.2031 19.6719 62.2031 15.8281 42.9688C20.1198 45.9688 24.625 47.4688 29.3438 47.4688 35.5938 47.4688 40.8646 45.3021 45.1563 40.9688 49.4583 36.6354 51.6094 31.0677 51.6094 24.2656 51.6094 17.7865 49.724 12.1875 45.9531 7.46875 41.3594 1.67708 35.0938-1.21875 27.1563-1.21875 20.6458-1.21875 15.3281 0.604167 11.2031 4.25 7.08854 7.89583 4.73958 12.7292 4.15625 18.75Z" id="ArialMT-53"/></defs><g fill="#262626" transform="matrix(0.1 0 0 -0.1 45.0096 250.041)"><use width="100%" height="100%" xlink:href="#ArialMT-8722"></use><use x="58.3984" width="100%" height="100%" xlink:href="#ArialMT-53"></use></g></g></g><g id="xtick_2"><g id="line2d_3"><path d="M81.1467 239.383 81.1467 21.9431" stroke="#CCCCCC" stroke-width="0.8" stroke-linecap="round" fill="none" clip-path="url(#p716647695e)"/></g><g id="line2d_4"></g><g id="text_2"><defs><path d="M32.3281 0 32.3281 17.1406 1.26563 17.1406 1.26563 25.2031 33.9375 71.5781 41.1094 71.5781 41.1094 25.2031 50.7813 25.2031 50.7813 17.1406 41.1094 17.1406 41.1094 0ZM32.3281 25.2031 32.3281 57.4688 9.90625 25.2031Z" id="ArialMT-52"/></defs><g fill="#262626" transform="matrix(0.1 0 0 -0.1 75.446 250.041)"><use width="100%" height="100%" xlink:href="#ArialMT-8722"></use><use x="58.3984" width="100%" height="100%" xlink:href="#ArialMT-52"></use></g></g></g><g id="xtick_3"><g id="line2d_5"><path d="M111.583 239.383 111.583 21.9431" stroke="#CCCCCC" stroke-width="0.8" stroke-linecap="round" fill="none" clip-path="url(#p716647695e)"/></g><g id="line2d_6"></g><g id="text_3"><defs><path d="M4.20313 18.8906 12.9844 20.0625C13.9948 15.0833 15.7135 11.4948 18.1406 9.29688 20.5677 7.09896 23.5208 6 27 6 31.1354 6 34.625 7.43229 37.4688 10.2969 40.3229 13.1615 41.75 16.7135 41.75 20.9531 41.75 24.9844 40.4323 28.3073 37.7969 30.9219 35.1615 33.5469 31.8073 34.8594 27.7344 34.8594 26.0781 34.8594 24.0104 34.5365 21.5313 33.8906L22.5156 41.6094C23.099 41.5365 23.5677 41.5 23.9219 41.5 27.6719 41.5 31.0417 42.474 34.0313 44.4219 37.0313 46.3802 38.5313 49.3958 38.5313 53.4688 38.5313 56.6875 37.4375 59.3542 35.25 61.4688 33.0729 63.5938 30.2604 64.6563 26.8125 64.6563 23.3958 64.6563 20.5469 63.5781 18.2656 61.4219 15.9844 59.276 14.5208 56.0573 13.875 51.7656L5.07813 53.3281C6.15104 59.2135 8.58854 63.776 12.3906 67.0156 16.2031 70.2552 20.9427 71.875 26.6094 71.875 30.5156 71.875 34.1094 71.0365 37.3906 69.3594 40.6823 67.6823 43.1979 65.3958 44.9375 62.5 46.6875 59.6042 47.5625 56.526 47.5625 53.2656 47.5625 50.1823 46.7292 47.3698 45.0625 44.8281 43.4063 42.2865 40.9531 40.2656 37.7031 38.7656 41.9323 37.7969 45.2188 35.7708 47.5625 32.6875 49.9063 29.6146 51.0781 25.7656 51.0781 21.1406 51.0781 14.8906 48.7969 9.59375 44.2344 5.25 39.6823 0.90625 33.9219-1.26563 26.9531-1.26563 20.6719-1.26563 15.4531 0.604167 11.2969 4.34375 7.15104 8.09375 4.78646 12.9427 4.20313 18.8906Z" id="ArialMT-51"/></defs><g fill="#262626" transform="matrix(0.1 0 0 -0.1 105.882 250.041)"><use width="100%" height="100%" xlink:href="#ArialMT-8722"></use><use x="58.3984" width="100%" height="100%" xlink:href="#ArialMT-51"></use></g></g></g><g id="xtick_4"><g id="line2d_7"><path d="M142.019 239.383 142.019 21.9431" stroke="#CCCCCC" stroke-width="0.8" stroke-linecap="round" fill="none" clip-path="url(#p716647695e)"/></g><g id="line2d_8"></g><g id="text_4"><defs><path d="M50.3438 8.45313 50.3438 0 3.03125 0C2.96875 2.11458 3.30729 4.15104 4.04688 6.10938 5.25521 9.32813 7.18229 12.5 9.82813 15.625 12.4844 18.75 16.3229 22.3646 21.3438 26.4688 29.125 32.8438 34.3802 37.8958 37.1094 41.625 39.849 45.3542 41.2188 48.8802 41.2188 52.2031 41.2188 55.6823 39.9688 58.6146 37.4688 61 34.9792 63.3958 31.7344 64.5938 27.7344 64.5938 23.5052 64.5938 20.1198 63.3229 17.5781 60.7813 15.0365 58.25 13.75 54.7396 13.7188 50.25L4.6875 51.1719C5.30208 57.9115 7.625 63.0469 11.6563 66.5781 15.6979 70.1094 21.125 71.875 27.9375 71.875 34.8021 71.875 40.2344 69.9688 44.2344 66.1563 48.2448 62.3542 50.25 57.6354 50.25 52 50.25 49.1354 49.6615 46.3177 48.4844 43.5469 47.3177 40.7865 45.375 37.875 42.6563 34.8125 39.9375 31.75 35.4219 27.5521 29.1094 22.2188 23.8281 17.7917 20.4375 14.7865 18.9375 13.2031 17.4479 11.6302 16.2135 10.0469 15.2344 8.45313Z" id="ArialMT-50"/></defs><g fill="#262626" transform="matrix(0.1 0 0 -0.1 136.319 250.041)"><use width="100%" height="100%" xlink:href="#ArialMT-8722"></use><use x="58.3984" width="100%" height="100%" xlink:href="#ArialMT-50"></use></g></g></g><g id="xtick_5"><g id="line2d_9"><path d="M172.456 239.383 172.456 21.9431" stroke="#CCCCCC" stroke-width="0.8" stroke-linecap="round" fill="none" clip-path="url(#p716647695e)"/></g><g id="line2d_10"></g><g id="text_5"><defs><path d="M37.25 0 28.4688 0 28.4688 56C26.3542 53.9896 23.5781 51.974 20.1406 49.9531 16.7031 47.9323 13.6198 46.4167 10.8906 45.4063L10.8906 53.9063C15.8073 56.2188 20.1042 59.0156 23.7813 62.2969 27.4583 65.5885 30.0625 68.7813 31.5938 71.875L37.25 71.875Z" id="ArialMT-49"/></defs><g fill="#262626" transform="matrix(0.1 0 0 -0.1 166.755 250.041)"><use width="100%" height="100%" xlink:href="#ArialMT-8722"></use><use x="58.3984" width="100%" height="100%" xlink:href="#ArialMT-49"></use></g></g></g><g id="xtick_6"><g id="line2d_11"><path d="M202.892 239.383 202.892 21.9431" stroke="#CCCCCC" stroke-width="0.8" stroke-linecap="round" fill="none" clip-path="url(#p716647695e)"/></g><g id="line2d_12"></g><g id="text_6"><defs><path d="M4.15625 35.2969C4.15625 43.7656 5.02604 50.5781 6.76563 55.7344 8.50521 60.901 11.0885 64.8802 14.5156 67.6719 17.9531 70.474 22.276 71.875 27.4844 71.875 31.3281 71.875 34.6979 71.099 37.5938 69.5469 40.4896 68.0052 42.8802 65.776 44.7656 62.8594 46.6615 59.9531 48.1458 56.4063 49.2188 52.2188 50.2917 48.0417 50.8281 42.401 50.8281 35.2969 50.8281 26.901 49.9635 20.125 48.2344 14.9688 46.5156 9.8125 43.9375 5.82292 40.5 3 37.0729 0.1875 32.7344-1.21875 27.4844-1.21875 20.5885-1.21875 15.1719 1.25521 11.2344 6.20313 6.51563 12.1615 4.15625 21.8594 4.15625 35.2969ZM13.1875 35.2969C13.1875 23.5469 14.5625 15.724 17.3125 11.8281 20.0625 7.94271 23.4531 6 27.4844 6 31.526 6 34.9219 7.95313 37.6719 11.8594 40.4219 15.7656 41.7969 23.5781 41.7969 35.2969 41.7969 47.0885 40.4219 54.9167 37.6719 58.7813 34.9219 62.6563 31.4948 64.5938 27.3906 64.5938 23.3594 64.5938 20.1354 62.8854 17.7188 59.4688 14.6979 55.1146 13.1875 47.0573 13.1875 35.2969Z" id="ArialMT-48"/></defs><g fill="#262626" transform="matrix(0.1 0 0 -0.1 200.112 250.041)"><use width="100%" height="100%" xlink:href="#ArialMT-48"></use></g></g></g><g id="xtick_7"><g id="line2d_13"><path d="M233.329 239.383 233.329 21.9431" stroke="#CCCCCC" stroke-width="0.8" stroke-linecap="round" fill="none" clip-path="url(#p716647695e)"/></g><g id="line2d_14"></g><g id="text_7"><g fill="#262626" transform="matrix(0.1 0 0 -0.1 230.548 250.041)"><use width="100%" height="100%" xlink:href="#ArialMT-49"></use></g></g></g><g id="xtick_8"><g id="line2d_15"><path d="M263.765 239.383 263.765 21.9431" stroke="#CCCCCC" stroke-width="0.8" stroke-linecap="round" fill="none" clip-path="url(#p716647695e)"/></g><g id="line2d_16"></g><g id="text_8"><g fill="#262626" transform="matrix(0.1 0 0 -0.1 260.984 250.041)"><use width="100%" height="100%" xlink:href="#ArialMT-50"></use></g></g></g><g id="xtick_9"><g id="line2d_17"><path d="M294.201 239.383 294.201 21.9431" stroke="#CCCCCC" stroke-width="0.8" stroke-linecap="round" fill="none" clip-path="url(#p716647695e)"/></g><g id="line2d_18"></g><g id="text_9"><g fill="#262626" transform="matrix(0.1 0 0 -0.1 291.421 250.041)"><use width="100%" height="100%" xlink:href="#ArialMT-51"></use></g></g></g><g id="xtick_10"><g id="line2d_19"><path d="M324.638 239.383 324.638 21.9431" stroke="#CCCCCC" stroke-width="0.8" stroke-linecap="round" fill="none" clip-path="url(#p716647695e)"/></g><g id="line2d_20"></g><g id="text_10"><g fill="#262626" transform="matrix(0.1 0 0 -0.1 321.857 250.041)"><use width="100%" height="100%" xlink:href="#ArialMT-52"></use></g></g></g><g id="xtick_11"><g id="line2d_21"><path d="M355.074 239.383 355.074 21.9431" stroke="#CCCCCC" stroke-width="0.8" stroke-linecap="round" fill="none" clip-path="url(#p716647695e)"/></g><g id="line2d_22"></g><g id="text_11"><g fill="#262626" transform="matrix(0.1 0 0 -0.1 352.294 250.041)"><use width="100%" height="100%" xlink:href="#ArialMT-53"></use></g></g></g><g id="text_12"><defs><path d="M9.32813 0 9.32813 71.5781 18.7969 71.5781 18.7969 0Z" id="ArialMT-73"/><path d="M6.59375 0 6.59375 51.8594 14.5 51.8594 14.5 44.4844C18.3125 50.1823 23.8125 53.0313 31 53.0313 34.125 53.0313 37 52.4688 39.625 51.3438 42.25 50.2188 44.2135 48.7448 45.5156 46.9219 46.8177 45.099 47.7292 42.9375 48.25 40.4375 48.5729 38.8021 48.7344 35.9531 48.7344 31.8906L48.7344 0 39.9375 0 39.9375 31.5469C39.9375 35.1302 39.5938 37.8073 38.9063 39.5781 38.2292 41.349 37.0208 42.7604 35.2813 43.8125 33.5417 44.875 31.5 45.4063 29.1563 45.4063 25.4063 45.4063 22.1719 44.2188 19.4531 41.8438 16.7344 39.4688 15.375 34.9635 15.375 28.3281L15.375 0Z" id="ArialMT-110"/><path d="M6.59375-19.875 6.59375 51.8594 14.5938 51.8594 14.5938 45.125C16.4896 47.7604 18.625 49.7344 21 51.0469 23.375 52.3698 26.2552 53.0313 29.6406 53.0313 34.0677 53.0313 37.974 51.8906 41.3594 49.6094 44.7448 47.3281 47.2969 44.1094 49.0156 39.9531 50.7448 35.8073 51.6094 31.2604 51.6094 26.3125 51.6094 21.0104 50.6563 16.2344 48.75 11.9844 46.8542 7.73438 44.0885 4.47917 40.4531 2.21875 36.8281-0.0416667 33.0104-1.17188 29-1.17188 26.0729-1.17188 23.4427-0.552083 21.1094 0.6875 18.7865 1.92708 16.875 3.48958 15.375 5.375L15.375-19.875ZM14.5469 25.6406C14.5469 18.9635 15.8958 14.0313 18.5938 10.8438 21.3021 7.65625 24.5781 6.0625 28.4219 6.0625 32.3281 6.0625 35.6719 7.71354 38.4531 11.0156 41.2344 14.3177 42.625 19.4375 42.625 26.375 42.625 32.9792 41.2656 37.9219 38.5469 41.2031 35.8281 44.4948 32.5833 46.1406 28.8125 46.1406 25.0625 46.1406 21.7448 44.3906 18.8594 40.8906 15.9844 37.3906 14.5469 32.3073 14.5469 25.6406Z" id="ArialMT-112"/><path d="M40.5781 0 40.5781 7.625C36.5365 1.76042 31.0521-1.17188 24.125-1.17188 21.0625-1.17188 18.2031-0.588542 15.5469 0.578125 12.901 1.75521 10.9323 3.22917 9.64063 5 8.35938 6.78125 7.45833 8.95833 6.9375 11.5313 6.57292 13.25 6.39063 15.9844 6.39063 19.7344L6.39063 51.8594 15.1875 51.8594 15.1875 23.0938C15.1875 18.5104 15.3646 15.4167 15.7188 13.8125 16.2708 11.5104 17.4427 9.69792 19.2344 8.375 21.026 7.05208 23.2396 6.39063 25.875 6.39063 28.5104 6.39063 30.9844 7.06771 33.2969 8.42188 35.6094 9.77604 37.2448 11.6146 38.2031 13.9375 39.1719 16.2708 39.6563 19.651 39.6563 24.0781L39.6563 51.8594 48.4375 51.8594 48.4375 0Z" id="ArialMT-117"/><path d="M25.7813 7.85938 27.0469 0.09375C24.5781-0.427083 22.3646-0.6875 20.4063-0.6875 17.2188-0.6875 14.7448-0.182292 12.9844 0.828125 11.2344 1.83854 10 3.16667 9.28125 4.8125 8.5625 6.45833 8.20313 9.91667 8.20313 15.1875L8.20313 45.0156 1.76563 45.0156 1.76563 51.8594 8.20313 51.8594 8.20313 64.7031 16.9375 69.9688 16.9375 51.8594 25.7813 51.8594 25.7813 45.0156 16.9375 45.0156 16.9375 14.7031C16.9375 12.1927 17.0938 10.5781 17.4063 9.85938 17.7188 9.15104 18.224 8.58333 18.9219 8.15625 19.6198 7.72917 20.6198 7.51563 21.9219 7.51563 22.901 7.51563 24.1875 7.63021 25.7813 7.85938Z" id="ArialMT-116"/><path d="" id="ArialMT-32"/><path d="M21 0 1.26563 51.8594 10.5469 51.8594 21.6875 20.7969C22.8854 17.4427 23.9896 13.9635 25 10.3594 25.7813 13.0885 26.8698 16.375 28.2656 20.2188L39.7969 51.8594 48.8281 51.8594 29.2031 0Z" id="ArialMT-118"/><path d="M3.32813 25.9219C3.32813 35.526 5.99479 42.6406 11.3281 47.2656 15.7865 51.1094 21.224 53.0313 27.6406 53.0313 34.7656 53.0313 40.5885 50.6927 45.1094 46.0156 49.6406 41.349 51.9063 34.8958 51.9063 26.6563 51.9063 19.9896 50.9063 14.7396 48.9063 10.9063 46.9063 7.08333 43.9896 4.11458 40.1563 2 36.3333-0.114583 32.1615-1.17188 27.6406-1.17188 20.3802-1.17188 14.5104 1.15625 10.0313 5.8125 5.5625 10.4688 3.32813 17.1719 3.32813 25.9219ZM12.3594 25.9219C12.3594 19.2865 13.8073 14.3177 16.7031 11.0156 19.599 7.71354 23.2448 6.0625 27.6406 6.0625 32.0052 6.0625 35.6354 7.71875 38.5313 11.0313 41.4271 14.3542 42.875 19.4167 42.875 26.2188 42.875 32.6354 41.4167 37.4948 38.5 40.7969 35.5833 44.099 31.9635 45.75 27.6406 45.75 23.2448 45.75 19.599 44.1042 16.7031 40.8125 13.8073 37.5313 12.3594 32.5677 12.3594 25.9219Z" id="ArialMT-111"/><path d="M6.39063 0 6.39063 71.5781 15.1875 71.5781 15.1875 0Z" id="ArialMT-108"/><path d="M40.4375 6.39063C37.1771 3.63021 34.0417 1.67708 31.0313 0.53125 28.0208-0.604167 24.7917-1.17188 21.3438-1.17188 15.6458-1.17188 11.2656 0.21875 8.20313 3 5.14063 5.78125 3.60938 9.33854 3.60938 13.6719 3.60938 16.2135 4.1875 18.5313 5.34375 20.625 6.5 22.7292 8.01563 24.4167 9.89063 25.6875 11.7656 26.9583 13.875 27.9167 16.2188 28.5625 17.9375 29.0208 20.5417 29.4635 24.0313 29.8906 31.125 30.7344 36.349 31.7396 39.7031 32.9063 39.7344 34.1146 39.75 34.8802 39.75 35.2031 39.75 38.7865 38.9167 41.3125 37.25 42.7813 35.0104 44.7604 31.6771 45.75 27.25 45.75 23.1146 45.75 20.0625 45.026 18.0938 43.5781 16.125 42.1302 14.6667 39.5677 13.7188 35.8906L5.125 37.0625C5.90625 40.7396 7.19271 43.7083 8.98438 45.9688 10.776 48.2292 13.3646 49.9688 16.75 51.1875 20.1354 52.4167 24.0573 53.0313 28.5156 53.0313 32.9427 53.0313 36.5365 52.5104 39.2969 51.4688 42.0677 50.4271 44.1042 49.1146 45.4063 47.5313 46.7083 45.9583 47.6198 43.9635 48.1406 41.5469 48.4323 40.0573 48.5781 37.3594 48.5781 33.4531L48.5781 21.7344C48.5781 13.5573 48.7656 8.38542 49.1406 6.21875 49.5156 4.0625 50.2604 1.98958 51.375 0L42.1875 0C41.2813 1.82292 40.6979 3.95313 40.4375 6.39063ZM39.7031 26.0313C36.5052 24.7292 31.7188 23.6198 25.3438 22.7031 21.7292 22.1823 19.1719 21.5938 17.6719 20.9375 16.1823 20.2917 15.026 19.3438 14.2031 18.0938 13.3906 16.8438 12.9844 15.4531 12.9844 13.9219 12.9844 11.5781 13.8698 9.625 15.6406 8.0625 17.4219 6.5 20.0208 5.71875 23.4375 5.71875 26.8229 5.71875 29.8333 6.45833 32.4688 7.9375 35.1042 9.41667 37.0417 11.4427 38.2813 14.0156 39.2292 16.0052 39.7031 18.9323 39.7031 22.7969Z" id="ArialMT-97"/><path d="M4.98438-4.29688 13.5313-5.5625C13.8854-8.19792 14.875-10.1198 16.5-11.3281 18.6875-12.9531 21.6667-13.7656 25.4375-13.7656 29.5104-13.7656 32.651-12.9531 34.8594-11.3281 37.0781-9.70313 38.5781-7.42708 39.3594-4.5 39.8177-2.70833 40.026 1.05208 39.9844 6.78125 36.151 2.26042 31.3698 0 25.6406 0 18.5052 0 12.9844 2.57292 9.07813 7.71875 5.17188 12.8646 3.21875 19.0313 3.21875 26.2188 3.21875 31.1667 4.11458 35.7292 5.90625 39.9063 7.69792 44.0938 10.2917 47.3281 13.6875 49.6094 17.0938 51.8906 21.0938 53.0313 25.6875 53.0313 31.8021 53.0313 36.849 50.5573 40.8281 45.6094L40.8281 51.8594 48.9219 51.8594 48.9219 7.03125C48.9219-1.04167 48.099-6.76042 46.4531-10.125 44.8177-13.5 42.2135-16.1615 38.6406-18.1094 35.0781-20.0677 30.6927-21.0469 25.4844-21.0469 19.3073-21.0469 14.3125-19.6563 10.5-16.875 6.6875-14.0938 4.84896-9.90104 4.98438-4.29688ZM12.25 26.8594C12.25 20.0573 13.599 15.0938 16.2969 11.9688 19.0052 8.84375 22.3958 7.28125 26.4688 7.28125 30.5 7.28125 33.8802 8.83333 36.6094 11.9375 39.349 15.0521 40.7188 19.9271 40.7188 26.5625 40.7188 32.9063 39.3125 37.6875 36.5 40.9063 33.6875 44.1354 30.2917 45.75 26.3125 45.75 22.4063 45.75 19.0833 44.1615 16.3438 40.9844 13.6146 37.8177 12.25 33.1094 12.25 26.8594Z" id="ArialMT-103"/><path d="M42.0938 16.7031 51.1719 15.5781C49.7448 10.276 47.0938 6.15625 43.2188 3.21875 39.3438 0.291667 34.3958-1.17188 28.375-1.17188 20.7917-1.17188 14.776 1.16146 10.3281 5.82813 5.88021 10.5052 3.65625 17.0573 3.65625 25.4844 3.65625 34.2135 5.90104 40.9844 10.3906 45.7969 14.8906 50.6198 20.7188 53.0313 27.875 53.0313 34.8125 53.0313 40.4792 50.6719 44.875 45.9531 49.2708 41.2344 51.4688 34.5938 51.4688 26.0313 51.4688 25.5104 51.4531 24.7292 51.4219 23.6875L12.75 23.6875C13.0729 17.9896 14.6823 13.625 17.5781 10.5938 20.474 7.57292 24.0885 6.0625 28.4219 6.0625 31.6406 6.0625 34.3906 6.90625 36.6719 8.59375 38.9531 10.2917 40.7604 12.9948 42.0938 16.7031ZM13.2344 30.9063 42.1875 30.9063C41.8021 35.2708 40.6979 38.5417 38.875 40.7188 36.0729 44.1042 32.4427 45.7969 27.9844 45.7969 23.9427 45.7969 20.5469 44.4479 17.7969 41.75 15.0469 39.0521 13.526 35.4375 13.2344 30.9063Z" id="ArialMT-101"/><path d="M6.64063 61.4688 6.64063 71.5781 15.4375 71.5781 15.4375 61.4688ZM6.64063 0 6.64063 51.8594 15.4375 51.8594 15.4375 0Z" id="ArialMT-105"/><path d="M3.07813 15.4844 11.7656 16.8438C12.2552 13.3646 13.6146 10.6979 15.8438 8.84375 18.0729 6.98958 21.1927 6.0625 25.2031 6.0625 29.2344 6.0625 32.224 6.88021 34.1719 8.51563 36.1302 10.1615 37.1094 12.0938 37.1094 14.3125 37.1094 16.2917 36.2448 17.8542 34.5156 19 33.3177 19.7813 30.3229 20.7708 25.5313 21.9688 19.0938 23.6042 14.6302 25.0156 12.1406 26.2031 9.65104 27.3906 7.76042 29.0313 6.46875 31.125 5.1875 33.2292 4.54688 35.5521 4.54688 38.0938 4.54688 40.3958 5.07292 42.5313 6.125 44.5 7.1875 46.4792 8.63021 48.1198 10.4531 49.4219 11.8177 50.4219 13.6771 51.2708 16.0313 51.9688 18.3958 52.6771 20.9323 53.0313 23.6406 53.0313 27.7031 53.0313 31.2708 52.4427 34.3438 51.2656 37.4271 50.099 39.6979 48.5104 41.1563 46.5 42.625 44.5 43.6354 41.8281 44.1875 38.4844L35.5938 37.3125C35.2083 39.9792 34.0781 42.0573 32.2031 43.5469 30.3281 45.0469 27.6823 45.7969 24.2656 45.7969 20.2344 45.7969 17.3542 45.1302 15.625 43.7969 13.8958 42.4635 13.0313 40.901 13.0313 39.1094 13.0313 37.974 13.3906 36.9479 14.1094 36.0313 14.8281 35.0938 15.9531 34.3125 17.4844 33.6875 18.3594 33.3646 20.9479 32.6198 25.25 31.4531 31.4688 29.7865 35.8021 28.4219 38.25 27.3594 40.7083 26.3073 42.6354 24.7708 44.0313 22.75 45.4375 20.7396 46.1406 18.2344 46.1406 15.2344 46.1406 12.3073 45.2865 9.54688 43.5781 6.95313 41.8698 4.36979 39.401 2.36979 36.1719 0.953125 32.9531-0.463542 29.3125-1.17188 25.25-1.17188 18.5104-1.17188 13.375 0.229167 9.84375 3.03125 6.3125 5.83333 4.05729 9.98438 3.07813 15.4844Z" id="ArialMT-115"/></defs><g fill="#262626" transform="matrix(0.1 0 0 -0.1 157.312 263.186)"><use width="100%" height="100%" xlink:href="#ArialMT-73"></use><use x="27.7832" width="100%" height="100%" xlink:href="#ArialMT-110"></use><use x="83.3984" width="100%" height="100%" xlink:href="#ArialMT-112"></use><use x="139.014" width="100%" height="100%" xlink:href="#ArialMT-117"></use><use x="194.629" width="100%" height="100%" xlink:href="#ArialMT-116"></use><use x="222.412" width="100%" height="100%" xlink:href="#ArialMT-32"></use><use x="250.195" width="100%" height="100%" xlink:href="#ArialMT-118"></use><use x="300.195" width="100%" height="100%" xlink:href="#ArialMT-111"></use><use x="355.811" width="100%" height="100%" xlink:href="#ArialMT-108"></use><use x="378.027" width="100%" height="100%" xlink:href="#ArialMT-116"></use><use x="405.811" width="100%" height="100%" xlink:href="#ArialMT-97"></use><use x="461.426" width="100%" height="100%" xlink:href="#ArialMT-103"></use><use x="517.041" width="100%" height="100%" xlink:href="#ArialMT-101"></use><use x="572.656" width="100%" height="100%" xlink:href="#ArialMT-32"></use><use x="600.439" width="100%" height="100%" xlink:href="#ArialMT-105"></use><use x="622.656" width="100%" height="100%" xlink:href="#ArialMT-110"></use><use x="678.271" width="100%" height="100%" xlink:href="#ArialMT-32"></use><use x="706.055" width="100%" height="100%" xlink:href="#ArialMT-118"></use><use x="756.055" width="100%" height="100%" xlink:href="#ArialMT-111"></use><use x="811.67" width="100%" height="100%" xlink:href="#ArialMT-108"></use><use x="833.887" width="100%" height="100%" xlink:href="#ArialMT-116"></use><use x="861.67" width="100%" height="100%" xlink:href="#ArialMT-115"></use></g></g></g><g id="matplotlib.axis_2"><g id="ytick_1"><g id="line2d_23"><path d="M35.4922 229.494 370.292 229.494" stroke="#CCCCCC" stroke-width="0.8" stroke-linecap="round" fill="none" clip-path="url(#p716647695e)"/></g><g id="line2d_24"></g><g id="text_13"><g fill="#262626" transform="matrix(0.1 0 0 -0.1 20.5906 233.073)"><use width="100%" height="100%" xlink:href="#ArialMT-8722"></use><use x="58.3984" width="100%" height="100%" xlink:href="#ArialMT-53"></use></g></g></g><g id="ytick_2"><g id="line2d_25"><path d="M35.4922 210.84 370.292 210.84" stroke="#CCCCCC" stroke-width="0.8" stroke-linecap="round" fill="none" clip-path="url(#p716647695e)"/></g><g id="line2d_26"></g><g id="text_14"><g fill="#262626" transform="matrix(0.1 0 0 -0.1 20.5906 214.419)"><use width="100%" height="100%" xlink:href="#ArialMT-8722"></use><use x="58.3984" width="100%" height="100%" xlink:href="#ArialMT-52"></use></g></g></g><g id="ytick_3"><g id="line2d_27"><path d="M35.4922 192.186 370.292 192.186" stroke="#CCCCCC" stroke-width="0.8" stroke-linecap="round" fill="none" clip-path="url(#p716647695e)"/></g><g id="line2d_28"></g><g id="text_15"><g fill="#262626" transform="matrix(0.1 0 0 -0.1 20.5906 195.765)"><use width="100%" height="100%" xlink:href="#ArialMT-8722"></use><use x="58.3984" width="100%" height="100%" xlink:href="#ArialMT-51"></use></g></g></g><g id="ytick_4"><g id="line2d_29"><path d="M35.4922 173.532 370.292 173.532" stroke="#CCCCCC" stroke-width="0.8" stroke-linecap="round" fill="none" clip-path="url(#p716647695e)"/></g><g id="line2d_30"></g><g id="text_16"><g fill="#262626" transform="matrix(0.1 0 0 -0.1 20.5906 177.111)"><use width="100%" height="100%" xlink:href="#ArialMT-8722"></use><use x="58.3984" width="100%" height="100%" xlink:href="#ArialMT-50"></use></g></g></g><g id="ytick_5"><g id="line2d_31"><path d="M35.4922 154.878 370.292 154.878" stroke="#CCCCCC" stroke-width="0.8" stroke-linecap="round" fill="none" clip-path="url(#p716647695e)"/></g><g id="line2d_32"></g><g id="text_17"><g fill="#262626" transform="matrix(0.1 0 0 -0.1 20.5906 158.457)"><use width="100%" height="100%" xlink:href="#ArialMT-8722"></use><use x="58.3984" width="100%" height="100%" xlink:href="#ArialMT-49"></use></g></g></g><g id="ytick_6"><g id="line2d_33"><path d="M35.4922 136.224 370.292 136.224" stroke="#CCCCCC" stroke-width="0.8" stroke-linecap="round" fill="none" clip-path="url(#p716647695e)"/></g><g id="line2d_34"></g><g id="text_18"><g fill="#262626" transform="matrix(0.1 0 0 -0.1 26.4312 139.803)"><use width="100%" height="100%" xlink:href="#ArialMT-48"></use></g></g></g><g id="ytick_7"><g id="line2d_35"><path d="M35.4922 117.569 370.292 117.569" stroke="#CCCCCC" stroke-width="0.8" stroke-linecap="round" fill="none" clip-path="url(#p716647695e)"/></g><g id="line2d_36"></g><g id="text_19"><g fill="#262626" transform="matrix(0.1 0 0 -0.1 26.4312 121.148)"><use width="100%" height="100%" xlink:href="#ArialMT-49"></use></g></g></g><g id="ytick_8"><g id="line2d_37"><path d="M35.4922 98.9153 370.292 98.9153" stroke="#CCCCCC" stroke-width="0.8" stroke-linecap="round" fill="none" clip-path="url(#p716647695e)"/></g><g id="line2d_38"></g><g id="text_20"><g fill="#262626" transform="matrix(0.1 0 0 -0.1 26.4312 102.494)"><use width="100%" height="100%" xlink:href="#ArialMT-50"></use></g></g></g><g id="ytick_9"><g id="line2d_39"><path d="M35.4922 80.2611 370.292 80.2611" stroke="#CCCCCC" stroke-width="0.8" stroke-linecap="round" fill="none" clip-path="url(#p716647695e)"/></g><g id="line2d_40"></g><g id="text_21"><g fill="#262626" transform="matrix(0.1 0 0 -0.1 26.4312 83.8401)"><use width="100%" height="100%" xlink:href="#ArialMT-51"></use></g></g></g><g id="ytick_10"><g id="line2d_41"><path d="M35.4922 61.607 370.292 61.607" stroke="#CCCCCC" stroke-width="0.8" stroke-linecap="round" fill="none" clip-path="url(#p716647695e)"/></g><g id="line2d_42"></g><g id="text_22"><g fill="#262626" transform="matrix(0.1 0 0 -0.1 26.4312 65.1859)"><use width="100%" height="100%" xlink:href="#ArialMT-52"></use></g></g></g><g id="ytick_11"><g id="line2d_43"><path d="M35.4922 42.9528 370.292 42.9528" stroke="#CCCCCC" stroke-width="0.8" stroke-linecap="round" fill="none" clip-path="url(#p716647695e)"/></g><g id="line2d_44"></g><g id="text_23"><g fill="#262626" transform="matrix(0.1 0 0 -0.1 26.4312 46.5317)"><use width="100%" height="100%" xlink:href="#ArialMT-53"></use></g></g></g><g id="ytick_12"><g id="line2d_45"><path d="M35.4922 24.2987 370.292 24.2987" stroke="#CCCCCC" stroke-width="0.8" stroke-linecap="round" fill="none" clip-path="url(#p716647695e)"/></g><g id="line2d_46"></g><g id="text_24"><defs><path d="M49.75 54.0469 41.0156 53.375C40.2344 56.8229 39.1302 59.3281 37.7031 60.8906 35.3177 63.401 32.3854 64.6563 28.9063 64.6563 26.1042 64.6563 23.6458 63.875 21.5313 62.3125 18.7708 60.2917 16.5885 57.3438 14.9844 53.4688 13.3906 49.5938 12.5625 44.0781 12.5 36.9219 14.6146 40.1406 17.2031 42.5313 20.2656 44.0938 23.3281 45.6563 26.5365 46.4375 29.8906 46.4375 35.7448 46.4375 40.7292 44.2813 44.8438 39.9688 48.9688 35.6563 51.0313 30.0833 51.0313 23.25 51.0313 18.75 50.0625 14.5729 48.125 10.7188 46.1875 6.86458 43.526 3.91146 40.1406 1.85938 36.7552-0.192708 32.9115-1.21875 28.6094-1.21875 21.2865-1.21875 15.3125 1.47396 10.6875 6.85938 6.07292 12.2448 3.76563 21.125 3.76563 33.5 3.76563 47.3333 6.31771 57.3906 11.4219 63.6719 15.8802 69.1406 21.8854 71.875 29.4375 71.875 35.0729 71.875 39.6875 70.2969 43.2813 67.1406 46.8854 63.9844 49.0417 59.6198 49.75 54.0469ZM13.875 23.1875C13.875 20.1667 14.5156 17.2708 15.7969 14.5 17.0781 11.7396 18.875 9.63021 21.1875 8.17188 23.5 6.72396 25.9271 6 28.4688 6 32.1771 6 35.3646 7.49479 38.0313 10.4844 40.7083 13.4844 42.0469 17.5573 42.0469 22.7031 42.0469 27.651 40.724 31.5469 38.0781 34.3906 35.4427 37.2448 32.125 38.6719 28.125 38.6719 24.1563 38.6719 20.7865 37.2448 18.0156 34.3906 15.2552 31.5469 13.875 27.8125 13.875 23.1875Z" id="ArialMT-54"/></defs><g fill="#262626" transform="matrix(0.1 0 0 -0.1 26.4312 27.8776)"><use width="100%" height="100%" xlink:href="#ArialMT-54"></use></g></g></g><g id="text_25"><defs><path d="M4.82813 34.8594C4.82813 46.7448 8.01563 56.0469 14.3906 62.7656 20.776 69.4948 29.0156 72.8594 39.1094 72.8594 45.724 72.8594 51.6823 71.276 56.9844 68.1094 62.2865 64.9531 66.3281 60.5521 69.1094 54.9063 71.901 49.2604 73.2969 42.8542 73.2969 35.6875 73.2969 28.4375 71.8281 21.9479 68.8906 16.2188 65.9635 10.4896 61.8125 6.15104 56.4375 3.20313 51.0729 0.255208 45.2813-1.21875 39.0625-1.21875 32.3229-1.21875 26.2969 0.40625 20.9844 3.65625 15.6823 6.91667 11.6615 11.3594 8.92188 16.9844 6.19271 22.6198 4.82813 28.5781 4.82813 34.8594ZM14.5938 34.7188C14.5938 26.0938 16.9115 19.2969 21.5469 14.3281 26.1927 9.36979 32.0156 6.89063 39.0156 6.89063 46.1406 6.89063 52.0052 9.39583 56.6094 14.4063 61.224 19.4167 63.5313 26.5313 63.5313 35.75 63.5313 41.5729 62.5469 46.6563 60.5781 51 58.6094 55.3438 55.724 58.7135 51.9219 61.1094 48.1302 63.5052 43.875 64.7031 39.1563 64.7031 32.4583 64.7031 26.6875 62.3958 21.8438 57.7813 17.0104 53.1771 14.5938 45.4896 14.5938 34.7188Z" id="ArialMT-79"/></defs><g fill="#262626" transform="matrix(6.12323e-18 -0.1 -0.1 -6.12323e-18 14.4859 180.133)"><use width="100%" height="100%" xlink:href="#ArialMT-79"></use><use x="77.7832" width="100%" height="100%" xlink:href="#ArialMT-117"></use><use x="133.398" width="100%" height="100%" xlink:href="#ArialMT-116"></use><use x="161.182" width="100%" height="100%" xlink:href="#ArialMT-112"></use><use x="216.797" width="100%" height="100%" xlink:href="#ArialMT-117"></use><use x="272.412" width="100%" height="100%" xlink:href="#ArialMT-116"></use><use x="300.195" width="100%" height="100%" xlink:href="#ArialMT-32"></use><use x="327.979" width="100%" height="100%" xlink:href="#ArialMT-118"></use><use x="377.979" width="100%" height="100%" xlink:href="#ArialMT-111"></use><use x="433.594" width="100%" height="100%" xlink:href="#ArialMT-108"></use><use x="455.811" width="100%" height="100%" xlink:href="#ArialMT-116"></use><use x="483.594" width="100%" height="100%" xlink:href="#ArialMT-97"></use><use x="539.209" width="100%" height="100%" xlink:href="#ArialMT-103"></use><use x="594.824" width="100%" height="100%" xlink:href="#ArialMT-101"></use><use x="650.439" width="100%" height="100%" xlink:href="#ArialMT-32"></use><use x="678.223" width="100%" height="100%" xlink:href="#ArialMT-105"></use><use x="700.439" width="100%" height="100%" xlink:href="#ArialMT-110"></use><use x="756.055" width="100%" height="100%" xlink:href="#ArialMT-32"></use><use x="783.838" width="100%" height="100%" xlink:href="#ArialMT-118"></use><use x="833.838" width="100%" height="100%" xlink:href="#ArialMT-111"></use><use x="889.453" width="100%" height="100%" xlink:href="#ArialMT-108"></use><use x="911.67" width="100%" height="100%" xlink:href="#ArialMT-116"></use><use x="939.453" width="100%" height="100%" xlink:href="#ArialMT-115"></use></g></g></g><g id="line2d_47"><path d="M50.7104 31.8443 89.392 31.9077 93.4638 32.2146 96.5176 32.6569 99.5714 33.3017 102.625 34.1658 105.679 35.2866 108.733 36.689 111.787 38.341 114.84 40.2075 117.894 42.2819 120.948 44.5732 124.002 47.122 127.056 49.9543 131.128 54.0988 137.235 60.4309 140.289 63.5347 142.325 65.8922 144.361 68.6019 154.54 83.2125 160.648 92.4787 165.737 100.002 169.809 105.547 173.881 110.65 177.953 115.331 182.024 119.608 186.096 123.498 190.168 127.019 194.24 130.191 198.311 133.03 202.383 135.556 206.455 137.793 211.545 140.29 228.85 148.42 232.921 150.73 235.975 152.672 239.029 154.834 242.083 157.249 245.137 159.945 249.208 163.912 254.298 168.817 258.37 172.73 265.495 179.818 271.603 185.482 277.711 191.431 291.962 204.421 296.034 207.895 300.105 211.078 305.195 214.674 314.356 220.981 318.428 223.273 322.5 225.354 325.554 226.702 328.608 227.79 331.661 228.588 334.715 229.098 337.769 229.371 341.841 229.488 355.074 229.494 355.074 229.494" stroke="#20B2AA" stroke-width="3" stroke-linecap="round" fill="none" clip-path="url(#p716647695e)"/></g><g id="line2d_48"><path d="M50.7104 61.9801 71.0691 61.9917 90.41 62.1017 94.4817 62.4552 97.5355 62.9354 100.589 63.6357 103.643 64.5668 106.697 65.7382 109.751 67.1594 112.805 68.8394 115.858 70.7713 118.912 72.9273 122.984 76.1003 127.056 79.5509 132.145 84.1903 136.217 88.1958 140.289 92.5051 144.361 97.1551 148.432 102.138 153.522 108.766 159.63 117.178 164.719 124.119 167.773 127.9 169.809 130.117 171.845 132.003 173.881 133.488 175.917 134.583 177.953 135.345 179.989 135.833 182.024 136.106 185.078 136.24 207.473 136.354 211.545 136.691 214.598 137.18 217.652 137.946 220.706 139.044 223.76 140.459 226.814 142.149 229.868 144.073 233.939 146.93 240.047 151.58 248.19 157.94 252.262 161.457 258.37 167.127 267.531 175.689 274.657 181.979 281.782 187.988 287.89 192.893 292.98 196.721 298.069 200.244 303.159 203.44 307.231 205.762 311.303 207.872 315.374 209.739 318.428 210.937 321.482 211.929 324.536 212.685 327.59 213.186 330.643 213.466 334.715 213.577 339.805 213.454 348.966 213.164 353.038 213.283 355.074 213.452 355.074 213.452" stroke="#DAA520" stroke-width="3" stroke-linecap="round" fill="none" clip-path="url(#p716647695e)"/></g><g id="patch_3"><path d="M35.4922 239.383 35.4922 21.9431" stroke="#CCCCCC" stroke-linecap="square" stroke-linejoin="miter" fill="none"/></g><g id="patch_4"><path d="M370.292 239.383 370.292 21.9431" stroke="#CCCCCC" stroke-linecap="square" stroke-linejoin="miter" fill="none"/></g><g id="patch_5"><path d="M35.4922 239.383 370.292 239.383" stroke="#CCCCCC" stroke-linecap="square" stroke-linejoin="miter" fill="none"/></g><g id="patch_6"><path d="M35.4922 21.9431 370.292 21.9431" stroke="#CCCCCC" stroke-linecap="square" stroke-linejoin="miter" fill="none"/></g><g id="text_26"><defs><path d="M58.7969 25.0938 68.2656 22.7031C66.276 14.9219 62.7031 8.98958 57.5469 4.90625 52.3906 0.822917 46.0833-1.21875 38.625-1.21875 30.9063-1.21875 24.6302 0.348958 19.7969 3.48438 14.9635 6.63021 11.2865 11.1823 8.76563 17.1406 6.24479 23.099 4.98438 29.4948 4.98438 36.3281 4.98438 43.7865 6.40625 50.2865 9.25 55.8281 12.1042 61.3802 16.1563 65.5938 21.4063 68.4688 26.6667 71.3542 32.4531 72.7969 38.7656 72.7969 45.9323 72.7969 51.9531 70.974 56.8281 67.3281 61.7135 63.6823 65.1198 58.5573 67.0469 51.9531L57.7188 49.75C56.0521 54.9583 53.6406 58.75 50.4844 61.125 47.3281 63.5104 43.3594 64.7031 38.5781 64.7031 33.0781 64.7031 28.4792 63.3802 24.7813 60.7344 21.0833 58.099 18.4844 54.5573 16.9844 50.1094 15.4948 45.6719 14.75 41.0938 14.75 36.375 14.75 30.2917 15.6354 24.9792 17.4063 20.4375 19.1771 15.8958 21.9323 12.5 25.6719 10.25 29.4219 8.01042 33.4792 6.89063 37.8438 6.89063 43.1458 6.89063 47.6354 8.41667 51.3125 11.4688 55 14.5313 57.4948 19.0729 58.7969 25.0938Z" id="ArialMT-67"/><path d="M7.42188 0 7.42188 71.5781 21.6875 71.5781 38.625 20.9063C40.1875 16.1771 41.3281 12.6406 42.0469 10.2969 42.8594 12.901 44.125 16.7292 45.8438 21.7813L62.9844 71.5781 75.7344 71.5781 75.7344 0 66.6094 0 66.6094 59.9063 45.7969 0 37.25 0 16.5469 60.9375 16.5469 0Z" id="ArialMT-77"/><path d="M4.5 23 13.4219 23.7813C13.849 20.1979 14.8333 17.2604 16.375 14.9688 17.9271 12.6771 20.3281 10.8229 23.5781 9.40625 26.8385 7.98958 30.5052 7.28125 34.5781 7.28125 38.1823 7.28125 41.3698 7.81771 44.1406 8.89063 46.9115 9.96354 48.9688 11.4323 50.3125 13.2969 51.6667 15.1719 52.3438 17.2188 52.3438 19.4375 52.3438 21.6771 51.6927 23.6354 50.3906 25.3125 49.0885 26.9896 46.9427 28.401 43.9531 29.5469 42.026 30.2969 37.776 31.4583 31.2031 33.0313 24.6302 34.6146 20.026 36.1042 17.3906 37.5 13.9635 39.2917 11.4115 41.5104 9.73438 44.1563 8.06771 46.8125 7.23438 49.7865 7.23438 53.0781 7.23438 56.6927 8.25521 60.0677 10.2969 63.2031 12.349 66.349 15.3438 68.7344 19.2813 70.3594 23.2292 71.9844 27.6094 72.7969 32.4219 72.7969 37.724 72.7969 42.401 71.9427 46.4531 70.2344 50.5156 68.526 53.6354 66.0104 55.8125 62.6875 57.9896 59.375 59.1615 55.6198 59.3281 51.4219L50.25 50.7344C49.7604 55.2552 48.1042 58.6719 45.2813 60.9844 42.4688 63.2969 38.3125 64.4531 32.8125 64.4531 27.0833 64.4531 22.9063 63.401 20.2813 61.2969 17.6667 59.2031 16.3594 56.6771 16.3594 53.7188 16.3594 51.1458 17.2865 49.026 19.1406 47.3594 20.9635 45.7031 25.724 44.0052 33.4219 42.2656 41.1198 40.526 46.401 39.0052 49.2656 37.7031 53.4323 35.776 56.5052 33.3385 58.4844 30.3906 60.474 27.4531 61.4688 24.0625 61.4688 20.2188 61.4688 16.4063 60.3802 12.8125 58.2031 9.4375 56.026 6.07292 52.8906 3.45313 48.7969 1.57813 44.7135-0.286458 40.1198-1.21875 35.0156-1.21875 28.5365-1.21875 23.1042-0.276042 18.7188 1.60938 14.3438 3.49479 10.9115 6.33333 8.42188 10.125 5.93229 13.9271 4.625 18.2188 4.5 23Z" id="ArialMT-83"/><path d="M6.5 0 6.5 51.8594 14.4063 51.8594 14.4063 44C16.4271 47.6771 18.2917 50.099 20 51.2656 21.7083 52.4427 23.5885 53.0313 25.6406 53.0313 28.599 53.0313 31.6094 52.0885 34.6719 50.2031L31.6406 42.0469C29.4948 43.3177 27.349 43.9531 25.2031 43.9531 23.276 43.9531 21.5469 43.375 20.0156 42.2188 18.4844 41.0625 17.3958 39.4583 16.75 37.4063 15.7708 34.2813 15.2813 30.8646 15.2813 27.1563L15.2813 0Z" id="ArialMT-114"/><path d="M0-1.21875 20.75 72.7969 27.7813 72.7969 7.07813-1.21875Z" id="ArialMT-47"/><path d="M40.4375 19 49.0781 17.875C48.1302 11.9167 45.7083 7.25 41.8125 3.875 37.9271 0.510417 33.151-1.17188 27.4844-1.17188 20.3906-1.17188 14.6875 1.14583 10.375 5.78125 6.0625 10.4271 3.90625 17.0781 3.90625 25.7344 3.90625 31.3281 4.83333 36.224 6.6875 40.4219 8.54167 44.6302 11.3646 47.7813 15.1563 49.875 18.9479 51.9792 23.0781 53.0313 27.5469 53.0313 33.1719 53.0313 37.776 51.6042 41.3594 48.75 44.9427 45.9063 47.2396 41.8646 48.25 36.625L39.7031 35.2969C38.8906 38.7865 37.4479 41.4063 35.375 43.1563 33.3125 44.9167 30.8125 45.7969 27.875 45.7969 23.4479 45.7969 19.849 44.2083 17.0781 41.0313 14.3177 37.8646 12.9375 32.849 12.9375 25.9844 12.9375 19.0156 14.2708 13.9531 16.9375 10.7969 19.6146 7.64063 23.099 6.0625 27.3906 6.0625 30.8385 6.0625 33.7188 7.11979 36.0313 9.23438 38.3438 11.349 39.8125 14.6042 40.4375 19Z" id="ArialMT-99"/><path d="M6.59375 0 6.59375 71.5781 15.375 71.5781 15.375 45.9063C19.4792 50.6563 24.6563 53.0313 30.9063 53.0313 34.75 53.0313 38.0885 52.2708 40.9219 50.75 43.7552 49.2396 45.7813 47.151 47 44.4844 48.2188 41.8177 48.8281 37.9427 48.8281 32.8594L48.8281 0 40.0469 0 40.0469 32.8594C40.0469 37.2552 39.0938 40.4531 37.1875 42.4531 35.2813 44.4531 32.5885 45.4531 29.1094 45.4531 26.5052 45.4531 24.0521 44.776 21.75 43.4219 19.4583 42.0781 17.8229 40.25 16.8438 37.9375 15.8646 35.625 15.375 32.4375 15.375 28.375L15.375 0Z" id="ArialMT-104"/></defs><g fill="#262626" transform="matrix(0.12 0 0 -0.12 100.189 15.9431)"><use width="100%" height="100%" xlink:href="#ArialMT-67"></use><use x="72.2168" width="100%" height="100%" xlink:href="#ArialMT-77"></use><use x="155.518" width="100%" height="100%" xlink:href="#ArialMT-79"></use><use x="233.301" width="100%" height="100%" xlink:href="#ArialMT-83"></use><use x="300" width="100%" height="100%" xlink:href="#ArialMT-32"></use><use x="327.783" width="100%" height="100%" xlink:href="#ArialMT-112"></use><use x="383.398" width="100%" height="100%" xlink:href="#ArialMT-97"></use><use x="439.014" width="100%" height="100%" xlink:href="#ArialMT-105"></use><use x="461.23" width="100%" height="100%" xlink:href="#ArialMT-114"></use><use x="494.531" width="100%" height="100%" xlink:href="#ArialMT-32"></use><use x="522.314" width="100%" height="100%" xlink:href="#ArialMT-105"></use><use x="544.531" width="100%" height="100%" xlink:href="#ArialMT-110"></use><use x="600.146" width="100%" height="100%" xlink:href="#ArialMT-112"></use><use x="655.762" width="100%" height="100%" xlink:href="#ArialMT-117"></use><use x="711.377" width="100%" height="100%" xlink:href="#ArialMT-116"></use><use x="739.16" width="100%" height="100%" xlink:href="#ArialMT-47"></use><use x="766.943" width="100%" height="100%" xlink:href="#ArialMT-111"></use><use x="822.559" width="100%" height="100%" xlink:href="#ArialMT-117"></use><use x="878.174" width="100%" height="100%" xlink:href="#ArialMT-116"></use><use x="905.957" width="100%" height="100%" xlink:href="#ArialMT-112"></use><use x="961.572" width="100%" height="100%" xlink:href="#ArialMT-117"></use><use x="1017.19" width="100%" height="100%" xlink:href="#ArialMT-116"></use><use x="1044.97" width="100%" height="100%" xlink:href="#ArialMT-32"></use><use x="1072.75" width="100%" height="100%" xlink:href="#ArialMT-99"></use><use x="1122.75" width="100%" height="100%" xlink:href="#ArialMT-104"></use><use x="1178.37" width="100%" height="100%" xlink:href="#ArialMT-97"></use><use x="1233.98" width="100%" height="100%" xlink:href="#ArialMT-114"></use><use x="1267.29" width="100%" height="100%" xlink:href="#ArialMT-97"></use><use x="1322.9" width="100%" height="100%" xlink:href="#ArialMT-99"></use><use x="1372.9" width="100%" height="100%" xlink:href="#ArialMT-116"></use><use x="1400.68" width="100%" height="100%" xlink:href="#ArialMT-101"></use><use x="1456.3" width="100%" height="100%" xlink:href="#ArialMT-114"></use><use x="1489.6" width="100%" height="100%" xlink:href="#ArialMT-105"></use><use x="1511.82" width="100%" height="100%" xlink:href="#ArialMT-115"></use><use x="1561.82" width="100%" height="100%" xlink:href="#ArialMT-116"></use><use x="1589.6" width="100%" height="100%" xlink:href="#ArialMT-105"></use><use x="1611.82" width="100%" height="100%" xlink:href="#ArialMT-99"></use><use x="1661.82" width="100%" height="100%" xlink:href="#ArialMT-115"></use></g></g><g id="legend_1"><g id="line2d_49"><path d="M234.363 34.7228 254.363 34.7228" stroke="#20B2AA" stroke-width="3" stroke-linecap="round" fill="none"/></g><g id="line2d_50"></g><g id="text_27"><defs><path d="M20.2188 0 1.21875 71.5781 10.9375 71.5781 21.8281 24.6563C22.9948 19.7396 24.0052 14.8594 24.8594 10.0156 26.6823 17.6615 27.7552 22.0729 28.0781 23.25L41.7031 71.5781 53.125 71.5781 63.375 35.3594C65.9479 26.3698 67.8073 17.9219 68.9531 10.0156 69.8594 14.5365 71.0469 19.7292 72.5156 25.5938L83.7344 71.5781 93.2656 71.5781 73.6406 0 64.5 0 49.4219 54.5469C48.151 59.099 47.401 61.8958 47.1719 62.9375 46.4219 59.6563 45.7188 56.8594 45.0625 54.5469L29.8906 0Z" id="ArialMT-87"/><path d="M8.6875 0 8.6875 45.0156 0.921875 45.0156 0.921875 51.8594 8.6875 51.8594 8.6875 57.375C8.6875 60.8542 9 63.4427 9.625 65.1406 10.4688 67.4219 11.9531 69.2656 14.0781 70.6719 16.2135 72.0885 19.2031 72.7969 23.0469 72.7969 25.526 72.7969 28.2604 72.5052 31.25 71.9219L29.9375 64.2656C28.1146 64.5885 26.3854 64.75 24.75 64.75 22.0833 64.75 20.1979 64.1771 19.0938 63.0313 17.9896 61.8958 17.4375 59.7656 17.4375 56.6406L17.4375 51.8594 27.5469 51.8594 27.5469 45.0156 17.4375 45.0156 17.4375 0Z" id="ArialMT-102"/></defs><g fill="#262626" transform="matrix(0.1 0 0 -0.1 262.363 38.2228)"><use width="100%" height="100%" xlink:href="#ArialMT-87"></use><use x="94.3848" width="100%" height="100%" xlink:href="#ArialMT-105"></use><use x="116.602" width="100%" height="100%" xlink:href="#ArialMT-116"></use><use x="144.385" width="100%" height="100%" xlink:href="#ArialMT-104"></use><use x="200" width="100%" height="100%" xlink:href="#ArialMT-111"></use><use x="255.615" width="100%" height="100%" xlink:href="#ArialMT-117"></use><use x="311.23" width="100%" height="100%" xlink:href="#ArialMT-116"></use><use x="339.014" width="100%" height="100%" xlink:href="#ArialMT-32"></use><use x="366.797" width="100%" height="100%" xlink:href="#ArialMT-118"></use><use x="416.797" width="100%" height="100%" xlink:href="#ArialMT-111"></use><use x="472.412" width="100%" height="100%" xlink:href="#ArialMT-108"></use><use x="494.629" width="100%" height="100%" xlink:href="#ArialMT-116"></use><use x="522.412" width="100%" height="100%" xlink:href="#ArialMT-97"></use><use x="578.027" width="100%" height="100%" xlink:href="#ArialMT-103"></use><use x="633.643" width="100%" height="100%" xlink:href="#ArialMT-101"></use><use x="689.258" width="100%" height="100%" xlink:href="#ArialMT-32"></use><use x="717.041" width="100%" height="100%" xlink:href="#ArialMT-115"></use><use x="767.041" width="100%" height="100%" xlink:href="#ArialMT-104"></use><use x="822.656" width="100%" height="100%" xlink:href="#ArialMT-105"></use><use x="844.873" width="100%" height="100%" xlink:href="#ArialMT-102"></use><use x="872.656" width="100%" height="100%" xlink:href="#ArialMT-116"></use><use x="900.439" width="100%" height="100%" xlink:href="#ArialMT-101"></use><use x="956.055" width="100%" height="100%" xlink:href="#ArialMT-114"></use></g></g><g id="line2d_51"><path d="M234.363 49.1072 254.363 49.1072" stroke="#DAA520" stroke-width="3" stroke-linecap="round" fill="none"/></g><g id="line2d_52"></g><g id="text_28"><g fill="#262626" transform="matrix(0.1 0 0 -0.1 262.363 52.6072)"><use width="100%" height="100%" xlink:href="#ArialMT-87"></use><use x="94.3848" width="100%" height="100%" xlink:href="#ArialMT-105"></use><use x="116.602" width="100%" height="100%" xlink:href="#ArialMT-116"></use><use x="144.385" width="100%" height="100%" xlink:href="#ArialMT-104"></use><use x="200" width="100%" height="100%" xlink:href="#ArialMT-32"></use><use x="227.783" width="100%" height="100%" xlink:href="#ArialMT-118"></use><use x="277.783" width="100%" height="100%" xlink:href="#ArialMT-111"></use><use x="333.398" width="100%" height="100%" xlink:href="#ArialMT-108"></use><use x="355.615" width="100%" height="100%" xlink:href="#ArialMT-116"></use><use x="383.398" width="100%" height="100%" xlink:href="#ArialMT-97"></use><use x="439.014" width="100%" height="100%" xlink:href="#ArialMT-103"></use><use x="494.629" width="100%" height="100%" xlink:href="#ArialMT-101"></use><use x="550.244" width="100%" height="100%" xlink:href="#ArialMT-32"></use><use x="578.027" width="100%" height="100%" xlink:href="#ArialMT-115"></use><use x="628.027" width="100%" height="100%" xlink:href="#ArialMT-104"></use><use x="683.643" width="100%" height="100%" xlink:href="#ArialMT-105"></use><use x="705.859" width="100%" height="100%" xlink:href="#ArialMT-102"></use><use x="733.643" width="100%" height="100%" xlink:href="#ArialMT-116"></use><use x="761.426" width="100%" height="100%" xlink:href="#ArialMT-101"></use><use x="817.041" width="100%" height="100%" xlink:href="#ArialMT-114"></use></g></g></g></g></g></svg>